<svg xmlns="http://www.w3.org/2000/svg" xmlns:xlink="http://www.w3.org/1999/xlink" viewBox="0 0 657.51 321.55"><defs><style>.cls-1{fill:none;}.cls-2{fill:#fff;}.cls-3{fill:#231d24;}.cls-4{fill:#fb8500;}.cls-5{fill:#4d5eff;}.cls-6{fill:#fcf34c;}.cls-7{clip-path:url(#clip-path);}</style><clipPath id="clip-path"><circle class="cls-1" cx="317.96" cy="156.02" r="57.28" transform="translate(-17.19 270.53) rotate(-45)"/></clipPath></defs><title>Asset 1mdpi</title><g id="Layer_2" data-name="Layer 2"><g id="Layer_1-2" data-name="Layer 1"><rect class="cls-2" x="538.77" y="89.9" width="21.13" height="21.13"/><path class="cls-3" d="M559.9,89.36H538.77a.54.54,0,0,0-.54.54V111a.54.54,0,0,0,.54.54H559.9a.54.54,0,0,0,.54-.54V89.9A.54.54,0,0,0,559.9,89.36Zm-.54,21.13H539.3V90.43h20.06Z"/><rect class="cls-2" x="538.45" y="131.99" width="21.13" height="21.13"/><path class="cls-3" d="M559.58,131.45H538.45a.54.54,0,0,0-.54.54v21.13a.54.54,0,0,0,.54.54h21.13a.54.54,0,0,0,.54-.54V132A.54.54,0,0,0,559.58,131.45Zm-.53,21.13H539V132.52h20.06Z"/><rect class="cls-2" x="580.3" y="89.82" width="21.13" height="21.13"/><path class="cls-3" d="M601.43,89.28H580.3a.54.54,0,0,0-.54.54V111a.54.54,0,0,0,.54.54h21.13A.54.54,0,0,0,602,111V89.82A.54.54,0,0,0,601.43,89.28Zm-.53,21.13H580.84V90.35H600.9Z"/><rect class="cls-3" x="601.55" y="110.74" width="21.13" height="21.13"/><rect class="cls-4" x="559.52" y="111.02" width="21.13" height="21.13"/><path class="cls-3" d="M559,132.69h22.21V110.48H559Zm1.08-21.13h20.05v20.05H560.06Z"/><rect class="cls-2" x="622.32" y="152.68" width="21.13" height="21.13"/><path class="cls-3" d="M643.46,152.14H622.32a.54.54,0,0,0-.53.54v21.13a.54.54,0,0,0,.53.54h21.14a.54.54,0,0,0,.53-.54V152.68A.54.54,0,0,0,643.46,152.14Zm-.54,21.14H622.86V153.22h20.06Z"/><rect class="cls-2" x="580.74" y="131.65" width="21.13" height="21.13"/><path class="cls-3" d="M601.87,131.11H580.74a.54.54,0,0,0-.54.54v21.13a.54.54,0,0,0,.54.54h21.13a.54.54,0,0,0,.54-.54V131.65A.54.54,0,0,0,601.87,131.11Zm-.53,21.14H581.28V132.19h20.06Z"/><rect class="cls-5" x="462.15" y="27.42" width="132.89" height="39.21" rx="14.15"/><path class="cls-3" d="M580.88,26.88H476.3a14.71,14.71,0,0,0-14.69,14.69V52.48A14.71,14.71,0,0,0,476.3,67.17H580.88a14.71,14.71,0,0,0,14.69-14.69V41.57A14.71,14.71,0,0,0,580.88,26.88Zm13.62,25.6a13.63,13.63,0,0,1-13.62,13.61H476.3a13.62,13.62,0,0,1-13.61-13.61V41.57A13.62,13.62,0,0,1,476.3,28H580.88A13.63,13.63,0,0,1,594.5,41.57Z"/><path class="cls-3" d="M20.5,92.16a1.76,1.76,0,1,0,1.76,1.76A1.75,1.75,0,0,0,20.5,92.16Z"/><path class="cls-3" d="M43.24,92.16A1.76,1.76,0,1,0,45,93.92,1.76,1.76,0,0,0,43.24,92.16Z"/><path class="cls-3" d="M66,92.16a1.76,1.76,0,1,0,1.76,1.76A1.75,1.75,0,0,0,66,92.16Z"/><path class="cls-3" d="M88.71,92.16a1.76,1.76,0,1,0,1.76,1.76A1.76,1.76,0,0,0,88.71,92.16Z"/><path class="cls-3" d="M111.44,92.16a1.76,1.76,0,1,0,1.76,1.76A1.75,1.75,0,0,0,111.44,92.16Z"/><path class="cls-3" d="M32.29,104.53a1.76,1.76,0,1,0,1.76,1.75A1.75,1.75,0,0,0,32.29,104.53Z"/><path class="cls-3" d="M55,104.53a1.76,1.76,0,1,0,1.76,1.75A1.75,1.75,0,0,0,55,104.53Z"/><path class="cls-3" d="M77.61,104.53a1.76,1.76,0,1,0,1.76,1.75A1.75,1.75,0,0,0,77.61,104.53Z"/><path class="cls-3" d="M100.27,104.53a1.76,1.76,0,1,0,1.76,1.75A1.75,1.75,0,0,0,100.27,104.53Z"/><path class="cls-3" d="M20.5,121.38a1.76,1.76,0,1,0,1.76,1.76A1.75,1.75,0,0,0,20.5,121.38Z"/><path class="cls-3" d="M43.24,121.38A1.76,1.76,0,1,0,45,123.14,1.76,1.76,0,0,0,43.24,121.38Z"/><path class="cls-3" d="M66,121.38a1.76,1.76,0,1,0,1.76,1.76A1.75,1.75,0,0,0,66,121.38Z"/><path class="cls-3" d="M88.71,121.38a1.76,1.76,0,1,0,1.76,1.76A1.76,1.76,0,0,0,88.71,121.38Z"/><path class="cls-3" d="M111.44,121.38a1.76,1.76,0,1,0,1.76,1.76A1.75,1.75,0,0,0,111.44,121.38Z"/><path class="cls-3" d="M32.29,133.74a1.76,1.76,0,1,0,1.76,1.76A1.76,1.76,0,0,0,32.29,133.74Z"/><path class="cls-3" d="M55,133.74a1.76,1.76,0,1,0,1.76,1.76A1.76,1.76,0,0,0,55,133.74Z"/><path class="cls-3" d="M77.61,133.74a1.76,1.76,0,1,0,1.76,1.76A1.75,1.75,0,0,0,77.61,133.74Z"/><path class="cls-3" d="M100.27,133.74A1.76,1.76,0,1,0,102,135.5,1.75,1.75,0,0,0,100.27,133.74Z"/><path class="cls-3" d="M20.5,150.6a1.76,1.76,0,1,0,1.76,1.75A1.75,1.75,0,0,0,20.5,150.6Z"/><path class="cls-3" d="M43.24,150.6A1.76,1.76,0,1,0,45,152.35,1.75,1.75,0,0,0,43.24,150.6Z"/><path class="cls-3" d="M66,150.6a1.76,1.76,0,1,0,1.76,1.75A1.75,1.75,0,0,0,66,150.6Z"/><path class="cls-3" d="M88.71,150.6a1.76,1.76,0,1,0,1.76,1.75A1.75,1.75,0,0,0,88.71,150.6Z"/><path class="cls-3" d="M111.44,150.6a1.76,1.76,0,1,0,1.76,1.75A1.75,1.75,0,0,0,111.44,150.6Z"/><path class="cls-3" d="M32.29,163a1.76,1.76,0,1,0,1.76,1.76A1.76,1.76,0,0,0,32.29,163Z"/><path class="cls-3" d="M55,163a1.76,1.76,0,1,0,1.76,1.76A1.76,1.76,0,0,0,55,163Z"/><path class="cls-3" d="M77.61,163a1.76,1.76,0,1,0,1.76,1.76A1.75,1.75,0,0,0,77.61,163Z"/><path class="cls-3" d="M100.27,163a1.76,1.76,0,1,0,1.76,1.76A1.75,1.75,0,0,0,100.27,163Z"/><path class="cls-3" d="M20.5,179.82a1.76,1.76,0,1,0,1.76,1.75A1.75,1.75,0,0,0,20.5,179.82Z"/><path class="cls-3" d="M43.24,179.82A1.76,1.76,0,1,0,45,181.57,1.75,1.75,0,0,0,43.24,179.82Z"/><path class="cls-3" d="M66,179.82a1.76,1.76,0,1,0,1.76,1.75A1.75,1.75,0,0,0,66,179.82Z"/><path class="cls-3" d="M88.71,179.82a1.76,1.76,0,1,0,1.76,1.75A1.75,1.75,0,0,0,88.71,179.82Z"/><path class="cls-3" d="M111.44,179.82a1.76,1.76,0,1,0,1.76,1.75A1.75,1.75,0,0,0,111.44,179.82Z"/><path class="cls-3" d="M32.29,192.18a1.76,1.76,0,1,0,1.76,1.76A1.76,1.76,0,0,0,32.29,192.18Z"/><path class="cls-3" d="M55,192.18a1.76,1.76,0,1,0,1.76,1.76A1.76,1.76,0,0,0,55,192.18Z"/><path class="cls-3" d="M77.61,192.18a1.76,1.76,0,1,0,1.76,1.76A1.75,1.75,0,0,0,77.61,192.18Z"/><path class="cls-3" d="M100.27,192.18a1.76,1.76,0,1,0,1.76,1.76A1.75,1.75,0,0,0,100.27,192.18Z"/><path class="cls-3" d="M20.5,209a1.76,1.76,0,1,0,1.76,1.76A1.75,1.75,0,0,0,20.5,209Z"/><path class="cls-3" d="M43.24,209A1.76,1.76,0,1,0,45,210.79,1.76,1.76,0,0,0,43.24,209Z"/><path class="cls-3" d="M66,209a1.76,1.76,0,1,0,1.76,1.76A1.75,1.75,0,0,0,66,209Z"/><path class="cls-3" d="M88.71,209a1.76,1.76,0,1,0,1.76,1.76A1.76,1.76,0,0,0,88.71,209Z"/><path class="cls-3" d="M111.44,209a1.76,1.76,0,1,0,1.76,1.76A1.75,1.75,0,0,0,111.44,209Z"/><path class="cls-3" d="M32.29,221.4a1.76,1.76,0,1,0,1.76,1.75A1.75,1.75,0,0,0,32.29,221.4Z"/><path class="cls-3" d="M55,221.4a1.76,1.76,0,1,0,1.76,1.75A1.75,1.75,0,0,0,55,221.4Z"/><path class="cls-3" d="M77.61,221.4a1.76,1.76,0,1,0,1.76,1.75A1.75,1.75,0,0,0,77.61,221.4Z"/><path class="cls-3" d="M100.27,221.4a1.76,1.76,0,1,0,1.76,1.75A1.75,1.75,0,0,0,100.27,221.4Z"/><path class="cls-6" d="M492.69,215.18A117.32,117.32,0,0,0,322.22,319.75l234.6,1.12A117.29,117.29,0,0,0,492.69,215.18Z"/><path class="cls-3" d="M492.93,214.7a118,118,0,0,0-158.42,51.6,116.49,116.49,0,0,0-12.83,53.45h1.08a115.3,115.3,0,0,1,12.71-53,116.76,116.76,0,0,1,220.81,54.08h1.07A117.8,117.8,0,0,0,492.93,214.7Z"/><path class="cls-2" d="M405.18,212.34l-7.38-.91a1.22,1.22,0,0,1-.94-1.77l3.42-6.61a1.22,1.22,0,0,0-1.67-1.63l-6.45,3.64a1.22,1.22,0,0,1-1.79-.9l-1.1-7.41a1.2,1.2,0,0,0-2.29-.34l-3.06,6.78a1.18,1.18,0,0,1-1.95.33l-5.21-5.39a1.2,1.2,0,0,0-2,1.08l1.5,7.34a1.19,1.19,0,0,1-1.37,1.43l-7.33-1.31a1.21,1.21,0,0,0-1,2.09l5.49,5.09a1.21,1.21,0,0,1-.27,2l-6.64,3.27a1.22,1.22,0,0,0,.41,2.3l7.38.91a1.22,1.22,0,0,1,.94,1.77l-3.43,6.61a1.22,1.22,0,0,0,1.67,1.63l6.45-3.64a1.22,1.22,0,0,1,1.79.9l1.1,7.41a1.21,1.21,0,0,0,2.3.35l3.05-6.79a1.19,1.19,0,0,1,2-.33l5.21,5.39a1.2,1.2,0,0,0,2-1.08l-1.51-7.34a1.2,1.2,0,0,1,1.38-1.43l7.32,1.31a1.21,1.21,0,0,0,1-2.09l-5.49-5.09a1.21,1.21,0,0,1,.27-2l6.65-3.27A1.22,1.22,0,0,0,405.18,212.34Z"/><path class="cls-3" d="M405.24,211.8l-7.38-.9a.7.7,0,0,1-.53-1l3.43-6.6a1.71,1.71,0,0,0-.05-1.71,1.77,1.77,0,0,0-2.36-.64l-6.45,3.64a.67.67,0,0,1-1-.51l-1.11-7.41a1.76,1.76,0,0,0-1.74-1.51,1.7,1.7,0,0,0-1.57,1L383.43,203a.63.63,0,0,1-.59.39.69.69,0,0,1-.49-.21l-5.21-5.39a1.79,1.79,0,0,0-2.61.1,1.73,1.73,0,0,0-.34,1.46l1.51,7.34a.65.65,0,0,1-.14.56.62.62,0,0,1-.62.23l-7.33-1.31a1.69,1.69,0,0,0-1.91,1.08,1.73,1.73,0,0,0,.44,1.93l5.5,5.1a.65.65,0,0,1,.21.6.64.64,0,0,1-.35.5l-6.65,3.27a1.76,1.76,0,0,0,.58,3.32l7.38.9a.66.66,0,0,1,.52.36.69.69,0,0,1,0,.64l-3.43,6.6a1.74,1.74,0,0,0,.06,1.71,1.76,1.76,0,0,0,2.35.64l6.45-3.64a.68.68,0,0,1,1,.51l1.1,7.41a1.77,1.77,0,0,0,1.75,1.51,1.72,1.72,0,0,0,1.57-1l3.05-6.79a.64.64,0,0,1,.6-.39.68.68,0,0,1,.48.21l5.21,5.39a1.79,1.79,0,0,0,2.61-.1,1.72,1.72,0,0,0,.34-1.46l-1.5-7.34a.66.66,0,0,1,.13-.56.62.62,0,0,1,.62-.23l7.33,1.31a1.71,1.71,0,0,0,1.92-1.08,1.74,1.74,0,0,0-.45-1.93l-5.5-5.1a.68.68,0,0,1-.21-.6.63.63,0,0,1,.36-.5l6.64-3.27a1.7,1.7,0,0,0,.94-1.86A1.73,1.73,0,0,0,405.24,211.8Zm.11,2.35-6.65,3.27a1.75,1.75,0,0,0-.4,2.86l5.5,5.1a.67.67,0,0,1,.18.75.66.66,0,0,1-.73.41l-7.33-1.31a1.7,1.7,0,0,0-1.64.61,1.78,1.78,0,0,0-.36,1.46l1.51,7.34a.66.66,0,0,1-.12.56.69.69,0,0,1-1,0l-5.21-5.4a1.74,1.74,0,0,0-1.25-.53,1.71,1.71,0,0,0-1.58,1l-3.05,6.79a.64.64,0,0,1-.59.38.66.66,0,0,1-.68-.59l-1.11-7.41a1.75,1.75,0,0,0-2.58-1.29l-6.45,3.64a.68.68,0,0,1-.91-.25.66.66,0,0,1,0-.67l3.42-6.6a1.77,1.77,0,0,0,0-1.63,1.8,1.8,0,0,0-1.35-.93l-7.38-.9a.68.68,0,0,1-.59-.57.64.64,0,0,1,.36-.71l6.64-3.27a1.73,1.73,0,0,0,.95-1.31,1.76,1.76,0,0,0-.55-1.55l-5.49-5.1a.65.65,0,0,1-.18-.75.64.64,0,0,1,.72-.41l7.33,1.31a1.7,1.7,0,0,0,1.65-.61,1.74,1.74,0,0,0,.35-1.46l-1.51-7.34a.66.66,0,0,1,.13-.56.68.68,0,0,1,1,0l5.21,5.4a1.75,1.75,0,0,0,1.26.53,1.7,1.7,0,0,0,1.57-1l3.06-6.78a.63.63,0,0,1,.59-.39.67.67,0,0,1,.68.59l1.1,7.41a1.76,1.76,0,0,0,2.59,1.29l6.45-3.64a.68.68,0,0,1,.91.25.67.67,0,0,1,0,.67l-3.42,6.6a1.77,1.77,0,0,0,1.35,2.56l7.38.9a.66.66,0,0,1,.59.57A.63.63,0,0,1,405.35,214.15Z"/><circle class="cls-5" cx="514.66" cy="200.74" r="83.94" transform="matrix(0.99, -0.16, 0.16, 0.99, -25.59, 85.39)"/><path class="cls-3" d="M514.66,116.27a84.48,84.48,0,1,0,84.47,84.47A84.58,84.58,0,0,0,514.66,116.27Zm0,167.87a83.4,83.4,0,1,1,83.39-83.4A83.49,83.49,0,0,1,514.66,284.14Z"/><path class="cls-2" d="M466.67,268.7A61.72,61.72,0,0,0,482.91,278l1.81-16S472.51,260.16,466.67,268.7Z"/><path class="cls-2" d="M411.47,146.7c-4-3.56-.18,6.25-.18,6.25s-10.56-6.3-15.07-6.57,7.88,7.39,7.88,7.39-12.88-4.91-13.76-3.21,11.19,6.58,11.19,6.58-10.82-1.43-11.09.54S401,160.26,401,160.26s-6.6,1.62-6.83,3.23,6.88-.31,8.84,0,4-.08,6.24,2.88a24.31,24.31,0,0,1,2.64,3.92L422,163.49S415.43,150.27,411.47,146.7Z"/><path class="cls-3" d="M411.83,146.3a2.8,2.8,0,0,0-1.68-.91.91.91,0,0,0-.78.41c-.65.94.18,3.86.9,5.94-3-1.7-10.34-5.68-14-5.9-1.11-.07-1.43.34-1.53.68-.3,1,2.21,3.13,5.25,5.22-3-1-6.65-2.07-8.54-2.07-.3,0-1.23,0-1.56.64a1,1,0,0,0,0,.83c.53,1.43,5,3.65,8.25,5.12-1.11-.09-2.36-.16-3.51-.16-3.08,0-4.52.47-4.67,1.5a1.09,1.09,0,0,0,.27.88c.95,1.17,4.95,1.78,7.87,2.08-2,.68-4.24,1.69-4.4,2.85a.93.93,0,0,0,.22.76c.3.35.84.5,1.77.5a30.34,30.34,0,0,0,3.78-.38,17.54,17.54,0,0,1,3.53-.3l1,.1a5.77,5.77,0,0,1,4.91,2.57,28.25,28.25,0,0,1,2.57,3.81.53.53,0,0,0,.34.31l.15,0a.55.55,0,0,0,.3-.09l10.15-6.77a.54.54,0,0,0,.18-.69C422.25,162.71,415.82,149.89,411.83,146.3Zm.25,23.19a37.35,37.35,0,0,0-2.4-3.48,6.79,6.79,0,0,0-5.66-3c-.32,0-.63-.05-.93-.1a4.61,4.61,0,0,0-.56,0,26.71,26.71,0,0,0-3.27.34,30.76,30.76,0,0,1-3.63.37,2.57,2.57,0,0,1-.91-.11c.28-.68,3.19-1.92,6.41-2.71a.54.54,0,0,0-.1-1.06c-5.17-.29-9.88-1.21-10.06-2,0,0,.3-.57,3.6-.57a61.72,61.72,0,0,1,6.89.5.55.55,0,0,0,.59-.4.53.53,0,0,0-.32-.63c-5-2-10.5-4.83-10.88-5.84a1.73,1.73,0,0,1,.58-.07c3.17,0,12.39,3.5,12.48,3.53a.53.53,0,0,0,.67-.26.53.53,0,0,0-.2-.7c-3.8-2.35-8-5.34-8.55-6.39h.35c4.34.26,14.73,6.44,14.84,6.5a.53.53,0,0,0,.62,0,.56.56,0,0,0,.15-.61c-1.07-2.78-1.77-5.62-1.57-6.27a2.85,2.85,0,0,1,.89.62c3.45,3.1,9.07,13.93,10.24,16.21Z"/><path class="cls-3" d="M422.47,159.39l-21.85,13.23,35.11,51a12.38,12.38,0,0,0,9.54,5.93l53.35,4.73L509.39,198l-54.6-.39Z"/><path class="cls-3" d="M509.4,197.42,455,197l-32.16-38a.55.55,0,0,0-.69-.12l-21.85,13.24a.51.51,0,0,0-.25.34.56.56,0,0,0,.08.42l35.1,51a12.93,12.93,0,0,0,10,6.18l53.36,4.73h0a.55.55,0,0,0,.52-.39l10.77-36.29a.5.5,0,0,0-.09-.47A.51.51,0,0,0,509.4,197.42Zm-11.17,36.25L445.31,229a11.82,11.82,0,0,1-9.13-5.7l-34.8-50.5,21-12.7,32,37.84a.53.53,0,0,0,.4.19l53.89.38Z"/><path class="cls-2" d="M560.54,208.61l-41-9.53c-9.73-2.26-19.83-.78-29.63,1.15l-6.51,78c19.27,0,36.5,20.55,59.87,30.34,54.38,22.77,69-58.5,43.16-83.72C578.54,217.18,572.86,211.48,560.54,208.61Z"/><path class="cls-3" d="M586.32,224c-7.49-7.3-13.42-13.08-25.66-15.92l-41-9.54a47,47,0,0,0-10.69-1.15,100.33,100.33,0,0,0-19.16,2.3.55.55,0,0,0-.44.48l-6.51,78a.55.55,0,0,0,.54.59c11.3,0,22.16,7.35,33.65,15.14,8.12,5.49,16.5,11.17,26,15.16a47.4,47.4,0,0,0,18.15,4h0c14.73,0,26.51-9,33.17-25.38,9-22.06,5.57-50.43-7.59-63.25Zm7,63.26C589.59,296.5,580.42,312,561.17,312a46.28,46.28,0,0,1-17.74-3.93c-9.41-3.95-17.76-9.6-25.82-15.06-11.44-7.75-22.26-15.08-33.68-15.32l6.43-77a97.23,97.23,0,0,1,18.56-2.2,45.56,45.56,0,0,1,10.45,1.12l41,9.54c12,2.77,17.49,8.17,25.15,15.64l.43.42C598.87,237.74,602.16,265.59,593.34,287.27Z"/><path class="cls-3" d="M511.76,231.41l-14.14.15a1.54,1.54,0,0,0-1.52,1.54v10.33a1.55,1.55,0,0,0,.47,1.11l7.33,6.62a1.54,1.54,0,0,0,1.09.45,1.55,1.55,0,0,0,1.11-.47l6.77-7.49a1.54,1.54,0,0,0,.45-1.09V233A1.55,1.55,0,0,0,511.76,231.41Zm.49,11.15a.46.46,0,0,1-.16.35l-6.77,7.49a.47.47,0,0,1-.68,0l-7.33-6.62a.47.47,0,0,1-.14-.33V233.1a.47.47,0,0,1,.46-.47l14.15-.15a.47.47,0,0,1,.47.47Z"/><path class="cls-3" d="M541,273.41c-11.85-3.31-23.07-11-50.2-11.69l-7.08,16.93c20.17,3.15,36.12,20.1,59.5,29.89a54.09,54.09,0,0,0,9.73,3.08l1.62-37.78A27.07,27.07,0,0,1,541,273.41Z"/><path class="cls-3" d="M554.44,273.32a27,27,0,0,1-13.28-.42c-3.08-.86-6.15-2-9.41-3.28-9.27-3.54-20.8-7.95-40.93-8.44h0a.54.54,0,0,0-.5.33l-7.07,16.93a.53.53,0,0,0,.41.74c11.61,1.82,22,8.36,33,15.3,8.14,5.13,16.56,10.44,26.39,14.55a54.43,54.43,0,0,0,9.83,3.12H553a.55.55,0,0,0,.33-.11.55.55,0,0,0,.21-.41l1.61-37.78a.53.53,0,0,0-.19-.44A.52.52,0,0,0,554.44,273.32Zm-2,37.64a54.23,54.23,0,0,1-9-2.92c-9.75-4.08-18.13-9.36-26.24-14.47-10.87-6.86-21.15-13.35-32.71-15.34l6.67-16c19.72.53,31.07,4.86,40.2,8.35,3.29,1.25,6.39,2.44,9.51,3.31a28.42,28.42,0,0,0,13.14.59Z"/><path class="cls-3" d="M489.86,200.23l-5.94,77.83L518.87,199C509.33,196.89,499.45,198.34,489.86,200.23Z"/><path class="cls-3" d="M519,198.42a47.64,47.64,0,0,0-10.1-1,99.92,99.92,0,0,0-19.13,2.29.55.55,0,0,0-.44.49L483.38,278a.54.54,0,0,0,.41.56h.13a.53.53,0,0,0,.49-.32l34.95-79.1a.5.5,0,0,0,0-.46A.55.55,0,0,0,519,198.42ZM484.69,275l5.67-74.29a97.53,97.53,0,0,1,18.53-2.2,46.51,46.51,0,0,1,9.22.86Z"/><path class="cls-3" d="M557.09,207.81,553,311.62c47.4,10,58.74-63,34.75-87C571.45,208.35,557.09,207.81,557.09,207.81Z"/><path class="cls-3" d="M557.11,207.28a.53.53,0,0,0-.55.51L552.43,311.6a.55.55,0,0,0,.42.55,42.65,42.65,0,0,0,8.68.94c15,0,27-9,33.76-25.39,9.09-21.95,5.86-50.43-7.2-63.48C571.87,208,557.71,207.3,557.11,207.28Zm37.18,80c-6.6,15.94-18.24,24.72-32.76,24.72a40.79,40.79,0,0,1-8-.82l4.09-102.79c2.74.3,15.56,2.43,29.72,16.58C600.11,237.75,603.23,265.71,594.29,287.29Z"/><path class="cls-3" d="M559.88,262c1.89,3,2.06,5.75.47,7.86-2.9,3.88-11.34,5.21-19.19,3-3.07-.86-6.15-2-9.41-3.27-9.89-3.78-22.19-8.48-44.71-8.48-15.71,0-19,3.6-21.52,7.94l.93.54c2.31-4.05,5.46-7.4,20.59-7.4,22.32,0,34.52,4.66,44.33,8.4,3.28,1.25,6.38,2.44,9.5,3.31a30.11,30.11,0,0,0,8,1.11c5.44,0,10.17-1.61,12.35-4.51,1.3-1.75,2.29-4.73-.42-9.08Z"/><path class="cls-2" d="M553.47,173.64s-9.78-15.57-16-15.57c-8.71,0-13.26,2.56-13.26,7.55,0,3.86-.13,11.08-.13,11.08-4.86,8.8,2.29,18,10.88,16.1.37-.08,4.11,7.34-3.43,9.44a10,10,0,0,0,16,8.73l5.22-4c-6-1-4.18-11.91-4.18-20,0-1.37,1.55-.14,2.73-1.7a27.42,27.42,0,0,0,3.63-7.61C555.77,175.28,553.47,173.64,553.47,173.64Z"/><path class="cls-3" d="M553.87,173.27c-.88-1.39-10.14-15.73-16.38-15.73-11.4,0-13.8,4.39-13.8,8.08,0,3.53-.11,9.93-.12,10.93a11.68,11.68,0,0,0,0,11.74,10.57,10.57,0,0,0,9.15,5.31h0a10.78,10.78,0,0,0,2.11-.21,7,7,0,0,1,.72,4.8c-.46,1.71-1.84,2.9-4.11,3.53a.52.52,0,0,0-.39.48,10.33,10.33,0,0,0,2.71,7.93,10.72,10.72,0,0,0,7.83,3.45,10.43,10.43,0,0,0,6.34-2.18l5.22-4a.54.54,0,0,0,.19-.56.55.55,0,0,0-.43-.4c-4.41-.74-4.13-7.84-3.86-14.71.06-1.6.13-3.25.13-4.77a1.33,1.33,0,0,1,0-.17,1.71,1.71,0,0,1,.41-.07,2.84,2.84,0,0,0,2.2-1.13,27.09,27.09,0,0,0,3.71-7.77A4.25,4.25,0,0,0,553.87,173.27Zm.59,4.24a26.1,26.1,0,0,1-3.55,7.46,1.78,1.78,0,0,1-1.45.71c-.52.06-1.39.15-1.39,1.31,0,1.5-.06,3.14-.12,4.72-.27,6.8-.55,13.81,3.66,15.52l-4.37,3.32a9.37,9.37,0,0,1-5.68,1.95,9.63,9.63,0,0,1-7-3.1,9.26,9.26,0,0,1-2.45-6.75c4.63-1.46,4.9-4.9,4.63-6.86-.14-1-.85-3.52-1.71-3.52h-.13a10,10,0,0,1-2.17.24h0a9.51,9.51,0,0,1-8.22-4.77,10.68,10.68,0,0,1,.1-10.8.43.43,0,0,0,.07-.25c0-.07.13-7.26.13-11.08,0-4.65,4.28-7,12.72-7,5.83,0,15.43,15.17,15.52,15.32a.54.54,0,0,0,.15.15C553.24,174.14,555.12,175.52,554.46,177.51Z"/><path class="cls-3" d="M545.89,155.38c-10.38-.34-8.56-12.72-22.3-9.74s-9.71,14-.28,19.07l20,.5,2.26,16.73s3.92-5.57,8.66-8.46c0,0,3.25-9,3.29-10.74S556.26,155.73,545.89,155.38Z"/><path class="cls-3" d="M526.36,168.94h-6.13a.54.54,0,0,0-.49.31,5.33,5.33,0,0,0-.51,2.3c0,2.64,1.82,4.79,4.06,4.79s4.07-2.15,4.07-4.79a5.34,5.34,0,0,0-.52-2.3A.52.52,0,0,0,526.36,168.94Zm-3.07,6.32c-1.64,0-3-1.66-3-3.71a4.32,4.32,0,0,1,.27-1.53H526a4.12,4.12,0,0,1,.28,1.53C526.28,173.6,524.94,175.26,523.29,175.26Z"/><path class="cls-3" d="M537.62,168.94h-6.13a.54.54,0,0,0-.49.31,5.33,5.33,0,0,0-.51,2.3c0,2.64,1.82,4.79,4.07,4.79s4.06-2.15,4.06-4.79a5.33,5.33,0,0,0-.51-2.3A.54.54,0,0,0,537.62,168.94Zm-3.06,6.32c-1.65,0-3-1.66-3-3.71a4.32,4.32,0,0,1,.27-1.53h5.43a4.32,4.32,0,0,1,.27,1.53C537.54,173.6,536.2,175.26,534.56,175.26Z"/><path class="cls-3" d="M526.45,170.6l.76.76c1.48-1.48,3.41,0,3.49,0l.66-.85C530.42,169.81,528.17,168.87,526.45,170.6Z"/><path class="cls-2" d="M576.39,244.69s5.12,29.54,30.89,28.11C607.28,272.8,605.29,246.84,576.39,244.69Z"/><path class="cls-3" d="M576.43,244.16a.53.53,0,0,0-.57.63c0,.28,5.24,28.6,29.63,28.6h0c.59,0,1.21,0,1.82-.05a.53.53,0,0,0,.5-.58C607.79,272.5,605.46,246.32,576.43,244.16Zm30.25,28.13-1.19,0h0c-21.38,0-27.48-22.75-28.43-27,11.42,1,19.88,5.9,25.13,14.51A33.65,33.65,0,0,1,606.68,272.29Z"/><rect class="cls-3" x="595.86" y="248.29" width="1.07" height="29.34" transform="translate(1.21 528.64) rotate(-47.85)"/><path class="cls-2" d="M610.47,272.8c25.77,1.43,30.89-28.11,30.89-28.11C612.45,246.84,610.47,272.8,610.47,272.8Z"/><path class="cls-3" d="M641.32,244.16c-29,2.16-31.37,28.34-31.39,28.6a.57.57,0,0,0,.13.4.55.55,0,0,0,.38.18c.61,0,1.22.05,1.82.05,24.38,0,29.58-28.32,29.63-28.6a.55.55,0,0,0-.13-.46A.56.56,0,0,0,641.32,244.16Zm-29.06,28.16-1.19,0c.5-3.7,4.46-24.75,29.62-27C639.73,249.57,633.65,272.32,612.26,272.32Z"/><rect class="cls-3" x="606.67" y="262.42" width="29.34" height="1.07" transform="translate(-15.8 484.91) rotate(-42.14)"/><path class="cls-2" d="M594.73,210.86s-3.62,21.29,14.22,26.53C609,237.39,613.85,219.28,594.73,210.86Z"/><path class="cls-3" d="M595,210.37a.52.52,0,0,0-.47,0,.54.54,0,0,0-.28.38c0,.22-3.5,21.83,14.6,27.13a.39.39,0,0,0,.15,0,.48.48,0,0,0,.26-.07.52.52,0,0,0,.26-.32C609.52,237.34,614.27,218.87,595,210.37Zm13.61,26.33c-15-4.8-13.85-21.38-13.4-25C611.31,219.16,609.2,233.67,608.56,236.7Z"/><rect class="cls-3" x="603.39" y="217.51" width="1.08" height="21.14" transform="translate(-35.88 314.05) rotate(-28.34)"/><path class="cls-2" d="M609.06,251c18.49-2,18.66-23.61,18.66-23.61C607.42,232.35,609.06,251,609.06,251Z"/><path class="cls-3" d="M627.6,226.91c-20.52,5-19.09,24-19.08,24.18a.57.57,0,0,0,.2.36.51.51,0,0,0,.34.13h.06c18.74-2,19.14-23.92,19.14-24.14a.53.53,0,0,0-.2-.42A.54.54,0,0,0,627.6,226.91Zm-18,23.53c-.09-3.11.38-17.76,17.59-22.31C626.92,231.77,625,248.37,609.56,250.44Z"/><rect class="cls-3" x="605.06" y="242.22" width="21.14" height="1.08" transform="translate(42.43 573.49) rotate(-51.5)"/><rect class="cls-2" x="590.23" y="273.01" width="40.29" height="4.29"/><path class="cls-3" d="M630.51,272.47H590.23a.54.54,0,0,0-.54.54v4.29a.54.54,0,0,0,.54.54h40.28a.54.54,0,0,0,.54-.54V273A.54.54,0,0,0,630.51,272.47Zm-.53,4.29H590.76v-3.21H630Z"/><polygon class="cls-2" points="602.53 320.98 618.21 320.98 628.12 277.28 592.62 277.28 602.53 320.98"/><path class="cls-3" d="M628.12,276.75h-35.5a.53.53,0,0,0-.42.2.52.52,0,0,0-.1.45l9.9,43.69a.54.54,0,0,0,.53.42h15.68a.54.54,0,0,0,.53-.42l9.9-43.69a.52.52,0,0,0-.1-.45A.53.53,0,0,0,628.12,276.75Zm-10.34,43.69H603l-9.67-42.62h34.16Z"/><polygon class="cls-3" points="593.64 280.42 622.68 280.42 617.08 320.98 618.21 320.98 628.12 277.28 592.62 277.28 593.64 280.42"/><path class="cls-3" d="M628.12,276.75h-35.5a.56.56,0,0,0-.44.22.55.55,0,0,0-.07.48l1,3.14a.53.53,0,0,0,.51.37h28.42l-5.51,39.94a.56.56,0,0,0,.13.43.52.52,0,0,0,.4.18h1.13a.54.54,0,0,0,.53-.42l9.9-43.69a.52.52,0,0,0-.1-.45A.53.53,0,0,0,628.12,276.75Zm-10.34,43.69h-.08l5.51-39.95a.5.5,0,0,0-.13-.42.53.53,0,0,0-.4-.19H594l-.67-2.06h34.09Z"/><rect class="cls-3" x="608.33" y="236.59" width="1.08" height="36.26"/><rect class="cls-3" y="320.44" width="657.51" height="1.08"/><path class="cls-2" d="M281.38,29.52H74.25A13.23,13.23,0,0,0,61,42.75V290.31A30.66,30.66,0,0,0,91.67,321h203V42.75A13.23,13.23,0,0,0,281.38,29.52Z"/><path class="cls-3" d="M281.38,29H74.25A13.79,13.79,0,0,0,60.47,42.75V290.31a31.23,31.23,0,0,0,31.2,31.19h203a.54.54,0,0,0,.54-.53V42.75A13.79,13.79,0,0,0,281.38,29Zm12.7,291.45H91.67a30.15,30.15,0,0,1-30.12-30.12V42.75a12.72,12.72,0,0,1,12.7-12.7H281.38a12.72,12.72,0,0,1,12.7,12.7Z"/><polygon class="cls-3" points="117.79 83.75 118.86 83.75 118.86 80.39 122.34 80.39 122.34 79.31 117.79 79.31 117.79 83.75"/><polygon class="cls-3" points="115.79 77.19 112.31 77.19 112.31 78.27 116.86 78.27 116.86 73.83 115.79 73.83 115.79 77.19"/><polygon class="cls-3" points="112.37 80.33 115.73 80.33 115.73 83.81 116.8 83.81 116.8 79.25 112.37 79.25 112.37 80.33"/><polygon class="cls-3" points="118.92 73.77 117.85 73.77 117.85 78.33 122.28 78.33 122.28 77.25 118.92 77.25 118.92 73.77"/><polygon class="cls-3" points="227.77 83.75 228.85 83.75 228.85 80.39 232.32 80.39 232.32 79.31 227.77 79.31 227.77 83.75"/><polygon class="cls-3" points="225.77 77.19 222.29 77.19 222.29 78.27 226.84 78.27 226.84 73.83 225.77 73.83 225.77 77.19"/><polygon class="cls-3" points="222.35 80.33 225.71 80.33 225.71 83.81 226.78 83.81 226.78 79.25 222.35 79.25 222.35 80.33"/><polygon class="cls-3" points="228.91 73.77 227.83 73.77 227.83 78.33 232.26 78.33 232.26 77.25 228.91 77.25 228.91 73.77"/><polygon class="cls-3" points="117.79 133.16 118.86 133.16 118.86 129.8 122.34 129.8 122.34 128.73 117.79 128.73 117.79 133.16"/><polygon class="cls-3" points="115.79 126.6 112.31 126.6 112.31 127.68 116.86 127.68 116.86 123.25 115.79 123.25 115.79 126.6"/><polygon class="cls-3" points="112.37 129.74 115.73 129.74 115.73 133.22 116.8 133.22 116.8 128.67 112.37 128.67 112.37 129.74"/><polygon class="cls-3" points="118.92 123.19 117.85 123.19 117.85 127.74 122.28 127.74 122.28 126.66 118.92 126.66 118.92 123.19"/><polygon class="cls-3" points="227.77 133.16 228.85 133.16 228.85 129.8 232.32 129.8 232.32 128.73 227.77 128.73 227.77 133.16"/><polygon class="cls-3" points="225.77 126.6 222.29 126.6 222.29 127.68 226.84 127.68 226.84 123.25 225.77 123.25 225.77 126.6"/><polygon class="cls-3" points="222.35 129.74 225.71 129.74 225.71 133.22 226.78 133.22 226.78 128.67 222.35 128.67 222.35 129.74"/><polygon class="cls-3" points="228.91 123.19 227.83 123.19 227.83 127.74 232.26 127.74 232.26 126.66 228.91 126.66 228.91 123.19"/><rect class="cls-3" x="129.63" y="126.59" width="86.02" height="1.08"/><rect class="cls-3" x="115.8" y="86.25" width="1.08" height="35.95"/><rect class="cls-3" x="132.31" y="77.24" width="86.02" height="1.08"/><path class="cls-3" d="M188.85,118.72c-3.47-2.21-2.09-8.55-1.18-12.75.61-2.8.91-4.2,0-4.56s-2,.67-4.07,2.5a15.92,15.92,0,0,1-2.8,2.23A4.09,4.09,0,0,1,181,105a25,25,0,0,1,1.17-3.38,24.34,24.34,0,0,0,5.6-8.43c.67-2,.65-2.5.36-2.81a.66.66,0,0,0-.64-.18c-1.1.29-4.27,6.17-6.18,10.73-2.46,2.51-4.95,4.3-5.89,4.58a3,3,0,0,1,.13-.28c.17-.35.35-.72.54-1.09,1.54-3.07,2.37-4.84,1.5-5.51-.64-.49-1.69-.51-7.57,4.66a31.35,31.35,0,0,1-4.76,3.75,26.57,26.57,0,0,1,1.18-2.46A18.48,18.48,0,0,0,168,101a.81.81,0,0,0-.59-1c-1-.35-4.22.57-7.92,2.17,1.5-5,2.27-8.55.6-9.84-1.2-.92-3.3-.38-6.62,1.7-7.23,4.53-10.11,3.63-10.82,3.24a1.77,1.77,0,0,1-.95-1.62A3.93,3.93,0,0,1,142,94a5.35,5.35,0,0,0,.67.47c1.77,1,4.11.63,6.95-1.07s3.88-3.14,3.17-4.33c-1-1.66-5.11-1.41-7.46,0a11.7,11.7,0,0,0-3.5,3.09,11.85,11.85,0,0,1-1.3-5.93h-1.08c0,1.9.3,5,1.76,6.92a5.27,5.27,0,0,0-.65,2.47,2.86,2.86,0,0,0,1.52,2.55c2.31,1.25,6.54.08,11.9-3.28,3.68-2.31,5-2.09,5.39-1.76,1.32,1-.13,6-1.24,9.58-5.92,2.73-12.65,7-14.2,10.49-.6,1.38-.74,3.34,2,4.84a5,5,0,0,0,4.45.4c3.18-1.28,5.84-5.85,8.62-14.82l0-.07c3.67-1.67,6.86-2.72,7.85-2.62a22.78,22.78,0,0,1-1.45,3.12c-1.24,2.41-1.77,3.5-1.09,4s1.33.39,6.34-4c4.33-3.81,5.72-4.48,6.15-4.57a19.06,19.06,0,0,1-1.75,4.12c-.19.38-.38.75-.55,1.1s-.46,1.08-.13,1.53a.93.93,0,0,0,1,.32c1-.15,2.89-1.39,5-3.25-.18.52-.32,1-.42,1.39-.24,1-.38,2,.29,2.39.84.5,2.05-.53,4.11-2.4a16,16,0,0,1,2.86-2.29,17.8,17.8,0,0,1-.55,3.32c-1,4.49-2.45,11.28,1.65,13.89a5,5,0,0,0,2.77.71c6.9,0,18.33-9.43,18.88-9.89l-.68-.83C205.05,113.1,193.24,121.51,188.85,118.72Zm-2-26.31c0,.13-.09.27-.14.42a18.59,18.59,0,0,1-3,5.28A61.53,61.53,0,0,1,186.84,92.41ZM145.92,90c2.15-1.28,5.5-1.18,6-.36.19.33-.18,1.29-2.8,2.86s-4.47,1.84-5.87,1.05a3.16,3.16,0,0,1-.67-.5A10.29,10.29,0,0,1,145.92,90ZM150,117.46a3.94,3.94,0,0,1-3.53-.35c-1.72-1-2.17-2.11-1.42-3.65,1.55-3.15,7.38-6.76,12.67-9.29C156,109.42,153.49,116,150,117.46Z"/><polygon class="cls-2" points="125.65 146.45 135.03 137.06 122.37 143.17 125.65 146.45"/><path class="cls-3" d="M125.65,145.69l-2.9-2.9-.76.76,3.28,3.28a.54.54,0,0,0,.38.15.55.55,0,0,0,.38-.15l9.38-9.38-.76-.76Z"/><circle class="cls-2" cx="140.43" cy="144.59" r="2.83"/><path class="cls-3" d="M140.43,141.22a3.37,3.37,0,1,0,3.37,3.37A3.37,3.37,0,0,0,140.43,141.22Zm0,5.66a2.3,2.3,0,1,1,2.29-2.29A2.3,2.3,0,0,1,140.43,146.88Z"/><circle class="cls-2" cx="150.5" cy="144.59" r="2.83"/><path class="cls-3" d="M150.5,141.22a3.37,3.37,0,1,0,3.37,3.37A3.37,3.37,0,0,0,150.5,141.22Zm0,5.66a2.3,2.3,0,1,1,2.29-2.29A2.3,2.3,0,0,1,150.5,146.88Z"/><path class="cls-3" d="M242.36,128.14c-7.83-1-8.21-9.94-8.22-10.32l-1.08,0c0,.11.41,10,8.91,11.32l6.58,10.61.92-.56-6.72-10.83A.52.52,0,0,0,242.36,128.14Z"/><path class="cls-3" d="M255.17,107c-1.86-6.63-4.4-15.7-10.13-17.42-2.09-.63-4.3-1.48-6.42-2.29-4.17-1.61-7.77-3-9.74-2.44-1.51.42-3.36,2.26-5.5,4.41a34.35,34.35,0,0,1-6.52,5.55c-2.49,1.41-2.8,3.14-2.26,4.28.7,1.48,3.07,2.43,6.08,1.27l-.39-1c-2.32.89-4.22.33-4.72-.73-.43-.9.27-2,1.82-2.88A35.24,35.24,0,0,0,224.14,90c2-2,3.79-3.79,5-4.14,1.62-.45,5.23.94,9.06,2.41,2.15.82,4.37,1.68,6.51,2.32,5.16,1.55,7.7,10.65,9.39,16.68.22.77.42,1.5.62,2.18a69.1,69.1,0,0,0,5.54,12.77l.93-.53a69.37,69.37,0,0,1-5.44-12.55C255.58,108.47,255.38,107.75,255.17,107Z"/><path class="cls-3" d="M259.46,75.58a1.49,1.49,0,0,0-2.08-.43l-38.32,25.58-10,8.59a.85.85,0,0,0,.9,1.43L222,105.26l38.36-25.6a1.49,1.49,0,0,0,.42-2.06Z"/><path class="cls-3" d="M265.92,118.42l-21.38,14,.59.9,21-13.71,6.33,6.7.78-.74-6.64-7A.53.53,0,0,0,265.92,118.42Z"/><path class="cls-3" d="M231.05,113.29a3,3,0,0,1-1.17-2.15.55.55,0,0,0-.34-.47.54.54,0,0,0-.57.1,3,3,0,0,1-2.35,1,4.33,4.33,0,0,1-2.63-1.52.52.52,0,0,0-.63-.16,3.06,3.06,0,0,1-2.93.08c-1.34-.9-1.33-3.37-1.33-3.4H218c0,.12,0,3.07,1.79,4.3a3.86,3.86,0,0,0,3.6.16,5.1,5.1,0,0,0,3.11,1.63,3.81,3.81,0,0,0,2.46-.7,3.59,3.59,0,0,0,3.61,2.65,7.5,7.5,0,0,0,2.51-.49l-.35-1C233.14,113.85,231.9,113.85,231.05,113.29Z"/><path class="cls-3" d="M224.08,98.59a7.12,7.12,0,0,1,6.52.39c.7.51,1.39,1.06,2.06,1.6,3.41,2.73,6.94,5.55,12.54,3.53l-.36-1c-5,1.82-8.18-.7-11.51-3.36-.68-.55-1.38-1.11-2.1-1.63a8.16,8.16,0,0,0-7.62-.48,2.74,2.74,0,0,0-1.8,2.26c0,1.23,1,2.46,3.08,3.65,5.48,3.13,9.7,8.33,12.89,15.88a11.86,11.86,0,0,0,6.91,6.34l.31-1a10.9,10.9,0,0,1-6.22-5.73c-3.3-7.78-7.67-13.14-13.36-16.4-2.24-1.28-2.55-2.22-2.53-2.67C222.91,99.26,223.64,98.81,224.08,98.59Z"/><path class="cls-2" d="M241.31,92.5A2.58,2.58,0,0,0,242.62,95a30.86,30.86,0,0,1,5.1-4.42c3.24-2.27,12.06-8.34,12.06-8.34s1.11-.82-.13-2.48Z"/><path class="cls-3" d="M259.34,79.31,241,92.06a.55.55,0,0,0-.23.44,3.1,3.1,0,0,0,1.64,3,.52.52,0,0,0,.21,0,.55.55,0,0,0,.41-.18A30.82,30.82,0,0,1,248,91c3.2-2.24,12-8.27,12.08-8.35.53-.39,1.2-1.58,0-3.23A.55.55,0,0,0,259.34,79.31Zm.14,2.48c-.09.06-8.86,6.09-12.07,8.34a32.77,32.77,0,0,0-4.87,4.15,2.14,2.14,0,0,1-.68-1.5L259.5,80.51C259.94,81.34,259.55,81.73,259.48,81.79Z"/><rect class="cls-5" x="131.1" y="171.64" width="93.43" height="32.48" rx="10.13"/><path class="cls-3" d="M214.4,171.11H141.23a10.68,10.68,0,0,0-10.67,10.67V194a10.69,10.69,0,0,0,10.67,10.67H214.4A10.69,10.69,0,0,0,225.07,194V181.78A10.68,10.68,0,0,0,214.4,171.11ZM224,194a9.62,9.62,0,0,1-9.6,9.6H141.23a9.61,9.61,0,0,1-9.59-9.6V181.78a9.61,9.61,0,0,1,9.59-9.6H214.4a9.62,9.62,0,0,1,9.6,9.6Z"/><polygon class="cls-2" points="155.73 183.62 153.9 179.32 152.39 179.32 154.99 185.34 156.37 185.34 158.97 179.32 157.59 179.32 155.73 183.62"/><path class="cls-2" d="M162.39,180.94a2.54,2.54,0,0,0-1.23-.3,2.67,2.67,0,0,0-1.26.31,2.27,2.27,0,0,0-.89.85,2.42,2.42,0,0,0-.32,1.23,2.26,2.26,0,0,0,1.26,2.08,3,3,0,0,0,1.38.3,2.39,2.39,0,0,0,1.91-.75l-.71-.77a1.66,1.66,0,0,1-.52.34,1.83,1.83,0,0,1-.64.1,1.52,1.52,0,0,1-.88-.24,1.09,1.09,0,0,1-.45-.68h3.5c0-.23,0-.35,0-.37a2.46,2.46,0,0,0-.32-1.26A2,2,0,0,0,162.39,180.94ZM160,182.62a1.13,1.13,0,0,1,.38-.7,1.26,1.26,0,0,1,1.53,0,1.12,1.12,0,0,1,.37.7Z"/><path class="cls-2" d="M165.75,181.32v-.61h-1.29v4.63h1.35v-2.18a1.29,1.29,0,0,1,.32-1,1.22,1.22,0,0,1,.91-.32h.3v-1.24a2.28,2.28,0,0,0-.94.18A1.43,1.43,0,0,0,165.75,181.32Z"/><rect class="cls-2" x="168.14" y="180.71" width="1.34" height="4.63"/><path class="cls-2" d="M168.81,178.57a.81.81,0,0,0-.6.22.71.71,0,0,0,0,1.06.81.81,0,0,0,.6.22.87.87,0,0,0,.6-.22.72.72,0,0,0,.23-.56.64.64,0,0,0-.23-.51A.86.86,0,0,0,168.81,178.57Z"/><path class="cls-2" d="M172.81,180a.89.89,0,0,1,.54.16l.35-1a1.56,1.56,0,0,0-.45-.19,2.62,2.62,0,0,0-.57-.06,1.78,1.78,0,0,0-1.32.46,1.71,1.71,0,0,0-.47,1.26v.21h-.71v1h.71v3.49h1.34v-3.49h1.16v-1H172.2v-.2C172.2,180.17,172.4,180,172.81,180Z"/><path class="cls-2" d="M176.14,183.85l-1.3-3.14h-1.39l2,4.67,0,0a1,1,0,0,1-.31.44.69.69,0,0,1-.45.14,1.19,1.19,0,0,1-.4-.08,1.15,1.15,0,0,1-.35-.22l-.49,1a1.72,1.72,0,0,0,.57.31,2.57,2.57,0,0,0,.72.11,1.91,1.91,0,0,0,1.13-.33,2.5,2.5,0,0,0,.79-1.12l2.09-4.92h-1.29Z"/><path class="cls-2" d="M185.58,183.85l-1.29-3.14H182.9l2,4.67v0a1.13,1.13,0,0,1-.31.44.73.73,0,0,1-.45.14,1.19,1.19,0,0,1-.4-.08,1.34,1.34,0,0,1-.36-.22l-.49,1a1.68,1.68,0,0,0,.58.31,2.45,2.45,0,0,0,.71.11,1.91,1.91,0,0,0,1.13-.33,2.36,2.36,0,0,0,.79-1.12l2.09-4.92h-1.29Z"/><path class="cls-2" d="M192.11,181a2.77,2.77,0,0,0-1.3-.31,2.86,2.86,0,0,0-1.32.31,2.24,2.24,0,0,0-.9.85,2.36,2.36,0,0,0,.9,3.31,2.85,2.85,0,0,0,1.32.3,2.77,2.77,0,0,0,1.3-.3,2.33,2.33,0,0,0,.91-.85,2.52,2.52,0,0,0,0-2.46A2.26,2.26,0,0,0,192.11,181Zm-.46,3a1.12,1.12,0,0,1-.84.35A1.16,1.16,0,0,1,190,184a1.29,1.29,0,0,1-.33-.93,1.33,1.33,0,0,1,.33-.94,1.15,1.15,0,0,1,.86-.34,1.11,1.11,0,0,1,.84.34,1.34,1.34,0,0,1,.34.94A1.29,1.29,0,0,1,191.65,184Z"/><path class="cls-2" d="M197.56,183a1.37,1.37,0,0,1-.29.94,1.06,1.06,0,0,1-.78.31c-.62,0-.93-.37-.93-1.12v-2.42h-1.35v2.62a2.08,2.08,0,0,0,.54,1.56,1.94,1.94,0,0,0,1.44.52,1.91,1.91,0,0,0,.8-.16,1.84,1.84,0,0,0,.64-.46v.55h1.27v-4.63h-1.34Z"/><path class="cls-2" d="M201.43,181.32v-.61h-1.28v4.63h1.34v-2.18a1.29,1.29,0,0,1,.33-1,1.21,1.21,0,0,1,.9-.32h.3v-1.24a2.32,2.32,0,0,0-.94.18A1.48,1.48,0,0,0,201.43,181.32Z"/><path class="cls-2" d="M159.75,193.08a7.61,7.61,0,0,0-.93-.2,3.57,3.57,0,0,1-.74-.17.3.3,0,0,1-.23-.3.36.36,0,0,1,.21-.31,1.39,1.39,0,0,1,.65-.12,2.67,2.67,0,0,1,1.33.35l.45-1a2.82,2.82,0,0,0-.81-.29,4,4,0,0,0-1-.11,3.08,3.08,0,0,0-1.15.19,1.59,1.59,0,0,0-.74.53,1.23,1.23,0,0,0-.25.78,1.09,1.09,0,0,0,.27.8,1.39,1.39,0,0,0,.64.4,7.83,7.83,0,0,0,.94.2,4.18,4.18,0,0,1,.71.14.31.31,0,0,1,.23.29c0,.28-.28.42-.85.42a3.34,3.34,0,0,1-1.61-.45l-.45,1a2.93,2.93,0,0,0,.88.35,4.27,4.27,0,0,0,1.13.14,3.43,3.43,0,0,0,1.17-.18,1.72,1.72,0,0,0,.76-.52,1.23,1.23,0,0,0,.25-.77,1.16,1.16,0,0,0-.26-.79A1.39,1.39,0,0,0,159.75,193.08Z"/><rect class="cls-2" x="161.47" y="191.04" width="1.34" height="4.63"/><path class="cls-2" d="M162.14,188.89a.85.85,0,0,0-.6.22.67.67,0,0,0-.23.53.69.69,0,0,0,.23.54.84.84,0,0,0,.6.21.81.81,0,0,0,.6-.22.71.71,0,0,0,.24-.55.66.66,0,0,0-.24-.52A.84.84,0,0,0,162.14,188.89Z"/><path class="cls-2" d="M167.56,191.63A1.84,1.84,0,0,0,166,191a2.44,2.44,0,0,0-1.17.28,2.17,2.17,0,0,0-.84.78,2.38,2.38,0,0,0,0,2.35,2.17,2.17,0,0,0,.84.78,2.44,2.44,0,0,0,1.17.28,1.89,1.89,0,0,0,1.46-.57v.19a1.23,1.23,0,0,1-.33.95,1.44,1.44,0,0,1-1,.32,3.06,3.06,0,0,1-.89-.14,2.25,2.25,0,0,1-.74-.39l-.54,1a3,3,0,0,0,1,.47,4.83,4.83,0,0,0,1.28.16,2.7,2.7,0,0,0,1.93-.62,2.47,2.47,0,0,0,.66-1.89V191h-1.27Zm-.39,2.4a1.39,1.39,0,0,1-1.75,0,1.15,1.15,0,0,1,0-1.65,1.39,1.39,0,0,1,1.75,0,1.17,1.17,0,0,1,0,1.65Z"/><path class="cls-2" d="M172.89,191a2.2,2.2,0,0,0-.86.16,1.65,1.65,0,0,0-.67.45V191h-1.28v4.63h1.34v-2.29a1.31,1.31,0,0,1,.3-.94,1.08,1.08,0,0,1,.81-.31.88.88,0,0,1,.7.27,1.22,1.22,0,0,1,.24.82v2.45h1.34V193a2,2,0,0,0-.53-1.54A1.9,1.9,0,0,0,172.89,191Z"/><path class="cls-2" d="M177.89,191a4.46,4.46,0,0,0-1.09.14,2.88,2.88,0,0,0-.9.42l.48.94a1.86,1.86,0,0,1,.61-.32,2.22,2.22,0,0,1,.72-.12,1.16,1.16,0,0,1,.8.24.85.85,0,0,1,.27.68h-1.07a2.48,2.48,0,0,0-1.5.37,1.2,1.2,0,0,0-.49,1,1.32,1.32,0,0,0,.21.73,1.4,1.4,0,0,0,.6.49,2.19,2.19,0,0,0,.92.18,1.52,1.52,0,0,0,1.42-.64v.58h1.25V193a2,2,0,0,0-.57-1.54A2.44,2.44,0,0,0,177.89,191Zm.89,3.23a.86.86,0,0,1-.38.47,1.13,1.13,0,0,1-.61.16.93.93,0,0,1-.56-.15.5.5,0,0,1-.2-.41c0-.36.28-.54.83-.54h.92Z"/><path class="cls-2" d="M183.42,194.67a.58.58,0,0,1-.43-.16.64.64,0,0,1-.15-.45v-1.89H184v-1h-1.15V190H181.5v1.13h-.72v1h.72v1.9a1.61,1.61,0,0,0,.45,1.24,1.81,1.81,0,0,0,1.28.42,2.35,2.35,0,0,0,.6-.07,1.3,1.3,0,0,0,.49-.22l-.36-.94A.89.89,0,0,1,183.42,194.67Z"/><path class="cls-2" d="M188.4,193.33a1.35,1.35,0,0,1-.29.93,1,1,0,0,1-.78.31c-.62,0-.94-.37-.94-1.12V191h-1.34v2.61a2.12,2.12,0,0,0,.53,1.56,2,2,0,0,0,1.45.52,2.11,2.11,0,0,0,.8-.15,1.84,1.84,0,0,0,.64-.46v.55h1.27V191H188.4Z"/><path class="cls-2" d="M192.27,191.65V191H191v4.63h1.34v-2.19a1.31,1.31,0,0,1,.33-1,1.24,1.24,0,0,1,.9-.32l.3,0V191a2.46,2.46,0,0,0-.94.17A1.43,1.43,0,0,0,192.27,191.65Z"/><path class="cls-2" d="M198,191.26a2.6,2.6,0,0,0-1.23-.29,2.66,2.66,0,0,0-1.26.3,2.27,2.27,0,0,0-.88.86,2.44,2.44,0,0,0,0,2.45,2.25,2.25,0,0,0,.93.85,3,3,0,0,0,1.38.3,2.38,2.38,0,0,0,1.91-.74l-.71-.78a1.42,1.42,0,0,1-.52.34,1.83,1.83,0,0,1-.64.11,1.47,1.47,0,0,1-.88-.25,1.15,1.15,0,0,1-.45-.68h3.51c0-.22,0-.34,0-.36a2.49,2.49,0,0,0-.31-1.27A2.2,2.2,0,0,0,198,191.26ZM195.61,193a1.06,1.06,0,0,1,.38-.71,1.15,1.15,0,0,1,.76-.26,1.12,1.12,0,0,1,1.14,1Z"/><path class="cls-3" d="M93.16,223.24c0,.89,0,1.6.08,2.37h0a16.43,16.43,0,0,0-1-1.88l-1.85-2.94h-.83v5.8h.71v-2.48c0-1,0-1.66,0-2.39h0a17.28,17.28,0,0,0,1.08,1.94l1.84,2.94h.75v-5.8h-.7Z"/><path class="cls-3" d="M98.06,224.05c0-.84-.31-1.71-1.59-1.71a2.72,2.72,0,0,0-1.37.36l.17.51a2,2,0,0,1,1.09-.31.86.86,0,0,1,1,1V224c-1.61,0-2.51.54-2.51,1.55a1.19,1.19,0,0,0,1.28,1.19,1.54,1.54,0,0,0,1.27-.61h0l.07.52h.68a7.46,7.46,0,0,1-.06-1Zm-.74,1.15a1,1,0,0,1,0,.24,1.06,1.06,0,0,1-1,.7.67.67,0,0,1-.7-.73c0-.8.94-.95,1.76-.93Z"/><path class="cls-3" d="M103.85,222.34a1.4,1.4,0,0,0-.91.3,1.68,1.68,0,0,0-.47.54h0a1.23,1.23,0,0,0-1.17-.84,1.45,1.45,0,0,0-1.32.77h0l0-.67h-.66c0,.34,0,.69,0,1.12v3H100v-2.51a.9.9,0,0,1,.06-.37A1,1,0,0,1,101,223c.58,0,.87.48.87,1.15v2.49h.74V224a1.51,1.51,0,0,1,.06-.38,1,1,0,0,1,.9-.68c.61,0,.91.48.91,1.28v2.36h.74v-2.45C105.23,222.7,104.41,222.34,103.85,222.34Z"/><path class="cls-3" d="M108.11,222.34a2,2,0,0,0-2,2.25,2,2,0,0,0,2,2.1,3.39,3.39,0,0,0,1.39-.27l-.14-.53a2.89,2.89,0,0,1-1.15.2,1.33,1.33,0,0,1-1.42-1.44h2.92a3.21,3.21,0,0,0,0-.36A1.75,1.75,0,0,0,108.11,222.34Zm-1.22,1.77a1.25,1.25,0,0,1,1.16-1.23,1.08,1.08,0,0,1,1,1.23Z"/><path class="cls-3" d="M111.09,225.62a.54.54,0,0,0,0,1.07h0a.54.54,0,0,0,0-1.07Z"/><path class="cls-3" d="M111.1,222.58a.51.51,0,0,0-.51.55.5.5,0,0,0,.5.53h0a.49.49,0,0,0,.5-.53A.5.5,0,0,0,111.1,222.58Z"/><rect class="cls-3" x="111.91" y="227.24" width="4.3" height="0.43"/><rect class="cls-3" x="116.22" y="227.24" width="4.3" height="0.43"/><rect class="cls-3" x="120.52" y="227.24" width="4.3" height="0.43"/><rect class="cls-3" x="124.82" y="227.24" width="4.3" height="0.43"/><rect class="cls-3" x="129.12" y="227.24" width="4.3" height="0.43"/><rect class="cls-3" x="133.42" y="227.24" width="4.3" height="0.43"/><rect class="cls-3" x="137.72" y="227.24" width="4.3" height="0.43"/><rect class="cls-3" x="142.03" y="227.24" width="4.3" height="0.43"/><rect class="cls-3" x="146.33" y="227.24" width="4.3" height="0.43"/><rect class="cls-3" x="150.63" y="227.24" width="4.3" height="0.43"/><rect class="cls-3" x="154.93" y="227.24" width="4.3" height="0.43"/><rect class="cls-3" x="159.23" y="227.24" width="4.3" height="0.43"/><rect class="cls-3" x="163.53" y="227.24" width="4.3" height="0.43"/><rect class="cls-3" x="167.84" y="227.24" width="4.3" height="0.43"/><rect class="cls-3" x="172.14" y="227.24" width="4.3" height="0.43"/><rect class="cls-3" x="176.44" y="227.24" width="4.3" height="0.43"/><rect class="cls-3" x="180.74" y="227.24" width="4.3" height="0.43"/><rect class="cls-3" x="185.04" y="227.24" width="4.3" height="0.43"/><rect class="cls-3" x="189.34" y="227.24" width="4.3" height="0.43"/><rect class="cls-3" x="193.65" y="227.24" width="4.3" height="0.43"/><rect class="cls-3" x="197.95" y="227.24" width="4.3" height="0.43"/><rect class="cls-3" x="202.25" y="227.24" width="4.3" height="0.43"/><rect class="cls-3" x="206.55" y="227.24" width="4.3" height="0.43"/><rect class="cls-3" x="210.85" y="227.24" width="4.3" height="0.43"/><rect class="cls-3" x="215.15" y="227.24" width="4.3" height="0.43"/><rect class="cls-3" x="219.46" y="227.24" width="4.3" height="0.43"/><rect class="cls-3" x="223.76" y="227.24" width="4.3" height="0.43"/><rect class="cls-3" x="228.06" y="227.24" width="4.3" height="0.43"/><rect class="cls-3" x="232.36" y="227.24" width="4.3" height="0.43"/><rect class="cls-3" x="236.66" y="227.24" width="4.3" height="0.43"/><rect class="cls-3" x="240.96" y="227.24" width="4.3" height="0.43"/><rect class="cls-3" x="245.26" y="227.24" width="4.3" height="0.43"/><rect class="cls-3" x="249.57" y="227.24" width="4.3" height="0.43"/><rect class="cls-3" x="253.87" y="227.24" width="4.3" height="0.43"/><rect class="cls-3" x="258.17" y="227.24" width="4.3" height="0.43"/><rect class="cls-3" x="262.47" y="227.24" width="4.3" height="0.43"/><polygon class="cls-3" points="89.79 245.88 92.03 245.88 92.03 245.26 89.79 245.26 89.79 243.43 92.17 243.43 92.17 242.8 89.03 242.8 89.03 248.6 92.3 248.6 92.3 247.97 89.79 247.97 89.79 245.88"/><rect class="cls-3" x="92.88" y="246" width="2.12" height="0.55"/><path class="cls-3" d="M100.46,244.34a1.4,1.4,0,0,0-.91.29,1.68,1.68,0,0,0-.47.54h0a1.22,1.22,0,0,0-1.17-.83,1.46,1.46,0,0,0-1.32.76h0l0-.67h-.66c0,.35,0,.69,0,1.13v3h.74v-2.51a.9.9,0,0,1,.06-.37,1,1,0,0,1,.93-.76c.58,0,.87.47.87,1.14v2.5h.74V246a1.51,1.51,0,0,1,.06-.38,1,1,0,0,1,.9-.68c.61,0,.91.47.91,1.28v2.36h.74v-2.45C101.84,244.7,101,244.34,100.46,244.34Z"/><path class="cls-3" d="M106,246c0-.83-.31-1.7-1.59-1.7a2.72,2.72,0,0,0-1.37.36l.17.51a2,2,0,0,1,1.09-.31.86.86,0,0,1,.95,1V246c-1.61,0-2.5.54-2.5,1.55a1.18,1.18,0,0,0,1.27,1.19,1.52,1.52,0,0,0,1.27-.62h0l.06.53h.68a7.57,7.57,0,0,1-.06-1Zm-.74,1.15a.63.63,0,0,1,0,.24,1,1,0,0,1-1,.7.66.66,0,0,1-.71-.72c0-.81.94-1,1.76-.94Z"/><rect class="cls-3" x="107.21" y="244.43" width="0.76" height="4.16"/><path class="cls-3" d="M107.59,242.7a.49.49,0,0,0,0,1h0a.47.47,0,0,0,.49-.49A.46.46,0,0,0,107.59,242.7Z"/><rect class="cls-3" x="109.22" y="242.49" width="0.76" height="6.11"/><path class="cls-3" d="M111.56,247.62a.54.54,0,0,0,0,1.07h0a.54.54,0,0,0,0-1.07Z"/><path class="cls-3" d="M111.57,244.58a.54.54,0,0,0,0,1.08h0a.51.51,0,0,0,.51-.54A.5.5,0,0,0,111.57,244.58Z"/><rect class="cls-3" x="112.39" y="249.24" width="4.3" height="0.43"/><rect class="cls-3" x="116.69" y="249.24" width="4.3" height="0.43"/><rect class="cls-3" x="120.99" y="249.24" width="4.3" height="0.43"/><rect class="cls-3" x="125.29" y="249.24" width="4.3" height="0.43"/><rect class="cls-3" x="129.59" y="249.24" width="4.3" height="0.43"/><rect class="cls-3" x="133.9" y="249.24" width="4.3" height="0.43"/><rect class="cls-3" x="138.2" y="249.24" width="4.3" height="0.43"/><rect class="cls-3" x="142.5" y="249.24" width="4.3" height="0.43"/><rect class="cls-3" x="146.8" y="249.24" width="4.3" height="0.43"/><rect class="cls-3" x="151.1" y="249.24" width="4.3" height="0.43"/><rect class="cls-3" x="155.4" y="249.24" width="4.3" height="0.43"/><rect class="cls-3" x="159.71" y="249.24" width="4.3" height="0.43"/><rect class="cls-3" x="164.01" y="249.24" width="4.3" height="0.43"/><rect class="cls-3" x="168.31" y="249.24" width="4.3" height="0.43"/><rect class="cls-3" x="172.61" y="249.24" width="4.3" height="0.43"/><rect class="cls-3" x="176.91" y="249.24" width="4.3" height="0.43"/><rect class="cls-3" x="181.21" y="249.24" width="4.3" height="0.43"/><rect class="cls-3" x="185.51" y="249.24" width="4.3" height="0.43"/><rect class="cls-3" x="189.82" y="249.24" width="4.3" height="0.43"/><rect class="cls-3" x="194.12" y="249.24" width="4.3" height="0.43"/><rect class="cls-3" x="198.42" y="249.24" width="4.3" height="0.43"/><rect class="cls-3" x="202.72" y="249.24" width="4.3" height="0.43"/><rect class="cls-3" x="207.02" y="249.24" width="4.3" height="0.43"/><rect class="cls-3" x="211.32" y="249.24" width="4.3" height="0.43"/><rect class="cls-3" x="215.63" y="249.24" width="4.3" height="0.43"/><rect class="cls-3" x="219.93" y="249.24" width="4.3" height="0.43"/><rect class="cls-3" x="224.23" y="249.24" width="4.3" height="0.43"/><rect class="cls-3" x="228.53" y="249.24" width="4.3" height="0.43"/><rect class="cls-3" x="232.83" y="249.24" width="4.3" height="0.43"/><rect class="cls-3" x="237.13" y="249.24" width="4.3" height="0.43"/><rect class="cls-3" x="241.44" y="249.24" width="4.3" height="0.43"/><rect class="cls-3" x="245.74" y="249.24" width="4.3" height="0.43"/><rect class="cls-3" x="250.04" y="249.24" width="4.3" height="0.43"/><rect class="cls-3" x="254.34" y="249.24" width="4.3" height="0.43"/><rect class="cls-3" x="258.64" y="249.24" width="4.3" height="0.43"/><rect class="cls-3" x="262.94" y="249.24" width="4.3" height="0.43"/><path class="cls-3" d="M281.38,29.52H74.25A13.23,13.23,0,0,0,61,42.75V54.09H294.62V42.75A13.23,13.23,0,0,0,281.38,29.52Z"/><path class="cls-3" d="M281.38,29H74.25A13.79,13.79,0,0,0,60.47,42.75V54.09a.54.54,0,0,0,.54.54H294.62a.54.54,0,0,0,.54-.54V42.75A13.79,13.79,0,0,0,281.38,29Zm12.7,24.57H61.55V42.75a12.72,12.72,0,0,1,12.7-12.7H281.38a12.72,12.72,0,0,1,12.7,12.7Z"/><rect class="cls-2" x="262.06" y="42.42" width="0.72" height="6.8" transform="translate(44.46 198.98) rotate(-45)"/><rect class="cls-2" x="259.02" y="45.46" width="6.8" height="0.72" transform="translate(44.46 198.98) rotate(-45)"/><path class="cls-2" d="M272,42.74a3.11,3.11,0,1,0,3.1,3.1A3.1,3.1,0,0,0,272,42.74Zm0,5.49a2.39,2.39,0,1,1,2.39-2.39A2.39,2.39,0,0,1,272,48.23Z"/><rect class="cls-2" x="277.32" y="48.23" width="4.88" height="0.72"/><path class="cls-2" d="M366.64,272.55H142.16v47.92H393V298.93A26.38,26.38,0,0,0,366.64,272.55Z"/><path class="cls-3" d="M366.64,272H142.16a.54.54,0,0,0-.54.54v47.92a.54.54,0,0,0,.54.53H393a.54.54,0,0,0,.54-.53V298.93A27,27,0,0,0,366.64,272Zm25.85,47.92H142.69V273.08h224a25.88,25.88,0,0,1,25.85,25.85Z"/><path class="cls-3" d="M170.7,301.09a28.54,28.54,0,0,0-28.54-28.54h-1.8a28.54,28.54,0,0,0-28.54,28.54c0,10.65-8.63,19.92-19.28,19.92l97.76-.32A19.6,19.6,0,0,1,170.7,301.09Z"/><path class="cls-3" d="M190.3,320.16a19.09,19.09,0,0,1-19.06-19.07A29.11,29.11,0,0,0,142.16,272h-1.8a29.11,29.11,0,0,0-29.08,29.08c0,10.44-8.53,19.31-18.63,19.38h-.11a.54.54,0,1,0,0,1.08h0l97.77-.32a.54.54,0,1,0,0-1.07Zm-91.49.29a20.8,20.8,0,0,0,13.55-19.36,28,28,0,0,1,28-28h1.8a28,28,0,0,1,28,28,20.19,20.19,0,0,0,13.71,19.09Z"/><path class="cls-3" d="M216.39,292a28.74,28.74,0,0,1-28.65,28.73H417.15A28.73,28.73,0,0,0,445.88,292V290.4H216.39Z"/><path class="cls-3" d="M445.88,289.86H216.39a.54.54,0,0,0-.54.54V292a28.25,28.25,0,0,1-28.12,28.2.54.54,0,1,0,0,1.07H417.15A29.3,29.3,0,0,0,446.42,292V290.4A.54.54,0,0,0,445.88,289.86Zm-.53,2.1a28.23,28.23,0,0,1-28.2,28.2H195.51A29.35,29.35,0,0,0,216.93,292v-1H445.35Z"/><polygon class="cls-2" points="318.02 268.6 327.77 277.13 327.77 258.85 318.02 250.33 318.02 268.6"/><path class="cls-3" d="M318.37,249.92a.52.52,0,0,0-.57-.08.54.54,0,0,0-.32.49V268.6a.53.53,0,0,0,.19.41l9.75,8.52a.52.52,0,0,0,.35.14.54.54,0,0,0,.22-.05.53.53,0,0,0,.32-.49V258.85a.55.55,0,0,0-.18-.4Zm8.86,26-8.67-7.58V251.51l8.67,7.59Z"/><polygon class="cls-2" points="327.77 277.13 341.59 269.87 341.59 251.59 327.77 258.85 327.77 277.13"/><path class="cls-3" d="M341.34,251.11l-13.82,7.27a.52.52,0,0,0-.29.47v18.28a.54.54,0,0,0,.26.46.6.6,0,0,0,.28.08.55.55,0,0,0,.25-.07l13.82-7.26a.55.55,0,0,0,.29-.47V251.59a.54.54,0,0,0-.26-.46A.56.56,0,0,0,341.34,251.11Zm-.29,18.43-12.74,6.7V259.18l12.74-6.7Z"/><polygon class="cls-3" points="318.09 250.4 327.77 258.85 341.59 251.59 331.91 243.14 318.09 250.4"/><path class="cls-3" d="M332.26,242.74a.52.52,0,0,0-.6-.07l-13.82,7.26a.54.54,0,0,0-.1.88l9.68,8.45a.58.58,0,0,0,.35.13.54.54,0,0,0,.25-.06l13.82-7.27a.51.51,0,0,0,.28-.41.56.56,0,0,0-.18-.47Zm-4.41,15.46L319,250.51l12.79-6.72,8.81,7.69Z"/><polygon class="cls-2" points="304.2 257.59 313.88 266.04 327.7 258.77 318.02 250.33 304.2 257.59"/><path class="cls-3" d="M318.37,249.92a.55.55,0,0,0-.6-.07L304,257.11a.55.55,0,0,0-.28.42.53.53,0,0,0,.18.46l9.68,8.45a.53.53,0,0,0,.35.13.51.51,0,0,0,.25-.06L328,259.25a.53.53,0,0,0,.28-.41.52.52,0,0,0-.18-.47ZM314,265.39l-8.81-7.69L317.94,251l8.81,7.69Z"/><polygon class="cls-3" points="63.96 133.75 57.33 140.38 50.7 133.75 44.55 139.9 51.18 146.53 44.55 153.15 50.7 159.3 57.33 152.67 63.96 159.3 70.11 153.15 63.48 146.53 70.11 139.9 63.96 133.75"/><path class="cls-3" d="M70.48,139.52l-6.14-6.15a.54.54,0,0,0-.76,0l-6.25,6.25-6.25-6.25a.54.54,0,0,0-.76,0l-6.15,6.15a.53.53,0,0,0,0,.76l6.25,6.25-6.25,6.24a.55.55,0,0,0-.16.38.53.53,0,0,0,.16.38l6.15,6.15a.52.52,0,0,0,.38.16.51.51,0,0,0,.38-.16l6.25-6.25,6.25,6.25a.54.54,0,0,0,.76,0l6.14-6.15a.54.54,0,0,0,0-.76l-6.24-6.24,6.24-6.25A.54.54,0,0,0,70.48,139.52Zm-7.38,6.63a.54.54,0,0,0,0,.76l6.24,6.24L64,158.54l-6.25-6.25a.54.54,0,0,0-.76,0l-6.25,6.25-5.39-5.39,6.25-6.24a.54.54,0,0,0,0-.76l-6.25-6.25,5.39-5.39L57,140.76a.54.54,0,0,0,.76,0L64,134.51l5.38,5.39Z"/><polygon class="cls-2" points="66.4 129.57 59.77 136.2 53.15 129.57 47 135.72 53.63 142.35 47 148.98 53.15 155.12 59.77 148.5 66.4 155.12 72.55 148.98 65.92 142.35 72.55 135.72 66.4 129.57"/><path class="cls-3" d="M72.93,135.34l-6.15-6.15a.54.54,0,0,0-.76,0l-6.25,6.25-6.24-6.25a.54.54,0,0,0-.76,0l-6.15,6.15a.54.54,0,0,0,0,.76l6.25,6.25-6.25,6.25a.54.54,0,0,0,0,.76l6.15,6.14a.51.51,0,0,0,.38.16.54.54,0,0,0,.38-.16l6.24-6.24L66,155.5a.54.54,0,0,0,.76,0l6.15-6.14a.54.54,0,0,0,0-.76l-6.25-6.25,6.25-6.25A.54.54,0,0,0,72.93,135.34ZM65.54,142a.54.54,0,0,0,0,.76L71.79,149l-5.39,5.38-6.25-6.24a.54.54,0,0,0-.76,0l-6.24,6.24L47.76,149,54,142.73a.54.54,0,0,0,0-.76l-6.25-6.25,5.39-5.39,6.24,6.25a.54.54,0,0,0,.76,0l6.25-6.25,5.39,5.39Z"/><circle class="cls-2" cx="317.96" cy="156.02" r="57.71" transform="translate(34.01 367.71) rotate(-62.84)"/><path class="cls-3" d="M318,97.77A58.25,58.25,0,1,0,376.21,156,58.31,58.31,0,0,0,318,97.77Zm0,115.42A57.17,57.17,0,1,1,375.13,156,57.24,57.24,0,0,1,318,213.19Z"/><g class="cls-7"><path class="cls-2" d="M293.36,183.64c-4.16,7.49-18.16,37.78-25.19,40.05s-4.46,5.24-7.14,5.21-1.68,1.8-.42,2.11a5.39,5.39,0,0,0,3.54-.47,25.55,25.55,0,0,0-1.76,3.91s-4.34.1-3.79,1.59,1.27,1.71,3.24,1.31,1.77.67,2.83,0a4.29,4.29,0,0,0,3,1,5.45,5.45,0,0,1,1.91.56c2.71,1.75,3.8-5.28,5.65-8.46,6-10.32,19.23-21.78,30.64-41.36,3-5.2,8.36-25.59,8.36-25.59l-13.34-6.37Z"/><path class="cls-3" d="M314.47,163l-13.35-6.38a.54.54,0,0,0-.45,0,.53.53,0,0,0-.3.34l-7.51,26.47c-.82,1.47-2,3.73-3.42,6.58-5.59,11-16,31.4-21.43,33.15-4.42,1.43-5.25,3.17-5.81,4.31-.32.68-.42.89-1.16.89H261c-1.75,0-2.1.77-2.15,1.22-.11.88.79,1.73,1.68,1.95a6.43,6.43,0,0,0,2.55,0,20.31,20.31,0,0,0-1.06,2.41c-1,0-3.13.28-3.77,1.21a1.2,1.2,0,0,0-.12,1.09,2.29,2.29,0,0,0,2.35,1.83,7.48,7.48,0,0,0,1.51-.18,3.15,3.15,0,0,1,.71-.08,1.83,1.83,0,0,1,.76.16,1.49,1.49,0,0,0,1.2,0,4.93,4.93,0,0,0,2.61.94,3.57,3.57,0,0,0,.46,0,4.59,4.59,0,0,1,1.59.47,2.08,2.08,0,0,0,1.12.36c1.77,0,2.74-2.62,3.77-5.4a24.65,24.65,0,0,1,1.53-3.59c2.51-4.31,6.3-8.84,10.69-14.09,5.93-7.08,13.31-15.9,19.94-27.28,3-5.2,8.21-24.89,8.42-25.72A.53.53,0,0,0,314.47,163Zm-9.07,25.8c-6.58,11.3-13.62,19.71-19.83,27.13-4.43,5.29-8.25,9.85-10.8,14.23a25.72,25.72,0,0,0-1.61,3.77c-.78,2.09-1.74,4.69-2.76,4.69a1,1,0,0,1-.53-.19,6,6,0,0,0-2.14-.64h-.17a3.7,3.7,0,0,1-2.55-.88.54.54,0,0,0-.64,0,.75.75,0,0,1-.32.15.9.9,0,0,1-.23-.08,2.81,2.81,0,0,0-1.16-.24,5.47,5.47,0,0,0-.93.1,6.24,6.24,0,0,1-1.29.17c-.64,0-1-.16-1.34-1.13,0-.07,0-.09,0-.11.29-.42,1.93-.73,3.3-.76a.53.53,0,0,0,.5-.4,26.4,26.4,0,0,1,1.72-3.79.53.53,0,0,0-.14-.67.54.54,0,0,0-.69,0,4.85,4.85,0,0,1-2.15.43,4,4,0,0,1-.9-.09c-.53-.14-.89-.6-.87-.78s.29-.27,1.09-.27h.11a2.06,2.06,0,0,0,2.1-1.49c.48-1,1.19-2.47,5.17-3.75,5.86-1.9,16-21.8,22.06-33.69,1.41-2.76,2.62-5.15,3.43-6.61a.37.37,0,0,0,.05-.11l7.35-25.91,12.37,5.91C312.81,166.75,308.12,184.15,305.4,188.81Z"/><path class="cls-2" d="M299.69,194.57c.24.83-.2,13.49-1.71,18.68h41c-1.71-1.71-1-12.12-3.75-18.68Z"/><path class="cls-3" d="M338.14,206.49c-.4-3.8-.88-8.53-2.39-12.13l-.14-.33H299.69l-.66,0,.14.65c.17.78-.2,13.24-1.7,18.4l-.2.69h43l-.91-.92C338.73,212.22,338.44,209.44,338.14,206.49Zm-39.46,6.22c1.21-4.91,1.69-14.82,1.59-17.61h34.62c1.34,3.42,1.8,7.89,2.18,11.5a27.71,27.71,0,0,0,1,6.11Z"/><polygon class="cls-2" points="289.67 178.75 307.49 184.87 312.19 161.29 295.91 158.77 289.67 178.75"/><path class="cls-3" d="M312.27,160.76,296,158.23a.53.53,0,0,0-.59.38l-6.24,20a.53.53,0,0,0,.34.67l17.81,6.12a.57.57,0,0,0,.18,0,.54.54,0,0,0,.27-.07A.56.56,0,0,0,308,185l4.7-23.58a.51.51,0,0,0-.09-.41A.56.56,0,0,0,312.27,160.76Zm-5.19,23.4-16.74-5.75,5.94-19,15.27,2.37Z"/><path class="cls-3" d="M293.16,136.69s9.44-1.09,15-6.17,5.32-7.26,5.32-7.26C297.61,115.59,293.16,136.69,293.16,136.69Z"/><path class="cls-3" d="M339.11,140c-2.6-7.8,1.21-13.72-4.9-21.94s-11.06-9.46-17.6-8.17c-11.79,2.32-19,14.82-12.68,23.87,5.88,8.38-3.55,18.33-5.77,26.65s7.71,30.67,28.93,28.63,29-11.88,28.5-25C355.05,148.42,341.71,147.8,339.11,140Z"/><path class="cls-2" d="M318.46,151.18l-.66-11.8-6.06,5.5-.07,7s-12.5,2.86-14.19,4.77c-3.08,3.5-4.29,19.72-4.71,25.71-.44,6.37,4.52,6.57,4.52,6.57l-1.21,17.69H341c-1.79-2.68-5.52-56-5.52-56S322.21,150.47,318.46,151.18Z"/><path class="cls-2" d="M340.19,157.3a6.58,6.58,0,0,0-6.72-6.72c-4.24,0-9.4.1-12.19.29a7.41,7.41,0,0,1-7,4.53,6.33,6.33,0,0,1-5.58-2.8c-3.8,1-10.05,2.73-11.21,4-3.08,3.5-4.29,19.72-4.71,25.71-.44,6.37,4.52,6.57,4.52,6.57l-1.21,17.69H341C339.63,204.56,340.09,170.48,340.19,157.3Z"/><path class="cls-3" d="M340.69,162l0-4.66a7.12,7.12,0,0,0-7.22-7.26h0c-4,0-9.37.1-12.23.3l-.32,0-.13.29a6.86,6.86,0,0,1-6.52,4.21,5.71,5.71,0,0,1-5.12-2.56l-.22-.32-.37.1c-6.66,1.7-10.52,3.12-11.48,4.21a10,10,0,0,0-1.73,3.57l1,.32a9.31,9.31,0,0,1,1.5-3.18c.76-.86,4.7-2.27,10.59-3.79a6.93,6.93,0,0,0,5.8,2.72,7.88,7.88,0,0,0,7.36-4.54c2.9-.18,8-.25,11.84-.27h0a6,6,0,0,1,6.14,6.17l0,4.66c-.21,24.09-.17,40.14.65,44.12H296.65l1.21-17.66-.55,0a4.37,4.37,0,0,1-2.8-1.39,6.1,6.1,0,0,1-1.2-4.62c.2-2.88.49-6.69.95-10.64l-1.07-.13c-.46,4-.75,7.81-.95,10.7a7,7,0,0,0,1.47,5.4,5.45,5.45,0,0,0,3,1.68l-1.22,17.76H341l1,0-.51-.82C340.31,204.49,340.57,174.68,340.69,162Z"/><path class="cls-2" d="M315.72,135.85s-4.49-7.89-7.32-7.63-5,.88-5.84,4.19a9.56,9.56,0,0,0,.05,6.14s-3.11,3.95,1.72,8.08,10.91-.37,12.3-5.21c0,0,3.95.54,3.82-3S318,135.06,315.72,135.85Z"/><path class="cls-3" d="M318,134.83a6.87,6.87,0,0,0-2.07.38c-1-1.74-4.81-7.79-7.62-7.53s-5.37.8-6.29,4.54a10,10,0,0,0-.05,6.25c-.62,1-2.47,4.77,2,8.57a6.82,6.82,0,0,0,4.51,1.74c4,0,7.36-3.38,8.53-6.8h.15a4.16,4.16,0,0,0,3-1.07,3.34,3.34,0,0,0,.85-2.55C320.88,135.44,319.33,134.83,318,134.83Zm1.33,5.35a3.13,3.13,0,0,1-2.2.73c-.27,0-.45,0-.47,0l-.46-.06-.12.44c-.9,3.1-4.07,6.44-7.63,6.44a5.77,5.77,0,0,1-3.81-1.49c-4.36-3.73-1.76-7.2-1.65-7.34l.19-.24-.11-.28a9.13,9.13,0,0,1,0-5.82c.71-2.84,2.43-3.52,5.37-3.79h.08c1.85,0,5.1,4.52,6.72,7.37l.23.39.42-.15a6.81,6.81,0,0,1,2.14-.46c.83,0,1.79.29,1.87,2.51A2.33,2.33,0,0,1,319.37,140.18Z"/><path class="cls-3" d="M308.1,127.78c-1,1.18-.77,4.18,2.88,7s3.36,7,5.42,4.37,2-3,1.72-6.06S310.36,125.18,308.1,127.78Z"/><path class="cls-3" d="M312.88,168.75a7.7,7.7,0,0,0-9.28,2.67l12.82,5.86A6.89,6.89,0,0,0,312.88,168.75Z"/><path class="cls-3" d="M306,182.19a7.53,7.53,0,0,0,7.68-1l-11.59-5.3A6.73,6.73,0,0,0,306,182.19Z"/></g><path class="cls-2" d="M347.83,162l-11.44,11.18,10.69,8.11c-7,5.13-21.7,16.32-32,18.2-8.76,1.61-9.23,6.8-11.54,8.55s-.38,2.44.88,1.83,4.6-4,5.09-4.23c0,0-5.13,9.73-5.25,11.31s1.22,1.72,2.38-.1,1.76.62,3.32-.25,1.07-2.39,3.6-2c.53.08,2-.26,4.22-3.43,1.3-1.88,1.28-2.39,5.58-4.78,10.59-5.9,25.26-7.81,41.82-22.3C369.61,180.24,347.83,162,347.83,162Z"/><path class="cls-3" d="M348.17,161.6a.53.53,0,0,0-.72,0L336,172.8a.56.56,0,0,0-.16.42.57.57,0,0,0,.21.4l10.12,7.68-1,.76C337.9,187.37,324.43,197.25,315,199c-6.55,1.2-8.65,4.36-10.18,6.67a8.08,8.08,0,0,1-1.6,2c-1,.79-1.45,1.52-1.23,2.18a1.46,1.46,0,0,0,1.49.84,2.91,2.91,0,0,0,1.19-.27,18.71,18.71,0,0,0,3.06-2.44c-1.56,3-3.91,7.82-4,9a1.85,1.85,0,0,0,.39,1.43,1.18,1.18,0,0,0,.87.37,2.82,2.82,0,0,0,2.11-1.57c.22-.36.39-.48.47-.48a1.42,1.42,0,0,1,.46.22,2.4,2.4,0,0,0,1.27.44,1.91,1.91,0,0,0,.93-.25,4.27,4.27,0,0,0,1.4-1.31c.34-.47.5-.69,1.19-.69a4.47,4.47,0,0,1,.67.06c.64.09,2.29-.1,4.74-3.65.16-.23.3-.43.42-.62.92-1.38,1.3-2,5-4a91,91,0,0,1,11.27-4.94c9.05-3.52,19.31-7.5,30.64-17.43a2.33,2.33,0,0,0,.78-1.84C366.27,176.81,348.91,162.22,348.17,161.6Zm16.69,22.09c-11.2,9.8-21.36,13.75-30.33,17.24a92.09,92.09,0,0,0-11.4,5c-3.91,2.17-4.39,2.9-5.35,4.34l-.41.61c-2.09,3-3.37,3.2-3.69,3.2h0c-1.85-.29-2.43.42-2.89,1.06a3.22,3.22,0,0,1-1.06,1c-.41.23-.73.06-1.11-.17a1.94,1.94,0,0,0-1-.38,1.75,1.75,0,0,0-1.38,1c-.54.85-1,1.07-1.2,1.07a.09.09,0,0,1-.08,0,.9.9,0,0,1-.1-.61c.07-1.07,3.22-7.38,5.19-11.1a.53.53,0,0,0-.09-.62.52.52,0,0,0-.39-.17.49.49,0,0,0-.23.06,10.71,10.71,0,0,0-1.67,1.41,24.32,24.32,0,0,1-3.42,2.82,1.8,1.8,0,0,1-.72.16.83.83,0,0,1-.47-.1s0-.33.86-1a9,9,0,0,0,1.85-2.24c1.5-2.27,3.37-5.09,9.47-6.21,9.65-1.76,23.26-11.74,30.57-17.11l1.62-1.18a.54.54,0,0,0,0-.87l-10.19-7.73,10.64-10.4c5.17,4.37,17.36,15.59,17.41,19.93A1.25,1.25,0,0,1,364.86,183.69Z"/><polygon class="cls-2" points="324.63 165.93 333.6 179.48 353.37 164.26 338.49 152.57 324.63 165.93"/><path class="cls-3" d="M338.82,152.15l-.67.84,14.34,11.27L333.73,178.7,326,166.85l-.9.59,8,12.34a.52.52,0,0,0,.36.23h.09a.57.57,0,0,0,.33-.11l19.77-15.22a.56.56,0,0,0,.21-.43.54.54,0,0,0-.21-.42Z"/><path class="cls-4" d="M259.89,165.79a18.79,18.79,0,1,0,18.78,18.78A18.78,18.78,0,0,0,259.89,165.79Z"/><path class="cls-3" d="M259.89,165.25a19.33,19.33,0,1,0,19.32,19.32A19.34,19.34,0,0,0,259.89,165.25Zm0,37.57a18.25,18.25,0,1,1,18.24-18.25A18.27,18.27,0,0,1,259.89,202.82Z"/><path class="cls-3" d="M269.13,183.86l-3-.76a6.38,6.38,0,0,1-4.6-4.65L260.7,175a.92.92,0,0,0-1.77-.06l-1.19,3.84a6.36,6.36,0,0,1-4.38,4.26l-2.73.76a.92.92,0,0,0,.07,1.79l2.65.5a6.36,6.36,0,0,1,5,4.79l.75,3.19a.92.92,0,0,0,1.79,0l.62-3a6.38,6.38,0,0,1,5.07-5l2.47-.46A.92.92,0,0,0,269.13,183.86Z"/><path class="cls-2" d="M269.26,183.34l-3-.76a5.83,5.83,0,0,1-4.21-4.26l-.84-3.41a1.46,1.46,0,0,0-2.81-.08l-1.18,3.84a5.81,5.81,0,0,1-4,3.89l-2.73.76a1.46,1.46,0,0,0,.11,2.84l2.65.5a5.81,5.81,0,0,1,4.59,4.38l.76,3.19a1.45,1.45,0,0,0,2.84,0l.61-3a5.82,5.82,0,0,1,4.65-4.56l2.47-.46a1.46,1.46,0,0,0,.09-2.84Zm-.29,1.79-2.47.45A6.89,6.89,0,0,0,261,191l-.61,3a.36.36,0,0,1-.38.3.34.34,0,0,1-.36-.29l-.76-3.19a6.91,6.91,0,0,0-5.44-5.19l-2.65-.5a.38.38,0,0,1-.31-.36.37.37,0,0,1,.28-.38l2.74-.76a6.89,6.89,0,0,0,4.75-4.62l1.18-3.84a.37.37,0,0,1,.36-.27.39.39,0,0,1,.38.29l.84,3.42a6.9,6.9,0,0,0,5,5l3,.76a.38.38,0,0,1,0,.75Z"/><path class="cls-3" d="M523.89,70.25l-1.07,0c-.45,9.64-6.06,20.59-15.4,30.06a68,68,0,0,1-7.12,6.28c-6.82-7-15.1-11.45-20.51-10.15-2.32.56-5.09,2.46-5.09,8.35,0,6.55,2.94,10.22,8.29,10.34,4.71.11,11-2.6,17.2-7.11a46,46,0,0,1,7.46,10.46c3.66,7.16,7.81,20.91-5.62,32.44-15.76,13.54-40.89-5.52-67.51-25.7-20.26-15.36-41.16-31.2-59.23-33.46-2.47-13-9.48-25.66-21.26-32.13-29.33-16.09-70.34,8.62-82.21,16.57l.59.89c11.75-7.87,52.31-32.32,81.1-16.51,11.4,6.25,18.22,18.43,20.68,31.06a30.87,30.87,0,0,0-3.17-.16c-9.45,0-17.26,2.73-22.57,7.9a23.15,23.15,0,0,0-7,16.47c0,8.34,4.9,16.78,14.27,16.78,9.2,0,16.16-6.59,19.11-18.09a52.81,52.81,0,0,0,.64-21.67c17.7,2.37,38.36,18,58.38,33.21,20.54,15.57,40.21,30.48,55.68,30.48a19.54,19.54,0,0,0,13.18-4.82c14-12,9.69-26.31,5.87-33.75a47.11,47.11,0,0,0-7.55-10.61C512.37,98.78,523.23,84.38,523.89,70.25ZM483,114c-4.73-.11-7.23-3.32-7.23-9.27,0-4.16,1.43-6.62,4.27-7.3a6.67,6.67,0,0,1,1.65-.19c4.72,0,11.71,3.84,17.73,9.93C493.41,111.57,487.48,114.11,483,114Zm-109.2.21c-2.82,11-9.4,17.28-18.07,17.28s-13.2-7.9-13.2-15.7a22.09,22.09,0,0,1,6.66-15.7c5.11-5,12.65-7.59,21.82-7.59a32,32,0,0,1,3.37.18A52.17,52.17,0,0,1,373.81,114.22Z"/><path class="cls-3" d="M270,73.17a4,4,0,1,0,5.62,1A4,4,0,0,0,270,73.17Z"/><path class="cls-3" d="M523.82,69.2a.53.53,0,0,0-.9,0l-5.25,7.4a.54.54,0,1,0,.88.62l4.76-6.71,4.07,7.15a.54.54,0,0,0,.73.2.57.57,0,0,0,.27-.44.55.55,0,0,0-.07-.3Z"/><polygon class="cls-6" points="337.85 41.45 328.68 45.36 324.96 54.61 328.87 63.77 338.12 67.49 347.28 63.58 351 54.34 347.09 45.17 337.85 41.45"/><path class="cls-3" d="M347.59,45a.53.53,0,0,0-.3-.29L338.05,41a.55.55,0,0,0-.42,0l-9.16,3.91a.52.52,0,0,0-.29.29l-3.72,9.25a.58.58,0,0,0,0,.41L328.37,64a.55.55,0,0,0,.3.28L337.91,68a.57.57,0,0,0,.42,0l9.16-3.91a.5.5,0,0,0,.29-.3l3.72-9.24a.58.58,0,0,0,0-.41Zm-.72,18.22-8.76,3.73-8.83-3.55-3.74-8.76,3.55-8.83L337.85,42l8.83,3.55,3.74,8.76Z"/><path class="cls-2" d="M485.81,40.93c-.22.44-.43.81-.59,1.19h0c-.18-.4-.36-.75-.58-1.19l-.82-1.6H483l1.84,3.33v2.46h.76V42.66l1.94-3.33h-.85Z"/><path class="cls-2" d="M489.28,40.87a2,2,0,0,0-2.07,2.21,2,2,0,0,0,2,2.14h0A2,2,0,0,0,491.28,43,2,2,0,0,0,489.28,40.87Zm0,3.78h0c-.73,0-1.24-.69-1.24-1.6s.38-1.62,1.27-1.62,1.25.89,1.25,1.59C490.5,44,490,44.65,489.23,44.65Z"/><path class="cls-2" d="M495.72,41H495v2.55a.89.89,0,0,1-.07.38,1.07,1.07,0,0,1-1,.7c-.68,0-.93-.54-.93-1.33V41h-.76v2.43c0,1.46.78,1.83,1.44,1.83a1.54,1.54,0,0,0,1.37-.78h0l0,.68h.67c0-.32,0-.7,0-1.13Z"/><path class="cls-2" d="M497.67,41.78h0l0-.82H497c0,.39,0,.81,0,1.3v2.86h.75V42.9a2.19,2.19,0,0,1,0-.36,1.05,1.05,0,0,1,1-1l.27,0v-.71l-.21,0A1.26,1.26,0,0,0,497.67,41.78Z"/><path class="cls-2" d="M503,42.71c-.55-.21-.79-.36-.79-.72s.24-.56.69-.56a1.63,1.63,0,0,1,.85.24l.18-.55a2,2,0,0,0-1-.25,1.29,1.29,0,0,0-1.44,1.22c0,.5.35.9,1.11,1.18.55.2.77.4.77.76s-.26.62-.8.62a2.11,2.11,0,0,1-1-.29l-.18.56a2.27,2.27,0,0,0,1.17.3c1,0,1.55-.52,1.55-1.26S503.67,43,503,42.71Z"/><rect class="cls-2" x="505.02" y="40.96" width="0.76" height="4.16"/><path class="cls-2" d="M505.4,39.22a.49.49,0,0,0,0,1h0a.48.48,0,0,0,.49-.49A.47.47,0,0,0,505.4,39.22Z"/><path class="cls-2" d="M509.93,41.58h0a1.38,1.38,0,0,0-1.29-.71,2,2,0,0,0-1.89,2.2,1.87,1.87,0,0,0,1.77,2,1.48,1.48,0,0,0,1.33-.7h0v.45c0,1.06-.56,1.47-1.34,1.47a2.29,2.29,0,0,1-1.22-.34l-.19.59a2.75,2.75,0,0,0,1.39.34,2.28,2.28,0,0,0,1.52-.5,2.46,2.46,0,0,0,.59-1.91V42.1a11.28,11.28,0,0,1,0-1.14H510Zm-.09,1.76a1.35,1.35,0,0,1-.06.41,1.09,1.09,0,0,1-1,.78c-.81,0-1.23-.69-1.23-1.5,0-1,.51-1.58,1.24-1.58a1.07,1.07,0,0,1,1.05.81.88.88,0,0,1,0,.33Z"/><path class="cls-2" d="M513.92,40.87a1.54,1.54,0,0,0-1.38.77h0l0-.68h-.67c0,.34,0,.69,0,1.13v3h.76V42.61a1.23,1.23,0,0,1,0-.35,1.1,1.1,0,0,1,1-.77c.71,0,1,.56,1,1.23v2.4h.76V42.64C515.39,41.21,514.49,40.87,513.92,40.87Z"/><path class="cls-2" d="M519.55,42.57c0-.84-.31-1.7-1.59-1.7a2.66,2.66,0,0,0-1.38.36l.17.5a2.1,2.1,0,0,1,1.1-.3.85.85,0,0,1,.94,1v.08c-1.61,0-2.5.55-2.5,1.55a1.19,1.19,0,0,0,1.27,1.2,1.57,1.57,0,0,0,1.28-.62h0l.07.52h.68a7.31,7.31,0,0,1-.06-1Zm-.74,1.15a1,1,0,0,1,0,.24,1.07,1.07,0,0,1-1,.7.66.66,0,0,1-.7-.72c0-.81.93-1,1.76-.94Z"/><path class="cls-2" d="M521.64,40l-.74.24V41h-.64v.58h.64v2.27a1.65,1.65,0,0,0,.29,1.09,1.08,1.08,0,0,0,.82.32,1.81,1.81,0,0,0,.67-.11l0-.57a1.61,1.61,0,0,1-.44.05c-.42,0-.57-.29-.57-.81V41.54h1.08V41h-1.08Z"/><path class="cls-2" d="M527.06,41h-.76v2.55a.89.89,0,0,1-.07.38,1.07,1.07,0,0,1-1,.7c-.68,0-.93-.54-.93-1.33V41h-.76v2.43c0,1.46.78,1.83,1.44,1.83a1.54,1.54,0,0,0,1.37-.78h0l0,.68h.67c0-.32,0-.7,0-1.13Z"/><path class="cls-2" d="M529,41.78h0l0-.82h-.66c0,.39,0,.81,0,1.3v2.86h.75V42.9a2.19,2.19,0,0,1,0-.36,1.05,1.05,0,0,1,1-1l.27,0v-.71l-.21,0A1.26,1.26,0,0,0,529,41.78Z"/><path class="cls-2" d="M532.74,40.86a2,2,0,0,0-2,2.25,1.94,1.94,0,0,0,2.05,2.1,3.39,3.39,0,0,0,1.39-.27l-.14-.53a2.87,2.87,0,0,1-1.15.21,1.33,1.33,0,0,1-1.42-1.45h2.91a1.73,1.73,0,0,0,0-.36A1.75,1.75,0,0,0,532.74,40.86Zm-1.22,1.77a1.25,1.25,0,0,1,1.16-1.23,1.08,1.08,0,0,1,1,1.23Z"/><path class="cls-2" d="M539.3,40.87a1.44,1.44,0,0,0-.77.21,1.38,1.38,0,0,0-.54.53h0V39h-.76v6.1H538V42.61a1,1,0,0,1,0-.36,1.11,1.11,0,0,1,1-.76c.71,0,1,.56,1,1.24v2.39h.76V42.65C540.76,41.21,539.86,40.87,539.3,40.87Z"/><path class="cls-2" d="M544.92,42.57c0-.84-.31-1.7-1.59-1.7a2.66,2.66,0,0,0-1.38.36l.17.5a2.1,2.1,0,0,1,1.1-.3.85.85,0,0,1,.94,1v.08c-1.61,0-2.5.55-2.5,1.55a1.19,1.19,0,0,0,1.27,1.2,1.57,1.57,0,0,0,1.28-.62h0l.07.52H545a7.31,7.31,0,0,1-.06-1Zm-.74,1.15a1,1,0,0,1,0,.24,1.07,1.07,0,0,1-1,.7.66.66,0,0,1-.7-.72c0-.81.93-1,1.76-.94Z"/><path class="cls-2" d="M547.48,42.71c-.55-.21-.79-.36-.79-.72s.24-.56.69-.56a1.63,1.63,0,0,1,.85.24l.18-.55a2,2,0,0,0-1-.25A1.29,1.29,0,0,0,546,42.09c0,.5.35.9,1.11,1.18.55.2.77.4.77.76s-.26.62-.8.62a2.11,2.11,0,0,1-1-.29l-.18.56a2.27,2.27,0,0,0,1.17.3c1,0,1.55-.52,1.55-1.26S548.19,43,547.48,42.71Z"/><path class="cls-2" d="M495.19,51.19a1.54,1.54,0,0,0-1.42.76h0V49.34H493v5c0,.37,0,.79,0,1.08h.66l0-.69h0a1.49,1.49,0,0,0,1.39.78,2,2,0,0,0,1.87-2.23C496.94,52.05,496.22,51.19,495.19,51.19Zm-.27,3.75a1.15,1.15,0,0,1-1.17-1.16V53a1.07,1.07,0,0,1,.05-.32,1.2,1.2,0,0,1,1.14-.93c.81,0,1.24.72,1.24,1.56S495.71,54.94,494.92,54.94Z"/><path class="cls-2" d="M499.56,51.18a2,2,0,0,0-2,2.25,1.94,1.94,0,0,0,2,2.1,3.42,3.42,0,0,0,1.39-.26l-.14-.54a2.87,2.87,0,0,1-1.15.21,1.33,1.33,0,0,1-1.42-1.45h2.92a2.93,2.93,0,0,0,0-.36A1.76,1.76,0,0,0,499.56,51.18ZM498.34,53a1.25,1.25,0,0,1,1.16-1.23,1.08,1.08,0,0,1,1,1.23Z"/><path class="cls-2" d="M503.87,51.18a2,2,0,0,0-2,2.25,1.94,1.94,0,0,0,2,2.1,3.42,3.42,0,0,0,1.39-.26l-.14-.54a2.87,2.87,0,0,1-1.15.21,1.33,1.33,0,0,1-1.42-1.45h2.92a2.93,2.93,0,0,0,0-.36A1.76,1.76,0,0,0,503.87,51.18ZM502.65,53a1.25,1.25,0,0,1,1.16-1.23,1.08,1.08,0,0,1,1,1.23Z"/><path class="cls-2" d="M508.59,51.19a1.54,1.54,0,0,0-1.37.77h0l0-.67h-.67c0,.34,0,.68,0,1.12v3h.76V52.94a1.36,1.36,0,0,1,.05-.36,1.09,1.09,0,0,1,1-.77c.72,0,1,.57,1,1.24v2.4h.75V53C510.06,51.53,509.17,51.19,508.59,51.19Z"/><path class="cls-2" d="M514.94,53.62c-.14.38-.26.73-.35,1.07h0a9.17,9.17,0,0,0-.33-1.07l-.82-2.33h-.81l1.59,4.16h.72l1.63-4.16h-.79Z"/><path class="cls-2" d="M518.82,51.18a2,2,0,0,0-2,2.25,2,2,0,0,0,2,2.1,3.38,3.38,0,0,0,1.39-.26l-.14-.54a2.87,2.87,0,0,1-1.15.21,1.33,1.33,0,0,1-1.42-1.45h2.92a1.73,1.73,0,0,0,0-.36A1.76,1.76,0,0,0,518.82,51.18ZM517.6,53a1.25,1.25,0,0,1,1.16-1.23,1.08,1.08,0,0,1,1,1.23Z"/><path class="cls-2" d="M522.17,52.1h0l0-.81h-.66c0,.38,0,.8,0,1.29v2.87h.76V53.23a2,2,0,0,1,0-.36,1.06,1.06,0,0,1,1-1l.27,0v-.7a.71.71,0,0,0-.21,0A1.25,1.25,0,0,0,522.17,52.1Z"/><path class="cls-2" d="M524.7,49.55a.49.49,0,0,0,0,1h0a.47.47,0,0,0,.49-.49A.46.46,0,0,0,524.7,49.55Z"/><rect class="cls-2" x="524.32" y="51.29" width="0.76" height="4.16"/><path class="cls-2" d="M526.89,49.63a2,2,0,0,0-.49,1.46v.2h-.57v.57h.57v3.59h.76V51.86h1v-.57h-1v-.23c0-.63.17-1.2.81-1.2a1.22,1.22,0,0,1,.49.09l.09-.58a1.69,1.69,0,0,0-.64-.12A1.49,1.49,0,0,0,526.89,49.63Z"/><rect class="cls-2" x="528.85" y="51.29" width="0.76" height="4.16"/><path class="cls-2" d="M529.22,49.55a.49.49,0,0,0,0,1h0a.47.47,0,0,0,.49-.49A.46.46,0,0,0,529.22,49.55Z"/><path class="cls-2" d="M532.52,51.18a2,2,0,0,0-2,2.25,1.94,1.94,0,0,0,2.05,2.1,3.42,3.42,0,0,0,1.39-.26l-.14-.54a2.87,2.87,0,0,1-1.15.21,1.33,1.33,0,0,1-1.42-1.45h2.91a1.6,1.6,0,0,0,0-.36A1.76,1.76,0,0,0,532.52,51.18ZM531.3,53a1.25,1.25,0,0,1,1.16-1.23,1.08,1.08,0,0,1,1,1.23Z"/><path class="cls-2" d="M538.76,49.34H538v2.48h0a1.38,1.38,0,0,0-1.26-.63,2,2,0,0,0-1.86,2.24,1.9,1.9,0,0,0,1.79,2.11,1.51,1.51,0,0,0,1.41-.82h0l0,.73h.68c0-.29,0-.71,0-1.08ZM538,53.7a1.19,1.19,0,0,1,0,.33,1.14,1.14,0,0,1-1.11.9c-.8,0-1.23-.7-1.23-1.55s.47-1.6,1.25-1.6a1.11,1.11,0,0,1,1.09.87,1.29,1.29,0,0,1,0,.33Z"/><path class="cls-2" d="M581.66,36.4h-11.9a3.16,3.16,0,0,0-3.15,3.15v9.26a3.16,3.16,0,0,0,1,2.28l6,5.69a3.15,3.15,0,0,0,4.36,0l5.91-5.68a3.22,3.22,0,0,0,1-2.26l0-9.27a3.16,3.16,0,0,0-3.16-3.16Zm2.05,12.42a2.06,2.06,0,0,1-.64,1.49L577.16,56a2.12,2.12,0,0,1-2.87,0l-6-5.69a2.06,2.06,0,0,1-.64-1.5V39.55a2.07,2.07,0,0,1,2.07-2.07h11.91a2.07,2.07,0,0,1,2.07,2.09Z"/><path class="cls-2" d="M575.22,46.6l-1.83-1.83-2,2,2.85,2.85a1.42,1.42,0,0,0,1,.42,1.45,1.45,0,0,0,1-.42l5.41-5.41-2-2Z"/><polygon class="cls-5" points="55.42 302.12 73.24 266.56 36.63 292.04 55.42 302.12"/><path class="cls-3" d="M72.94,266.12,36.33,291.6a.51.51,0,0,0-.23.47.52.52,0,0,0,.28.44L55.17,302.6a.51.51,0,0,0,.25.06l.16,0a.55.55,0,0,0,.32-.28L73.72,266.8a.55.55,0,0,0-.12-.65A.54.54,0,0,0,72.94,266.12ZM55.19,301.39,37.66,292l34.16-23.77Z"/><polygon class="cls-5" points="36.63 292.04 73.24 266.56 33.7 270.92 36.63 292.04"/><path class="cls-3" d="M73.18,266l-39.54,4.36a.57.57,0,0,0-.36.2.56.56,0,0,0-.11.41l2.93,21.12a.53.53,0,0,0,.32.42.49.49,0,0,0,.21,0,.56.56,0,0,0,.31-.09L73.55,267a.54.54,0,0,0-.37-1ZM37,291.09l-2.73-19.7,36.89-4.07Z"/><rect class="cls-3" x="611.74" y="34.92" width="1.08" height="16.45" transform="translate(400.89 619.4) rotate(-73.89)"/><rect class="cls-3" x="581.09" y="8.37" width="1.08" height="13.43" transform="translate(0.12 34.19) rotate(-3.37)"/><rect class="cls-3" x="595.12" y="22.18" width="24.81" height="1.08" transform="translate(62.62 292.31) rotate(-28.47)"/><rect class="cls-3" x="586.51" y="11.88" width="35.42" height="1.08" transform="translate(151.98 413.31) rotate(-42.73)"/><rect class="cls-3" x="443.56" y="43.97" width="1.08" height="16.45" transform="translate(270.7 464.36) rotate(-73.89)"/><rect class="cls-3" x="474.21" y="73.54" width="1.08" height="13.43" transform="translate(-3.89 28.02) rotate(-3.37)"/><rect class="cls-3" x="436.45" y="72.09" width="24.81" height="1.08" transform="translate(19.66 222.75) rotate(-28.47)"/><rect class="cls-3" x="434.45" y="82.39" width="35.42" height="1.08" transform="translate(63.74 328.81) rotate(-42.73)"/></g></g></svg>