<svg id="Layer_1" data-name="Layer 1" xmlns="http://www.w3.org/2000/svg" xmlns:xlink="http://www.w3.org/1999/xlink" viewBox="0 0 657.51 623.18"><defs><style>.cls-1{fill:none;}.cls-2{fill:#fff;}.cls-3{fill:#231d24;}.cls-4{fill:#4d5eff;}.cls-5{clip-path:url(#clip-path);}</style><clipPath id="clip-path" transform="translate(-24.25 -70.31)"><circle class="cls-1" cx="342.21" cy="197.36" r="57.28" transform="translate(-39.32 299.78) rotate(-45)"/></clipPath></defs><title>HeroV2</title><rect class="cls-2" x="265.3" y="341.72" width="21.13" height="21.13"/><path class="cls-3" d="M310.68,411.5H289.54a.53.53,0,0,0-.53.53v21.14a.54.54,0,0,0,.53.54h21.14a.54.54,0,0,0,.53-.54V412A.53.53,0,0,0,310.68,411.5Zm-.54,21.13H290.08V412.57h20.06Z" transform="translate(-24.25 -70.31)"/><rect class="cls-2" x="264.98" y="383.81" width="21.13" height="21.13"/><path class="cls-3" d="M310.36,453.59H289.23a.54.54,0,0,0-.54.53v21.14a.54.54,0,0,0,.54.54h21.13a.54.54,0,0,0,.54-.54V454.12A.54.54,0,0,0,310.36,453.59Zm-.54,21.13H289.77V454.66h20.05Z" transform="translate(-24.25 -70.31)"/><rect class="cls-2" x="306.83" y="341.64" width="21.13" height="21.13"/><path class="cls-3" d="M352.21,411.42H331.08a.54.54,0,0,0-.54.53v21.14a.54.54,0,0,0,.54.53h21.13a.54.54,0,0,0,.54-.53V412A.54.54,0,0,0,352.21,411.42Zm-.54,21.13H331.61V412.49h20.06Z" transform="translate(-24.25 -70.31)"/><rect class="cls-3" x="328.07" y="362.56" width="21.13" height="21.13"/><rect class="cls-3" x="286.05" y="362.84" width="21.13" height="21.13"/><path class="cls-3" d="M309.76,454.83H332V432.62H309.76Zm1.07-21.14h20.06v20.06H310.83Z" transform="translate(-24.25 -70.31)"/><rect class="cls-2" x="348.85" y="404.5" width="21.13" height="21.13"/><path class="cls-3" d="M394.23,474.28H373.1a.54.54,0,0,0-.54.54V496a.54.54,0,0,0,.54.54h21.13a.54.54,0,0,0,.54-.54V474.82A.54.54,0,0,0,394.23,474.28Zm-.54,21.13H373.64V475.36h20.05Z" transform="translate(-24.25 -70.31)"/><rect class="cls-2" x="307.27" y="383.47" width="21.13" height="21.13"/><path class="cls-3" d="M352.65,453.25H331.52a.54.54,0,0,0-.54.54v21.13a.54.54,0,0,0,.54.54h21.13a.54.54,0,0,0,.54-.54V453.79A.54.54,0,0,0,352.65,453.25Zm-.54,21.13H332.05V454.33h20.06Z" transform="translate(-24.25 -70.31)"/><rect class="cls-4" x="462.15" y="341.99" width="132.89" height="39.21" rx="14.15"/><path class="cls-3" d="M605.13,411.76H500.55a14.71,14.71,0,0,0-14.69,14.69v10.91A14.7,14.7,0,0,0,500.55,452H605.13a14.7,14.7,0,0,0,14.69-14.68V426.45A14.71,14.71,0,0,0,605.13,411.76Zm13.61,25.6A13.62,13.62,0,0,1,605.13,451H500.55a13.62,13.62,0,0,1-13.61-13.61V426.45a13.62,13.62,0,0,1,13.61-13.61H605.13a13.62,13.62,0,0,1,13.61,13.61Z" transform="translate(-24.25 -70.31)"/><path class="cls-3" d="M44.75,133.5a1.76,1.76,0,1,0,1.76,1.76A1.76,1.76,0,0,0,44.75,133.5Z" transform="translate(-24.25 -70.31)"/><path class="cls-3" d="M67.49,133.5a1.76,1.76,0,1,0,1.75,1.76A1.76,1.76,0,0,0,67.49,133.5Z" transform="translate(-24.25 -70.31)"/><path class="cls-3" d="M90.22,133.5A1.76,1.76,0,1,0,92,135.26,1.76,1.76,0,0,0,90.22,133.5Z" transform="translate(-24.25 -70.31)"/><path class="cls-3" d="M113,133.5a1.76,1.76,0,1,0,1.75,1.76A1.76,1.76,0,0,0,113,133.5Z" transform="translate(-24.25 -70.31)"/><path class="cls-3" d="M135.69,133.5a1.76,1.76,0,1,0,1.76,1.76A1.75,1.75,0,0,0,135.69,133.5Z" transform="translate(-24.25 -70.31)"/><path class="cls-3" d="M56.54,145.86a1.76,1.76,0,1,0,1.75,1.76A1.76,1.76,0,0,0,56.54,145.86Z" transform="translate(-24.25 -70.31)"/><path class="cls-3" d="M79.2,145.86A1.76,1.76,0,1,0,81,147.62,1.76,1.76,0,0,0,79.2,145.86Z" transform="translate(-24.25 -70.31)"/><path class="cls-3" d="M101.86,145.86a1.76,1.76,0,1,0,1.76,1.76A1.76,1.76,0,0,0,101.86,145.86Z" transform="translate(-24.25 -70.31)"/><path class="cls-3" d="M124.52,145.86a1.76,1.76,0,1,0,1.76,1.76A1.75,1.75,0,0,0,124.52,145.86Z" transform="translate(-24.25 -70.31)"/><path class="cls-3" d="M44.75,162.72a1.76,1.76,0,1,0,1.76,1.75A1.75,1.75,0,0,0,44.75,162.72Z" transform="translate(-24.25 -70.31)"/><path class="cls-3" d="M67.49,162.72a1.76,1.76,0,1,0,1.75,1.75A1.75,1.75,0,0,0,67.49,162.72Z" transform="translate(-24.25 -70.31)"/><path class="cls-3" d="M90.22,162.72A1.76,1.76,0,1,0,92,164.47,1.75,1.75,0,0,0,90.22,162.72Z" transform="translate(-24.25 -70.31)"/><path class="cls-3" d="M113,162.72a1.76,1.76,0,1,0,1.75,1.75A1.75,1.75,0,0,0,113,162.72Z" transform="translate(-24.25 -70.31)"/><path class="cls-3" d="M135.69,162.72a1.76,1.76,0,1,0,1.76,1.75A1.75,1.75,0,0,0,135.69,162.72Z" transform="translate(-24.25 -70.31)"/><path class="cls-3" d="M56.54,175.08a1.76,1.76,0,1,0,1.75,1.76A1.76,1.76,0,0,0,56.54,175.08Z" transform="translate(-24.25 -70.31)"/><path class="cls-3" d="M79.2,175.08A1.76,1.76,0,1,0,81,176.84,1.76,1.76,0,0,0,79.2,175.08Z" transform="translate(-24.25 -70.31)"/><path class="cls-3" d="M101.86,175.08a1.76,1.76,0,1,0,1.76,1.76A1.76,1.76,0,0,0,101.86,175.08Z" transform="translate(-24.25 -70.31)"/><path class="cls-3" d="M124.52,175.08a1.76,1.76,0,1,0,1.76,1.76A1.75,1.75,0,0,0,124.52,175.08Z" transform="translate(-24.25 -70.31)"/><path class="cls-3" d="M44.75,191.93a1.76,1.76,0,1,0,1.76,1.76A1.76,1.76,0,0,0,44.75,191.93Z" transform="translate(-24.25 -70.31)"/><path class="cls-3" d="M67.49,191.93a1.76,1.76,0,1,0,1.75,1.76A1.76,1.76,0,0,0,67.49,191.93Z" transform="translate(-24.25 -70.31)"/><path class="cls-3" d="M90.22,191.93A1.76,1.76,0,1,0,92,193.69,1.76,1.76,0,0,0,90.22,191.93Z" transform="translate(-24.25 -70.31)"/><path class="cls-3" d="M113,191.93a1.76,1.76,0,1,0,1.75,1.76A1.76,1.76,0,0,0,113,191.93Z" transform="translate(-24.25 -70.31)"/><path class="cls-3" d="M135.69,191.93a1.76,1.76,0,1,0,1.76,1.76A1.75,1.75,0,0,0,135.69,191.93Z" transform="translate(-24.25 -70.31)"/><path class="cls-3" d="M56.54,204.3a1.76,1.76,0,1,0,1.75,1.75A1.75,1.75,0,0,0,56.54,204.3Z" transform="translate(-24.25 -70.31)"/><path class="cls-3" d="M79.2,204.3A1.76,1.76,0,1,0,81,206.05,1.75,1.75,0,0,0,79.2,204.3Z" transform="translate(-24.25 -70.31)"/><path class="cls-3" d="M101.86,204.3a1.76,1.76,0,1,0,1.76,1.75A1.75,1.75,0,0,0,101.86,204.3Z" transform="translate(-24.25 -70.31)"/><path class="cls-3" d="M124.52,204.3a1.76,1.76,0,1,0,1.76,1.75A1.75,1.75,0,0,0,124.52,204.3Z" transform="translate(-24.25 -70.31)"/><path class="cls-3" d="M44.75,221.15a1.76,1.76,0,1,0,1.76,1.76A1.76,1.76,0,0,0,44.75,221.15Z" transform="translate(-24.25 -70.31)"/><path class="cls-3" d="M67.49,221.15a1.76,1.76,0,1,0,1.75,1.76A1.76,1.76,0,0,0,67.49,221.15Z" transform="translate(-24.25 -70.31)"/><path class="cls-3" d="M90.22,221.15A1.76,1.76,0,1,0,92,222.91,1.76,1.76,0,0,0,90.22,221.15Z" transform="translate(-24.25 -70.31)"/><path class="cls-3" d="M113,221.15a1.76,1.76,0,1,0,1.75,1.76A1.76,1.76,0,0,0,113,221.15Z" transform="translate(-24.25 -70.31)"/><path class="cls-3" d="M135.69,221.15a1.76,1.76,0,1,0,1.76,1.76A1.75,1.75,0,0,0,135.69,221.15Z" transform="translate(-24.25 -70.31)"/><path class="cls-3" d="M56.54,233.51a1.76,1.76,0,1,0,1.75,1.76A1.76,1.76,0,0,0,56.54,233.51Z" transform="translate(-24.25 -70.31)"/><path class="cls-3" d="M79.2,233.51A1.76,1.76,0,1,0,81,235.27,1.76,1.76,0,0,0,79.2,233.51Z" transform="translate(-24.25 -70.31)"/><path class="cls-3" d="M101.86,233.51a1.76,1.76,0,1,0,1.76,1.76A1.76,1.76,0,0,0,101.86,233.51Z" transform="translate(-24.25 -70.31)"/><path class="cls-3" d="M124.52,233.51a1.76,1.76,0,1,0,1.76,1.76A1.75,1.75,0,0,0,124.52,233.51Z" transform="translate(-24.25 -70.31)"/><path class="cls-3" d="M44.75,250.37a1.76,1.76,0,1,0,1.76,1.76A1.76,1.76,0,0,0,44.75,250.37Z" transform="translate(-24.25 -70.31)"/><path class="cls-3" d="M67.49,250.37a1.76,1.76,0,1,0,1.75,1.76A1.76,1.76,0,0,0,67.49,250.37Z" transform="translate(-24.25 -70.31)"/><path class="cls-3" d="M90.22,250.37A1.76,1.76,0,1,0,92,252.13,1.76,1.76,0,0,0,90.22,250.37Z" transform="translate(-24.25 -70.31)"/><path class="cls-3" d="M113,250.37a1.76,1.76,0,1,0,1.75,1.76A1.76,1.76,0,0,0,113,250.37Z" transform="translate(-24.25 -70.31)"/><path class="cls-3" d="M135.69,250.37a1.76,1.76,0,1,0,1.76,1.76A1.75,1.75,0,0,0,135.69,250.37Z" transform="translate(-24.25 -70.31)"/><path class="cls-3" d="M56.54,262.73a1.76,1.76,0,1,0,1.75,1.76A1.76,1.76,0,0,0,56.54,262.73Z" transform="translate(-24.25 -70.31)"/><path class="cls-3" d="M79.2,262.73A1.76,1.76,0,1,0,81,264.49,1.76,1.76,0,0,0,79.2,262.73Z" transform="translate(-24.25 -70.31)"/><path class="cls-3" d="M101.86,262.73a1.76,1.76,0,1,0,1.76,1.76A1.76,1.76,0,0,0,101.86,262.73Z" transform="translate(-24.25 -70.31)"/><path class="cls-3" d="M124.52,262.73a1.76,1.76,0,1,0,1.76,1.76A1.75,1.75,0,0,0,124.52,262.73Z" transform="translate(-24.25 -70.31)"/><path class="cls-2" d="M516.93,587.8A117.3,117.3,0,0,0,346.47,692.37l234.59,1.12A117.26,117.26,0,0,0,516.93,587.8Z" transform="translate(-24.25 -70.31)"/><path class="cls-3" d="M517.18,587.32a118,118,0,0,0-158.43,51.6,116.61,116.61,0,0,0-12.82,53.45H347a115.55,115.55,0,0,1,12.71-53,116.76,116.76,0,0,1,220.82,54.08h1.07a117.8,117.8,0,0,0-64.42-106.18Z" transform="translate(-24.25 -70.31)"/><path class="cls-2" d="M429.43,253.67l-7.39-.9a1.23,1.23,0,0,1-.94-1.78l3.43-6.6a1.22,1.22,0,0,0-1.67-1.63l-6.45,3.63a1.22,1.22,0,0,1-1.79-.89l-1.1-7.41a1.21,1.21,0,0,0-2.29-.35l-3.06,6.79a1.2,1.2,0,0,1-2,.33L401,239.47a1.2,1.2,0,0,0-2,1.07l1.51,7.35a1.2,1.2,0,0,1-1.38,1.43L391.77,248a1.2,1.2,0,0,0-1,2.08l5.49,5.1a1.21,1.21,0,0,1-.27,2l-6.64,3.27a1.22,1.22,0,0,0,.4,2.3l7.39.9a1.23,1.23,0,0,1,.93,1.78l-3.42,6.6a1.22,1.22,0,0,0,1.67,1.64l6.45-3.64a1.22,1.22,0,0,1,1.79.89l1.1,7.42a1.2,1.2,0,0,0,2.29.34l3.06-6.79a1.2,1.2,0,0,1,2-.33l5.21,5.4a1.2,1.2,0,0,0,2-1.08l-1.51-7.35a1.19,1.19,0,0,1,1.38-1.42l7.32,1.31a1.21,1.21,0,0,0,1-2.09l-5.49-5.1a1.21,1.21,0,0,1,.27-2l6.64-3.27A1.22,1.22,0,0,0,429.43,253.67Z" transform="translate(-24.25 -70.31)"/><path class="cls-3" d="M429.49,253.14l-7.38-.9a.65.65,0,0,1-.52-.37.67.67,0,0,1,0-.63l3.43-6.6a1.71,1.71,0,0,0-.06-1.72,1.77,1.77,0,0,0-2.35-.63l-6.45,3.64a.69.69,0,0,1-1-.51l-1.1-7.41a1.76,1.76,0,0,0-1.75-1.51,1.69,1.69,0,0,0-1.56,1l-3.06,6.79a.65.65,0,0,1-.6.38.67.67,0,0,1-.48-.2l-5.21-5.4a1.8,1.8,0,0,0-2.61.11,1.71,1.71,0,0,0-.34,1.45L400,248a.7.7,0,0,1-.14.56.66.66,0,0,1-.62.23l-7.33-1.31a1.7,1.7,0,0,0-1.92,1.07,1.75,1.75,0,0,0,.45,1.94l5.5,5.09a.67.67,0,0,1,.21.61.65.65,0,0,1-.36.5L389.1,260a1.69,1.69,0,0,0-.94,1.85,1.72,1.72,0,0,0,1.52,1.46l7.38.91a.69.69,0,0,1,.53,1l-3.43,6.6a1.71,1.71,0,0,0,.06,1.72,1.77,1.77,0,0,0,2.35.64l6.45-3.64a.68.68,0,0,1,1,.5l1.1,7.42a1.75,1.75,0,0,0,1.75,1.5,1.69,1.69,0,0,0,1.56-1l3.06-6.79a.66.66,0,0,1,1.08-.17l5.21,5.39a1.79,1.79,0,0,0,2.61-.11,1.7,1.7,0,0,0,.34-1.45l-1.51-7.34a.69.69,0,0,1,.14-.57.66.66,0,0,1,.62-.23l7.33,1.32a1.69,1.69,0,0,0,1.91-1.08,1.73,1.73,0,0,0-.44-1.93l-5.5-5.1a.67.67,0,0,1-.21-.61.65.65,0,0,1,.36-.5l6.64-3.27a1.7,1.7,0,0,0,.94-1.85A1.73,1.73,0,0,0,429.49,253.14Zm.11,2.35L423,258.76a1.75,1.75,0,0,0-.95,1.31,1.78,1.78,0,0,0,.55,1.55l5.5,5.09a.68.68,0,0,1,.17.76.64.64,0,0,1-.72.41l-7.33-1.31a1.71,1.71,0,0,0-1.65.6,1.74,1.74,0,0,0-.35,1.46l1.51,7.35a.63.63,0,0,1-.13.55.66.66,0,0,1-1,0l-5.21-5.39a1.72,1.72,0,0,0-1.26-.54,1.7,1.7,0,0,0-1.57,1l-3.06,6.79a.62.62,0,0,1-.58.39.67.67,0,0,1-.69-.59l-1.1-7.42a1.78,1.78,0,0,0-1.74-1.5,1.71,1.71,0,0,0-.85.22L396,273.19a.68.68,0,0,1-.91-.26.65.65,0,0,1,0-.66l3.42-6.6a1.74,1.74,0,0,0,0-1.63,1.77,1.77,0,0,0-1.34-.93l-7.38-.9a.68.68,0,0,1-.59-.58.64.64,0,0,1,.35-.71l6.65-3.27a1.75,1.75,0,0,0,.95-1.3,1.79,1.79,0,0,0-.55-1.56l-5.5-5.09A.66.66,0,0,1,391,249a.62.62,0,0,1,.72-.41l7.33,1.31a1.71,1.71,0,0,0,1.64-.61,1.75,1.75,0,0,0,.36-1.46l-1.51-7.35a.66.66,0,0,1,1.13-.59l5.21,5.39a1.73,1.73,0,0,0,2.83-.48l3.06-6.79a.61.61,0,0,1,.58-.38.68.68,0,0,1,.69.58l1.1,7.42a1.77,1.77,0,0,0,1.74,1.51,1.72,1.72,0,0,0,.85-.23l6.45-3.64a.67.67,0,0,1,.9.26.62.62,0,0,1,0,.66l-3.42,6.6A1.76,1.76,0,0,0,422,253.3l7.38.91a.66.66,0,0,1,.59.57A.65.65,0,0,1,429.6,255.49Z" transform="translate(-24.25 -70.31)"/><circle class="cls-4" cx="538.9" cy="568.42" r="83.94" transform="matrix(0.99, -0.16, 0.16, 0.99, -108.65, 23.76)"/><path class="cls-3" d="M538.9,484a84.47,84.47,0,1,0,84.48,84.47A84.56,84.56,0,0,0,538.9,484Zm0,167.87a83.4,83.4,0,1,1,83.4-83.4A83.49,83.49,0,0,1,538.9,651.82Z" transform="translate(-24.25 -70.31)"/><path class="cls-2" d="M490.92,636.37a61.72,61.72,0,0,0,16.24,9.28l1.8-16S496.75,627.84,490.92,636.37Z" transform="translate(-24.25 -70.31)"/><path class="cls-2" d="M435.72,514.38c-4-3.56-.18,6.24-.18,6.24s-10.56-6.29-15.08-6.57,7.89,7.4,7.89,7.4-12.88-4.91-13.76-3.21,11.19,6.58,11.19,6.58-10.82-1.43-11.1.53,10.57,2.58,10.57,2.58-6.6,1.63-6.83,3.23,6.87-.3,8.84,0,4-.07,6.24,2.88a24.53,24.53,0,0,1,2.64,3.93l10.15-6.77S439.68,517.94,435.72,514.38Z" transform="translate(-24.25 -70.31)"/><path class="cls-3" d="M436.08,514a2.8,2.8,0,0,0-1.68-.92.93.93,0,0,0-.78.41c-.65.95.18,3.87.9,5.94-3-1.69-10.34-5.67-14-5.89-1.1-.07-1.43.34-1.52.68-.3,1,2.2,3.12,5.25,5.21-3-1-6.65-2.07-8.54-2.07-.3,0-1.23,0-1.57.65a1,1,0,0,0,0,.83c.53,1.43,5,3.64,8.25,5.11-1.12-.08-2.36-.15-3.51-.15-3.08,0-4.52.46-4.67,1.5a1.1,1.1,0,0,0,.27.88c.95,1.16,4.95,1.78,7.86,2.08-2,.68-4.23,1.69-4.39,2.85a.94.94,0,0,0,.21.76,2.27,2.27,0,0,0,1.78.5,30.34,30.34,0,0,0,3.78-.38,18.38,18.38,0,0,1,3.52-.31c.33.05.66.08,1,.11a5.72,5.72,0,0,1,4.9,2.57,24.33,24.33,0,0,1,2.57,3.81.53.53,0,0,0,.34.3.45.45,0,0,0,.16,0,.57.57,0,0,0,.3-.1l10.15-6.76a.55.55,0,0,0,.18-.69C446.5,530.39,440.07,517.57,436.08,514Zm.25,23.18a37.73,37.73,0,0,0-2.4-3.47,6.77,6.77,0,0,0-5.67-3l-.93-.1a4.33,4.33,0,0,0-.55,0,26.52,26.52,0,0,0-3.27.34,30.76,30.76,0,0,1-3.63.37,2.57,2.57,0,0,1-.91-.11c.28-.68,3.19-1.92,6.41-2.71a.55.55,0,0,0,.41-.58.54.54,0,0,0-.51-.48c-5.18-.3-9.88-1.22-10.07-2,0,0,.3-.57,3.61-.57a65.8,65.8,0,0,1,6.89.49.54.54,0,0,0,.59-.39.54.54,0,0,0-.32-.64c-5-2-10.5-4.82-10.88-5.83a1.73,1.73,0,0,1,.58-.07c3.17,0,12.38,3.5,12.48,3.53a.53.53,0,0,0,.67-.26.54.54,0,0,0-.2-.7c-3.8-2.35-8-5.35-8.56-6.4h.36c4.33.26,14.73,6.43,14.83,6.5a.56.56,0,0,0,.62-.05.55.55,0,0,0,.16-.61c-1.07-2.78-1.77-5.62-1.57-6.27a2.85,2.85,0,0,1,.89.62c3.45,3.1,9.07,13.93,10.23,16.21Z" transform="translate(-24.25 -70.31)"/><path class="cls-3" d="M446.72,527.06l-21.86,13.23,35.12,51a12.33,12.33,0,0,0,9.54,5.92l53.35,4.74,10.77-36.3-54.6-.38Z" transform="translate(-24.25 -70.31)"/><path class="cls-3" d="M533.64,565.1l-54.35-.39-32.16-38a.55.55,0,0,0-.69-.11l-21.85,13.23a.53.53,0,0,0-.25.35.57.57,0,0,0,.08.42l35.1,50.94a12.94,12.94,0,0,0,10,6.19l53.35,4.73h0a.54.54,0,0,0,.52-.38l10.77-36.29a.58.58,0,0,0-.09-.48A.55.55,0,0,0,533.64,565.1Zm-11.16,36.25-52.92-4.69a11.88,11.88,0,0,1-9.14-5.7l-34.79-50.5,21-12.7,32,37.83a.57.57,0,0,0,.4.2l53.89.38Z" transform="translate(-24.25 -70.31)"/><path class="cls-2" d="M584.79,576.29l-41-9.54c-9.73-2.26-19.83-.77-29.63,1.16l-6.51,78c19.26,0,36.5,20.55,59.87,30.34,54.38,22.77,69-58.51,43.15-83.72C602.78,584.85,597.11,579.15,584.79,576.29Z" transform="translate(-24.25 -70.31)"/><path class="cls-3" d="M610.57,591.69c-7.5-7.31-13.42-13.08-25.66-15.92l-41-9.54a46.54,46.54,0,0,0-10.69-1.15,99.73,99.73,0,0,0-19.17,2.3.53.53,0,0,0-.43.48l-6.51,78a.56.56,0,0,0,.14.41.53.53,0,0,0,.4.17c11.3,0,22.16,7.36,33.65,15.14,8.11,5.5,16.5,11.18,26,15.16a47.29,47.29,0,0,0,18.15,4h0c14.73,0,26.51-9,33.17-25.37,9-22.06,5.56-50.43-7.59-63.25Zm7,63.26c-3.75,9.23-12.92,24.71-32.18,24.71a46.3,46.3,0,0,1-17.73-3.94c-9.42-3.94-17.76-9.59-25.82-15.06-11.45-7.75-22.26-15.07-33.68-15.32l6.43-77a97.13,97.13,0,0,1,18.56-2.21,45.55,45.55,0,0,1,10.45,1.13l41,9.54c12,2.77,17.49,8.17,25.16,15.64l.43.42C623.12,605.42,626.41,633.26,617.59,655Z" transform="translate(-24.25 -70.31)"/><path class="cls-3" d="M536,599.08l-14.14.15a1.56,1.56,0,0,0-1.53,1.55v10.33a1.52,1.52,0,0,0,.48,1.11l7.33,6.62a1.54,1.54,0,0,0,1.09.45,1.55,1.55,0,0,0,1.11-.47l6.77-7.49a1.54,1.54,0,0,0,.45-1.09v-9.62A1.55,1.55,0,0,0,536,599.08Zm.48,11.16a.48.48,0,0,1-.15.35l-6.77,7.48a.47.47,0,0,1-.68,0l-7.33-6.62a.47.47,0,0,1-.14-.33V600.78a.47.47,0,0,1,.46-.47l14.15-.15a.46.46,0,0,1,.46.46Z" transform="translate(-24.25 -70.31)"/><path class="cls-3" d="M565.26,641.09c-11.85-3.31-23.07-11-50.21-11.69L508,646.33c20.17,3.15,36.12,20.1,59.5,29.89a53.84,53.84,0,0,0,9.73,3.08l1.61-37.79A27.14,27.14,0,0,1,565.26,641.09Z" transform="translate(-24.25 -70.31)"/><path class="cls-3" d="M578.69,641a26.82,26.82,0,0,1-13.29-.42c-3.07-.86-6.15-2-9.41-3.28-9.26-3.54-20.79-7.94-40.92-8.43h0a.53.53,0,0,0-.49.33l-7.08,16.93a.54.54,0,0,0,.42.74c11.61,1.81,22,8.36,33,15.29,8.14,5.14,16.56,10.45,26.39,14.56a53.89,53.89,0,0,0,9.83,3.11l.11,0a.5.5,0,0,0,.33-.12.52.52,0,0,0,.21-.4l1.61-37.78a.5.5,0,0,0-.2-.44A.53.53,0,0,0,578.69,641Zm-2,37.65a54.63,54.63,0,0,1-9-2.92c-9.74-4.08-18.12-9.37-26.23-14.48-10.87-6.86-21.15-13.34-32.71-15.33l6.67-16c19.72.53,31.07,4.87,40.2,8.36,3.28,1.25,6.38,2.44,9.51,3.31a28.41,28.41,0,0,0,13.14.59Z" transform="translate(-24.25 -70.31)"/><path class="cls-3" d="M514.11,567.91l-5.95,77.82,35-79.1C533.58,564.57,523.7,566,514.11,567.91Z" transform="translate(-24.25 -70.31)"/><path class="cls-3" d="M543.23,566.1a47.54,47.54,0,0,0-10.09-1A100,100,0,0,0,514,567.38a.53.53,0,0,0-.43.49l-5.94,77.82a.53.53,0,0,0,.4.56.32.32,0,0,0,.13,0,.55.55,0,0,0,.5-.32l34.95-79.11a.53.53,0,0,0-.38-.74Zm-34.29,76.55,5.67-74.3a98.24,98.24,0,0,1,18.53-2.19,46.58,46.58,0,0,1,9.22.86Z" transform="translate(-24.25 -70.31)"/><path class="cls-3" d="M581.34,575.49,577.21,679.3c47.4,10,58.74-63,34.75-87C595.7,576,581.34,575.49,581.34,575.49Z" transform="translate(-24.25 -70.31)"/><path class="cls-3" d="M581.36,575a.54.54,0,0,0-.56.52l-4.13,103.81a.53.53,0,0,0,.43.54,42,42,0,0,0,8.68.95c15,0,27-9,33.75-25.39,9.09-22,5.87-50.43-7.19-63.48C596.12,575.68,582,575,581.36,575Zm37.18,80c-6.6,15.95-18.24,24.73-32.76,24.73a40.82,40.82,0,0,1-8-.83l4.09-102.79c2.73.3,15.56,2.43,29.72,16.59C624.36,605.43,627.48,633.38,618.54,655Z" transform="translate(-24.25 -70.31)"/><path class="cls-3" d="M584.13,629.7c1.89,3,2,5.74.47,7.86-2.91,3.88-11.34,5.21-19.19,3-3.08-.86-6.15-2-9.41-3.28-9.89-3.77-22.19-8.47-44.71-8.47-15.71,0-19,3.6-21.53,7.94l.94.53c2.31-4,5.46-7.4,20.59-7.4,22.32,0,34.52,4.66,44.33,8.41,3.28,1.25,6.38,2.43,9.5,3.31a30,30,0,0,0,8,1.11c5.44,0,10.17-1.61,12.34-4.52,1.31-1.74,2.29-4.73-.42-9.07Z" transform="translate(-24.25 -70.31)"/><path class="cls-2" d="M577.72,541.32s-9.78-15.57-16-15.57c-8.7,0-13.25,2.56-13.25,7.55,0,3.86-.13,11.07-.13,11.07-4.86,8.81,2.28,18,10.88,16.11.37-.08,4.11,7.34-3.43,9.44a10,10,0,0,0,16,8.73l5.22-4c-6-1-4.18-11.91-4.18-20,0-1.37,1.54-.14,2.73-1.7a27.57,27.57,0,0,0,3.63-7.61C580,543,577.72,541.32,577.72,541.32Z" transform="translate(-24.25 -70.31)"/><path class="cls-3" d="M578.12,541c-.88-1.39-10.14-15.74-16.39-15.74-11.4,0-13.79,4.4-13.79,8.09,0,3.52-.11,9.93-.13,10.93a11.7,11.7,0,0,0,0,11.74,10.57,10.57,0,0,0,9.14,5.31h0a11,11,0,0,0,2.12-.21,7,7,0,0,1,.72,4.8c-.46,1.71-1.85,2.9-4.11,3.53a.55.55,0,0,0-.4.48,10.37,10.37,0,0,0,2.72,7.93,10.69,10.69,0,0,0,7.83,3.44,10.41,10.41,0,0,0,6.33-2.17l5.22-4a.53.53,0,0,0,.2-.56.54.54,0,0,0-.43-.4c-4.41-.74-4.13-7.85-3.86-14.72.06-1.59.12-3.24.12-4.76a.51.51,0,0,1,0-.17,1.64,1.64,0,0,1,.41-.08,2.8,2.8,0,0,0,2.2-1.13,27.25,27.25,0,0,0,3.71-7.76A4.26,4.26,0,0,0,578.12,541Zm.59,4.24a26.11,26.11,0,0,1-3.55,7.45,1.79,1.79,0,0,1-1.46.72c-.51,0-1.38.15-1.38,1.31,0,1.5-.07,3.14-.13,4.72-.26,6.79-.54,13.8,3.66,15.52l-4.36,3.31a9.31,9.31,0,0,1-5.68,2,9.63,9.63,0,0,1-7-3.1,9.27,9.27,0,0,1-2.46-6.75c4.64-1.46,4.91-4.91,4.64-6.86-.14-1-.85-3.53-1.72-3.53l-.12,0a10.11,10.11,0,0,1-2.18.24h0a9.49,9.49,0,0,1-8.21-4.78,10.66,10.66,0,0,1,.1-10.79.52.52,0,0,0,.07-.25c0-.07.13-7.26.13-11.08,0-4.65,4.28-7,12.71-7,5.84,0,15.43,15.16,15.53,15.32a1,1,0,0,0,.14.15C577.48,541.81,579.37,543.2,578.71,545.19Z" transform="translate(-24.25 -70.31)"/><path class="cls-3" d="M570.13,523.06c-10.37-.34-8.55-12.72-22.29-9.74s-9.71,14-.28,19.06l20,.51,2.27,16.72s3.92-5.56,8.66-8.46c0,0,3.25-9,3.28-10.74S580.5,523.4,570.13,523.06Z" transform="translate(-24.25 -70.31)"/><path class="cls-3" d="M550.61,536.62h-6.13a.54.54,0,0,0-.49.31,5.25,5.25,0,0,0-.51,2.29c0,2.65,1.82,4.8,4.06,4.8s4.06-2.15,4.06-4.8a5.29,5.29,0,0,0-.51-2.29A.54.54,0,0,0,550.61,536.62Zm-3.07,6.32c-1.65,0-3-1.67-3-3.72a4.41,4.41,0,0,1,.28-1.53h5.42a4.19,4.19,0,0,1,.28,1.53C550.53,541.27,549.19,542.94,547.54,542.94Z" transform="translate(-24.25 -70.31)"/><path class="cls-3" d="M561.87,536.62h-6.13a.54.54,0,0,0-.49.31,5.29,5.29,0,0,0-.51,2.29c0,2.65,1.82,4.8,4.06,4.8s4.07-2.15,4.07-4.8a5.26,5.26,0,0,0-.52-2.29A.53.53,0,0,0,561.87,536.62Zm-3.07,6.32c-1.64,0-3-1.67-3-3.72a4.41,4.41,0,0,1,.28-1.53h5.42a4.19,4.19,0,0,1,.28,1.53C561.79,541.27,560.45,542.94,558.8,542.94Z" transform="translate(-24.25 -70.31)"/><path class="cls-3" d="M550.7,538.27l.76.76c1.48-1.48,3.41,0,3.49.05l.66-.85C554.66,537.49,552.42,536.55,550.7,538.27Z" transform="translate(-24.25 -70.31)"/><path class="cls-2" d="M600.63,616.34s5.13,29.53,30.89,28.1C631.52,644.44,629.54,618.49,600.63,616.34Z" transform="translate(-24.25 -70.31)"/><path class="cls-3" d="M600.67,615.8a.54.54,0,0,0-.43.17.56.56,0,0,0-.14.46c0,.28,5.25,28.6,29.63,28.6h0c.59,0,1.2,0,1.81,0a.55.55,0,0,0,.38-.18.57.57,0,0,0,.13-.4C632,644.14,629.7,618,600.67,615.8Zm30.25,28.13-1.18,0h0c-21.37,0-27.47-22.75-28.42-27,11.42,1,19.87,5.9,25.13,14.51A33.56,33.56,0,0,1,630.92,643.93Z" transform="translate(-24.25 -70.31)"/><rect class="cls-3" x="620.11" y="619.93" width="1.07" height="29.34" transform="translate(-290.59 598.53) rotate(-47.85)"/><path class="cls-2" d="M634.72,644.44c25.76,1.43,30.89-28.1,30.89-28.1C636.7,618.49,634.72,644.44,634.72,644.44Z" transform="translate(-24.25 -70.31)"/><path class="cls-3" d="M665.57,615.8c-29,2.16-31.37,28.34-31.39,28.6a.57.57,0,0,0,.13.4.55.55,0,0,0,.38.18c.61,0,1.22,0,1.82,0,24.38,0,29.58-28.32,29.63-28.6A.56.56,0,0,0,666,616,.54.54,0,0,0,665.57,615.8ZM636.51,644c-.4,0-.79,0-1.19,0,.5-3.69,4.46-24.75,29.61-27C664,621.21,657.89,644,636.51,644Z" transform="translate(-24.25 -70.31)"/><rect class="cls-3" x="630.92" y="634.06" width="29.34" height="1.07" transform="translate(-283.15 526.95) rotate(-42.14)"/><path class="cls-2" d="M619,582.5S615.35,603.8,633.2,609C633.2,609,638.1,590.92,619,582.5Z" transform="translate(-24.25 -70.31)"/><path class="cls-3" d="M619.2,582a.52.52,0,0,0-.47,0,.54.54,0,0,0-.28.38c0,.22-3.5,21.83,14.6,27.13a.39.39,0,0,0,.15,0,.58.58,0,0,0,.26-.06.54.54,0,0,0,.26-.33C633.77,609,638.51,590.51,619.2,582Zm13.61,26.33c-15-4.8-13.85-21.38-13.4-25.05C635.56,590.8,633.45,605.31,632.81,608.34Z" transform="translate(-24.25 -70.31)"/><rect class="cls-3" x="627.64" y="589.15" width="1.08" height="21.14" transform="translate(-233.66 299.79) rotate(-28.34)"/><path class="cls-2" d="M633.31,622.68c18.48-2,18.66-23.61,18.66-23.61C631.67,604,633.31,622.68,633.31,622.68Z" transform="translate(-24.25 -70.31)"/><path class="cls-3" d="M651.84,598.55c-20.51,5-19.09,24-19.07,24.18a.56.56,0,0,0,.19.37.62.62,0,0,0,.35.12h.05c18.75-2,19.15-23.91,19.15-24.13a.54.54,0,0,0-.67-.53Zm-18,23.53c-.1-3.11.38-17.76,17.59-22.31C651.16,603.41,649.23,620,633.81,622.08Z" transform="translate(-24.25 -70.31)"/><rect class="cls-3" x="629.31" y="613.87" width="21.14" height="1.08" transform="translate(-263.53 662.47) rotate(-51.5)"/><rect class="cls-2" x="590.23" y="574.34" width="40.29" height="4.29"/><path class="cls-3" d="M654.76,644.11H614.47a.54.54,0,0,0-.53.54v4.29a.54.54,0,0,0,.53.54h40.29a.54.54,0,0,0,.54-.54v-4.29A.54.54,0,0,0,654.76,644.11Zm-.54,4.3H615v-3.22h39.21Z" transform="translate(-24.25 -70.31)"/><polygon class="cls-2" points="602.53 622.3 618.21 622.3 628.12 578.61 592.62 578.61 602.53 622.3"/><path class="cls-3" d="M652.37,648.39h-35.5a.52.52,0,0,0-.42.2.53.53,0,0,0-.11.45l9.91,43.7a.53.53,0,0,0,.52.41h15.69a.53.53,0,0,0,.52-.41l9.91-43.7a.53.53,0,0,0-.52-.65ZM642,692.08H627.2l-9.66-42.62h34.15Z" transform="translate(-24.25 -70.31)"/><polygon class="cls-3" points="593.64 581.75 622.68 581.75 617.08 622.3 618.21 622.3 628.12 578.61 592.62 578.61 593.64 581.75"/><path class="cls-3" d="M652.37,648.39h-35.5a.53.53,0,0,0-.44.22.52.52,0,0,0-.07.48l1,3.14a.54.54,0,0,0,.51.37h28.43l-5.51,39.94a.54.54,0,0,0,.53.61h1.13a.53.53,0,0,0,.52-.41l9.91-43.7a.53.53,0,0,0-.52-.65ZM642,692.08H642l5.51-40a.54.54,0,0,0-.13-.42.53.53,0,0,0-.4-.19H618.28l-.67-2.06h34.08Z" transform="translate(-24.25 -70.31)"/><rect class="cls-3" x="608.33" y="537.92" width="1.08" height="36.26"/><path class="cls-2" d="M289,616.34s-5.12,29.53-30.89,28.1C258.11,644.44,260.09,618.49,289,616.34Z" transform="translate(-24.25 -70.31)"/><path class="cls-3" d="M257.57,644.4a.57.57,0,0,0,.13.4.55.55,0,0,0,.38.18c.61,0,1.22,0,1.81,0h0c24.38,0,29.58-28.32,29.63-28.6a.55.55,0,0,0-.13-.46.57.57,0,0,0-.44-.17C259.93,618,257.59,644.14,257.57,644.4Zm5.63-13c5.25-8.61,13.7-13.49,25.13-14.51-1,4.28-7.06,27-28.43,27h0l-1.18,0A33.45,33.45,0,0,1,263.2,631.44Z" transform="translate(-24.25 -70.31)"/><rect class="cls-3" x="254.31" y="634.06" width="29.34" height="1.07" transform="translate(-380.56 274.33) rotate(-42.15)"/><path class="cls-2" d="M254.91,644.44c-25.76,1.43-30.88-28.1-30.88-28.1C252.93,618.49,254.91,644.44,254.91,644.44Z" transform="translate(-24.25 -70.31)"/><path class="cls-3" d="M223.63,616a.55.55,0,0,0-.13.46c.05.28,5.24,28.6,29.63,28.6.59,0,1.2,0,1.81,0a.55.55,0,0,0,.38-.18.57.57,0,0,0,.13-.4c0-.26-2.35-26.44-31.38-28.6A.55.55,0,0,0,223.63,616Zm1.07,1c25.15,2.25,29.11,23.31,29.61,27-.39,0-.79,0-1.18,0C231.74,644,225.65,621.21,224.7,616.93Z" transform="translate(-24.25 -70.31)"/><rect class="cls-3" x="243.5" y="619.93" width="1.07" height="29.34" transform="translate(-414.49 319.41) rotate(-47.86)"/><path class="cls-2" d="M270.65,582.5s3.63,21.3-14.22,26.53C256.43,609,251.53,590.92,270.65,582.5Z" transform="translate(-24.25 -70.31)"/><path class="cls-3" d="M255.91,609.17a.54.54,0,0,0,.26.33.58.58,0,0,0,.26.06.39.39,0,0,0,.15,0c18.1-5.3,14.64-26.91,14.6-27.13a.56.56,0,0,0-.27-.38.54.54,0,0,0-.48,0C251.12,590.51,255.86,609,255.91,609.17Zm14.31-25.88c.45,3.67,1.63,20.25-13.4,25.05C256.18,605.31,254.07,590.8,270.22,583.29Z" transform="translate(-24.25 -70.31)"/><rect class="cls-3" x="250.88" y="599.18" width="21.14" height="1.08" transform="translate(-414.75 474.81) rotate(-61.66)"/><path class="cls-2" d="M256.33,622.68c-18.49-2-18.67-23.61-18.67-23.61C258,604,256.33,622.68,256.33,622.68Z" transform="translate(-24.25 -70.31)"/><path class="cls-3" d="M237.33,598.65a.55.55,0,0,0-.21.43c0,.22.4,22.1,19.15,24.13h.06a.61.61,0,0,0,.34-.12.56.56,0,0,0,.19-.37c0-.19,1.44-19.21-19.07-24.18A.54.54,0,0,0,237.33,598.65Zm.9,1.12c17.21,4.55,17.69,19.2,17.59,22.31C240.4,620,238.47,603.41,238.23,599.77Z" transform="translate(-24.25 -70.31)"/><rect class="cls-3" x="249.21" y="603.83" width="1.08" height="21.14" transform="translate(-352.4 218.68) rotate(-38.5)"/><rect class="cls-2" x="210.62" y="574.34" width="40.29" height="4.29"/><path class="cls-3" d="M234.33,644.65v4.29a.54.54,0,0,0,.54.54h40.29a.54.54,0,0,0,.54-.54v-4.29a.54.54,0,0,0-.54-.54H234.87A.54.54,0,0,0,234.33,644.65Zm1.08.54h39.21v3.22H235.41Z" transform="translate(-24.25 -70.31)"/><polygon class="cls-2" points="238.61 622.3 222.92 622.3 213.02 578.61 248.52 578.61 238.61 622.3"/><path class="cls-3" d="M236.84,648.59a.53.53,0,0,0-.1.45l9.91,43.7a.53.53,0,0,0,.52.41h15.69a.53.53,0,0,0,.52-.41l9.91-43.7a.53.53,0,0,0-.11-.45.52.52,0,0,0-.42-.2h-35.5A.55.55,0,0,0,236.84,648.59Zm1.1.87h34.15l-9.66,42.62H247.6Z" transform="translate(-24.25 -70.31)"/><polygon class="cls-3" points="247.5 581.75 218.46 581.75 224.05 622.3 222.92 622.3 213.02 578.61 248.52 578.61 247.5 581.75"/><path class="cls-3" d="M236.84,648.59a.53.53,0,0,0-.1.45l9.91,43.7a.53.53,0,0,0,.52.41h1.13a.54.54,0,0,0,.41-.18.55.55,0,0,0,.12-.43l-5.51-39.94h28.43a.54.54,0,0,0,.51-.37l1-3.14a.55.55,0,0,0-.08-.48.53.53,0,0,0-.44-.22h-35.5A.55.55,0,0,0,236.84,648.59Zm1.1.87H272l-.66,2.06H242.7a.53.53,0,0,0-.4.19.54.54,0,0,0-.13.42l5.51,40h-.08Z" transform="translate(-24.25 -70.31)"/><rect class="cls-3" x="231.73" y="537.92" width="1.08" height="36.26"/><rect class="cls-3" y="291.46" width="448.85" height="1.08"/><rect class="cls-3" x="31.06" y="621.9" width="626.44" height="1.08"/><path class="cls-2" d="M305.63,70.85H98.5A13.24,13.24,0,0,0,85.26,84.09V331.64a30.66,30.66,0,0,0,30.66,30.66h203V84.09A13.24,13.24,0,0,0,305.63,70.85Z" transform="translate(-24.25 -70.31)"/><path class="cls-3" d="M305.63,70.31H98.5A13.79,13.79,0,0,0,84.72,84.09V331.64a31.23,31.23,0,0,0,31.2,31.2h203a.54.54,0,0,0,.53-.54V84.09A13.79,13.79,0,0,0,305.63,70.31Zm12.7,291.46H115.92A30.16,30.16,0,0,1,85.8,331.64V84.09a12.71,12.71,0,0,1,12.7-12.7H305.63a12.72,12.72,0,0,1,12.7,12.7Z" transform="translate(-24.25 -70.31)"/><polygon class="cls-3" points="117.79 54.77 118.86 54.77 118.86 51.41 122.34 51.41 122.34 50.34 117.79 50.34 117.79 54.77"/><polygon class="cls-3" points="115.79 48.21 112.31 48.21 112.31 49.29 116.86 49.29 116.86 44.86 115.79 44.86 115.79 48.21"/><polygon class="cls-3" points="112.37 51.35 115.73 51.35 115.73 54.83 116.8 54.83 116.8 50.28 112.37 50.28 112.37 51.35"/><polygon class="cls-3" points="118.92 44.8 117.85 44.8 117.85 49.35 122.28 49.35 122.28 48.27 118.92 48.27 118.92 44.8"/><polygon class="cls-3" points="227.77 54.77 228.85 54.77 228.85 51.41 232.32 51.41 232.32 50.34 227.77 50.34 227.77 54.77"/><polygon class="cls-3" points="225.77 48.21 222.29 48.21 222.29 49.29 226.84 49.29 226.84 44.86 225.77 44.86 225.77 48.21"/><polygon class="cls-3" points="222.35 51.35 225.71 51.35 225.71 54.83 226.78 54.83 226.78 50.28 222.35 50.28 222.35 51.35"/><polygon class="cls-3" points="228.91 44.8 227.83 44.8 227.83 49.35 232.26 49.35 232.26 48.27 228.91 48.27 228.91 44.8"/><polygon class="cls-3" points="117.79 104.18 118.86 104.18 118.86 100.83 122.34 100.83 122.34 99.75 117.79 99.75 117.79 104.18"/><polygon class="cls-3" points="115.79 97.63 112.31 97.63 112.31 98.7 116.86 98.7 116.86 94.27 115.79 94.27 115.79 97.63"/><polygon class="cls-3" points="112.37 100.76 115.73 100.76 115.73 104.24 116.8 104.24 116.8 99.69 112.37 99.69 112.37 100.76"/><polygon class="cls-3" points="118.92 94.21 117.85 94.21 117.85 98.76 122.28 98.76 122.28 97.69 118.92 97.69 118.92 94.21"/><polygon class="cls-3" points="227.77 104.18 228.85 104.18 228.85 100.83 232.32 100.83 232.32 99.75 227.77 99.75 227.77 104.18"/><polygon class="cls-3" points="225.77 97.63 222.29 97.63 222.29 98.7 226.84 98.7 226.84 94.27 225.77 94.27 225.77 97.63"/><polygon class="cls-3" points="222.35 100.76 225.71 100.76 225.71 104.24 226.78 104.24 226.78 99.69 222.35 99.69 222.35 100.76"/><polygon class="cls-3" points="228.91 94.21 227.83 94.21 227.83 98.76 232.26 98.76 232.26 97.69 228.91 97.69 228.91 94.21"/><rect class="cls-3" x="129.63" y="97.62" width="86.02" height="1.08"/><rect class="cls-3" x="115.8" y="57.27" width="1.08" height="35.95"/><rect class="cls-3" x="132.31" y="48.27" width="86.02" height="1.08"/><path class="cls-3" d="M213.09,160.06c-3.47-2.21-2.09-8.56-1.17-12.76.61-2.79.91-4.19,0-4.56s-2,.68-4.07,2.51a15.68,15.68,0,0,1-2.8,2.22,4.16,4.16,0,0,1,.16-1.16,25,25,0,0,1,1.17-3.37,24.34,24.34,0,0,0,5.6-8.43c.67-2,.65-2.5.35-2.81a.61.61,0,0,0-.63-.18c-1.1.29-4.28,6.17-6.18,10.72-2.46,2.52-5,4.31-5.89,4.59l.12-.29.55-1.09c1.54-3.06,2.37-4.83,1.49-5.51-.63-.49-1.68-.5-7.56,4.67a33.35,33.35,0,0,1-4.76,3.75,25.4,25.4,0,0,1,1.18-2.46,19.17,19.17,0,0,0,1.59-3.6.82.82,0,0,0-.59-1c-1-.35-4.23.57-7.93,2.18,1.5-5,2.28-8.56.6-9.85-1.19-.91-3.29-.37-6.61,1.71-7.23,4.53-10.11,3.62-10.82,3.24a1.74,1.74,0,0,1-.95-1.63,3.73,3.73,0,0,1,.36-1.59,4,4,0,0,0,.67.46c1.77,1,4.11.64,6.95-1.06s3.88-3.14,3.17-4.33c-1-1.67-5.11-1.41-7.47,0a11.89,11.89,0,0,0-3.49,3.08,11.85,11.85,0,0,1-1.3-5.93h-1.08c0,1.9.3,5,1.75,6.93a5.26,5.26,0,0,0-.64,2.47,2.85,2.85,0,0,0,1.52,2.55c2.31,1.24,6.53.08,11.9-3.28,3.68-2.31,5-2.1,5.39-1.76,1.31,1-.14,6-1.25,9.57-5.91,2.73-12.65,7-14.19,10.5-.6,1.38-.75,3.33,2,4.83a5,5,0,0,0,4.45.41c3.18-1.28,5.84-5.85,8.62-14.82l0-.08c3.67-1.66,6.86-2.72,7.85-2.62a22.31,22.31,0,0,1-1.45,3.13c-1.25,2.41-1.77,3.49-1.09,4s1.32.4,6.34-4c4.33-3.8,5.72-4.48,6.15-4.57a19.63,19.63,0,0,1-1.75,4.13c-.19.38-.38.75-.55,1.1a1.53,1.53,0,0,0-.13,1.53.92.92,0,0,0,1,.32c1-.15,2.89-1.39,5-3.25-.17.52-.32,1-.42,1.39-.23,1-.38,2,.29,2.39.85.5,2.06-.53,4.12-2.41a16.36,16.36,0,0,1,2.86-2.28,18.61,18.61,0,0,1-.55,3.31c-1,4.5-2.46,11.28,1.65,13.89a5,5,0,0,0,2.77.72c6.89,0,18.33-9.43,18.88-9.9l-.69-.82C229.3,154.44,217.49,162.85,213.09,160.06Zm-2-26.31-.13.41a18.77,18.77,0,0,1-3,5.29A62.87,62.87,0,0,1,211.08,133.75Zm-40.92-2.42c2.16-1.28,5.51-1.19,6-.36.19.32-.18,1.29-2.8,2.85s-4.47,1.85-5.88,1.05a3.32,3.32,0,0,1-.66-.49A10.35,10.35,0,0,1,170.16,131.33Zm4.08,27.46a3.91,3.91,0,0,1-3.53-.35c-1.72-.95-2.17-2.11-1.42-3.64,1.55-3.16,7.38-6.76,12.67-9.29C180.29,150.76,177.74,157.38,174.24,158.79Z" transform="translate(-24.25 -70.31)"/><polygon class="cls-2" points="125.65 117.47 135.03 108.09 122.37 114.19 125.65 117.47"/><path class="cls-3" d="M149.9,187l-2.9-2.89-.76.76,3.28,3.27a.51.51,0,0,0,.38.16.54.54,0,0,0,.38-.16l9.38-9.38-.76-.76Z" transform="translate(-24.25 -70.31)"/><circle class="cls-2" cx="140.43" cy="115.61" r="2.83"/><path class="cls-3" d="M164.67,182.55a3.37,3.37,0,1,0,3.37,3.37A3.38,3.38,0,0,0,164.67,182.55Zm0,5.67a2.3,2.3,0,1,1,2.3-2.3A2.3,2.3,0,0,1,164.67,188.22Z" transform="translate(-24.25 -70.31)"/><circle class="cls-2" cx="150.5" cy="115.61" r="2.83"/><path class="cls-3" d="M174.75,182.55a3.37,3.37,0,1,0,3.37,3.37A3.38,3.38,0,0,0,174.75,182.55Zm0,5.67a2.3,2.3,0,1,1,2.29-2.3A2.3,2.3,0,0,1,174.75,188.22Z" transform="translate(-24.25 -70.31)"/><path class="cls-3" d="M266.61,169.47c-7.83-1-8.21-9.93-8.22-10.31l-1.08,0c0,.1.41,10,8.91,11.31l6.58,10.62.91-.57L267,169.72A.52.52,0,0,0,266.61,169.47Z" transform="translate(-24.25 -70.31)"/><path class="cls-3" d="M279.41,148.32c-1.85-6.63-4.39-15.71-10.12-17.43-2.1-.62-4.3-1.47-6.43-2.29-4.17-1.6-7.77-3-9.73-2.44-1.51.42-3.36,2.27-5.5,4.41a34.36,34.36,0,0,1-6.52,5.56c-2.49,1.41-2.81,3.13-2.26,4.27.7,1.49,3.07,2.44,6.07,1.27l-.38-1c-2.32.9-4.22.33-4.72-.73-.43-.9.27-2,1.82-2.88a35.24,35.24,0,0,0,6.75-5.73c2-2,3.79-3.79,5-4.13,1.62-.45,5.23.94,9.06,2.41,2.14.82,4.37,1.67,6.5,2.31,5.16,1.55,7.71,10.66,9.4,16.69.21.77.42,1.5.61,2.17a69.81,69.81,0,0,0,5.55,12.78l.93-.53A69,69,0,0,1,280,150.48C279.83,149.81,279.63,149.08,279.41,148.32Z" transform="translate(-24.25 -70.31)"/><path class="cls-3" d="M283.71,116.91a1.5,1.5,0,0,0-2.08-.43L243.3,142.06l-10,8.6a.85.85,0,0,0,.91,1.42l12.06-5.49L284.61,121a1.49,1.49,0,0,0,.42-2.06Z" transform="translate(-24.25 -70.31)"/><path class="cls-3" d="M290.17,159.76l-21.38,14,.59.9,21-13.72,6.32,6.71.78-.74-6.63-7A.53.53,0,0,0,290.17,159.76Z" transform="translate(-24.25 -70.31)"/><path class="cls-3" d="M255.3,154.63a3.09,3.09,0,0,1-1.18-2.16.53.53,0,0,0-.34-.47.55.55,0,0,0-.56.11,3.08,3.08,0,0,1-2.36,1,4.31,4.31,0,0,1-2.62-1.52.54.54,0,0,0-.63-.17,3.09,3.09,0,0,1-2.94.09c-1.33-.9-1.32-3.38-1.32-3.4l-1.07,0c0,.13,0,3.08,1.79,4.31a3.88,3.88,0,0,0,3.6.16,5.1,5.1,0,0,0,3.11,1.62,3.77,3.77,0,0,0,2.46-.7,3.74,3.74,0,0,0,1.45,2.05,3.85,3.85,0,0,0,2.16.6,7.73,7.73,0,0,0,2.51-.48l-.35-1C257.39,155.19,256.14,155.19,255.3,154.63Z" transform="translate(-24.25 -70.31)"/><path class="cls-3" d="M248.33,139.93a7.12,7.12,0,0,1,6.52.38c.69.51,1.39,1.07,2,1.6,3.42,2.73,7,5.56,12.55,3.53l-.36-1c-5,1.82-8.18-.69-11.51-3.36-.68-.54-1.38-1.1-2.1-1.63a8.19,8.19,0,0,0-7.62-.48,2.76,2.76,0,0,0-1.8,2.27c0,1.23,1,2.45,3.07,3.64,5.49,3.14,9.71,8.33,12.9,15.89a11.85,11.85,0,0,0,6.9,6.33l.32-1a11,11,0,0,1-6.23-5.73c-3.29-7.78-7.66-13.15-13.35-16.4-2.24-1.28-2.55-2.23-2.54-2.67C247.16,140.6,247.89,140.14,248.33,139.93Z" transform="translate(-24.25 -70.31)"/><path class="cls-2" d="M265.56,133.84a2.55,2.55,0,0,0,1.31,2.48,30.57,30.57,0,0,1,5.1-4.41c3.24-2.27,12.06-8.34,12.06-8.34s1.1-.83-.14-2.48Z" transform="translate(-24.25 -70.31)"/><path class="cls-3" d="M283.59,120.65,265.25,133.4a.54.54,0,0,0-.23.44,3.08,3.08,0,0,0,1.64,3,.52.52,0,0,0,.21,0,.53.53,0,0,0,.4-.19,31.48,31.48,0,0,1,5-4.32c3.2-2.25,12-8.28,12.07-8.35.53-.4,1.21-1.58,0-3.23A.52.52,0,0,0,283.59,120.65Zm.14,2.48c-.09.06-8.86,6.09-12.07,8.34a33,33,0,0,0-4.88,4.15,2.17,2.17,0,0,1-.67-1.51l17.63-12.26C284.18,122.68,283.8,123.07,283.73,123.13Z" transform="translate(-24.25 -70.31)"/><rect class="cls-4" x="131.1" y="142.67" width="93.43" height="32.48" rx="10.13"/><path class="cls-3" d="M238.65,212.44H165.48a10.68,10.68,0,0,0-10.67,10.67v12.22A10.68,10.68,0,0,0,165.48,246h73.17a10.69,10.69,0,0,0,10.67-10.67V223.11A10.69,10.69,0,0,0,238.65,212.44Zm9.59,22.89a9.6,9.6,0,0,1-9.59,9.59H165.48a9.61,9.61,0,0,1-9.6-9.59V223.11a9.61,9.61,0,0,1,9.6-9.59h73.17a9.6,9.6,0,0,1,9.59,9.59Z" transform="translate(-24.25 -70.31)"/><polygon class="cls-2" points="155.73 154.64 153.9 150.34 152.39 150.34 154.99 156.36 156.37 156.36 158.97 150.34 157.59 150.34 155.73 154.64"/><path class="cls-2" d="M186.64,222.27a2.66,2.66,0,0,0-1.23-.29,2.5,2.5,0,0,0-1.26.31,2.21,2.21,0,0,0-.89.85,2.39,2.39,0,0,0-.32,1.22,2.31,2.31,0,0,0,.33,1.23,2.11,2.11,0,0,0,.92.85,3.12,3.12,0,0,0,1.39.31,2.4,2.4,0,0,0,1.91-.75l-.71-.78a1.54,1.54,0,0,1-.53.34,1.59,1.59,0,0,1-.64.11,1.42,1.42,0,0,1-.87-.25,1,1,0,0,1-.45-.68h3.5q0-.33,0-.36a2.52,2.52,0,0,0-.32-1.27A2.24,2.24,0,0,0,186.64,222.27ZM184.27,224a1.13,1.13,0,0,1,.38-.71,1.17,1.17,0,0,1,.77-.25,1.09,1.09,0,0,1,.75.26,1.06,1.06,0,0,1,.38.7Z" transform="translate(-24.25 -70.31)"/><path class="cls-2" d="M190,222.66v-.61h-1.28v4.63h1.34v-2.19a1.31,1.31,0,0,1,.33-1,1.25,1.25,0,0,1,.9-.32l.3,0V222a2.5,2.5,0,0,0-.94.17A1.58,1.58,0,0,0,190,222.66Z" transform="translate(-24.25 -70.31)"/><rect class="cls-2" x="168.14" y="151.74" width="1.34" height="4.63"/><path class="cls-2" d="M193.06,219.91a.89.89,0,0,0-.61.21.73.73,0,0,0-.23.54.7.7,0,0,0,.23.53.89.89,0,0,0,.61.21.84.84,0,0,0,.6-.22.73.73,0,0,0,.23-.55.68.68,0,0,0-.23-.52A.92.92,0,0,0,193.06,219.91Z" transform="translate(-24.25 -70.31)"/><path class="cls-2" d="M197.06,221.28a.94.94,0,0,1,.54.17l.35-1a1.32,1.32,0,0,0-.45-.18,2.62,2.62,0,0,0-.57-.06,1.78,1.78,0,0,0-1.32.46,1.67,1.67,0,0,0-.47,1.26v.2h-.72v1h.72v3.5h1.34v-3.5h1.15v-1h-1.18V222C196.45,221.51,196.65,221.28,197.06,221.28Z" transform="translate(-24.25 -70.31)"/><path class="cls-2" d="M200.39,225.19l-1.3-3.14H197.7l2,4.66,0,0a1.18,1.18,0,0,1-.31.45.73.73,0,0,1-.45.13,1,1,0,0,1-.4-.08,1.31,1.31,0,0,1-.36-.21l-.49,1a1.47,1.47,0,0,0,.58.31,2.21,2.21,0,0,0,.71.12,1.94,1.94,0,0,0,1.14-.33,2.45,2.45,0,0,0,.78-1.13l2.09-4.91h-1.29Z" transform="translate(-24.25 -70.31)"/><path class="cls-2" d="M209.83,225.19l-1.3-3.14h-1.38l2,4.66,0,0a1.17,1.17,0,0,1-.3.45.73.73,0,0,1-.45.13,1,1,0,0,1-.4-.08,1.07,1.07,0,0,1-.36-.21l-.49,1a1.4,1.4,0,0,0,.58.31,2.16,2.16,0,0,0,.71.12,1.91,1.91,0,0,0,1.13-.33,2.46,2.46,0,0,0,.79-1.13l2.09-4.91h-1.29Z" transform="translate(-24.25 -70.31)"/><path class="cls-2" d="M216.36,222.29a2.67,2.67,0,0,0-1.31-.31,2.72,2.72,0,0,0-1.31.31,2.3,2.3,0,0,0-.91.84,2.52,2.52,0,0,0,0,2.46,2.26,2.26,0,0,0,.91.85,2.84,2.84,0,0,0,1.31.31,2.78,2.78,0,0,0,1.31-.31,2.11,2.11,0,0,0,.9-.85,2.46,2.46,0,0,0,0-2.46A2.15,2.15,0,0,0,216.36,222.29Zm-.46,3a1.12,1.12,0,0,1-.85.35,1.15,1.15,0,0,1-.85-.35,1.33,1.33,0,0,1-.33-.94,1.29,1.29,0,0,1,.33-.93,1.15,1.15,0,0,1,.85-.35,1.12,1.12,0,0,1,.85.35,1.29,1.29,0,0,1,.33.93A1.33,1.33,0,0,1,215.9,225.3Z" transform="translate(-24.25 -70.31)"/><path class="cls-2" d="M221.81,224.34a1.35,1.35,0,0,1-.29.93,1,1,0,0,1-.78.32c-.62,0-.94-.38-.94-1.12v-2.42h-1.34v2.61a2.12,2.12,0,0,0,.53,1.56,2,2,0,0,0,1.45.53,2.11,2.11,0,0,0,.8-.16,1.84,1.84,0,0,0,.64-.46v.55h1.27v-4.63h-1.34Z" transform="translate(-24.25 -70.31)"/><path class="cls-2" d="M225.68,222.66v-.61H224.4v4.63h1.34v-2.19a1.31,1.31,0,0,1,.33-1,1.22,1.22,0,0,1,.9-.32l.3,0V222a2.46,2.46,0,0,0-.94.17A1.58,1.58,0,0,0,225.68,222.66Z" transform="translate(-24.25 -70.31)"/><path class="cls-2" d="M184,234.42q-.36-.1-.93-.21a3.71,3.71,0,0,1-.74-.16.3.3,0,0,1-.23-.3.35.35,0,0,1,.21-.31,1.36,1.36,0,0,1,.65-.12,2.66,2.66,0,0,1,1.33.34l.45-.95a2.64,2.64,0,0,0-.81-.3,4.58,4.58,0,0,0-1-.11,3.25,3.25,0,0,0-1.15.19,1.68,1.68,0,0,0-.74.53,1.28,1.28,0,0,0-.26.78,1.13,1.13,0,0,0,.27.81,1.51,1.51,0,0,0,.65.4,6.25,6.25,0,0,0,.93.19,3.38,3.38,0,0,1,.72.15c.15.06.23.15.23.28,0,.29-.28.43-.85.43a3.26,3.26,0,0,1-.86-.13,2.73,2.73,0,0,1-.75-.32l-.45,1a3.2,3.2,0,0,0,.88.36,4.73,4.73,0,0,0,1.13.14,3.43,3.43,0,0,0,1.17-.18,1.71,1.71,0,0,0,.75-.52,1.2,1.2,0,0,0,.26-.77,1.1,1.1,0,0,0-.27-.79A1.31,1.31,0,0,0,184,234.42Z" transform="translate(-24.25 -70.31)"/><rect class="cls-2" x="161.47" y="162.06" width="1.34" height="4.63"/><path class="cls-2" d="M186.39,230.23a.81.81,0,0,0-.6.22.71.71,0,0,0,0,1.06.81.81,0,0,0,.6.22.82.82,0,0,0,.6-.22.72.72,0,0,0,.23-.56.64.64,0,0,0-.23-.51A.86.86,0,0,0,186.39,230.23Z" transform="translate(-24.25 -70.31)"/><path class="cls-2" d="M191.81,233a1.85,1.85,0,0,0-1.53-.67,2.53,2.53,0,0,0-1.17.28,2.2,2.2,0,0,0-.84.79,2.36,2.36,0,0,0,0,2.34,2.2,2.2,0,0,0,.84.79,2.53,2.53,0,0,0,1.17.28,1.86,1.86,0,0,0,1.46-.58v.2a1.26,1.26,0,0,1-.33.95,1.46,1.46,0,0,1-1,.31,2.72,2.72,0,0,1-.89-.14,2.06,2.06,0,0,1-.74-.38l-.54,1a2.82,2.82,0,0,0,1,.48,4.81,4.81,0,0,0,1.27.16,2.76,2.76,0,0,0,1.94-.62,2.47,2.47,0,0,0,.66-1.89v-3.86h-1.27Zm-.39,2.39a1.36,1.36,0,0,1-1.75,0,1.14,1.14,0,0,1,0-1.64,1.39,1.39,0,0,1,1.75,0,1.16,1.16,0,0,1,0,1.64Z" transform="translate(-24.25 -70.31)"/><path class="cls-2" d="M197.14,232.3a2.49,2.49,0,0,0-.87.16,1.83,1.83,0,0,0-.66.46v-.55h-1.28V237h1.34v-2.29a1.3,1.3,0,0,1,.3-.93,1.06,1.06,0,0,1,.81-.31.9.9,0,0,1,.7.27,1.2,1.2,0,0,1,.24.82V237h1.34v-2.65a2.07,2.07,0,0,0-.53-1.53A1.91,1.91,0,0,0,197.14,232.3Z" transform="translate(-24.25 -70.31)"/><path class="cls-2" d="M202.14,232.3a4,4,0,0,0-1.09.15,3.31,3.31,0,0,0-.91.41l.49.94a1.88,1.88,0,0,1,.6-.31,2.28,2.28,0,0,1,.73-.12,1.16,1.16,0,0,1,.8.24.85.85,0,0,1,.27.67H202a2.5,2.5,0,0,0-1.5.37,1.21,1.21,0,0,0-.49,1,1.27,1.27,0,0,0,.21.72,1.42,1.42,0,0,0,.6.5,2.19,2.19,0,0,0,.92.18,1.49,1.49,0,0,0,1.41-.64V237h1.26v-2.64a1.93,1.93,0,0,0-.58-1.54A2.4,2.4,0,0,0,202.14,232.3Zm.89,3.24a.89.89,0,0,1-.38.47,1.23,1.23,0,0,1-.61.16.93.93,0,0,1-.56-.15.5.5,0,0,1-.2-.41c0-.36.28-.54.83-.54H203Z" transform="translate(-24.25 -70.31)"/><path class="cls-2" d="M207.66,236a.54.54,0,0,1-.42-.16.61.61,0,0,1-.15-.45v-1.88h1.15v-1h-1.15v-1.13h-1.34v1.13H205v1h.72v1.9a1.61,1.61,0,0,0,.45,1.24,1.79,1.79,0,0,0,1.27.42,2.37,2.37,0,0,0,.61-.07,1.47,1.47,0,0,0,.49-.22l-.36-.95A.84.84,0,0,1,207.66,236Z" transform="translate(-24.25 -70.31)"/><path class="cls-2" d="M212.65,234.66a1.33,1.33,0,0,1-.3.94,1,1,0,0,1-.77.31c-.63,0-.94-.37-.94-1.12v-2.42H209.3V235a2.12,2.12,0,0,0,.53,1.56,2.21,2.21,0,0,0,2.25.36,1.68,1.68,0,0,0,.63-.46V237H214v-4.63h-1.34Z" transform="translate(-24.25 -70.31)"/><path class="cls-2" d="M216.52,233v-.61h-1.29V237h1.35v-2.18a1.33,1.33,0,0,1,.32-1,1.22,1.22,0,0,1,.91-.32h.3V232.3a2.28,2.28,0,0,0-.94.18A1.43,1.43,0,0,0,216.52,233Z" transform="translate(-24.25 -70.31)"/><path class="cls-2" d="M222.22,232.6a2.54,2.54,0,0,0-1.23-.3,2.67,2.67,0,0,0-1.26.31,2.27,2.27,0,0,0-.89.85,2.42,2.42,0,0,0-.32,1.23,2.26,2.26,0,0,0,1.26,2.08,3,3,0,0,0,1.38.3,2.39,2.39,0,0,0,1.91-.75l-.71-.77a1.66,1.66,0,0,1-.52.34,1.83,1.83,0,0,1-.64.11,1.52,1.52,0,0,1-.88-.25,1.09,1.09,0,0,1-.45-.68h3.5c0-.23,0-.35,0-.37a2.46,2.46,0,0,0-.32-1.26A2,2,0,0,0,222.22,232.6Zm-2.37,1.68a1.15,1.15,0,0,1,.38-.7,1.26,1.26,0,0,1,1.53,0,1.12,1.12,0,0,1,.37.7Z" transform="translate(-24.25 -70.31)"/><path class="cls-3" d="M117.41,264.57c0,.9,0,1.6.08,2.38h0a15.87,15.87,0,0,0-1-1.89l-1.84-2.93h-.83v5.8h.7v-2.48c0-1,0-1.66,0-2.39h0a17.15,17.15,0,0,0,1.07,1.94l1.84,2.94h.76v-5.8h-.7Z" transform="translate(-24.25 -70.31)"/><path class="cls-3" d="M122.31,265.38c0-.83-.31-1.7-1.59-1.7a2.76,2.76,0,0,0-1.38.36l.18.51a2,2,0,0,1,1.09-.31.85.85,0,0,1,.94,1v.09c-1.61,0-2.5.54-2.5,1.55a1.18,1.18,0,0,0,1.27,1.19,1.54,1.54,0,0,0,1.28-.62h0l.07.53h.68a7.57,7.57,0,0,1-.06-1Zm-.74,1.15a.93.93,0,0,1-1.06.94.66.66,0,0,1-.7-.72c0-.81.93-.95,1.76-.94Z" transform="translate(-24.25 -70.31)"/><path class="cls-3" d="M128.1,263.68a1.38,1.38,0,0,0-.91.29,1.59,1.59,0,0,0-.48.54h0a1.22,1.22,0,0,0-1.17-.83,1.43,1.43,0,0,0-1.32.77h0l0-.68h-.66c0,.35,0,.69,0,1.13v3h.74v-2.51a1.1,1.1,0,0,1,.06-.37,1.05,1.05,0,0,1,.94-.76c.58,0,.87.47.87,1.14v2.5h.74v-2.58a1.16,1.16,0,0,1,.06-.38,1,1,0,0,1,.9-.68c.6,0,.9.47.9,1.28v2.36h.74v-2.45C129.47,264,128.66,263.68,128.1,263.68Z" transform="translate(-24.25 -70.31)"/><path class="cls-3" d="M132.36,263.67a2,2,0,0,0-2,2.25,1.94,1.94,0,0,0,2,2.1,3.44,3.44,0,0,0,1.4-.26l-.14-.54a2.9,2.9,0,0,1-1.15.21,1.33,1.33,0,0,1-1.42-1.45H134a1.6,1.6,0,0,0,0-.36A1.76,1.76,0,0,0,132.36,263.67Zm-1.22,1.77a1.25,1.25,0,0,1,1.16-1.23,1.08,1.08,0,0,1,1,1.23Z" transform="translate(-24.25 -70.31)"/><path class="cls-3" d="M135.34,267a.54.54,0,0,0,0,1.07h0a.54.54,0,0,0,0-1.07Z" transform="translate(-24.25 -70.31)"/><path class="cls-3" d="M135.34,263.92a.5.5,0,0,0-.5.54.51.51,0,0,0,.5.54h0a.51.51,0,0,0,.51-.54A.5.5,0,0,0,135.34,263.92Z" transform="translate(-24.25 -70.31)"/><rect class="cls-3" x="111.91" y="198.27" width="4.3" height="0.43"/><rect class="cls-3" x="116.22" y="198.27" width="4.3" height="0.43"/><rect class="cls-3" x="120.52" y="198.27" width="4.3" height="0.43"/><rect class="cls-3" x="124.82" y="198.27" width="4.3" height="0.43"/><rect class="cls-3" x="129.12" y="198.27" width="4.3" height="0.43"/><rect class="cls-3" x="133.42" y="198.27" width="4.3" height="0.43"/><rect class="cls-3" x="137.72" y="198.27" width="4.3" height="0.43"/><rect class="cls-3" x="142.03" y="198.27" width="4.3" height="0.43"/><rect class="cls-3" x="146.33" y="198.27" width="4.3" height="0.43"/><rect class="cls-3" x="150.63" y="198.27" width="4.3" height="0.43"/><rect class="cls-3" x="154.93" y="198.27" width="4.3" height="0.43"/><rect class="cls-3" x="159.23" y="198.27" width="4.3" height="0.43"/><rect class="cls-3" x="163.53" y="198.27" width="4.3" height="0.43"/><rect class="cls-3" x="167.84" y="198.27" width="4.3" height="0.43"/><rect class="cls-3" x="172.14" y="198.27" width="4.3" height="0.43"/><rect class="cls-3" x="176.44" y="198.27" width="4.3" height="0.43"/><rect class="cls-3" x="180.74" y="198.27" width="4.3" height="0.43"/><rect class="cls-3" x="185.04" y="198.27" width="4.3" height="0.43"/><rect class="cls-3" x="189.34" y="198.27" width="4.3" height="0.43"/><rect class="cls-3" x="193.65" y="198.27" width="4.3" height="0.43"/><rect class="cls-3" x="197.95" y="198.27" width="4.3" height="0.43"/><rect class="cls-3" x="202.25" y="198.27" width="4.3" height="0.43"/><rect class="cls-3" x="206.55" y="198.27" width="4.3" height="0.43"/><rect class="cls-3" x="210.85" y="198.27" width="4.3" height="0.43"/><rect class="cls-3" x="215.15" y="198.27" width="4.3" height="0.43"/><rect class="cls-3" x="219.46" y="198.27" width="4.3" height="0.43"/><rect class="cls-3" x="223.76" y="198.27" width="4.3" height="0.43"/><rect class="cls-3" x="228.06" y="198.27" width="4.3" height="0.43"/><rect class="cls-3" x="232.36" y="198.27" width="4.3" height="0.43"/><rect class="cls-3" x="236.66" y="198.27" width="4.3" height="0.43"/><rect class="cls-3" x="240.96" y="198.27" width="4.3" height="0.43"/><rect class="cls-3" x="245.26" y="198.27" width="4.3" height="0.43"/><rect class="cls-3" x="249.57" y="198.27" width="4.3" height="0.43"/><rect class="cls-3" x="253.87" y="198.27" width="4.3" height="0.43"/><rect class="cls-3" x="258.17" y="198.27" width="4.3" height="0.43"/><rect class="cls-3" x="262.47" y="198.27" width="4.3" height="0.43"/><polygon class="cls-3" points="89.79 216.9 92.03 216.9 92.03 216.28 89.79 216.28 89.79 214.45 92.17 214.45 92.17 213.82 89.03 213.82 89.03 219.62 92.3 219.62 92.3 218.99 89.79 218.99 89.79 216.9"/><rect class="cls-3" x="92.88" y="217.02" width="2.12" height="0.55"/><path class="cls-3" d="M124.71,285.68a1.38,1.38,0,0,0-.91.29,1.7,1.7,0,0,0-.48.54h0a1.22,1.22,0,0,0-1.17-.83,1.45,1.45,0,0,0-1.32.76h0l0-.67h-.66c0,.34,0,.69,0,1.13v3h.74v-2.51a1.1,1.1,0,0,1,.06-.37,1.05,1.05,0,0,1,.94-.76c.58,0,.87.48.87,1.15v2.49h.74v-2.58a1.59,1.59,0,0,1,.06-.38,1,1,0,0,1,.9-.68c.6,0,.9.48.9,1.29v2.35h.74v-2.45C126.08,286,125.27,285.68,124.71,285.68Z" transform="translate(-24.25 -70.31)"/><path class="cls-3" d="M130.24,287.38c0-.84-.31-1.7-1.59-1.7a2.69,2.69,0,0,0-1.38.36l.18.5a2,2,0,0,1,1.09-.31.86.86,0,0,1,.94,1v.08c-1.6,0-2.5.55-2.5,1.55a1.19,1.19,0,0,0,1.28,1.2,1.57,1.57,0,0,0,1.27-.62h0l.07.52h.68a7.31,7.31,0,0,1-.06-1Zm-.74,1.15a1,1,0,0,1,0,.24,1.07,1.07,0,0,1-1,.7.67.67,0,0,1-.7-.72c0-.81.94-1,1.76-.94Z" transform="translate(-24.25 -70.31)"/><rect class="cls-3" x="107.21" y="215.46" width="0.76" height="4.16"/><path class="cls-3" d="M131.83,284a.49.49,0,0,0,0,1h0a.48.48,0,0,0,.49-.49A.47.47,0,0,0,131.83,284Z" transform="translate(-24.25 -70.31)"/><rect class="cls-3" x="109.22" y="213.51" width="0.76" height="6.11"/><path class="cls-3" d="M135.81,289a.54.54,0,0,0,0,1.08h0a.51.51,0,0,0,.51-.54A.5.5,0,0,0,135.81,289Z" transform="translate(-24.25 -70.31)"/><path class="cls-3" d="M135.82,285.92a.54.54,0,0,0,0,1.07h0a.54.54,0,0,0,0-1.07Z" transform="translate(-24.25 -70.31)"/><rect class="cls-3" x="112.39" y="220.26" width="4.3" height="0.43"/><rect class="cls-3" x="116.69" y="220.26" width="4.3" height="0.43"/><rect class="cls-3" x="120.99" y="220.26" width="4.3" height="0.43"/><rect class="cls-3" x="125.29" y="220.26" width="4.3" height="0.43"/><rect class="cls-3" x="129.59" y="220.26" width="4.3" height="0.43"/><rect class="cls-3" x="133.9" y="220.26" width="4.3" height="0.43"/><rect class="cls-3" x="138.2" y="220.26" width="4.3" height="0.43"/><rect class="cls-3" x="142.5" y="220.26" width="4.3" height="0.43"/><rect class="cls-3" x="146.8" y="220.26" width="4.3" height="0.43"/><rect class="cls-3" x="151.1" y="220.26" width="4.3" height="0.43"/><rect class="cls-3" x="155.4" y="220.26" width="4.3" height="0.43"/><rect class="cls-3" x="159.71" y="220.26" width="4.3" height="0.43"/><rect class="cls-3" x="164.01" y="220.26" width="4.3" height="0.43"/><rect class="cls-3" x="168.31" y="220.26" width="4.3" height="0.43"/><rect class="cls-3" x="172.61" y="220.26" width="4.3" height="0.43"/><rect class="cls-3" x="176.91" y="220.26" width="4.3" height="0.43"/><rect class="cls-3" x="181.21" y="220.26" width="4.3" height="0.43"/><rect class="cls-3" x="185.51" y="220.26" width="4.3" height="0.43"/><rect class="cls-3" x="189.82" y="220.26" width="4.3" height="0.43"/><rect class="cls-3" x="194.12" y="220.26" width="4.3" height="0.43"/><rect class="cls-3" x="198.42" y="220.26" width="4.3" height="0.43"/><rect class="cls-3" x="202.72" y="220.26" width="4.3" height="0.43"/><rect class="cls-3" x="207.02" y="220.26" width="4.3" height="0.43"/><rect class="cls-3" x="211.32" y="220.26" width="4.3" height="0.43"/><rect class="cls-3" x="215.63" y="220.26" width="4.3" height="0.43"/><rect class="cls-3" x="219.93" y="220.26" width="4.3" height="0.43"/><rect class="cls-3" x="224.23" y="220.26" width="4.3" height="0.43"/><rect class="cls-3" x="228.53" y="220.26" width="4.3" height="0.43"/><rect class="cls-3" x="232.83" y="220.26" width="4.3" height="0.43"/><rect class="cls-3" x="237.13" y="220.26" width="4.3" height="0.43"/><rect class="cls-3" x="241.44" y="220.26" width="4.3" height="0.43"/><rect class="cls-3" x="245.74" y="220.26" width="4.3" height="0.43"/><rect class="cls-3" x="250.04" y="220.26" width="4.3" height="0.43"/><rect class="cls-3" x="254.34" y="220.26" width="4.3" height="0.43"/><rect class="cls-3" x="258.64" y="220.26" width="4.3" height="0.43"/><rect class="cls-3" x="262.94" y="220.26" width="4.3" height="0.43"/><path class="cls-3" d="M305.63,70.85H98.5A13.24,13.24,0,0,0,85.26,84.09V95.42H318.87V84.09A13.24,13.24,0,0,0,305.63,70.85Z" transform="translate(-24.25 -70.31)"/><path class="cls-3" d="M305.63,70.31H98.5A13.79,13.79,0,0,0,84.72,84.09V95.42a.54.54,0,0,0,.54.54H318.87a.54.54,0,0,0,.53-.54V84.09A13.79,13.79,0,0,0,305.63,70.31Zm12.7,24.58H85.8V84.09a12.71,12.71,0,0,1,12.7-12.7H305.63a12.72,12.72,0,0,1,12.7,12.7Z" transform="translate(-24.25 -70.31)"/><rect class="cls-2" x="286.31" y="83.76" width="0.72" height="6.8" transform="translate(-1.91 157.92) rotate(-45)"/><rect class="cls-2" x="283.27" y="86.8" width="6.8" height="0.72" transform="translate(-1.91 157.92) rotate(-45)"/><path class="cls-2" d="M296.29,84.08a3.1,3.1,0,1,0,3.1,3.1A3.11,3.11,0,0,0,296.29,84.08Zm0,5.49a2.39,2.39,0,1,1,2.38-2.39A2.39,2.39,0,0,1,296.29,89.57Z" transform="translate(-24.25 -70.31)"/><rect class="cls-2" x="277.32" y="19.25" width="4.88" height="0.72"/><path class="cls-2" d="M390.88,313.88H166.4V361.8H417.27V340.27A26.39,26.39,0,0,0,390.88,313.88Z" transform="translate(-24.25 -70.31)"/><path class="cls-3" d="M390.88,313.34H166.4a.54.54,0,0,0-.53.54V361.8a.54.54,0,0,0,.53.54H417.27a.54.54,0,0,0,.54-.54V340.27A27,27,0,0,0,390.88,313.34Zm25.85,47.92H166.94V314.42H390.88a25.88,25.88,0,0,1,25.85,25.85Z" transform="translate(-24.25 -70.31)"/><path class="cls-3" d="M195,342.42a28.54,28.54,0,0,0-28.55-28.54h-1.79a28.54,28.54,0,0,0-28.54,28.54c0,10.65-8.63,19.92-19.28,19.92l97.76-.31A19.6,19.6,0,0,1,195,342.42Z" transform="translate(-24.25 -70.31)"/><path class="cls-3" d="M214.55,361.49a19.09,19.09,0,0,1-19.07-19.07,29.11,29.11,0,0,0-29.08-29.08h-1.79a29.12,29.12,0,0,0-29.08,29.08c0,10.44-8.53,19.32-18.63,19.39h-.12a.54.54,0,1,0,0,1.07h0l97.76-.31a.54.54,0,1,0,0-1.08Zm-91.5.3a20.79,20.79,0,0,0,13.56-19.37,28,28,0,0,1,28-28h1.79a28,28,0,0,1,28,28,20.17,20.17,0,0,0,13.7,19.09Z" transform="translate(-24.25 -70.31)"/><path class="cls-3" d="M240.63,333.29A28.74,28.74,0,0,1,212,362H441.39a28.74,28.74,0,0,0,28.74-28.74v-1.56H240.63Z" transform="translate(-24.25 -70.31)"/><path class="cls-3" d="M470.13,331.2H240.63a.53.53,0,0,0-.53.53v1.56A28.26,28.26,0,0,1,212,361.49a.54.54,0,0,0,0,1.08H441.39a29.31,29.31,0,0,0,29.28-29.28v-1.56A.54.54,0,0,0,470.13,331.2Zm-.54,2.09a28.23,28.23,0,0,1-28.2,28.2H219.76a29.35,29.35,0,0,0,21.41-28.2v-1H469.59Z" transform="translate(-24.25 -70.31)"/><polygon class="cls-2" points="318.02 239.63 327.77 248.15 327.77 229.87 318.02 221.35 318.02 239.63"/><path class="cls-3" d="M342.62,291.26a.54.54,0,0,0-.57-.09.53.53,0,0,0-.32.49v18.28a.55.55,0,0,0,.18.4l9.76,8.53a.51.51,0,0,0,.35.13.44.44,0,0,0,.22-.05.54.54,0,0,0,.32-.49V300.19a.55.55,0,0,0-.19-.41Zm8.86,26-8.67-7.59V292.85l8.67,7.58Z" transform="translate(-24.25 -70.31)"/><polygon class="cls-2" points="327.77 248.15 341.59 240.89 341.59 222.61 327.77 229.87 327.77 248.15"/><path class="cls-3" d="M365.59,292.45l-13.82,7.26a.54.54,0,0,0-.29.48v18.27a.53.53,0,0,0,.26.46.48.48,0,0,0,.28.08.54.54,0,0,0,.25-.06l13.81-7.26a.55.55,0,0,0,.29-.48V292.93a.53.53,0,0,0-.26-.46A.51.51,0,0,0,365.59,292.45Zm-.29,18.43-12.74,6.69V300.51l12.74-6.7Z" transform="translate(-24.25 -70.31)"/><polygon class="cls-3" points="318.09 221.43 327.77 229.87 341.59 222.61 331.91 214.16 318.09 221.43"/><path class="cls-3" d="M356.51,284.07a.55.55,0,0,0-.6-.07l-13.82,7.26a.54.54,0,0,0-.28.42.54.54,0,0,0,.18.47l9.68,8.44a.52.52,0,0,0,.35.14.59.59,0,0,0,.25-.07l13.81-7.26a.54.54,0,0,0,.29-.41.55.55,0,0,0-.18-.47Zm-4.41,15.47-8.82-7.69,12.8-6.72,8.81,7.68Z" transform="translate(-24.25 -70.31)"/><polygon class="cls-2" points="304.2 228.61 313.88 237.06 327.7 229.79 318.02 221.35 304.2 228.61"/><path class="cls-3" d="M342.62,291.26a.52.52,0,0,0-.6-.07l-13.82,7.26a.54.54,0,0,0-.1.88l9.68,8.45a.56.56,0,0,0,.35.13.54.54,0,0,0,.25-.06l13.82-7.26a.55.55,0,0,0,.1-.89Zm-4.41,15.46L329.4,299l12.79-6.73L351,300Z" transform="translate(-24.25 -70.31)"/><polygon class="cls-3" points="63.96 104.77 57.33 111.4 50.7 104.77 44.55 110.92 51.18 117.55 44.55 124.18 50.7 130.32 57.33 123.7 63.96 130.32 70.11 124.18 63.48 117.55 70.11 110.92 63.96 104.77"/><path class="cls-3" d="M94.73,180.85l-6.15-6.14a.54.54,0,0,0-.76,0L81.58,181l-6.25-6.24a.54.54,0,0,0-.76,0l-6.15,6.14a.55.55,0,0,0-.16.38.53.53,0,0,0,.16.38l6.25,6.25-6.25,6.25a.53.53,0,0,0,0,.76L74.57,201a.55.55,0,0,0,.38.16.57.57,0,0,0,.38-.16l6.25-6.25L87.82,201a.54.54,0,0,0,.76,0l6.15-6.15a.54.54,0,0,0,0-.76l-6.25-6.25,6.25-6.25A.54.54,0,0,0,94.73,180.85Zm-7.39,6.63a.54.54,0,0,0,0,.76l6.25,6.25-5.39,5.39L82,193.63a.54.54,0,0,0-.76,0L75,199.88l-5.39-5.39,6.25-6.25a.54.54,0,0,0,0-.76l-6.25-6.25L75,175.85l6.25,6.24a.54.54,0,0,0,.76,0l6.24-6.24,5.39,5.38Z" transform="translate(-24.25 -70.31)"/><polygon class="cls-2" points="66.4 100.59 59.77 107.22 53.15 100.59 47 106.74 53.63 113.37 47 120 53.15 126.15 59.77 119.52 66.4 126.15 72.55 120 65.92 113.37 72.55 106.74 66.4 100.59"/><path class="cls-3" d="M97.18,176.68,91,170.53a.54.54,0,0,0-.76,0L84,176.78l-6.25-6.25a.54.54,0,0,0-.76,0l-6.15,6.15a.54.54,0,0,0,0,.76l6.25,6.24-6.25,6.25a.54.54,0,0,0,0,.76L77,196.84a.54.54,0,0,0,.38.16.51.51,0,0,0,.38-.16L84,190.59l6.25,6.25a.54.54,0,0,0,.76,0l6.15-6.15a.54.54,0,0,0,0-.76l-6.25-6.25,6.25-6.24A.54.54,0,0,0,97.18,176.68Zm-7.39,6.62a.54.54,0,0,0,0,.76L96,190.31l-5.39,5.39-6.25-6.25a.54.54,0,0,0-.76,0l-6.25,6.25L72,190.31l6.24-6.25a.54.54,0,0,0,0-.76L72,177.06l5.38-5.39,6.25,6.25a.54.54,0,0,0,.76,0l6.25-6.25L96,177.06Z" transform="translate(-24.25 -70.31)"/><path class="cls-3" d="M116.1,447.78a1.76,1.76,0,1,0,1.76,1.76A1.76,1.76,0,0,0,116.1,447.78Z" transform="translate(-24.25 -70.31)"/><path class="cls-3" d="M138.84,447.78a1.76,1.76,0,1,0,1.75,1.76A1.76,1.76,0,0,0,138.84,447.78Z" transform="translate(-24.25 -70.31)"/><path class="cls-3" d="M161.57,447.78a1.76,1.76,0,1,0,1.76,1.76A1.75,1.75,0,0,0,161.57,447.78Z" transform="translate(-24.25 -70.31)"/><path class="cls-3" d="M184.31,447.78a1.76,1.76,0,1,0,1.75,1.76A1.76,1.76,0,0,0,184.31,447.78Z" transform="translate(-24.25 -70.31)"/><path class="cls-3" d="M207,447.78a1.76,1.76,0,1,0,1.76,1.76A1.75,1.75,0,0,0,207,447.78Z" transform="translate(-24.25 -70.31)"/><path class="cls-3" d="M127.89,460.15a1.76,1.76,0,1,0,1.75,1.75A1.75,1.75,0,0,0,127.89,460.15Z" transform="translate(-24.25 -70.31)"/><path class="cls-3" d="M150.55,460.15a1.76,1.76,0,1,0,1.76,1.75A1.75,1.75,0,0,0,150.55,460.15Z" transform="translate(-24.25 -70.31)"/><path class="cls-3" d="M173.21,460.15A1.76,1.76,0,1,0,175,461.9,1.75,1.75,0,0,0,173.21,460.15Z" transform="translate(-24.25 -70.31)"/><path class="cls-3" d="M195.87,460.15a1.76,1.76,0,1,0,1.76,1.75A1.75,1.75,0,0,0,195.87,460.15Z" transform="translate(-24.25 -70.31)"/><path class="cls-3" d="M116.1,477a1.76,1.76,0,1,0,1.76,1.76A1.76,1.76,0,0,0,116.1,477Z" transform="translate(-24.25 -70.31)"/><path class="cls-3" d="M138.84,477a1.76,1.76,0,1,0,1.75,1.76A1.76,1.76,0,0,0,138.84,477Z" transform="translate(-24.25 -70.31)"/><path class="cls-3" d="M161.57,477a1.76,1.76,0,1,0,1.76,1.76A1.75,1.75,0,0,0,161.57,477Z" transform="translate(-24.25 -70.31)"/><path class="cls-3" d="M184.31,477a1.76,1.76,0,1,0,1.75,1.76A1.76,1.76,0,0,0,184.31,477Z" transform="translate(-24.25 -70.31)"/><path class="cls-3" d="M207,477a1.76,1.76,0,1,0,1.76,1.76A1.75,1.75,0,0,0,207,477Z" transform="translate(-24.25 -70.31)"/><path class="cls-3" d="M127.89,489.36a1.76,1.76,0,1,0,1.75,1.76A1.76,1.76,0,0,0,127.89,489.36Z" transform="translate(-24.25 -70.31)"/><path class="cls-3" d="M150.55,489.36a1.76,1.76,0,1,0,1.76,1.76A1.76,1.76,0,0,0,150.55,489.36Z" transform="translate(-24.25 -70.31)"/><path class="cls-3" d="M173.21,489.36a1.76,1.76,0,1,0,1.76,1.76A1.76,1.76,0,0,0,173.21,489.36Z" transform="translate(-24.25 -70.31)"/><path class="cls-3" d="M195.87,489.36a1.76,1.76,0,1,0,1.76,1.76A1.75,1.75,0,0,0,195.87,489.36Z" transform="translate(-24.25 -70.31)"/><path class="cls-3" d="M116.1,506.22a1.76,1.76,0,1,0,1.76,1.75A1.75,1.75,0,0,0,116.1,506.22Z" transform="translate(-24.25 -70.31)"/><path class="cls-3" d="M138.84,506.22a1.76,1.76,0,1,0,1.75,1.75A1.75,1.75,0,0,0,138.84,506.22Z" transform="translate(-24.25 -70.31)"/><path class="cls-3" d="M161.57,506.22a1.76,1.76,0,1,0,1.76,1.75A1.75,1.75,0,0,0,161.57,506.22Z" transform="translate(-24.25 -70.31)"/><path class="cls-3" d="M184.31,506.22a1.76,1.76,0,1,0,1.75,1.75A1.75,1.75,0,0,0,184.31,506.22Z" transform="translate(-24.25 -70.31)"/><path class="cls-3" d="M207,506.22A1.76,1.76,0,1,0,208.8,508,1.75,1.75,0,0,0,207,506.22Z" transform="translate(-24.25 -70.31)"/><path class="cls-3" d="M127.89,518.58a1.76,1.76,0,1,0,1.75,1.76A1.76,1.76,0,0,0,127.89,518.58Z" transform="translate(-24.25 -70.31)"/><path class="cls-3" d="M150.55,518.58a1.76,1.76,0,1,0,1.76,1.76A1.76,1.76,0,0,0,150.55,518.58Z" transform="translate(-24.25 -70.31)"/><path class="cls-3" d="M173.21,518.58a1.76,1.76,0,1,0,1.76,1.76A1.76,1.76,0,0,0,173.21,518.58Z" transform="translate(-24.25 -70.31)"/><path class="cls-3" d="M195.87,518.58a1.76,1.76,0,1,0,1.76,1.76A1.75,1.75,0,0,0,195.87,518.58Z" transform="translate(-24.25 -70.31)"/><path class="cls-3" d="M116.1,535.43a1.76,1.76,0,1,0,1.76,1.76A1.76,1.76,0,0,0,116.1,535.43Z" transform="translate(-24.25 -70.31)"/><path class="cls-3" d="M138.84,535.43a1.76,1.76,0,1,0,1.75,1.76A1.76,1.76,0,0,0,138.84,535.43Z" transform="translate(-24.25 -70.31)"/><path class="cls-3" d="M161.57,535.43a1.76,1.76,0,1,0,1.76,1.76A1.75,1.75,0,0,0,161.57,535.43Z" transform="translate(-24.25 -70.31)"/><path class="cls-3" d="M184.31,535.43a1.76,1.76,0,1,0,1.75,1.76A1.76,1.76,0,0,0,184.31,535.43Z" transform="translate(-24.25 -70.31)"/><path class="cls-3" d="M207,535.43a1.76,1.76,0,1,0,1.76,1.76A1.75,1.75,0,0,0,207,535.43Z" transform="translate(-24.25 -70.31)"/><path class="cls-3" d="M127.89,547.8a1.76,1.76,0,1,0,1.75,1.75A1.75,1.75,0,0,0,127.89,547.8Z" transform="translate(-24.25 -70.31)"/><path class="cls-3" d="M150.55,547.8a1.76,1.76,0,1,0,1.76,1.75A1.75,1.75,0,0,0,150.55,547.8Z" transform="translate(-24.25 -70.31)"/><path class="cls-3" d="M173.21,547.8a1.76,1.76,0,1,0,1.76,1.75A1.75,1.75,0,0,0,173.21,547.8Z" transform="translate(-24.25 -70.31)"/><path class="cls-3" d="M195.87,547.8a1.76,1.76,0,1,0,1.76,1.75A1.75,1.75,0,0,0,195.87,547.8Z" transform="translate(-24.25 -70.31)"/><path class="cls-3" d="M116.1,564.65a1.76,1.76,0,1,0,1.76,1.76A1.76,1.76,0,0,0,116.1,564.65Z" transform="translate(-24.25 -70.31)"/><path class="cls-3" d="M138.84,564.65a1.76,1.76,0,1,0,1.75,1.76A1.76,1.76,0,0,0,138.84,564.65Z" transform="translate(-24.25 -70.31)"/><path class="cls-3" d="M161.57,564.65a1.76,1.76,0,1,0,1.76,1.76A1.75,1.75,0,0,0,161.57,564.65Z" transform="translate(-24.25 -70.31)"/><path class="cls-3" d="M184.31,564.65a1.76,1.76,0,1,0,1.75,1.76A1.76,1.76,0,0,0,184.31,564.65Z" transform="translate(-24.25 -70.31)"/><path class="cls-3" d="M207,564.65a1.76,1.76,0,1,0,1.76,1.76A1.75,1.75,0,0,0,207,564.65Z" transform="translate(-24.25 -70.31)"/><path class="cls-3" d="M127.89,577a1.76,1.76,0,1,0,1.75,1.76A1.76,1.76,0,0,0,127.89,577Z" transform="translate(-24.25 -70.31)"/><path class="cls-3" d="M150.55,577a1.76,1.76,0,1,0,1.76,1.76A1.76,1.76,0,0,0,150.55,577Z" transform="translate(-24.25 -70.31)"/><path class="cls-3" d="M173.21,577a1.76,1.76,0,1,0,1.76,1.76A1.76,1.76,0,0,0,173.21,577Z" transform="translate(-24.25 -70.31)"/><path class="cls-3" d="M195.87,577a1.76,1.76,0,1,0,1.76,1.76A1.75,1.75,0,0,0,195.87,577Z" transform="translate(-24.25 -70.31)"/><polygon class="cls-3" points="135.31 419.06 128.68 425.68 122.05 419.06 115.9 425.2 122.53 431.83 115.9 438.46 122.05 444.61 128.68 437.98 135.31 444.61 141.46 438.46 134.83 431.83 141.46 425.2 135.31 419.06"/><path class="cls-3" d="M166.08,495.14,159.93,489a.54.54,0,0,0-.76,0l-6.24,6.25L146.68,489a.54.54,0,0,0-.76,0l-6.15,6.15a.53.53,0,0,0-.16.38.55.55,0,0,0,.16.38l6.25,6.24-6.25,6.25a.53.53,0,0,0,0,.76l6.15,6.15a.51.51,0,0,0,.38.16.52.52,0,0,0,.38-.16l6.25-6.25,6.24,6.25a.54.54,0,0,0,.76,0l6.15-6.15a.54.54,0,0,0,0-.76l-6.24-6.25,6.24-6.24A.54.54,0,0,0,166.08,495.14Zm-7.39,6.62a.54.54,0,0,0,0,.76l6.25,6.25-5.39,5.39-6.24-6.25a.54.54,0,0,0-.76,0l-6.25,6.25-5.39-5.39,6.25-6.25a.54.54,0,0,0,0-.76l-6.25-6.24,5.39-5.39,6.25,6.25a.54.54,0,0,0,.76,0l6.24-6.25,5.39,5.39Z" transform="translate(-24.25 -70.31)"/><polygon class="cls-2" points="137.75 414.88 131.13 421.5 124.5 414.88 118.35 421.02 124.98 427.65 118.35 434.28 124.5 440.43 131.13 433.8 137.75 440.43 143.9 434.28 137.27 427.65 143.9 421.02 137.75 414.88"/><path class="cls-3" d="M168.53,491l-6.15-6.15a.54.54,0,0,0-.76,0l-6.25,6.25-6.25-6.25a.54.54,0,0,0-.76,0L142.22,491a.54.54,0,0,0,0,.76l6.24,6.25-6.24,6.24a.54.54,0,0,0,0,.76l6.14,6.15a.54.54,0,0,0,.38.16.51.51,0,0,0,.38-.16l6.25-6.24,6.25,6.24a.54.54,0,0,0,.76,0l6.15-6.15a.54.54,0,0,0,0-.76L162.28,498l6.25-6.25A.54.54,0,0,0,168.53,491Zm-7.39,6.63a.54.54,0,0,0,0,.76l6.25,6.24L162,510l-6.25-6.25a.54.54,0,0,0-.76,0L148.74,510l-5.38-5.39,6.24-6.24a.54.54,0,0,0,0-.76l-6.24-6.25,5.38-5.39L155,492.2a.54.54,0,0,0,.76,0L162,486l5.39,5.39Z" transform="translate(-24.25 -70.31)"/><circle class="cls-2" cx="342.21" cy="197.35" r="57.71" transform="translate(-13.84 341.44) rotate(-62.84)"/><path class="cls-3" d="M342.21,139.11a58.25,58.25,0,1,0,58.25,58.25A58.31,58.31,0,0,0,342.21,139.11Zm0,115.42a57.18,57.18,0,1,1,57.17-57.17A57.24,57.24,0,0,1,342.21,254.53Z" transform="translate(-24.25 -70.31)"/><g class="cls-5"><path class="cls-2" d="M317.61,225c-4.16,7.49-18.16,37.77-25.19,40s-4.46,5.25-7.14,5.22-1.68,1.79-.42,2.1a5.4,5.4,0,0,0,3.54-.46,26.56,26.56,0,0,0-1.77,3.9s-4.33.11-3.79,1.6,1.27,1.71,3.25,1.31,1.77.67,2.82,0a4.31,4.31,0,0,0,3,1,5.37,5.37,0,0,1,1.9.56c2.72,1.75,3.81-5.27,5.66-8.45,6-10.33,19.23-21.78,30.63-41.36,3-5.21,8.37-25.59,8.37-25.59l-13.34-6.37Z" transform="translate(-24.25 -70.31)"/><path class="cls-3" d="M338.71,204.34,325.37,198a.55.55,0,0,0-.75.34l-7.51,26.46c-.82,1.48-2,3.74-3.42,6.59-5.59,11-16,31.39-21.43,33.15-4.42,1.42-5.26,3.16-5.81,4.31-.33.68-.42.88-1.17.88h-.07c-1.75,0-2.1.76-2.16,1.22-.1.87.8,1.73,1.68,1.95a6.31,6.31,0,0,0,2.56,0,21.05,21.05,0,0,0-1.06,2.41c-1,.06-3.13.29-3.77,1.22a1.15,1.15,0,0,0-.12,1.08,2.29,2.29,0,0,0,2.35,1.84,7.52,7.52,0,0,0,1.5-.19,4,4,0,0,1,.71-.08,1.8,1.8,0,0,1,.76.16,1.47,1.47,0,0,0,1.21,0,5,5,0,0,0,2.6.93,3.44,3.44,0,0,0,.46,0,4.6,4.6,0,0,1,1.6.46,2.07,2.07,0,0,0,1.12.37c1.77,0,2.74-2.63,3.76-5.4a25.41,25.41,0,0,1,1.54-3.6c2.51-4.31,6.3-8.84,10.69-14.08,5.93-7.09,13.31-15.9,19.94-27.28,3-5.21,8.2-24.89,8.42-25.73A.53.53,0,0,0,338.71,204.34Zm-9.06,25.81c-6.59,11.3-13.63,19.71-19.84,27.13-4.42,5.28-8.24,9.84-10.79,14.23a25.25,25.25,0,0,0-1.62,3.77c-.77,2.09-1.73,4.69-2.75,4.69a1,1,0,0,1-.53-.19,5.78,5.78,0,0,0-2.15-.64h-.16a3.74,3.74,0,0,1-2.55-.89.54.54,0,0,0-.64,0,.65.65,0,0,1-.32.14.79.79,0,0,1-.23-.07,2.86,2.86,0,0,0-1.17-.24,4.52,4.52,0,0,0-.92.1,7.12,7.12,0,0,1-1.29.17c-.64,0-1-.17-1.34-1.13,0-.07,0-.09,0-.11.28-.42,1.93-.73,3.3-.77a.53.53,0,0,0,.5-.4,27,27,0,0,1,1.72-3.79.52.52,0,0,0-.14-.66.57.57,0,0,0-.7,0,4.72,4.72,0,0,1-2.15.44,3.83,3.83,0,0,1-.89-.1c-.53-.13-.89-.59-.87-.78s.28-.26,1.09-.26h.11a2.06,2.06,0,0,0,2.1-1.49c.47-1,1.19-2.47,5.17-3.76,5.86-1.89,16-21.79,22.06-33.68,1.4-2.77,2.62-5.16,3.43-6.61a.76.76,0,0,0,0-.11l7.36-25.91,12.37,5.9C337.06,208.09,332.37,225.48,329.65,230.15Z" transform="translate(-24.25 -70.31)"/><path class="cls-2" d="M323.94,235.9c.23.84-.2,13.5-1.71,18.69h41c-1.7-1.72-1-12.13-3.74-18.69Z" transform="translate(-24.25 -70.31)"/><path class="cls-3" d="M362.38,247.83c-.39-3.8-.88-8.53-2.39-12.14l-.13-.33H323.94l-.66,0,.14.65c.17.78-.21,13.23-1.71,18.4l-.2.69h43l-.91-.92C363,253.55,362.69,250.77,362.38,247.83Zm-39.45,6.22c1.2-4.91,1.69-14.82,1.59-17.61h34.62c1.34,3.42,1.8,7.89,2.17,11.5a27.7,27.7,0,0,0,1,6.11Z" transform="translate(-24.25 -70.31)"/><polygon class="cls-2" points="289.67 149.77 307.49 155.89 312.19 132.32 295.91 129.79 289.67 149.77"/><path class="cls-3" d="M336.52,202.1l-16.28-2.53a.54.54,0,0,0-.6.37l-6.23,20a.53.53,0,0,0,.33.66l17.82,6.13a.57.57,0,0,0,.18,0,.5.5,0,0,0,.26-.08.49.49,0,0,0,.26-.36L337,202.74a.61.61,0,0,0-.09-.42A.51.51,0,0,0,336.52,202.1Zm-5.19,23.4-16.74-5.75,5.94-19.05,15.27,2.38Z" transform="translate(-24.25 -70.31)"/><path class="cls-3" d="M317.41,178s9.43-1.1,15-6.18,5.31-7.25,5.31-7.25C321.86,156.93,317.41,178,317.41,178Z" transform="translate(-24.25 -70.31)"/><path class="cls-3" d="M363.36,181.34c-2.6-7.8,1.21-13.73-4.9-21.94s-11.07-9.46-17.6-8.17c-11.79,2.32-19,14.82-12.68,23.87,5.88,8.37-3.55,18.32-5.78,26.64s7.72,30.68,28.94,28.63,29-11.87,28.5-25C379.29,189.76,366,189.14,363.36,181.34Z" transform="translate(-24.25 -70.31)"/><path class="cls-2" d="M342.7,192.52l-.65-11.81-6.06,5.5-.08,7s-12.49,2.86-14.18,4.77c-3.09,3.49-4.29,19.71-4.71,25.7-.45,6.38,4.51,6.58,4.51,6.58L320.33,248h44.91c-1.79-2.69-5.53-56-5.53-56S346.46,191.81,342.7,192.52Z" transform="translate(-24.25 -70.31)"/><path class="cls-2" d="M364.44,198.63a6.58,6.58,0,0,0-6.72-6.71c-4.24,0-9.4.09-12.19.29a7.4,7.4,0,0,1-7,4.52,6.3,6.3,0,0,1-5.58-2.8c-3.81,1-10.05,2.74-11.21,4-3.09,3.49-4.29,19.71-4.71,25.7-.45,6.38,4.51,6.58,4.51,6.58L320.33,248h44.91C363.87,245.9,364.34,211.82,364.44,198.63Z" transform="translate(-24.25 -70.31)"/><path class="cls-3" d="M364.94,203.29l0-4.65a7.12,7.12,0,0,0-7.22-7.26h-.05c-4,0-9.36.09-12.22.29l-.32,0L345,192a6.86,6.86,0,0,1-6.51,4.21,5.74,5.74,0,0,1-5.13-2.56l-.21-.32-.37.09c-6.66,1.71-10.52,3.12-11.48,4.21a10,10,0,0,0-1.73,3.57l1,.33a9.13,9.13,0,0,1,1.5-3.18c.76-.86,4.7-2.27,10.58-3.79a7,7,0,0,0,5.81,2.72,7.89,7.89,0,0,0,7.36-4.54c2.9-.19,8-.25,11.84-.27h0a6,6,0,0,1,6.14,6.17l0,4.65c-.22,24.1-.18,40.14.65,44.13H320.9l1.21-17.66-.55,0a4.35,4.35,0,0,1-2.8-1.39,6.06,6.06,0,0,1-1.2-4.61c.2-2.88.49-6.69.95-10.65l-1.07-.12c-.46,4-.75,7.8-1,10.69a7.11,7.11,0,0,0,1.48,5.41,5.46,5.46,0,0,0,3,1.68l-1.21,17.75h46.44l-.51-.82C364.55,245.83,364.82,216,364.94,203.29Z" transform="translate(-24.25 -70.31)"/><path class="cls-2" d="M340,177.19s-4.49-7.89-7.33-7.63-5,.88-5.83,4.18a9.6,9.6,0,0,0,0,6.14s-3.1,4,1.73,8.08,10.9-.36,12.3-5.2c0,0,3.95.53,3.82-3S342.25,176.4,340,177.19Z" transform="translate(-24.25 -70.31)"/><path class="cls-3" d="M342.29,176.16a6.93,6.93,0,0,0-2.08.38c-1-1.73-4.81-7.78-7.61-7.52s-5.37.79-6.3,4.53a10.2,10.2,0,0,0,0,6.26c-.63,1-2.47,4.77,2,8.56a6.83,6.83,0,0,0,4.51,1.75c3.95,0,7.36-3.39,8.53-6.8h.15a4.2,4.2,0,0,0,3-1.06,3.31,3.31,0,0,0,.84-2.55C345.12,176.78,343.57,176.16,342.29,176.16Zm1.32,5.35a3.12,3.12,0,0,1-2.19.74,3.91,3.91,0,0,1-.47,0l-.46-.06-.13.45c-.89,3.09-4.06,6.43-7.62,6.43a5.77,5.77,0,0,1-3.81-1.49c-4.36-3.72-1.76-7.19-1.65-7.34l.18-.23-.1-.29a9.14,9.14,0,0,1,0-5.82c.71-2.83,2.43-3.51,5.36-3.78h.09c1.84,0,5.1,4.52,6.72,7.37l.22.38.43-.14a6.7,6.7,0,0,1,2.14-.46c.83,0,1.79.28,1.87,2.51A2.27,2.27,0,0,1,343.61,181.51Z" transform="translate(-24.25 -70.31)"/><path class="cls-3" d="M332.35,169.12c-1,1.18-.77,4.17,2.88,6.95s3.36,7,5.42,4.37,2-3,1.72-6.06S334.61,166.52,332.35,169.12Z" transform="translate(-24.25 -70.31)"/></g><path class="cls-2" d="M372.07,203.35l-11.43,11.18,10.69,8.11c-7,5.13-21.71,16.32-32,18.2-8.76,1.6-9.24,6.79-11.54,8.55s-.38,2.44.88,1.83,4.6-4,5.09-4.23c0,0-5.14,9.72-5.25,11.3s1.22,1.72,2.37-.09,1.76.61,3.32-.26,1.08-2.38,3.61-2c.52.08,2-.25,4.22-3.42,1.3-1.88,1.28-2.39,5.58-4.78,10.59-5.9,25.26-7.81,41.82-22.31C393.86,221.58,372.07,203.35,372.07,203.35Z" transform="translate(-24.25 -70.31)"/><path class="cls-3" d="M372.42,202.93a.55.55,0,0,0-.72,0l-11.44,11.18a.54.54,0,0,0,.05.81l10.12,7.68-1,.76c-7.24,5.31-20.72,15.2-30.12,16.92-6.55,1.2-8.65,4.36-10.18,6.67a8.28,8.28,0,0,1-1.6,2c-1,.79-1.46,1.52-1.23,2.17a1.44,1.44,0,0,0,1.48.84,2.69,2.69,0,0,0,1.19-.27,17.63,17.63,0,0,0,3.07-2.43c-1.56,3-3.91,7.82-4,9a1.79,1.79,0,0,0,.39,1.43,1.17,1.17,0,0,0,.87.38,2.87,2.87,0,0,0,2.11-1.58c.22-.35.39-.47.46-.47a1.26,1.26,0,0,1,.47.22,2.49,2.49,0,0,0,1.27.44,1.86,1.86,0,0,0,.92-.26,4,4,0,0,0,1.4-1.3c.35-.48.51-.69,1.19-.69a4.25,4.25,0,0,1,.67.06c.64.09,2.29-.1,4.75-3.66.16-.22.29-.42.42-.62.92-1.38,1.3-1.95,5-4a92.52,92.52,0,0,1,11.27-5c9.05-3.51,19.31-7.5,30.64-17.42a2.3,2.3,0,0,0,.77-1.84C390.52,218.14,373.16,203.55,372.42,202.93ZM389.1,225c-11.19,9.8-21.35,13.75-30.32,17.23a92.25,92.25,0,0,0-11.41,5c-3.9,2.17-4.38,2.89-5.34,4.34-.13.18-.26.38-.41.6-2.09,3-3.38,3.2-3.69,3.2h0c-1.85-.28-2.43.43-2.89,1.06a3.12,3.12,0,0,1-1.06,1c-.42.23-.74.06-1.12-.16a1.94,1.94,0,0,0-1-.38,1.75,1.75,0,0,0-1.37,1c-.54.85-1,1.07-1.2,1.07s-.07,0-.08,0a.9.9,0,0,1-.11-.62c.08-1.07,3.23-7.37,5.2-11.09a.55.55,0,0,0-.09-.63.57.57,0,0,0-.39-.16.59.59,0,0,0-.23.05,11.14,11.14,0,0,0-1.67,1.42,24.86,24.86,0,0,1-3.42,2.81,1.66,1.66,0,0,1-.73.17.75.75,0,0,1-.46-.11s0-.32.86-1a8.59,8.59,0,0,0,1.84-2.24c1.51-2.27,3.38-5.09,9.48-6.2,9.65-1.77,23.26-11.75,30.56-17.11l1.62-1.19a.56.56,0,0,0,.23-.43.54.54,0,0,0-.22-.43l-10.19-7.74,10.64-10.4c5.17,4.37,17.36,15.6,17.41,19.94A1.26,1.26,0,0,1,389.1,225Z" transform="translate(-24.25 -70.31)"/><polygon class="cls-2" points="324.63 136.95 333.6 150.51 353.37 135.28 338.49 123.59 324.63 136.95"/><path class="cls-3" d="M363.06,193.48l-.66.85,14.34,11.26L358,220l-7.69-11.85-.9.59,8,12.33a.53.53,0,0,0,.36.24h.09a.54.54,0,0,0,.32-.11L378,206a.54.54,0,0,0,0-.85Z" transform="translate(-24.25 -70.31)"/><path class="cls-2" d="M284.13,207.13a18.78,18.78,0,1,0,18.79,18.78A18.78,18.78,0,0,0,284.13,207.13Z" transform="translate(-24.25 -70.31)"/><path class="cls-3" d="M284.13,206.59a19.32,19.32,0,1,0,19.33,19.32A19.35,19.35,0,0,0,284.13,206.59Zm0,37.57a18.25,18.25,0,1,1,18.25-18.25A18.27,18.27,0,0,1,284.13,244.16Z" transform="translate(-24.25 -70.31)"/><path class="cls-3" d="M293.37,225.2l-3-.77a6.37,6.37,0,0,1-4.61-4.64l-.84-3.42a.91.91,0,0,0-1.76-.05L282,220.16a6.38,6.38,0,0,1-4.38,4.26l-2.73.76A.91.91,0,0,0,275,227l2.65.5a6.38,6.38,0,0,1,5,4.79l.76,3.19a.92.92,0,0,0,1.79,0l.61-3a6.36,6.36,0,0,1,5.08-5l2.46-.46A.92.92,0,0,0,293.37,225.2Z" transform="translate(-24.25 -70.31)"/><path class="cls-2" d="M293.51,224.68l-3-.77a5.8,5.8,0,0,1-4.21-4.25l-.84-3.42a1.46,1.46,0,0,0-2.81-.08L281.48,220a5.8,5.8,0,0,1-4,3.9l-2.74.76a1.46,1.46,0,0,0,.12,2.83l2.65.5a5.84,5.84,0,0,1,4.59,4.39l.76,3.19a1.45,1.45,0,0,0,2.84,0l.61-3A5.79,5.79,0,0,1,291,228l2.46-.46a1.46,1.46,0,0,0,.1-2.84Zm-.29,1.78-2.47.46a6.87,6.87,0,0,0-5.5,5.4l-.61,3a.37.37,0,0,1-.38.3.37.37,0,0,1-.37-.29l-.75-3.19a6.9,6.9,0,0,0-5.44-5.19l-2.65-.5a.38.38,0,0,1-.31-.36.38.38,0,0,1,.28-.39l2.73-.75a6.87,6.87,0,0,0,4.75-4.62l1.19-3.84a.38.38,0,0,1,.73,0l.84,3.42a6.89,6.89,0,0,0,5,5l3,.77a.37.37,0,0,1,.29.38A.36.36,0,0,1,293.22,226.46Z" transform="translate(-24.25 -70.31)"/><path class="cls-3" d="M548.14,111.59l-1.08,0c-.45,9.63-6.06,20.59-15.39,30.05a65.87,65.87,0,0,1-7.13,6.28c-6.82-7-15.09-11.45-20.5-10.14-2.32.56-5.09,2.46-5.09,8.35,0,6.54,2.94,10.21,8.28,10.34,4.71.1,11-2.6,17.2-7.12a45.82,45.82,0,0,1,7.46,10.46c3.67,7.17,7.82,20.91-5.61,32.45-15.76,13.53-40.9-5.53-67.51-25.7-20.26-15.36-41.16-31.21-59.23-33.47-2.47-13-9.48-25.65-21.26-32.12-29.33-16.1-70.34,8.61-82.22,16.57l.6.89c11.75-7.87,52.31-32.32,81.1-16.52,11.4,6.26,18.22,18.44,20.68,31.06-1.07-.1-2.12-.15-3.17-.15-9.46,0-17.26,2.73-22.57,7.9a23.11,23.11,0,0,0-7,16.46c0,8.34,4.9,16.79,14.27,16.79,9.19,0,16.16-6.6,19.11-18.1a53.15,53.15,0,0,0,.64-21.67c17.7,2.37,38.35,18,58.38,33.21,20.54,15.58,40.21,30.49,55.67,30.49A19.57,19.57,0,0,0,527,193c14-12,9.68-26.3,5.87-33.75a47.34,47.34,0,0,0-7.55-10.61C536.61,140.12,547.48,125.71,548.14,111.59Zm-40.88,43.75c-4.73-.11-7.24-3.31-7.24-9.26,0-4.17,1.44-6.62,4.27-7.31a7.35,7.35,0,0,1,1.66-.18c4.71,0,11.7,3.84,17.72,9.93C517.66,152.9,511.73,155.45,507.26,155.34Zm-109.2.22c-2.82,11-9.41,17.28-18.07,17.28s-13.2-7.9-13.2-15.71a22,22,0,0,1,6.66-15.69c5.1-5,12.65-7.6,21.82-7.6a32.13,32.13,0,0,1,3.37.18A52.22,52.22,0,0,1,398.06,155.56Z" transform="translate(-24.25 -70.31)"/><path class="cls-3" d="M294.26,114.51a4,4,0,1,0,5.62,1A4,4,0,0,0,294.26,114.51Z" transform="translate(-24.25 -70.31)"/><path class="cls-3" d="M479.09,420.78a.54.54,0,0,0,.12-.9l-7-5.78a.54.54,0,1,0-.69.83l6.34,5.24-7.43,3.53a.55.55,0,0,0-.26.72.56.56,0,0,0,.42.3.52.52,0,0,0,.3-.05Z" transform="translate(-24.25 -70.31)"/><polygon class="cls-2" points="337.85 12.47 328.68 16.38 324.96 25.63 328.87 34.8 338.12 38.52 347.28 34.61 351 25.36 347.09 16.19 337.85 12.47"/><path class="cls-3" d="M371.83,86.29a.5.5,0,0,0-.29-.28l-9.25-3.72a.53.53,0,0,0-.41,0l-9.17,3.91a.52.52,0,0,0-.28.3l-3.72,9.24a.53.53,0,0,0,0,.41l3.91,9.17a.55.55,0,0,0,.29.29l9.25,3.72a.79.79,0,0,0,.2,0,.46.46,0,0,0,.21-.05l9.17-3.91a.52.52,0,0,0,.29-.29l3.72-9.25a.53.53,0,0,0,0-.41Zm-.72,18.22-8.75,3.74-8.84-3.55-3.73-8.76,3.55-8.84,8.76-3.73,8.83,3.55,3.74,8.76Z" transform="translate(-24.25 -70.31)"/><path class="cls-2" d="M510.06,425.8c-.23.44-.43.82-.59,1.2h0c-.18-.41-.36-.76-.57-1.2l-.82-1.6h-.86l1.84,3.34V430h.76v-2.47l1.93-3.33h-.84Z" transform="translate(-24.25 -70.31)"/><path class="cls-2" d="M513.52,425.74a2,2,0,0,0-2.06,2.21,2,2,0,0,0,2,2.14h0a2,2,0,0,0,2.07-2.21A2,2,0,0,0,513.52,425.74Zm0,3.79h0c-.73,0-1.25-.69-1.25-1.6s.39-1.62,1.28-1.62,1.24.89,1.24,1.59C514.74,428.85,514.2,429.53,513.48,429.53Z" transform="translate(-24.25 -70.31)"/><path class="cls-2" d="M520,425.84h-.76v2.54a1.09,1.09,0,0,1-.07.39,1.1,1.1,0,0,1-1,.7c-.68,0-.93-.55-.93-1.34v-2.29h-.75v2.43c0,1.45.78,1.82,1.43,1.82a1.55,1.55,0,0,0,1.38-.77h0l0,.68H520c0-.33,0-.71,0-1.14Z" transform="translate(-24.25 -70.31)"/><path class="cls-2" d="M521.92,426.65h0l0-.81h-.66c0,.38,0,.81,0,1.3V430H522v-2.22a2,2,0,0,1,0-.36,1.05,1.05,0,0,1,1-1h.27v-.7a.71.71,0,0,0-.21,0A1.27,1.27,0,0,0,521.92,426.65Z" transform="translate(-24.25 -70.31)"/><path class="cls-2" d="M527.2,427.58c-.54-.2-.78-.36-.78-.71s.24-.57.69-.57a1.76,1.76,0,0,1,.85.24l.18-.54a2,2,0,0,0-1-.26,1.29,1.29,0,0,0-1.44,1.22c0,.5.35.91,1.11,1.18.55.21.76.41.76.77s-.25.62-.8.62a2.07,2.07,0,0,1-1-.3l-.18.57a2.38,2.38,0,0,0,1.17.29c1,0,1.54-.51,1.54-1.25S527.92,427.85,527.2,427.58Z" transform="translate(-24.25 -70.31)"/><rect class="cls-2" x="505.02" y="355.52" width="0.76" height="4.16"/><path class="cls-2" d="M529.65,424.1a.49.49,0,0,0,0,1h0a.47.47,0,0,0,.49-.49A.47.47,0,0,0,529.65,424.1Z" transform="translate(-24.25 -70.31)"/><path class="cls-2" d="M534.18,426.46h0a1.38,1.38,0,0,0-1.3-.72,2,2,0,0,0-1.88,2.2,1.86,1.86,0,0,0,1.77,2,1.5,1.5,0,0,0,1.33-.69h0v.45c0,1.06-.57,1.46-1.34,1.46a2.3,2.3,0,0,1-1.22-.33l-.19.58a2.66,2.66,0,0,0,1.39.35,2.3,2.3,0,0,0,1.52-.5,2.48,2.48,0,0,0,.59-1.91V427c0-.5,0-.84,0-1.13h-.67Zm-.1,1.76a1,1,0,0,1-.06.4,1.09,1.09,0,0,1-1,.79c-.8,0-1.22-.69-1.22-1.5,0-1,.51-1.58,1.23-1.58a1.08,1.08,0,0,1,1.06.81.88.88,0,0,1,0,.33Z" transform="translate(-24.25 -70.31)"/><path class="cls-2" d="M538.16,425.74a1.52,1.52,0,0,0-1.37.78h0l0-.68h-.67c0,.34,0,.69,0,1.12v3h.76v-2.51a1,1,0,0,1,0-.35,1.08,1.08,0,0,1,1-.78c.72,0,1,.57,1,1.24V430h.75v-2.49C539.63,426.09,538.74,425.74,538.16,425.74Z" transform="translate(-24.25 -70.31)"/><path class="cls-2" d="M543.8,427.45c0-.84-.31-1.71-1.59-1.71a2.73,2.73,0,0,0-1.38.36l.17.51a2,2,0,0,1,1.09-.31.86.86,0,0,1,.95,1v.08c-1.61,0-2.5.54-2.5,1.55a1.18,1.18,0,0,0,1.27,1.19,1.54,1.54,0,0,0,1.27-.61h0l.07.52h.68a6.11,6.11,0,0,1-.06-1Zm-.74,1.15a.67.67,0,0,1,0,.24,1.05,1.05,0,0,1-1,.7.67.67,0,0,1-.71-.73c0-.81.94-.95,1.77-.93Z" transform="translate(-24.25 -70.31)"/><path class="cls-2" d="M545.89,424.84l-.74.23v.77h-.65v.57h.65v2.27a1.64,1.64,0,0,0,.29,1.1,1.12,1.12,0,0,0,.82.31,2.15,2.15,0,0,0,.67-.1l0-.58a1.19,1.19,0,0,1-.43.06c-.43,0-.57-.3-.57-.81v-2.25H547v-.57h-1.08Z" transform="translate(-24.25 -70.31)"/><path class="cls-2" d="M551.31,425.84h-.76v2.54a1.09,1.09,0,0,1-.07.39,1.1,1.1,0,0,1-1,.7c-.67,0-.92-.55-.92-1.34v-2.29h-.76v2.43c0,1.45.78,1.82,1.44,1.82a1.55,1.55,0,0,0,1.37-.77h0l0,.68h.67q0-.5,0-1.14Z" transform="translate(-24.25 -70.31)"/><path class="cls-2" d="M553.26,426.65h0l0-.81h-.66c0,.38,0,.81,0,1.3V430h.76v-2.22a2,2,0,0,1,0-.36,1.05,1.05,0,0,1,1-1h.27v-.7a.71.71,0,0,0-.21,0A1.27,1.27,0,0,0,553.26,426.65Z" transform="translate(-24.25 -70.31)"/><path class="cls-2" d="M557,425.73a2,2,0,0,0-2,2.26,1.94,1.94,0,0,0,2,2.1,3.45,3.45,0,0,0,1.4-.27l-.14-.53a2.93,2.93,0,0,1-1.15.2,1.32,1.32,0,0,1-1.42-1.44h2.91a1.73,1.73,0,0,0,0-.36A1.77,1.77,0,0,0,557,425.73Zm-1.22,1.78a1.24,1.24,0,0,1,1.16-1.23c.84,0,1,.75,1,1.23Z" transform="translate(-24.25 -70.31)"/><path class="cls-2" d="M563.55,425.74a1.44,1.44,0,0,0-.77.22,1.34,1.34,0,0,0-.55.53h0v-2.6h-.76V430h.76v-2.51a1,1,0,0,1,0-.36,1.09,1.09,0,0,1,1-.76c.72,0,1,.56,1,1.24V430H565v-2.48C565,426.09,564.11,425.74,563.55,425.74Z" transform="translate(-24.25 -70.31)"/><path class="cls-2" d="M569.17,427.45c0-.84-.31-1.71-1.59-1.71a2.73,2.73,0,0,0-1.38.36l.17.51a2,2,0,0,1,1.09-.31.86.86,0,0,1,.95,1v.08c-1.61,0-2.5.54-2.5,1.55a1.18,1.18,0,0,0,1.27,1.19,1.54,1.54,0,0,0,1.27-.61h0l.07.52h.68a6.11,6.11,0,0,1-.06-1Zm-.74,1.15a.67.67,0,0,1,0,.24,1.05,1.05,0,0,1-1,.7.67.67,0,0,1-.71-.73c0-.81.94-.95,1.77-.93Z" transform="translate(-24.25 -70.31)"/><path class="cls-2" d="M571.72,427.58c-.54-.2-.78-.36-.78-.71s.24-.57.69-.57a1.72,1.72,0,0,1,.85.24l.18-.54a2,2,0,0,0-1-.26,1.29,1.29,0,0,0-1.44,1.22c0,.5.35.91,1.11,1.18.55.21.76.41.76.77s-.25.62-.8.62a2.11,2.11,0,0,1-1-.3l-.18.57a2.38,2.38,0,0,0,1.17.29c1,0,1.54-.51,1.54-1.25S572.44,427.85,571.72,427.58Z" transform="translate(-24.25 -70.31)"/><path class="cls-2" d="M519.44,436.07a1.55,1.55,0,0,0-1.42.75h0v-2.6h-.76v5c0,.37,0,.79,0,1.07h.65l0-.68h0a1.5,1.5,0,0,0,1.4.78,2,2,0,0,0,1.87-2.24C521.19,436.93,520.47,436.07,519.44,436.07Zm-.28,3.75a1.16,1.16,0,0,1-1.13-.89,1.18,1.18,0,0,1,0-.27v-.75a1.47,1.47,0,0,1,0-.32,1.2,1.2,0,0,1,1.15-.93c.81,0,1.24.71,1.24,1.56S520,439.82,519.16,439.82Z" transform="translate(-24.25 -70.31)"/><path class="cls-2" d="M523.81,436.06a2,2,0,0,0-2,2.25,1.94,1.94,0,0,0,2,2.1,3.41,3.41,0,0,0,1.4-.27l-.14-.53a2.9,2.9,0,0,1-1.15.21,1.33,1.33,0,0,1-1.42-1.45h2.91a1.73,1.73,0,0,0,0-.36A1.75,1.75,0,0,0,523.81,436.06Zm-1.22,1.77a1.25,1.25,0,0,1,1.16-1.23,1.08,1.08,0,0,1,1,1.23Z" transform="translate(-24.25 -70.31)"/><path class="cls-2" d="M528.12,436.06a2,2,0,0,0-2,2.25,1.94,1.94,0,0,0,2,2.1,3.41,3.41,0,0,0,1.4-.27l-.14-.53a2.9,2.9,0,0,1-1.15.21,1.33,1.33,0,0,1-1.42-1.45h2.91a1.73,1.73,0,0,0,0-.36A1.75,1.75,0,0,0,528.12,436.06Zm-1.22,1.77a1.25,1.25,0,0,1,1.16-1.23,1.08,1.08,0,0,1,1,1.23Z" transform="translate(-24.25 -70.31)"/><path class="cls-2" d="M532.84,436.07a1.51,1.51,0,0,0-1.37.77h0l-.05-.68h-.67c0,.35,0,.69,0,1.13v3h.76v-2.51a1,1,0,0,1,.05-.35,1.08,1.08,0,0,1,1-.77c.72,0,1,.56,1,1.24v2.39h.76v-2.48C534.31,436.41,533.42,436.07,532.84,436.07Z" transform="translate(-24.25 -70.31)"/><path class="cls-2" d="M539.19,438.49c-.14.39-.26.73-.35,1.08h0c-.08-.35-.2-.69-.33-1.08l-.82-2.33h-.81l1.58,4.16h.73l1.63-4.16H540Z" transform="translate(-24.25 -70.31)"/><path class="cls-2" d="M543.07,436.06a2,2,0,0,0-2,2.25,1.94,1.94,0,0,0,2,2.1,3.39,3.39,0,0,0,1.39-.27l-.14-.53a2.87,2.87,0,0,1-1.15.21,1.33,1.33,0,0,1-1.42-1.45h2.92a3.21,3.21,0,0,0,0-.36A1.75,1.75,0,0,0,543.07,436.06Zm-1.22,1.77A1.25,1.25,0,0,1,543,436.6a1.08,1.08,0,0,1,1,1.23Z" transform="translate(-24.25 -70.31)"/><path class="cls-2" d="M546.42,437h0l0-.82h-.66c0,.39,0,.81,0,1.3v2.86h.76v-2.21c0-.13,0-.25,0-.37a1.06,1.06,0,0,1,1-1l.26,0v-.71l-.2,0A1.25,1.25,0,0,0,546.42,437Z" transform="translate(-24.25 -70.31)"/><path class="cls-2" d="M549,434.43a.46.46,0,0,0-.49.48.47.47,0,0,0,.47.49h0a.48.48,0,0,0,.49-.49A.46.46,0,0,0,549,434.43Z" transform="translate(-24.25 -70.31)"/><rect class="cls-2" x="524.32" y="365.85" width="0.76" height="4.16"/><path class="cls-2" d="M551.14,434.51a2,2,0,0,0-.49,1.45v.2h-.58v.58h.58v3.58h.76v-3.58h1v-.58h-1v-.22c0-.64.17-1.21.81-1.21a1.2,1.2,0,0,1,.49.1l.09-.59a1.69,1.69,0,0,0-.64-.12A1.46,1.46,0,0,0,551.14,434.51Z" transform="translate(-24.25 -70.31)"/><rect class="cls-2" x="528.85" y="365.85" width="0.76" height="4.16"/><path class="cls-2" d="M553.47,434.43a.49.49,0,0,0,0,1h0a.48.48,0,0,0,.49-.49A.46.46,0,0,0,553.47,434.43Z" transform="translate(-24.25 -70.31)"/><path class="cls-2" d="M556.77,436.06a2,2,0,0,0-2,2.25,1.94,1.94,0,0,0,2,2.1,3.45,3.45,0,0,0,1.4-.27l-.14-.53a2.9,2.9,0,0,1-1.15.21,1.32,1.32,0,0,1-1.42-1.45h2.91a1.73,1.73,0,0,0,0-.36A1.76,1.76,0,0,0,556.77,436.06Zm-1.22,1.77a1.25,1.25,0,0,1,1.16-1.23,1.08,1.08,0,0,1,1,1.23Z" transform="translate(-24.25 -70.31)"/><path class="cls-2" d="M563,434.22h-.76v2.47h0a1.4,1.4,0,0,0-1.26-.62,2,2,0,0,0-1.86,2.23,1.9,1.9,0,0,0,1.78,2.12,1.51,1.51,0,0,0,1.41-.82h0l0,.72h.68c0-.28,0-.7,0-1.07Zm-.76,4.36a1.19,1.19,0,0,1,0,.33,1.15,1.15,0,0,1-1.11.9c-.81,0-1.23-.7-1.23-1.55s.47-1.6,1.25-1.6a1.11,1.11,0,0,1,1.09.87,1.19,1.19,0,0,1,0,.33Z" transform="translate(-24.25 -70.31)"/><path class="cls-2" d="M605.91,421.28H594a3.15,3.15,0,0,0-3.15,3.15v9.26a3.15,3.15,0,0,0,1,2.28l6,5.69a3.17,3.17,0,0,0,2.18.87,3.1,3.1,0,0,0,2.18-.88l5.92-5.69a3.16,3.16,0,0,0,1-2.26l0-9.26a3.12,3.12,0,0,0-3.15-3.16ZM608,433.7a2.1,2.1,0,0,1-.64,1.49l-5.91,5.69a2.13,2.13,0,0,1-2.87,0l-6-5.69a2.09,2.09,0,0,1-.65-1.5v-9.26a2.08,2.08,0,0,1,2.08-2.07h11.9a2.06,2.06,0,0,1,1.47.61,2,2,0,0,1,.61,1.47Z" transform="translate(-24.25 -70.31)"/><path class="cls-2" d="M599.47,431.48l-1.83-1.84-2,2,2.85,2.85a1.42,1.42,0,0,0,1,.42,1.45,1.45,0,0,0,1-.42l5.41-5.41-2-2Z" transform="translate(-24.25 -70.31)"/><polygon class="cls-4" points="55.42 273.15 73.24 237.58 36.63 263.06 55.42 273.15"/><path class="cls-3" d="M97.18,307.45,60.57,332.93a.56.56,0,0,0-.23.48.54.54,0,0,0,.29.44l18.78,10.08a.48.48,0,0,0,.26.07.45.45,0,0,0,.16,0,.53.53,0,0,0,.32-.27L98,308.14a.54.54,0,0,0-.79-.69ZM79.43,342.72l-17.52-9.4,34.15-23.78Z" transform="translate(-24.25 -70.31)"/><polygon class="cls-4" points="36.63 263.06 73.24 237.58 33.7 241.94 36.63 263.06"/><path class="cls-3" d="M97.43,307.36l-39.54,4.36a.53.53,0,0,0-.37.2.54.54,0,0,0-.1.41l2.93,21.12a.51.51,0,0,0,.31.41.59.59,0,0,0,.22.05.52.52,0,0,0,.31-.1L97.8,308.33a.53.53,0,0,0,.19-.63A.53.53,0,0,0,97.43,307.36ZM61.29,332.43l-2.73-19.7,36.89-4.07Z" transform="translate(-24.25 -70.31)"/><rect class="cls-3" x="635.99" y="419.8" width="1.08" height="16.45" transform="translate(24.41 850.44) rotate(-73.89)"/><rect class="cls-3" x="605.34" y="393.25" width="1.08" height="13.43" transform="translate(-46.69 -34.03) rotate(-3.37)"/><rect class="cls-3" x="619.37" y="407.06" width="24.81" height="1.08" transform="translate(-142.14 280.08) rotate(-28.47)"/><rect class="cls-3" x="610.75" y="396.76" width="35.42" height="1.08" transform="translate(-127 461.62) rotate(-42.73)"/><rect class="cls-3" x="467.81" y="428.85" width="1.08" height="16.45" transform="translate(-105.78 695.41) rotate(-73.89)"/><rect class="cls-3" x="498.46" y="458.42" width="1.08" height="13.43" transform="translate(-50.71 -40.2) rotate(-3.37)"/><rect class="cls-3" x="460.7" y="456.97" width="24.81" height="1.08" transform="translate(-185.12 210.53) rotate(-28.47)"/><rect class="cls-3" x="458.7" y="467.27" width="35.42" height="1.08" transform="translate(-215.21 377.1) rotate(-42.73)"/><path class="cls-3" d="M424.81,428.45A16.38,16.38,0,0,1,414,424.87c-3.09-2.66-3.9-6.2-2.14-9.23,3.4-5.81,16.09-9.22,41-3.6C519,352.37,564.22,294.48,587.27,239.88c23.48-55.64,17.38-93.59,11.65-111.25-6.64-20.5-18.44-32.35-26.17-33.1-8.51-.81-15,.75-19.26,4.64a17,17,0,0,0-5.25,11.53h-1.3a18,18,0,0,1,5.65-12.48c4.56-4.17,11.38-5.85,20.29-5,8.34.8,20.39,12.73,27.28,34,5.78,17.84,12,56.14-11.7,112.16-23,54.59-68.13,112.42-134.11,172a225.89,225.89,0,0,1,23.74,7.16l-.44,1.22a221.15,221.15,0,0,0-24.47-7.32q-3.54,3.18-7.16,6.38C438.27,426,430.85,428.45,424.81,428.45Zm6-17.95c-10.74,0-16.12,2.87-17.83,5.8-1.43,2.45-.72,5.36,1.86,7.59,5.54,4.8,17.4,5.26,30.36-5.05q3.26-2.86,6.43-5.73A98.57,98.57,0,0,0,430.8,410.5Z" transform="translate(-24.25 -70.31)"/><path class="cls-2" d="M236.51,548.7l-7.38-.9a1.23,1.23,0,0,1-.94-1.78l3.43-6.6a1.23,1.23,0,0,0-1.67-1.64l-6.45,3.64a1.22,1.22,0,0,1-1.79-.9l-1.11-7.41a1.2,1.2,0,0,0-2.29-.34l-3.05,6.78a1.19,1.19,0,0,1-2,.33l-5.21-5.39a1.2,1.2,0,0,0-2,1.08l1.51,7.34a1.2,1.2,0,0,1-1.38,1.43L198.85,543a1.21,1.21,0,0,0-1,2.09l5.5,5.09a1.22,1.22,0,0,1-.27,2l-6.65,3.27a1.22,1.22,0,0,0,.41,2.3l7.38.9a1.23,1.23,0,0,1,.94,1.78l-3.42,6.6a1.21,1.21,0,0,0,1.66,1.63l6.45-3.64a1.22,1.22,0,0,1,1.79.9l1.11,7.41a1.21,1.21,0,0,0,2.29.35l3.05-6.79a1.2,1.2,0,0,1,2-.33l5.21,5.39a1.2,1.2,0,0,0,2-1.08l-1.51-7.34a1.2,1.2,0,0,1,1.38-1.43l7.33,1.31a1.2,1.2,0,0,0,1-2.08l-5.5-5.1a1.22,1.22,0,0,1,.28-2l6.64-3.27A1.22,1.22,0,0,0,236.51,548.7Z" transform="translate(-24.25 -70.31)"/><path class="cls-3" d="M236.58,548.16l-7.38-.9a.67.67,0,0,1-.53-.36.7.7,0,0,1,0-.63l3.42-6.61A1.71,1.71,0,0,0,232,538a1.77,1.77,0,0,0-2.36-.64L223.23,541a.67.67,0,0,1-1-.5l-1.1-7.42a1.76,1.76,0,0,0-1.75-1.5,1.72,1.72,0,0,0-1.57,1l-3,6.78a.66.66,0,0,1-1.08.18l-5.21-5.39a1.79,1.79,0,0,0-2.61.11,1.7,1.7,0,0,0-.35,1.45L207,543a.66.66,0,0,1-.13.56.63.63,0,0,1-.63.23L199,542.5a1.74,1.74,0,0,0-1.47,3l5.49,5.1a.7.7,0,0,1,.22.61.62.62,0,0,1-.36.49L196.19,555a1.72,1.72,0,0,0-.95,1.86,1.74,1.74,0,0,0,1.53,1.46l7.38.9a.7.7,0,0,1,.52.36.66.66,0,0,1,0,.64l-3.42,6.6a1.73,1.73,0,0,0,.05,1.72,1.78,1.78,0,0,0,2.36.63l6.45-3.64a.68.68,0,0,1,1,.51l1.11,7.41a1.76,1.76,0,0,0,1.74,1.51,1.7,1.7,0,0,0,1.57-1l3-6.79a.67.67,0,0,1,.6-.39.71.71,0,0,1,.49.21l5.21,5.39a1.78,1.78,0,0,0,2.6-.1,1.68,1.68,0,0,0,.35-1.45l-1.51-7.35a.63.63,0,0,1,.14-.56.66.66,0,0,1,.62-.23l7.32,1.31a1.7,1.7,0,0,0,1.92-1.07,1.73,1.73,0,0,0-.45-1.94l-5.49-5.09a.68.68,0,0,1,.14-1.11l6.65-3.27a1.76,1.76,0,0,0-.58-3.32Zm.1,2.35L230,553.78a1.75,1.75,0,0,0-.4,2.86l5.49,5.1a.67.67,0,0,1,.18.75.65.65,0,0,1-.73.41l-7.32-1.31a1.73,1.73,0,0,0-2,2.07l1.51,7.34a.66.66,0,0,1-.13.56.68.68,0,0,1-1,0l-5.21-5.39a1.74,1.74,0,0,0-2.84.48l-3.05,6.79a.62.62,0,0,1-.59.38.67.67,0,0,1-.68-.59l-1.1-7.41a1.78,1.78,0,0,0-1.74-1.51,1.69,1.69,0,0,0-.85.23l-6.45,3.63a.68.68,0,0,1-.93-.91l3.43-6.61a1.77,1.77,0,0,0-1.35-2.56l-7.38-.9a.67.67,0,0,1-.6-.57.64.64,0,0,1,.36-.71l6.64-3.27a1.71,1.71,0,0,0,.95-1.31,1.75,1.75,0,0,0-.55-1.55l-5.49-5.1A.67.67,0,0,1,198,544a.65.65,0,0,1,.73-.41l7.33,1.31a1.69,1.69,0,0,0,1.64-.61,1.77,1.77,0,0,0,.36-1.46l-1.51-7.34a.6.6,0,0,1,.12-.55.66.66,0,0,1,1,0l5.21,5.39a1.76,1.76,0,0,0,1.26.53,1.71,1.71,0,0,0,1.58-1L218.8,533a.64.64,0,0,1,.59-.39.66.66,0,0,1,.68.59l1.11,7.41a1.76,1.76,0,0,0,1.74,1.51,1.78,1.78,0,0,0,.84-.22l6.45-3.64a.68.68,0,0,1,.91.26.67.67,0,0,1,0,.66l-3.43,6.6a1.77,1.77,0,0,0,1.36,2.56l7.38.9a.68.68,0,0,1,.59.57A.64.64,0,0,1,236.68,550.51Z" transform="translate(-24.25 -70.31)"/><polygon class="cls-2" points="528.02 216.85 518.85 220.76 515.13 230.01 519.04 239.18 528.29 242.9 537.46 238.99 541.17 229.74 537.27 220.57 528.02 216.85"/><path class="cls-3" d="M562,290.67a.52.52,0,0,0-.3-.28l-9.24-3.72a.53.53,0,0,0-.41,0l-9.17,3.91a.55.55,0,0,0-.29.29l-3.72,9.25a.53.53,0,0,0,0,.41l3.9,9.17a.57.57,0,0,0,.3.29l9.25,3.72a.65.65,0,0,0,.2,0,.54.54,0,0,0,.21-.05l9.17-3.91a.5.5,0,0,0,.28-.29l3.72-9.25a.53.53,0,0,0,0-.41Zm-.72,18.22-8.76,3.74-8.83-3.56L540,300.32l3.55-8.84,8.76-3.73,8.84,3.55,3.73,8.76Z" transform="translate(-24.25 -70.31)"/></svg>