<?xml version="1.0" encoding="utf-8"?>
<svg version="1.1" x="0px" y="0px" viewBox="0 0 100 125" style="enable-background:new 0 0 100 100;" xmlns="http://www.w3.org/2000/svg">
  <g transform="matrix(1, 0, 0, 1, -9.146342, -1.247229)">
    <g>
      <path d="M5273.1,2400.1v-2c0-2.8-5-4-9.7-4s-9.7,1.3-9.7,4v2c0,1.8,0.7,3.6,2,4.9l5,4.9c0.3,0.3,0.4,0.6,0.4,1v6.4     c0,0.4,0.2,0.7,0.6,0.8l2.9,0.9c0.5,0.1,1-0.2,1-0.8v-7.2c0-0.4,0.2-0.7,0.4-1l5.1-5C5272.4,2403.7,5273.1,2401.9,5273.1,2400.1z      M5263.4,2400c-4.8,0-7.4-1.3-7.5-1.8v0c0.1-0.5,2.7-1.8,7.5-1.8c4.8,0,7.3,1.3,7.5,1.8C5270.7,2398.7,5268.2,2400,5263.4,2400z"/>
      <path d="M5268.4,2410.3c-0.6,0-1,0.4-1,1c0,0.6,0.4,1,1,1h4.3c0.6,0,1-0.4,1-1c0-0.6-0.4-1-1-1H5268.4z"/>
      <path d="M5272.7,2413.7h-4.3c-0.6,0-1,0.4-1,1c0,0.6,0.4,1,1,1h4.3c0.6,0,1-0.4,1-1C5273.7,2414.1,5273.3,2413.7,5272.7,2413.7z"/>
      <path d="M5272.7,2417h-4.3c-0.6,0-1,0.4-1,1c0,0.6,0.4,1,1,1h4.3c0.6,0,1-0.4,1-1C5273.7,2417.5,5273.3,2417,5272.7,2417z"/>
    </g>
    <g>
      <path d="M 68.891 79.796 C 67.146 78.3 65.4 76.429 63.406 74.435 C 62.034 72.939 60.538 70.819 59.291 68.575 C 61.66 60.472 62.782 52.742 60.289 49.002 C 59.167 47.257 57.421 46.384 55.177 46.384 C 52.684 46.384 50.814 47.506 49.941 49.625 C 47.946 54.113 50.938 62.342 54.554 69.074 C 53.557 72.315 52.31 75.806 50.814 79.671 C 49.941 81.79 48.944 83.91 47.946 85.904 C 37.723 89.894 31.49 94.382 30.617 98.621 C 30.243 100.616 30.867 102.361 32.612 103.732 C 33.609 104.48 34.731 104.979 35.978 104.979 C 36.477 104.979 36.975 104.854 37.474 104.73 C 42.212 103.483 47.323 96.501 51.063 89.395 C 53.307 88.522 55.925 87.65 58.793 86.902 C 62.159 85.904 65.151 85.156 67.769 84.658 C 72.631 88.522 76.745 90.642 80.361 90.642 C 83.103 90.767 85.098 89.769 86.968 87.899 C 89.711 85.156 88.589 82.788 88.215 82.164 C 85.971 78.674 79.114 77.926 68.891 79.796 Z M 36.227 100.366 C 35.729 100.491 35.479 100.366 35.23 100.242 C 34.731 99.867 34.731 99.618 34.856 99.369 C 35.105 97.873 37.973 95.13 44.206 92.138 C 41.214 96.626 38.222 99.867 36.227 100.366 Z M 53.931 51.371 C 54.055 51.121 54.18 50.747 55.177 50.747 C 56.05 50.747 56.424 51.121 56.673 51.371 C 57.795 52.991 57.671 57.106 56.299 62.591 C 54.18 57.854 53.058 53.365 53.931 51.371 Z M 57.421 82.538 C 56.175 82.912 54.928 83.286 53.681 83.66 C 54.055 82.788 54.429 81.915 54.803 81.167 C 55.676 78.798 56.673 76.429 57.546 73.936 C 58.543 75.307 59.416 76.554 60.289 77.427 C 61.411 78.674 62.533 79.796 63.655 80.918 C 61.66 81.416 59.541 81.915 57.421 82.538 Z M 83.727 84.782 C 82.854 85.78 81.732 86.154 80.361 86.154 C 78.491 86.154 76.247 85.281 73.628 83.536 C 80.859 82.538 84.973 83.286 83.727 84.782 Z" style=""/>
      <path d="M 104.173 34.042 L 76.87 6.739 C 75.125 4.993 72.756 3.996 70.387 3.996 L 21.392 3.996 C 21.392 3.996 21.392 3.996 21.392 3.996 C 18.898 3.996 16.654 4.993 14.909 6.739 C 13.163 8.484 12.166 10.728 12.166 13.222 L 12.166 113.207 C 12.166 118.319 16.28 122.433 21.392 122.433 L 97.69 122.433 C 102.801 122.433 106.915 118.319 106.915 113.207 L 106.915 40.524 C 106.915 38.156 105.918 35.787 104.173 34.042 Z M 98.937 36.286 L 78.74 36.286 C 76.496 36.286 74.626 34.416 74.626 32.171 L 74.626 12.1 L 98.937 36.286 Z M 97.69 117.072 L 21.392 117.072 C 19.272 117.072 17.527 115.327 17.527 113.207 L 17.527 13.222 C 17.527 12.224 17.901 11.227 18.649 10.479 C 19.397 9.731 20.394 9.357 21.392 9.357 C 21.392 9.357 21.392 9.357 21.392 9.357 L 69.265 9.357 L 69.265 32.171 C 69.265 37.408 73.504 41.646 78.74 41.646 L 101.555 41.646 L 101.555 113.207 C 101.555 115.327 99.809 117.072 97.69 117.072 Z" style=""/>
    </g>
  </g>
</svg>