<svg xmlns="http://www.w3.org/2000/svg" viewBox="0 0 100.15 99.46"><title>Asset 5mdpi</title><g id="Layer_2" data-name="Layer 2"><g id="Layer_1-2" data-name="Layer 1"><path d="M61.72,99.46a32.81,32.81,0,0,1-11-5A31,31,0,0,1,37.61,71.52,30.56,30.56,0,0,1,38.05,63c.15-.81,0-1-.85-.83A31.37,31.37,0,0,1,.83,38.63C.44,37,.25,35.31,0,33.64V29a37.55,37.55,0,0,1,1.45-7C5.71,9.82,14.1,2.44,26.76.39,43.9-2.37,60,9.76,62.39,27a30.73,30.73,0,0,1-.21,10c-.23,1.27-.22,1.27,1,1a29.52,29.52,0,0,1,17.23,1.71c11.06,4.69,17.79,13,19.43,24.94,2,14.46-5.71,26.64-17.27,32.38A40.91,40.91,0,0,1,76,99.46ZM31.39,3.36A28,28,0,0,0,10.86,50.42c7.52,7.82,16.69,10.42,27.27,8.12a1.86,1.86,0,0,0,1.54-1.14A31.06,31.06,0,0,1,57.36,39.69a1.63,1.63,0,0,0,1.08-1.23,28,28,0,0,0-27-35.1ZM68.81,40.89a28,28,0,1,0,28,27.93A27.94,27.94,0,0,0,68.81,40.89Z"/><path d="M41.8,33.07c-3.36,0-6.71,0-10.06,0a2,2,0,0,0-2,1.05c-1.1,1.84-2.32,3.61-3.46,5.43a2.3,2.3,0,0,1-2.17,1.2q-4.44,0-8.88,0a2.34,2.34,0,0,1-2.18-1.2c-1.45-2.31-2.92-4.62-4.42-6.9a2.12,2.12,0,0,1,0-2.61c1.52-2.27,3-4.58,4.43-6.89a2.14,2.14,0,0,1,2-1.1c3,0,6,0,9,0a2.4,2.4,0,0,1,2.3,1.3c1.11,1.8,2.31,3.55,3.39,5.37a1.93,1.93,0,0,0,1.9,1c6.74,0,13.47,0,20.21,0,1.7,0,2.59.6,2.56,1.71s-.89,1.68-2.62,1.68ZM19.74,37.33c1,0,2.08,0,3.12,0a1.39,1.39,0,0,0,1.36-.72c1-1.55,1.94-3.08,2.94-4.6a1.07,1.07,0,0,0,0-1.33c-1-1.57-2.05-3.16-3.06-4.75A1.16,1.16,0,0,0,23,25.3q-3.32,0-6.63,0a1.11,1.11,0,0,0-1,.56c-1,1.65-2.09,3.29-3.17,4.91a.9.9,0,0,0,0,1.15q1.55,2.36,3.05,4.76a1.25,1.25,0,0,0,1.2.65C17.53,37.31,18.63,37.33,19.74,37.33Z"/><path d="M48.69,35.93c1.27,0,2.54,0,3.8,0a1.79,1.79,0,0,1,2,1.6,1.75,1.75,0,0,1-1.94,1.76q-3.9.06-7.8,0c-1.22,0-2-.77-1.91-1.76a1.75,1.75,0,0,1,2-1.6C46.09,35.92,47.39,35.93,48.69,35.93Z"/><path d="M68.77,51H86c2.08,0,2.59.51,2.59,2.6V77.12c0,2.07-.5,2.59-2.6,2.6-4.75,0-9.5,0-14.25,0-1.31,0-1.31,0-1.32,1.29,0,2.57,0,2.57,2.55,2.57.88,0,1.76,0,2.64,0,1.31,0,2,.56,2,1.58s-.63,1.75-2,1.78c-2.28,0-4.56,0-6.84,0-2.11,0-4.23,0-6.34,0a5.91,5.91,0,0,1-1.26-.11,1.64,1.64,0,0,1-1.4-1.72,1.7,1.7,0,0,1,1.65-1.52c1.53,0,3.06,0,4.59,0,.72,0,1-.25,1-1-.06-3.44.46-2.86-2.76-2.89-4.1,0-8.2,0-12.3,0-.49,0-1,0-1.46-.09a1.63,1.63,0,0,1-1.58-1.57,9.08,9.08,0,0,1-.06-1.17q0-11.61,0-23.23c0-2.09.57-2.66,2.68-2.66Zm-.22,25.35H83.78c1.37,0,1.37,0,1.37-1.32V55.71c0-1.31,0-1.32-1.29-1.32q-15.23,0-30.45,0c-.92,0-1.23.24-1.22,1.19q.06,9.81,0,19.62c0,1,.34,1.18,1.24,1.18C58.47,76.33,63.51,76.35,68.55,76.35Z"/><path d="M19.57,35.86a4.47,4.47,0,0,1-4.39-4.54,4.6,4.6,0,0,1,4.54-4.54,4.69,4.69,0,0,1,4.53,4.6A4.56,4.56,0,0,1,19.57,35.86Zm1.28-4.51a1.11,1.11,0,0,0-1.14-1.16c-.76,0-1.11.45-1.13,1.17a1,1,0,0,0,1.11,1.19A1.14,1.14,0,0,0,20.85,31.35Z"/></g></g></svg>