<svg xmlns="http://www.w3.org/2000/svg" viewBox="0 0 100 100"><title>Asset 8mdpi</title><g id="Layer_2" data-name="Layer 2"><g id="Layer_1-2" data-name="Layer 1"><path d="M65,100a9.9,9.9,0,0,1-4.1-2.16,8.63,8.63,0,0,1-2.75-6.36c0-1,0-2,0-2.93,0-.78-.28-1-1-1-4,0-8.08-.11-12.11,0A11.61,11.61,0,0,1,33.2,76.21c-.09-2.08,0-4.17,0-6.25a3.24,3.24,0,0,1,2-3.12,3,3,0,0,1,3.3.45,3.23,3.23,0,0,1,1.23,2.65c0,2,0,3.9,0,5.86a5.07,5.07,0,0,0,5.15,5.35c4.16.09,8.33,0,12.49,0,.66,0,.88-.28.84-.88,0-.33,0-.65,0-1V17.62c0-4.87,2-7.72,6.65-9.27,1.88-.63,3.76-1.26,5.64-2h-.89q-12.16,0-24.32,0a5.18,5.18,0,0,0-5.56,5.55v3.42c0,.81,0,1.63,0,2.44a3.27,3.27,0,0,1-3,3.2,3.08,3.08,0,0,1-3.39-2.7c-.24-3.27-.53-6.58.34-9.8A11.18,11.18,0,0,1,41.94.27c.28-.08.56-.18.83-.27H93.16A8.94,8.94,0,0,1,100,6.64V85c-1,3.66-3.36,5.72-6.91,6.85C84.82,94.45,76.6,97.26,68.36,100ZM64.7,54.08V82.2c0,3,0,6,0,9.08a2,2,0,0,0,2.66,2.22,6.36,6.36,0,0,0,1-.3l22.87-7.61c2.1-.7,2.42-1.14,2.42-3.39V9.57a5.67,5.67,0,0,0-.14-1.74,2,2,0,0,0-2.35-1.39,8.91,8.91,0,0,0-1.12.32L66.84,14.51c-1.84.61-2.14,1-2.14,3Z"/><path d="M0,42.77a3.5,3.5,0,0,1,3.62-2.23c10,0,20,0,30,0h1.08c-.06-.5-.41-.67-.65-.91q-4.49-4.5-9-9A3.37,3.37,0,0,1,23.9,27.8,3,3,0,0,1,26,25.11a3.19,3.19,0,0,1,3.49.86q5.44,5.46,10.91,10.91c1.5,1.49,3,3,4.49,4.48a3.16,3.16,0,0,1,0,4.76q-7.69,7.71-15.4,15.4A3.24,3.24,0,0,1,26,62.4a3,3,0,0,1-2.11-2.68A3.32,3.32,0,0,1,25,56.84c3-3,6-6,9-9a6.65,6.65,0,0,1,1-.65A2.12,2.12,0,0,0,33.62,47c-10,0-20,0-30,0A3.58,3.58,0,0,1,0,44.73Z"/></g></g></svg>