<svg xmlns="http://www.w3.org/2000/svg" viewBox="0 0 97.05 97.05"><title>Asset 7mdpi</title><g id="Layer_2" data-name="Layer 2"><g id="Layer_1-2" data-name="Layer 1"><path d="M0,48.44C0,34.05.09,19.66,0,5.28A5.1,5.1,0,0,1,5.29,0Q48.55.09,91.81,0c3.41,0,5.24,1.83,5.24,5.25V91.8c0,3.39-1.86,5.25-5.25,5.25H5.28C1.88,97.05,0,95.21,0,91.8ZM48.59,18.92H4.65c-1.34,0-1.35,0-1.35,1.33v71c0,2.13.42,2.55,2.59,2.55H91.23c2.15,0,2.56-.42,2.56-2.57V20.33c0-1.4,0-1.41-1.46-1.41Zm-.09-3.26q22.07,0,44.13,0c.87,0,1.2-.21,1.18-1.14,0-3,0-6,0-9.08,0-1.62-.55-2.16-2.19-2.16H5.49c-1.64,0-2.18.54-2.18,2.17q0,4.44,0,8.88c0,1.31,0,1.31,1.36,1.31Z"/><path d="M61,61.11H36.79c-2,0-2.37-.41-2.37-2.41q0-4.11,0-8.2c0-1.49.52-2,2-2H85.69c1.46,0,2,.54,2,2v8.3c0,1.87-.44,2.31-2.28,2.31Zm0-3.26c7.42,0,14.84,0,22.26,0,.85,0,1.17-.23,1.12-1.1a32.29,32.29,0,0,1,0-3.81c.07-1-.31-1.25-1.28-1.24q-15.37,0-30.76,0c-4.55,0-9.11,0-13.67,0-.79,0-1.1.22-1.07,1.05a36.24,36.24,0,0,1,0,3.9c-.06,1,.3,1.2,1.22,1.2C46.27,57.83,53.66,57.85,61.05,57.85Z"/><path d="M61.15,67.22h24.3c1.75,0,2.22.46,2.23,2.17q0,4.25,0,8.49c0,1.41-.54,2-1.94,2H36.35c-1.39,0-1.93-.56-1.93-2q0-4.25,0-8.49c0-1.68.48-2.16,2.14-2.16Zm-.1,3.27c-7.42,0-14.85,0-22.27,0-.84,0-1.17.22-1.12,1.1a32.12,32.12,0,0,1,0,3.8c-.07,1,.3,1.25,1.27,1.25q15.09,0,30.17,0c4.76,0,9.51,0,14.26,0,.79,0,1.11-.21,1.07-1-.06-1.3-.07-2.61,0-3.91.06-1-.29-1.2-1.22-1.19C75.83,70.5,68.44,70.49,61.05,70.49Z"/><path d="M17.23,79.86c-3,0-5.92,0-8.88,0-1.54,0-2-.52-2.06-2,0-3,0-6,0-9.08a10.58,10.58,0,0,1,4.81-9c.66-.46.9-.68.23-1.42A7.78,7.78,0,0,1,10.58,49a7.89,7.89,0,0,1,14.6,4.09,7.47,7.47,0,0,1-2.06,5.41c-.49.52-.38.74.15,1.1a10.84,10.84,0,0,1,5,9.66c0,2.86,0,5.72,0,8.58,0,1.48-.53,2-2,2C23.28,79.87,20.26,79.86,17.23,79.86Zm.06-3.26h6.82c.48,0,.95,0,.93-.67a81.52,81.52,0,0,0-.17-8.27,7.75,7.75,0,0,0-7.61-6.53,7.77,7.77,0,0,0-7.54,6.51c-.35,2.75-.08,5.52-.17,8.28,0,.68.43.68.91.68Zm4.6-23.32a4.6,4.6,0,1,0-4.67,4.54A4.68,4.68,0,0,0,21.89,53.28Z"/><path d="M45.35,32.1c0-1.7,0-3.39,0-5.08,0-1.42.53-2,1.92-2h8.79c1.35,0,1.89.56,1.92,1.89,0,.65,0,1.31,0,1.95.06.8-.3,1.05-1,1a6.53,6.53,0,0,0-1.17,0c-.68,0-1.17-.09-1.08-.94.05-.45-.22-.63-.66-.63H49.28c-.52,0-.67.27-.67.74q0,3.12,0,6.24c0,.5.23.7.71.7H54c.48,0,.71-.16.72-.68s-.2-.79-.74-.75a1.34,1.34,0,0,1-.2,0c-2.32-.06-2.51-.3-2.19-2.65a.61.61,0,0,1,.71-.61c1.39,0,2.79,0,4.19,0A1.44,1.44,0,0,1,58,32.84c0,1.59,0,3.18,0,4.78a1.51,1.51,0,0,1-1.6,1.6q-4.69,0-9.37,0a1.55,1.55,0,0,1-1.65-1.76C45.34,35.68,45.36,33.89,45.35,32.1Z"/><path d="M32.85,32.07c0-1.72,0-3.45,0-5.17,0-1.28.57-1.85,1.84-1.86h7.41a1.59,1.59,0,0,1,1.81,1.8c0,3.54,0,7.09,0,10.63a1.58,1.58,0,0,1-1.75,1.76q-3.75,0-7.5,0a1.59,1.59,0,0,1-1.81-1.8C32.84,35.64,32.85,33.86,32.85,32.07Zm7.81,0c0-1,0-2,0-3,0-.48-.18-.73-.69-.72-1,0-2.08,0-3.12,0-.55,0-.75.22-.75.76q0,3.07,0,6.15c0,.53.18.78.74.77,1,0,2,0,3,0,.6,0,.82-.23.8-.81C40.65,34.13,40.66,33.09,40.66,32Z"/><path d="M71.92,32.14c0-2,0-4,0-6,0-.79.23-1.1,1-1.08,2.63.07,2.2-.29,2.22,2.24,0,3.31,0,6.63,0,10,0,.9-.21,1.65-1.13,1.94A1.77,1.77,0,0,1,72,38.28l-4.6-6.45v1.36c0,1.34,0,2.67,0,4,0,.63.31,1.51-.21,1.85-.73.47-1.71.17-2.58.15-.45,0-.46-.39-.46-.72,0-4,0-7.94,0-11.91a1.46,1.46,0,0,1,1.1-1.45,1.62,1.62,0,0,1,1.9.64c1.17,1.61,2.32,3.22,3.48,4.84.38.52.75,1,1.13,1.58Z"/><path d="M25.18,30.57c0,1.46,0,2.92,0,4.38,0,.84.29,1.07,1.08,1,1.42-.05,2.86,0,4.28,0,.68,0,.93.23.91.91-.05,2.83.33,2.31-2.27,2.35-1.76,0-3.51,0-5.27,0-1.41,0-2-.54-2-1.93,0-3.73,0-7.47,0-11.21,0-.79.24-1.09,1.06-1.07,2.61.07,2.17-.29,2.21,2.23C25.19,28.36,25.18,29.46,25.18,30.57Z"/><path d="M62.68,32.24c0,2,0,4,0,6,0,.71-.25,1-1,1-2.75-.06-2.29.3-2.31-2.24,0-3.61,0-7.22,0-10.83,0-.89.27-1.19,1.16-1.16,2.46.08,2.09-.27,2.11,2.15C62.69,28.86,62.68,30.55,62.68,32.24Z"/><path d="M9.46,12.67A3.16,3.16,0,0,1,6.29,9.43,3.11,3.11,0,0,1,9.56,6.29a3.12,3.12,0,0,1,3.11,3.19A3.11,3.11,0,0,1,9.46,12.67Z"/><path d="M22.05,9.47a3.11,3.11,0,0,1-3.21,3.2,3.15,3.15,0,0,1-3.17-3.14,3.19,3.19,0,1,1,6.38-.06Z"/><path d="M31.42,9.46a3.11,3.11,0,0,1-3.19,3.21A3.17,3.17,0,0,1,25,9.54a3.19,3.19,0,1,1,6.38-.08Z"/></g></g></svg>