<svg xmlns="http://www.w3.org/2000/svg" viewBox="0 0 100 100"><title>Asset 2mdpi</title><g id="Layer_2" data-name="Layer 2"><g id="Layer_1-2" data-name="Layer 1"><path d="M0,46.09v-9c.1-.61.2-1.22.31-1.82Q4.52,11.88,26.46,2.68A43.34,43.34,0,0,1,37.11,0h9a2.77,2.77,0,0,0,.48.11A41.1,41.1,0,0,1,57,2.76a41.84,41.84,0,0,1,25.81,46c-.19,1.09-.14,1.14,1,1.14h9.47a6.22,6.22,0,0,1,1.55.14,7,7,0,0,1,5.13,5V94.92A7.42,7.42,0,0,1,94.92,100H55.08l-.45-.19a6.71,6.71,0,0,1-4.7-6.88c0-3,0-6.05,0-9.08,0-1.15-.05-1.19-1.15-1a39.31,39.31,0,0,1-12.53.24Q12.85,79.44,3.1,57.84A42.49,42.49,0,0,1,0,46.09Zm48.33-2.91h2.44c4.29,0,8.59-.16,12.88.1a4.93,4.93,0,0,1,4.73,5.65c-.08.83.16,1,.92,1,2.8,0,5.6-.06,8.4,0,1,0,1.37-.33,1.54-1.27a39.7,39.7,0,0,0,0-13.88A38.27,38.27,0,1,0,48.8,79.21c.87-.16,1.16-.55,1.14-1.44,0-3.18,0-6.37,0-9.56,0-1.35,0-1.38-1.36-1.38q-7.17,0-14.35,0a8.23,8.23,0,0,1-2.32-.27,5.12,5.12,0,0,1-3.61-5.66,5,5,0,0,1,4.93-4.32c4.85,0,9.7,0,14.55,0,1.9,0,1.9,0,2.41-1.79,0-.09.07-.18.1-.28.37-1.09.37-1.09-.8-1.09-5.44,0-10.87,0-16.31,0A5,5,0,0,1,28.27,49,5.1,5.1,0,0,1,32,43.4a10.43,10.43,0,0,1,2.62-.22ZM53.41,75V88.34c0,1.56,0,3.13,0,4.69a3.32,3.32,0,0,0,3.37,3.54c.36,0,.72,0,1.07,0H92.12a10.16,10.16,0,0,0,1.75-.13,3,3,0,0,0,2.58-2.56,10.13,10.13,0,0,0,.14-1.74q0-12.64,0-25.28c0-3.19,0-6.38,0-9.57,0-1.91-.72-3.12-2.1-3.62a6,6,0,0,0-2.11-.28H57.63c-3,0-4.22,1.18-4.22,4.19C53.4,63.39,53.41,69.18,53.41,75Zm-5-28.22H34.19a3.6,3.6,0,0,0-1.26.11,1.44,1.44,0,0,0-1.07,1.46,1.43,1.43,0,0,0,1.07,1.46,4.38,4.38,0,0,0,1.44.13H62.28a5.8,5.8,0,0,0,1.26-.09,1.43,1.43,0,0,0,1.26-1.59c0-1-.71-1.48-2-1.48ZM41.21,63.21c2.56,0,5.13,0,7.7,0,.76,0,1.09-.29,1-1a4,4,0,0,1,0-.49c0-1.53,0-1.54-1.5-1.54H36.82c-1.17,0-2.34,0-3.51,0a1.39,1.39,0,0,0-1.44,1.68c.09.85.68,1.33,1.73,1.34Z"/><path d="M48.34,40.11c-5,0-10,0-15,0a5.09,5.09,0,0,1-3.2-9,5.16,5.16,0,0,1,3.43-1.2q14.8,0,29.59,0A5.12,5.12,0,1,1,63,40.1Zm-.07-3.61H57c2.08,0,4.16,0,6.25,0,1,0,1.58-.56,1.59-1.46a1.5,1.5,0,0,0-1.62-1.56c-.26,0-.52,0-.79,0H34.28a7.61,7.61,0,0,0-1.07,0,1.47,1.47,0,0,0-1.34,1.71c.1.88.66,1.3,1.85,1.3Z"/><path d="M48.38,16.54c4.94,0,9.89,0,14.84,0a5.1,5.1,0,0,1,4.89,6.9A5.17,5.17,0,0,1,63,26.8c-6.12,0-12.24,0-18.36,0-3.71,0-7.42,0-11.13,0a5.13,5.13,0,1,1,0-10.25C38.48,16.53,43.43,16.54,48.38,16.54Zm0,3.62H34.51c-.43,0-.85,0-1.27,0a1.4,1.4,0,0,0-1.38,1.47,1.43,1.43,0,0,0,1.34,1.51,6.42,6.42,0,0,0,.88,0H62.55a8,8,0,0,0,1,0,1.45,1.45,0,0,0,1.28-1.57c0-.94-.63-1.43-1.83-1.43C58.11,20.15,53.23,20.16,48.35,20.16Z"/><path d="M25.07,35a5.08,5.08,0,0,1-10.16,0,5.08,5.08,0,1,1,10.16,0Zm-3.6,0a1.46,1.46,0,0,0-1.4-1.54A1.61,1.61,0,0,0,18.45,35,1.53,1.53,0,0,0,20,36.48,1.42,1.42,0,0,0,21.47,35Z"/><path d="M25.07,21.67a5.08,5.08,0,1,1-5-5.12A5.06,5.06,0,0,1,25.07,21.67ZM20,23.17a1.45,1.45,0,0,0,1.46-1.48A1.42,1.42,0,0,0,20,20.18a1.52,1.52,0,0,0-1.5,1.47A1.55,1.55,0,0,0,20,23.17Z"/><path d="M25.07,61.67a5.08,5.08,0,1,1-5-5.1A5,5,0,0,1,25.07,61.67ZM20,63.2a1.54,1.54,0,0,0,1.55-1.44A1.43,1.43,0,0,0,20,60.19a1.5,1.5,0,0,0-1.57,1.39A1.62,1.62,0,0,0,20,63.2Z"/><path d="M20,43.27a5.06,5.06,0,1,1-5.09,5.07A5,5,0,0,1,20,43.27Zm-.14,6.59a1.54,1.54,0,0,0,.26-3.07,1.63,1.63,0,0,0-1.66,1.46A1.6,1.6,0,0,0,19.86,49.86Z"/><path d="M68.36,90.09a2,2,0,0,1-1.46-.67c-2.1-2.09-4.21-4.17-6.28-6.29a1.77,1.77,0,0,1-.17-2.68,1.79,1.79,0,0,1,2.68.17C64.56,82,66,83.4,67.35,84.83c.61.65,1,.61,1.49-.11q8.7-11.65,17.44-23.28a8,8,0,0,1,.87-1,1.68,1.68,0,0,1,2.23-.12,1.71,1.71,0,0,1,.51,2.18,5.15,5.15,0,0,1-.47.74L70.09,89A2.26,2.26,0,0,1,68.36,90.09Z"/></g></g></svg>