<svg xmlns="http://www.w3.org/2000/svg" viewBox="0 0 97.04 97.04"><title>Asset 3mdpi</title><g id="Layer_2" data-name="Layer 2"><g id="Layer_1-2" data-name="Layer 1"><path d="M11,34.79V2.37C11,.44,11.38,0,13.31,0q29,0,58,0a3,3,0,0,1,2.33,1q5.73,5.79,11.53,11.53a2.9,2.9,0,0,1,.94,2.24q0,16.26,0,32.51c0,1.35,0,1.36-1.34,1.35-2.18,0-1.92.23-1.92-1.94q0-14.79,0-29.59c0-1.28,0-1.28-1.28-1.28h-9c-1.78,0-2.22-.46-2.22-2.27,0-3.06,0-6.12,0-9.18,0-.81-.24-1.07-1-1.07q-27,0-54,0c-.88,0-1.09.29-1.09,1.13q0,31.64,0,63.27c0,.85.22,1.14,1.09,1.12,2.74,0,5.47,0,8.21,0A1.83,1.83,0,0,0,25,68.19q2-2.1,4.14-4.14a1.86,1.86,0,0,0,.6-1.47c0-2.47,0-4.95,0-7.42,0-1.48.53-2,2-2,2.17-.1,4.16.24,5.73,1.89a6.08,6.08,0,0,1,1.79,4.31c0,2.8,0,5.6,0,8.39,0,.82.25,1.07,1.06,1.06,4.13,0,8.26,0,12.4,0,1.68,0,2.17.48,2.18,2.12q0,10.6,0,21.19a4.68,4.68,0,0,1-5,5c-6,0-12,0-18,0a3.43,3.43,0,0,1-2-.47c-3.46-2.31-7.27-2.89-11.39-2.73-5.76.24-11.53,0-17.29.08-1,0-1.29-.29-1.26-1.27.09-2.31-.24-2,2.06-2,5.18,0,10.36,0,15.53,0,.95,0,1.21-.29,1.2-1.22q-.06-8.1,0-16.21c0-.91-.22-1.23-1.19-1.22-5.4,0-10.81,0-16.21,0C0,72,0,72,0,70.71c0-2.2-.23-1.93,1.92-1.94,2.5,0,5,0,7.52,0,1.5,0,1.5,0,1.5-1.47ZM41,93.77h8.3a3.06,3.06,0,0,0,1.34-.2,2.06,2.06,0,0,0,.91-2.28c-.19-.85-.89-.49-1.36-.5-3,0-6.05,0-9.08,0-2.32,0-2,.33-2.06-2.1,0-.88.24-1.19,1.15-1.17,3.16,0,6.31,0,9.47,0,2.14,0,1.84.31,1.91-1.94,0-.82-.25-1.07-1.06-1.06-3.12,0-6.25,0-9.37,0-2.38,0-2,.36-2.1-2.16,0-.85.26-1.12,1.11-1.11,3.16,0,6.32,0,9.47,0,2.19,0,1.88.34,2-2,0-.79-.27-1-1-1q-4.63.06-9.28,0c-2.53,0-2.16.41-2.23-2.21,0-.82.28-1.07,1.08-1.06,3.18,0,6.37,0,9.56,0,2.11,0,1.81.28,1.89-1.87,0-.94-.31-1.14-1.18-1.13-4.1,0-8.2,0-12.3,0C36.45,72,36,71.54,36,69.88c0-3.32,0-6.63,0-9.95a3.25,3.25,0,0,0-1.91-3.24c-.87-.41-1.07-.26-1.08.71,0,2.12,0,4.23,0,6.35a2.44,2.44,0,0,1-.79,1.9c-1.47,1.43-3,2.81-4.33,4.36A4.89,4.89,0,0,1,23,72c-.75-.12-1,.19-1,1q0,8.34,0,16.69c0,.73.25,1,1,.94a7.93,7.93,0,0,1,5.19,1.28c.93.54,1.92,1,2.87,1.46a3.42,3.42,0,0,0,1.69.39ZM80.09,12.51,73.6,6v5.81c0,.42.14.68.61.68Z"/><path d="M78.19,97H64.61c-1.59,0-2.08-.51-2.09-2.12,0-1.07,0-2.15,0-3.22,0-.66-.19-.92-.89-.93-1.88,0-2.24-.43-2.24-2.34,0-.81,0-1.62,0-2.44a4.65,4.65,0,0,1,4.7-4.71,3.87,3.87,0,0,1,.59,0c.7.08,1-.19,1-.93a6.06,6.06,0,0,1,.1-1.65A4.63,4.63,0,0,1,70.33,75c.75,0,1.5,0,2.25,0s.88-.15.89-.82A28.8,28.8,0,0,0,71,61.29,8.19,8.19,0,0,1,74.27,51a7.91,7.91,0,0,1,11.84,6.91,7.75,7.75,0,0,1-.75,3.57A28.57,28.57,0,0,0,83,74.25c0,.61.28.79.84.77.72,0,1.43,0,2.15,0a4.66,4.66,0,0,1,4.83,4.78,5.14,5.14,0,0,1,0,.68c0,.61.25.81.82.79a6.2,6.2,0,0,1,2.22.22A4.7,4.7,0,0,1,97,85.84c0,1,0,2,0,3,0,1.34-.56,1.95-1.9,1.88-1,0-1.31.32-1.24,1.29s0,2,0,3c0,1.41-.55,2-2,2Zm0-22c1.51,0,1.55,0,1.5-1.56a29.64,29.64,0,0,1,2.83-13.81,4.25,4.25,0,0,0,.08-3,4.54,4.54,0,0,0-5.91-3.1,4.64,4.64,0,0,0-2.79,6,30.49,30.49,0,0,1,2.82,13.92C76.68,75,76.72,75,78.2,75Zm-.09,12.5c4.88,0,9.76,0,14.64,0,.84,0,1.08-.29,1-1.08-.08-1.35-.65-1.92-2.14-1.92H64.8a2.82,2.82,0,0,0-1.15.17,2,2,0,0,0-1,2.33c.2.82.9.47,1.38.47C68.74,87.53,73.43,87.52,78.11,87.52Zm0,6.25c3.84,0,7.68,0,11.52,0,.75,0,1.11-.21,1-1a5.14,5.14,0,0,1,0-.68c0-1.32,0-1.32-1.35-1.32q-10.85,0-21.68,0c-2.06,0-1.77-.25-1.86,1.81,0,1,.3,1.21,1.23,1.19C70.7,93.74,74.41,93.77,78.12,93.77Zm0-12.5c2.64,0,5.27,0,7.91,0,.47,0,1.17.32,1.38-.34a2.19,2.19,0,0,0-.29-2,1.91,1.91,0,0,0-1.74-.67H71a2.66,2.66,0,0,0-1.15.19,2,2,0,0,0-.92,2.27c.18.86.88.5,1.35.51C72.91,81.28,75.54,81.27,78.17,81.27Z"/><path d="M37.52,42.26A17.26,17.26,0,1,1,54.75,59.53,17.17,17.17,0,0,1,37.52,42.26Zm17.26,14a14,14,0,0,0,0-27.95,13.81,13.81,0,0,0-14,13.94C40.82,50.12,46.9,56.06,54.78,56.26Z"/><path d="M42.38,6.27H66c1.34,0,1.35,0,1.34,1.33,0,2.18.24,1.92-1.93,1.92H18.65c-1.44,0-1.45,0-1.44-1.44,0-2-.2-1.82,1.84-1.82Z"/><path d="M42.18,15.78H18.56c-1.35,0-1.36,0-1.35-1.34,0-2.18-.23-1.92,1.93-1.92H65.9c1.44,0,1.45,0,1.44,1.43,0,2,.21,1.82-1.83,1.82Z"/><path d="M42.28,22H18.66c-1.45,0-1.46,0-1.45-1.43,0-2.05-.2-1.83,1.83-1.83H65.8c1.55,0,1.55,0,1.55,1.52,0,1.91.16,1.73-1.74,1.74Z"/><path d="M54.61,51.71a1.65,1.65,0,0,1-1.14-.6c-1.86-1.86-3.72-3.73-5.6-5.58-.45-.44-.45-.74,0-1.2,1.71-1.79,1.7-1.81,3.47,0,.74.73,1.5,1.45,2.2,2.22.49.53.71.46,1-.2C56,42.53,57.51,38.76,59,35c.5-1.25.51-1.27,1.74-.76,2.13.89,2,.42,1.1,2.62-1.77,4.48-3.57,8.94-5.35,13.41A1.91,1.91,0,0,1,54.61,51.71Z"/></g></g></svg>