<svg xmlns="http://www.w3.org/2000/svg" viewBox="0 0 100.11 92.59"><title>Asset 6mdpi</title><g id="Layer_2" data-name="Layer 2"><g id="Layer_1-2" data-name="Layer 1"><path d="M0,63.85a6.59,6.59,0,0,1,5-4.63,8,8,0,0,1,1.55-.11c5.3,0,10.61,0,15.92,0,.89,0,1.17-.26,1.16-1.16,0-7.49,0-15,0-22.46,0-3.11,1.25-4.69,4.28-5.3.62-.13.57-.52.57-.94,0-2.57,0-5.14,0-7.71a21.55,21.55,0,0,1,42.91-2.88c.45,3.37.13,6.77.17,10.15,0,.91.14,1.34,1.22,1.48a4.5,4.5,0,0,1,3.65,4.37c0,1.13,0,2.28,0,3.41a1.59,1.59,0,1,1-3.16.06c-.06-1,0-2,0-3,0-1.29-.56-1.81-1.86-1.85H29.26c-.32,0-.65,0-1,0a1.53,1.53,0,0,0-1.49,1.61c0,.23,0,.46,0,.68V57.73c0,1.37,0,1.37,1.32,1.37,4.68,0,9.37,0,14.06,0,.82,0,1.14-.2,1.19-1.07.08-1.46.33-2.9.5-4.36a4.43,4.43,0,0,0-.32-2.37,6.93,6.93,0,0,1,2-8.19,7,7,0,0,1,8.29-.41,6.76,6.76,0,0,1,2.81,7.85,9.85,9.85,0,0,0-.35,4.86c.12,1,.27,1.94.35,2.91,0,.51.2.77.76.77q7.52,0,15,0c.82,0,.73-.55.73-1.07q0-6,0-12a5,5,0,0,1,.09-1.16,1.54,1.54,0,0,1,3,0A4.74,4.74,0,0,1,76.41,46c0,3.81,0,7.62,0,11.43,0,1.87-.16,1.7,1.65,1.7H93.5a6.23,6.23,0,0,1,6.57,6.55c0,6.7-.1,13.41,0,20.11a6.51,6.51,0,0,1-6.7,6.81H24.46a5.3,5.3,0,0,1-1.64-.12,1.45,1.45,0,0,1-1.16-1.59A1.47,1.47,0,0,1,23,89.42a7.71,7.71,0,0,1,1.27,0H92.83c3,0,4.17-1.12,4.17-4.19v-19a6,6,0,0,0-.19-1.74,3,3,0,0,0-2.68-2.19c-.46,0-.92,0-1.37,0H7c-2.94,0-4,1.07-4,4V85.8a3.32,3.32,0,0,0,3.61,3.58c3,0,6.05,0,9.08,0a4.18,4.18,0,0,1,1.06.08,1.43,1.43,0,0,1,1.12,1.43A1.41,1.41,0,0,1,17,92.36a2.24,2.24,0,0,1-.85.19c-3.35,0-6.71.09-10.06,0C2.93,92.4,1,90.59,0,87.68ZM62,25c0,1.46,0,2.93,0,4.39,0,.52.17.79.73.78h5.07c.49,0,.72-.19.72-.69-.06-3.54.27-7.11-.26-10.63a18.43,18.43,0,0,0-36.34-.67c-.67,3.74-.28,7.53-.38,11.29,0,.59.31.71.81.7,1.56,0,3.12,0,4.68,0,.84,0,1-.31,1-1.09,0-2.57,0-5.14,0-7.71a12,12,0,0,1,23.22-3.92C62.15,19.94,61.94,22.48,62,25ZM50,30.18c2.53,0,5.07,0,7.6,0,1,0,1.22-.33,1.2-1.24,0-2.37,0-4.74,0-7.12A9.43,9.43,0,0,0,58.67,20a8.79,8.79,0,0,0-17.43,1.25c-.07,2.63,0,5.27,0,7.9,0,.83.31,1.06,1.09,1C44.86,30.16,47.43,30.18,50,30.18ZM50,59.1c.94,0,1.88,0,2.82,0,.63,0,.8-.21.72-.8-.14-1-.23-1.93-.33-2.9-.18-1.85-.57-3.65.42-5.5a3.57,3.57,0,0,0-1.33-4.48,4,4,0,0,0-4.72.17,3.77,3.77,0,0,0-1,4.67A5.5,5.5,0,0,1,47,53.76c-.2,1.41-.3,2.84-.5,4.25-.12.83.06,1.2,1,1.11S49.13,59.1,50,59.1Z"/><path d="M13.18,76.63c-1.34-.78-2.55-1.46-3.73-2.18a1.57,1.57,0,0,1-.62-2.33A1.54,1.54,0,0,1,11,71.74c1.22.66,2.42,1.36,3.8,2.13,0-1.52,0-2.88,0-4.23,0-1,.51-1.65,1.33-1.75a1.52,1.52,0,0,1,1.8,1.58c.09,1.1.06,2.21,0,3.31,0,.76.14,1.07.92.57s1.79-1.06,2.7-1.56a1.63,1.63,0,0,1,2.38.47,1.6,1.6,0,0,1-.77,2.22c-1,.61-2,1.2-3,1.76-.53.3-.49.51,0,.78,1,.56,2,1.11,3,1.71s1.29,1.46.81,2.28a1.6,1.6,0,0,1-2.37.44c-.91-.51-1.82-1-2.71-1.57-.7-.43-.91-.2-.89.54,0,1,0,2,0,2.93,0,1.32-.61,2-1.61,2s-1.56-.71-1.56-2c0-.94,0-1.89,0-2.83,0-1.17,0-1.17-1-.61S12,81,11.1,81.47A1.6,1.6,0,0,1,8.74,81a1.57,1.57,0,0,1,.78-2.21C10.68,78.06,11.86,77.39,13.18,76.63Z"/><path d="M86.82,76.63l2.86,1.65c.34.2.68.38,1,.61A1.54,1.54,0,0,1,91.24,81a1.51,1.51,0,0,1-2.11.57C88.06,81,87,80.42,86,79.79c-.69-.44-.81-.19-.79.48,0,1.11,0,2.22,0,3.32s-.59,1.77-1.5,1.8-1.56-.59-1.65-1.69c-.06-.67,0-1.36,0-2s.34-1.61-.23-1.91-1.18.5-1.77.8-1.07.63-1.62.92A1.61,1.61,0,0,1,76,81a1.58,1.58,0,0,1,.78-2.21c.92-.56,1.84-1.12,2.79-1.61.68-.36.88-.6,0-1S77.73,75,76.79,74.46a1.57,1.57,0,0,1-.74-2.22,1.61,1.61,0,0,1,2.3-.48q1.45.78,2.88,1.65c.58.35.81.23.8-.45,0-.91,0-1.82,0-2.73a5.46,5.46,0,0,1,.1-1.07,1.45,1.45,0,0,1,1.68-1.27,1.43,1.43,0,0,1,1.38,1.49c0,1.24,0,2.47,0,3.71,0,.6.12.78.69.43.89-.55,1.8-1.06,2.71-1.56,1.26-.71,2.11-.61,2.63.27s.17,1.72-1,2.44Z"/><path d="M62.76,73.9l3.48-2c1.17-.66,2.05-.54,2.56.31s.16,1.73-1,2.4l-3.44,2,3.16,1.85c1.39.81,1.78,1.6,1.26,2.53s-1.44,1-2.87.17c-.79-.46-1.59-.88-2.36-1.38s-.86-.21-.84.53c0,1.1,0,2.21,0,3.31s-.62,1.76-1.54,1.76-1.51-.63-1.53-1.75,0-2.27,0-3.41c0-.81-.26-.79-.83-.44-.95.58-1.9,1.14-2.87,1.67A1.62,1.62,0,0,1,53.62,81c-.48-.81-.18-1.68.82-2.28s2-1.15,3-1.7c.52-.29.49-.52,0-.8-1-.56-2-1.12-3-1.71s-1.3-1.46-.82-2.28A1.62,1.62,0,0,1,56,71.8c1,.55,2,1.11,3,1.71.64.41.76.18.74-.45q0-1.71,0-3.42c0-1.14.56-1.76,1.51-1.77s1.54.63,1.56,1.82S62.76,72.35,62.76,73.9Z"/><path d="M35.61,76.62c-1.34-.78-2.5-1.44-3.64-2.13a1.57,1.57,0,1,1,1.55-2.7c.94.51,1.86,1.06,2.79,1.59s.92.51.93-.5,0-2.15,0-3.22.54-1.75,1.5-1.77,1.55.6,1.57,1.79,0,2.22,0,3.32c0,.68.08.93.78.49,1-.62,2-1.2,3-1.75a1.55,1.55,0,0,1,2.22.47,1.59,1.59,0,0,1-.68,2.24c-.91.57-1.86,1.08-2.79,1.63s-.92.55,0,1.07,1.81,1,2.7,1.57A1.64,1.64,0,0,1,46.37,81a1.61,1.61,0,0,1-2.38.44c-1-.55-2-1.13-3-1.72-.52-.31-.75-.25-.73.42q0,1.75,0,3.51c0,1.11-.61,1.74-1.55,1.73s-1.5-.67-1.52-1.78,0-2.34,0-3.51c0-.6-.18-.69-.68-.39-1,.59-2,1.16-3,1.72s-1.9.43-2.4-.37S31,79.35,32,78.71,34.33,77.37,35.61,76.62Z"/></g></g></svg>