<?xml version="1.0" encoding="UTF-8"?><svg id="Layer_1" xmlns="http://www.w3.org/2000/svg" viewBox="0 0 566 573"><defs><style>.cls-1{fill:#fff;}.cls-2{fill:#0053bc;}.cls-3{fill:#231d24;}</style></defs><g><path class="cls-1" d="m321.88,83.66H33.6c-10.17,0-18.42,8.25-18.42,18.42v344.53c0,23.57,19.1,42.67,42.67,42.67h282.44V102.08c0-10.17-8.25-18.42-18.42-18.42Z"/><path class="cls-3" d="m321.88,82.91H33.6c-10.57,0-19.17,8.6-19.17,19.17v344.53c0,23.94,19.48,43.42,43.42,43.42h282.44c.41,0,.75-.34.75-.75V102.08c0-10.57-8.6-19.17-19.17-19.17Zm17.67,405.62H57.85c-23.12,0-41.92-18.81-41.92-41.92V102.08c0-9.74,7.93-17.67,17.67-17.67h288.27c9.75,0,17.67,7.93,17.67,17.67v386.45Z"/></g><g><g><polygon class="cls-3" points="94.2 159.13 95.7 159.13 95.7 154.46 100.53 154.46 100.53 152.97 94.2 152.97 94.2 159.13"/><polygon class="cls-3" points="91.41 150.01 86.57 150.01 86.57 151.51 92.91 151.51 92.91 145.34 91.41 145.34 91.41 150.01"/><polygon class="cls-3" points="86.66 154.38 91.33 154.38 91.33 159.22 92.82 159.22 92.82 152.88 86.66 152.88 86.66 154.38"/><polygon class="cls-3" points="95.78 145.26 94.28 145.26 94.28 151.59 100.45 151.59 100.45 150.09 95.78 150.09 95.78 145.26"/></g><g><polygon class="cls-3" points="247.27 159.13 248.76 159.13 248.76 154.46 253.6 154.46 253.6 152.97 247.27 152.97 247.27 159.13"/><polygon class="cls-3" points="244.48 150.01 239.64 150.01 239.64 151.51 245.98 151.51 245.98 145.34 244.48 145.34 244.48 150.01"/><polygon class="cls-3" points="239.73 154.38 244.39 154.38 244.39 159.22 245.89 159.22 245.89 152.88 239.73 152.88 239.73 154.38"/><polygon class="cls-3" points="248.85 145.26 247.35 145.26 247.35 151.59 253.52 151.59 253.52 150.09 248.85 150.09 248.85 145.26"/></g><g><polygon class="cls-3" points="94.2 227.9 95.7 227.9 95.7 223.23 100.53 223.23 100.53 221.74 94.2 221.74 94.2 227.9"/><polygon class="cls-3" points="91.41 218.78 86.57 218.78 86.57 220.28 92.91 220.28 92.91 214.11 91.41 214.11 91.41 218.78"/><polygon class="cls-3" points="86.66 223.15 91.33 223.15 91.33 227.99 92.82 227.99 92.82 221.65 86.66 221.65 86.66 223.15"/><polygon class="cls-3" points="95.78 214.03 94.28 214.03 94.28 220.36 100.45 220.36 100.45 218.86 95.78 218.86 95.78 214.03"/></g><g><polygon class="cls-3" points="247.27 227.9 248.76 227.9 248.76 223.23 253.6 223.23 253.6 221.74 247.27 221.74 247.27 227.9"/><polygon class="cls-3" points="244.48 218.78 239.64 218.78 239.64 220.28 245.98 220.28 245.98 214.11 244.48 214.11 244.48 218.78"/><polygon class="cls-3" points="239.73 223.15 244.39 223.15 244.39 227.99 245.89 227.99 245.89 221.65 239.73 221.65 239.73 223.15"/><polygon class="cls-3" points="248.85 214.03 247.35 214.03 247.35 220.36 253.52 220.36 253.52 218.86 248.85 218.86 248.85 214.03"/></g><rect class="cls-3" x="110.68" y="218.77" width="119.71" height="1.5"/><rect class="cls-3" x="91.43" y="162.62" width="1.5" height="50.03"/><rect class="cls-3" x="114.41" y="150.09" width="119.71" height="1.5"/></g><path class="cls-3" d="m193.09,207.81c-4.83-3.07-2.91-11.9-1.64-17.75.85-3.89,1.27-5.84-.02-6.35-1.2-.47-2.85.94-5.66,3.49-1.19,1.08-3.12,2.82-3.9,3.1-.02-.22,0-.68.22-1.61.32-1.31.9-2.94,1.62-4.7,3.27-3.39,6.4-7.61,7.79-11.74.94-2.78.91-3.47.5-3.91-.22-.24-.55-.33-.88-.25-1.54.4-5.95,8.59-8.61,14.93-3.42,3.5-6.89,5.99-8.19,6.38.04-.1.09-.23.17-.39.24-.49.5-1,.76-1.52,2.15-4.27,3.3-6.73,2.08-7.67-.88-.68-2.35-.7-10.53,6.49-4.03,3.54-5.82,4.8-6.62,5.22.3-.86,1.08-2.36,1.64-3.43.94-1.82,1.92-3.7,2.22-5,.15-.64-.17-1.19-.82-1.41-1.46-.48-5.88.8-11.03,3.03,2.09-6.92,3.17-11.91.83-13.7-1.66-1.28-4.59-.53-9.21,2.37-10.06,6.3-14.07,5.05-15.06,4.51-.86-.46-1.3-1.22-1.32-2.26-.01-.65.15-1.41.5-2.22.29.24.6.46.93.65,2.46,1.38,5.72.89,9.68-1.48,3.92-2.34,5.4-4.37,4.41-6.03-1.38-2.31-7.12-1.96-10.39-.01-2.04,1.21-3.71,2.71-4.86,4.29-1.14-1.87-1.79-4.72-1.82-8.25h-1.5c.02,2.66.41,6.91,2.44,9.65-.6,1.16-.92,2.33-.9,3.44.03,1.57.78,2.83,2.11,3.55,3.22,1.73,9.1.12,16.57-4.56,5.12-3.21,6.9-2.91,7.5-2.45,1.83,1.41-.19,8.32-1.73,13.33-8.23,3.8-17.6,9.69-19.75,14.61-.84,1.92-1.04,4.64,2.74,6.73,2.12,1.17,4.21,1.36,6.19.56,4.43-1.78,8.13-8.15,11.99-20.63.01-.03.02-.07.03-.1,5.11-2.32,9.55-3.79,10.92-3.65-.34,1.13-1.22,2.83-2.01,4.35-1.74,3.35-2.46,4.86-1.52,5.6.77.6,1.85.55,8.82-5.58,6.03-5.3,7.96-6.23,8.56-6.36-.03.97-1.52,3.93-2.43,5.75-.26.52-.52,1.04-.76,1.53-.3.61-.64,1.49-.18,2.13.16.22.55.57,1.33.44,1.34-.21,4.02-1.94,6.91-4.52-.25.72-.45,1.38-.58,1.94-.32,1.33-.53,2.77.4,3.32,1.17.7,2.86-.74,5.73-3.35,1.23-1.12,3.24-2.94,3.97-3.18.08.73-.38,2.86-.76,4.61-1.36,6.25-3.42,15.7,2.3,19.33,1.09.69,2.4.99,3.86.99,9.6,0,25.51-13.13,26.28-13.77l-.96-1.15c-5.82,4.84-22.26,16.55-28.37,12.66Zm-2.8-36.61c-.06.18-.12.37-.19.58-.85,2.52-2.38,5.04-4.17,7.36,1.54-3.15,3.2-6.14,4.36-7.94Zm-56.95-3.36c3-1.79,7.66-1.65,8.34-.51.27.45-.25,1.8-3.89,3.98-3.47,2.07-6.22,2.56-8.18,1.46-.33-.18-.63-.42-.92-.69.96-1.44,2.48-2.95,4.65-4.24Zm5.67,38.22c-1.57.63-3.17.47-4.9-.49-2.4-1.32-3.03-2.93-1.98-5.07,2.15-4.39,10.27-9.41,17.63-12.93-2.32,7.31-5.87,16.52-10.75,18.49Z"/><g><polygon class="cls-1" points="105.14 246.4 118.19 233.34 100.58 241.84 105.14 246.4"/><path class="cls-3" d="m105.14,245.34l-4.03-4.03-1.06,1.06,4.56,4.56c.15.15.34.22.53.22s.38-.07.53-.22l13.06-13.06-1.06-1.06-12.53,12.53Z"/></g><g><circle class="cls-1" cx="125.7" cy="243.81" r="3.94"/><path class="cls-3" d="m125.7,239.12c-2.59,0-4.69,2.1-4.69,4.69s2.1,4.69,4.69,4.69,4.69-2.1,4.69-4.69-2.1-4.69-4.69-4.69Zm0,7.88c-1.76,0-3.19-1.43-3.19-3.19s1.43-3.19,3.19-3.19,3.19,1.43,3.19,3.19-1.43,3.19-3.19,3.19Z"/></g><g><circle class="cls-1" cx="139.72" cy="243.81" r="3.94"/><path class="cls-3" d="m139.72,239.12c-2.59,0-4.69,2.1-4.69,4.69s2.1,4.69,4.69,4.69,4.69-2.1,4.69-4.69-2.1-4.69-4.69-4.69Zm0,7.88c-1.76,0-3.19-1.43-3.19-3.19s1.43-3.19,3.19-3.19,3.19,1.43,3.19,3.19-1.43,3.19-3.19,3.19Z"/></g><g><path class="cls-3" d="m267.57,220.91c-10.9-1.39-11.43-13.83-11.45-14.36l-1.5.05c0,.14.57,13.97,12.4,15.74l9.16,14.78,1.27-.79-9.34-15.07c-.12-.19-.32-.32-.54-.35Z"/><path class="cls-3" d="m285.39,191.47c-2.58-9.22-6.11-21.85-14.09-24.25-2.92-.88-5.98-2.05-8.95-3.19-5.8-2.23-10.81-4.15-13.55-3.4-2.1.58-4.67,3.16-7.65,6.14-2.8,2.8-5.98,5.98-9.07,7.73-3.47,1.97-3.9,4.36-3.15,5.95.98,2.07,4.28,3.39,8.46,1.77l-.54-1.4c-3.22,1.25-5.87.46-6.57-1.01-.59-1.25.38-2.78,2.53-4.01,3.27-1.85,6.53-5.11,9.4-7.98,2.71-2.71,5.27-5.27,7-5.75,2.26-.62,7.29,1.3,12.61,3.35,2.99,1.15,6.08,2.34,9.05,3.23,7.18,2.16,10.73,14.83,13.07,23.22.3,1.07.58,2.09.86,3.03,2.54,8.69,7.66,17.69,7.71,17.78l1.3-.74c-.05-.09-5.08-8.94-7.57-17.46-.27-.93-.56-1.95-.85-3.01Z"/><path class="cls-3" d="m291.37,147.77c-.63-.97-1.93-1.24-2.89-.6l-53.34,35.6-13.95,11.97c-1.04.89.01,2.55,1.26,1.98l16.78-7.64,53.38-35.63c.95-.63,1.21-1.91.59-2.86l-1.83-2.82Z"/><path class="cls-3" d="m300.36,207.4l-29.75,19.43.82,1.25,29.23-19.09,8.8,9.33,1.09-1.03-9.23-9.78c-.25-.26-.65-.31-.95-.11Z"/><path class="cls-3" d="m251.83,200.26c-1.49-.99-1.64-2.99-1.64-3.01-.02-.29-.2-.55-.47-.65-.27-.11-.58-.05-.79.15-1.06,1-2.16,1.46-3.27,1.38-2.07-.15-3.63-2.1-3.65-2.12-.21-.26-.57-.36-.88-.23-1.75.73-3.13.77-4.09.12-1.86-1.25-1.84-4.7-1.84-4.73l-1.5-.02c0,.17-.03,4.28,2.49,5.99,1.3.88,2.98.95,5,.22.69.72,2.27,2.11,4.33,2.27,1.2.09,2.34-.24,3.42-.97.28.9.85,2.06,2.03,2.85.84.56,1.84.84,3,.84,1.04,0,2.21-.22,3.49-.67l-.49-1.41c-2.25.79-3.98.79-5.16.01Z"/><path class="cls-3" d="m242.13,179.8c2.41-1.18,6.63-1.25,9.07.53.97.71,1.93,1.48,2.87,2.22,4.75,3.8,9.66,7.73,17.46,4.92l-.51-1.41c-7.01,2.53-11.38-.97-16.02-4.68-.94-.76-1.92-1.54-2.92-2.27-2.97-2.16-7.82-2.03-10.61-.67-1.57.77-2.46,1.89-2.5,3.15-.06,1.71,1.38,3.42,4.28,5.07,7.63,4.36,13.5,11.59,17.95,22.11,2.82,6.66,9.33,8.73,9.6,8.82l.44-1.43c-.06-.02-6.12-1.94-8.67-7.97-4.58-10.83-10.66-18.3-18.59-22.82-3.12-1.78-3.55-3.1-3.53-3.72.03-.93,1.05-1.56,1.66-1.86Z"/><g><path class="cls-1" d="m266.11,171.32c0,2.69,1.82,3.45,1.82,3.45,0,0,2.59-2.97,7.1-6.14,4.51-3.17,16.79-11.61,16.79-11.61,0,0,1.53-1.15-.19-3.45l-25.52,17.75Z"/><path class="cls-3" d="m291.2,152.96l-25.52,17.75c-.2.14-.32.37-.32.61,0,3.15,2.19,4.1,2.28,4.14.09.04.19.06.29.06.21,0,.42-.09.56-.26.03-.03,2.59-2.95,6.96-6.02,4.45-3.13,16.66-11.52,16.81-11.62.74-.55,1.68-2.21-.04-4.5-.24-.32-.69-.4-1.03-.17Zm.2,3.45c-.12.08-12.33,8.48-16.79,11.61-3.51,2.46-5.86,4.79-6.79,5.77-.37-.33-.85-.97-.94-2.1l24.54-17.07c.61,1.16.08,1.7-.02,1.78Z"/></g></g><g><path class="cls-2" d="m126.82,281.47h101.84c7.78,0,14.1,6.32,14.1,14.1v17c0,7.78-6.32,14.1-14.1,14.1h-101.84c-7.78,0-14.1-6.32-14.1-14.1v-17c0-7.78,6.32-14.1,14.1-14.1Z"/><path class="cls-3" d="m228.66,280.72h-101.84c-8.19,0-14.85,6.66-14.85,14.85v17c0,8.19,6.66,14.85,14.85,14.85h101.84c8.19,0,14.85-6.66,14.85-14.85v-17c0-8.19-6.66-14.85-14.85-14.85Zm13.35,31.85c0,7.36-5.99,13.35-13.35,13.35h-101.84c-7.36,0-13.35-5.99-13.35-13.35v-17c0-7.36,5.99-13.35,13.35-13.35h101.84c7.36,0,13.35,5.99,13.35,13.35v17Z"/></g><g><g><path class="cls-1" d="m136.33,305.5l-1.81-4.37h-1.93l2.79,6.49-.02.06c-.13.29-.27.49-.43.62-.16.12-.37.19-.62.19-.18,0-.37-.04-.56-.11-.19-.07-.35-.17-.5-.3l-.68,1.33c.21.18.48.33.8.43.33.1.66.16.99.16.61,0,1.14-.15,1.58-.46.44-.3.8-.83,1.1-1.57l2.91-6.84h-1.8l-1.82,4.37Z"/><path class="cls-1" d="m145.41,301.46c-.53-.28-1.14-.42-1.82-.42s-1.29.14-1.83.42c-.54.28-.96.68-1.26,1.18-.3.5-.46,1.07-.46,1.71s.15,1.21.46,1.71c.3.5.72.9,1.26,1.18.54.28,1.15.42,1.83.42s1.29-.14,1.82-.42c.53-.28.95-.68,1.26-1.18.3-.5.45-1.07.45-1.71s-.15-1.21-.45-1.71c-.3-.5-.72-.9-1.26-1.18Zm-.64,4.19c-.31.32-.7.48-1.18.48s-.87-.16-1.18-.48c-.31-.32-.47-.76-.47-1.3s.15-.98.47-1.3c.31-.32.71-.49,1.18-.49s.87.16,1.18.49c.31.32.46.76.46,1.3s-.15.98-.46,1.3Z"/><path class="cls-1" d="m152.99,304.31c0,.57-.14,1.01-.41,1.3-.27.29-.63.44-1.08.44-.87,0-1.3-.52-1.3-1.56v-3.36h-1.87v3.64c0,.96.25,1.68.74,2.17.49.49,1.17.73,2.01.73.4,0,.77-.07,1.11-.22.34-.15.64-.36.89-.64v.77h1.77v-6.44h-1.87v3.18Z"/><path class="cls-1" d="m158.38,301.98v-.85h-1.78v6.44h1.87v-3.04c0-.6.15-1.05.45-1.35.3-.3.72-.45,1.26-.45.07,0,.21,0,.42.02v-1.72c-.5,0-.93.08-1.31.24-.38.16-.68.4-.9.71Z"/></g><path class="cls-1" d="m168.08,303.97c-.34-.1-.77-.19-1.29-.28-.47-.07-.81-.15-1.03-.23-.22-.08-.32-.22-.32-.42,0-.18.1-.32.3-.43.2-.11.5-.17.9-.17.67,0,1.29.16,1.86.48l.62-1.33c-.3-.18-.67-.31-1.12-.41-.45-.1-.9-.15-1.36-.15-.61,0-1.15.09-1.6.26-.45.18-.79.42-1.03.74s-.35.68-.35,1.08c0,.49.13.86.38,1.13.25.26.55.45.89.55.34.1.78.2,1.31.28.45.06.78.12.99.2.22.08.32.21.32.39,0,.39-.4.59-1.19.59-.39,0-.79-.06-1.2-.17-.41-.12-.75-.27-1.04-.45l-.62,1.34c.3.2.71.36,1.22.5.51.13,1.03.2,1.57.2.63,0,1.18-.09,1.63-.26.46-.17.81-.41,1.05-.72.24-.31.36-.67.36-1.07,0-.47-.12-.84-.37-1.1-.25-.26-.54-.45-.87-.55Z"/><g><rect class="cls-1" x="170.47" y="301.13" width="1.87" height="6.44"/><path class="cls-1" d="m171.4,298.15c-.34,0-.62.1-.84.3-.21.2-.32.45-.32.74s.11.54.32.74c.22.2.5.3.84.3s.62-.1.84-.31c.22-.2.32-.46.32-.77,0-.29-.11-.53-.32-.72-.22-.19-.49-.29-.84-.29Z"/></g><path class="cls-1" d="m178.95,301.95c-.49-.61-1.2-.92-2.13-.92-.59,0-1.13.13-1.62.39-.49.26-.88.62-1.17,1.1-.29.47-.43,1.01-.43,1.63s.14,1.16.43,1.63c.29.47.68.84,1.17,1.1.49.26,1.03.39,1.62.39.87,0,1.55-.27,2.04-.8v.28c0,.59-.15,1.03-.46,1.32-.31.29-.78.44-1.43.44-.42,0-.83-.07-1.25-.2-.42-.13-.76-.31-1.03-.53l-.74,1.34c.37.29.83.51,1.39.66.56.15,1.15.23,1.77.23,1.18,0,2.08-.29,2.69-.86.61-.57.92-1.45.92-2.63v-5.36h-1.77v.83Zm-.54,3.33c-.32.29-.72.44-1.22.44s-.9-.15-1.22-.44c-.32-.29-.48-.67-.48-1.14s.16-.85.48-1.14c.32-.29.73-.44,1.22-.44s.9.15,1.22.44c.32.29.47.67.47,1.14s-.16.85-.47,1.14Z"/><path class="cls-1" d="m186.37,301.03c-.44,0-.84.07-1.21.22-.37.15-.67.36-.92.63v-.75h-1.78v6.44h1.87v-3.19c0-.57.14-1.01.42-1.3.28-.29.65-.44,1.13-.44.42,0,.75.13.97.38.22.25.34.63.34,1.14v3.4h1.87v-3.69c0-.94-.25-1.65-.74-2.13-.49-.48-1.14-.72-1.93-.72Z"/><path class="cls-1" d="m193.33,301.03c-.52,0-1.02.07-1.51.2-.49.14-.91.33-1.26.57l.67,1.31c.23-.18.51-.33.84-.44.33-.11.67-.16,1.01-.16.49,0,.87.11,1.11.33.25.22.37.53.37.94h-1.49c-.94,0-1.64.17-2.09.51-.45.34-.68.81-.68,1.41,0,.38.1.71.29,1.01.19.3.47.53.83.69s.79.25,1.29.25c.96,0,1.61-.3,1.96-.9v.8h1.75v-3.68c0-.96-.27-1.67-.8-2.15-.53-.47-1.3-.71-2.3-.71Zm1.23,4.5c-.1.29-.28.5-.53.65-.25.15-.53.22-.85.22s-.59-.07-.77-.21c-.19-.14-.28-.33-.28-.57,0-.5.38-.75,1.15-.75h1.28v.66Z"/><path class="cls-1" d="m201.01,306.18c-.26,0-.45-.07-.59-.22-.14-.15-.21-.36-.21-.63v-2.62h1.6v-1.44h-1.6v-1.57h-1.87v1.57h-.99v1.44h.99v2.65c0,.76.21,1.33.63,1.72.42.39,1.01.59,1.78.59.3,0,.58-.03.84-.1.27-.07.49-.17.68-.31l-.5-1.32c-.21.16-.46.24-.76.24Z"/><path class="cls-1" d="m207.95,304.31c0,.57-.14,1.01-.41,1.3-.27.29-.63.44-1.08.44-.87,0-1.3-.52-1.3-1.56v-3.36h-1.87v3.64c0,.96.25,1.68.74,2.17s1.17.73,2.01.73c.4,0,.77-.07,1.11-.22.34-.15.64-.36.89-.64v.77h1.77v-6.44h-1.87v3.19Z"/><path class="cls-1" d="m213.34,301.98v-.85h-1.78v6.44h1.87v-3.04c0-.6.15-1.05.45-1.35.3-.3.72-.45,1.26-.45.07,0,.21,0,.42.02v-1.72c-.49,0-.93.08-1.31.24-.38.16-.68.39-.9.71Z"/><path class="cls-1" d="m221.27,301.44c-.51-.27-1.08-.41-1.71-.41s-1.23.14-1.75.42c-.52.28-.93.68-1.23,1.18-.3.51-.45,1.08-.45,1.71s.15,1.21.46,1.71.73.9,1.29,1.18c.56.28,1.2.42,1.93.42,1.17,0,2.05-.35,2.66-1.04l-.99-1.08c-.22.22-.47.37-.72.47-.26.1-.56.15-.89.15-.49,0-.89-.11-1.22-.35-.33-.23-.53-.55-.62-.95h4.87c.02-.31.04-.48.04-.5,0-.67-.15-1.26-.44-1.77-.29-.51-.69-.9-1.2-1.17Zm-3.29,2.35c.06-.42.24-.74.53-.98.29-.24.64-.36,1.07-.36s.77.12,1.05.37c.29.24.46.57.53.98h-3.17Z"/></g><g><path class="cls-3" d="m59.92,353.27c0,1.24.02,2.23.12,3.3h-.04c-.37-.83-.85-1.66-1.44-2.61l-2.57-4.08h-1.15v8.07h.98v-3.45c0-1.34-.01-2.31-.07-3.33h.04c.4.86.93,1.78,1.5,2.68l2.56,4.09h1.05v-8.07h-.98v3.39Z"/><path class="cls-3" d="m66.74,354.4c0-1.16-.43-2.37-2.21-2.37-.73,0-1.44.2-1.91.5l.24.71c.41-.27.97-.43,1.52-.43,1.18-.01,1.32.86,1.32,1.34v.12c-2.24-.01-3.48.75-3.48,2.15,0,.84.6,1.66,1.77,1.66.83,0,1.46-.41,1.77-.86h.04l.1.73h.95c-.06-.39-.08-.89-.08-1.39v-2.17Zm-1.03,1.6c0,.11-.01.23-.05.34-.17.49-.66.97-1.42.97-.53,0-.98-.31-.98-1.01,0-1.12,1.3-1.33,2.45-1.3v1Z"/><path class="cls-3" d="m74.8,352.03c-.55,0-.92.14-1.27.41-.24.18-.48.42-.66.75h-.02c-.25-.68-.85-1.16-1.63-1.16-.97,0-1.51.51-1.83,1.07h-.04l-.05-.93h-.92c.02.48.05.96.05,1.57v4.22h1.03v-3.49c0-.18.02-.36.08-.51.17-.53.66-1.05,1.3-1.05.8,0,1.21.66,1.21,1.59v3.47h1.03v-3.59c0-.18.04-.37.08-.53.19-.5.65-.95,1.26-.95.84,0,1.26.66,1.26,1.78v3.28h1.03v-3.41c0-2.01-1.14-2.51-1.91-2.51Z"/><path class="cls-3" d="m80.73,352.01c-1.69,0-2.73,1.38-2.73,3.13s1.08,2.92,2.85,2.92c.92,0,1.57-.2,1.94-.37l-.19-.74c-.38.16-.85.29-1.6.29-1.05,0-1.95-.59-1.97-2.01h4.06c.02-.11.04-.28.04-.49,0-1.07-.49-2.73-2.38-2.73Zm-1.7,2.47c.08-.73.54-1.71,1.62-1.71,1.17,0,1.46,1.05,1.45,1.71h-3.06Z"/><path class="cls-3" d="m84.87,356.58c-.41,0-.71.31-.71.75,0,.42.29.74.69.74h.01c.43,0,.71-.32.71-.74,0-.44-.28-.75-.71-.75Z"/><path class="cls-3" d="m84.89,352.36c-.41,0-.71.31-.71.75,0,.42.29.74.69.74h.01c.43,0,.71-.32.71-.74,0-.44-.28-.75-.71-.75Z"/><rect class="cls-3" x="86.02" y="358.85" width="5.98" height=".6"/><rect class="cls-3" x="92.01" y="358.85" width="5.98" height=".6"/><rect class="cls-3" x="98" y="358.85" width="5.98" height=".6"/><rect class="cls-3" x="103.98" y="358.85" width="5.98" height=".6"/><rect class="cls-3" x="109.97" y="358.85" width="5.98" height=".6"/><rect class="cls-3" x="115.96" y="358.85" width="5.98" height=".6"/><rect class="cls-3" x="121.94" y="358.85" width="5.98" height=".6"/><rect class="cls-3" x="127.93" y="358.85" width="5.98" height=".6"/><rect class="cls-3" x="133.92" y="358.85" width="5.98" height=".6"/><rect class="cls-3" x="139.9" y="358.85" width="5.98" height=".6"/><rect class="cls-3" x="145.89" y="358.85" width="5.98" height=".6"/><rect class="cls-3" x="151.88" y="358.85" width="5.98" height=".6"/><rect class="cls-3" x="157.86" y="358.85" width="5.98" height=".6"/><rect class="cls-3" x="163.85" y="358.85" width="5.98" height=".6"/><rect class="cls-3" x="169.84" y="358.85" width="5.98" height=".6"/><rect class="cls-3" x="175.82" y="358.85" width="5.98" height=".6"/><rect class="cls-3" x="181.81" y="358.85" width="5.98" height=".6"/><rect class="cls-3" x="187.8" y="358.85" width="5.98" height=".6"/><rect class="cls-3" x="193.78" y="358.85" width="5.98" height=".6"/><rect class="cls-3" x="199.77" y="358.85" width="5.98" height=".6"/><rect class="cls-3" x="205.76" y="358.85" width="5.98" height=".6"/><rect class="cls-3" x="211.74" y="358.85" width="5.98" height=".6"/><rect class="cls-3" x="217.73" y="358.85" width="5.98" height=".6"/><rect class="cls-3" x="223.72" y="358.85" width="5.98" height=".6"/><rect class="cls-3" x="229.7" y="358.85" width="5.98" height=".6"/><rect class="cls-3" x="235.69" y="358.85" width="5.98" height=".6"/><rect class="cls-3" x="241.68" y="358.85" width="5.98" height=".6"/><rect class="cls-3" x="247.66" y="358.85" width="5.98" height=".6"/><rect class="cls-3" x="253.65" y="358.85" width="5.98" height=".6"/><rect class="cls-3" x="259.64" y="358.85" width="5.98" height=".6"/><rect class="cls-3" x="265.62" y="358.85" width="5.98" height=".6"/><rect class="cls-3" x="271.61" y="358.85" width="5.98" height=".6"/><rect class="cls-3" x="277.6" y="358.85" width="5.98" height=".6"/><rect class="cls-3" x="283.58" y="358.85" width="5.98" height=".6"/><rect class="cls-3" x="289.57" y="358.85" width="5.98" height=".6"/><rect class="cls-3" x="295.56" y="358.85" width="5.98" height=".6"/></g><g><polygon class="cls-3" points="55.23 384.78 58.35 384.78 58.35 383.92 55.23 383.92 55.23 381.37 58.54 381.37 58.54 380.5 54.17 380.5 54.17 388.56 58.72 388.56 58.72 387.69 55.23 387.69 55.23 384.78"/><rect class="cls-3" x="59.53" y="384.95" width="2.96" height=".77"/><path class="cls-3" d="m70.08,382.64c-.55,0-.92.14-1.27.41-.24.18-.48.42-.66.75h-.02c-.25-.68-.85-1.16-1.63-1.16-.97,0-1.51.51-1.83,1.07h-.04l-.05-.93h-.92c.02.48.05.96.05,1.57v4.22h1.03v-3.49c0-.18.02-.36.08-.51.17-.53.66-1.05,1.3-1.05.8,0,1.21.66,1.21,1.59v3.47h1.03v-3.59c0-.18.04-.37.08-.53.19-.5.65-.95,1.26-.95.84,0,1.26.66,1.26,1.78v3.28h1.03v-3.41c0-2.01-1.14-2.51-1.91-2.51Z"/><path class="cls-3" d="m77.78,385.01c0-1.16-.43-2.37-2.21-2.37-.73,0-1.44.2-1.91.5l.24.71c.41-.28.97-.43,1.52-.43,1.18-.01,1.32.86,1.32,1.34v.12c-2.24-.01-3.48.75-3.48,2.15,0,.84.6,1.66,1.77,1.66.83,0,1.46-.41,1.77-.86h.04l.1.73h.95c-.06-.4-.08-.89-.08-1.39v-2.17Zm-1.03,1.6c0,.11-.01.23-.05.34-.17.49-.66.97-1.42.97-.53,0-.98-.31-.98-1.01,0-1.12,1.3-1.33,2.45-1.3v1.01Z"/><rect class="cls-3" x="79.47" y="382.77" width="1.05" height="5.79"/><path class="cls-3" d="m80,380.35c-.41,0-.68.3-.68.67s.26.68.66.68h.01c.42,0,.68-.31.68-.68s-.26-.67-.67-.67Z"/><rect class="cls-3" x="82.28" y="380.06" width="1.05" height="8.5"/><path class="cls-3" d="m85.53,387.2c-.41,0-.71.31-.71.75,0,.42.29.74.69.74h.01c.43,0,.71-.32.71-.74,0-.44-.28-.75-.71-.75Z"/><path class="cls-3" d="m85.54,382.97c-.41,0-.71.31-.71.75,0,.42.29.74.69.74h.01c.43,0,.71-.32.71-.74,0-.44-.28-.75-.71-.75Z"/><rect class="cls-3" x="86.68" y="389.46" width="5.98" height=".6"/><rect class="cls-3" x="92.67" y="389.46" width="5.98" height=".6"/><rect class="cls-3" x="98.66" y="389.46" width="5.98" height=".6"/><rect class="cls-3" x="104.64" y="389.46" width="5.98" height=".6"/><rect class="cls-3" x="110.63" y="389.46" width="5.98" height=".6"/><rect class="cls-3" x="116.62" y="389.46" width="5.98" height=".6"/><rect class="cls-3" x="122.6" y="389.46" width="5.98" height=".6"/><rect class="cls-3" x="128.59" y="389.46" width="5.98" height=".6"/><rect class="cls-3" x="134.58" y="389.46" width="5.98" height=".6"/><rect class="cls-3" x="140.56" y="389.46" width="5.98" height=".6"/><rect class="cls-3" x="146.55" y="389.46" width="5.98" height=".6"/><rect class="cls-3" x="152.54" y="389.46" width="5.98" height=".6"/><rect class="cls-3" x="158.52" y="389.46" width="5.98" height=".6"/><rect class="cls-3" x="164.51" y="389.46" width="5.98" height=".6"/><rect class="cls-3" x="170.5" y="389.46" width="5.98" height=".6"/><rect class="cls-3" x="176.48" y="389.46" width="5.98" height=".6"/><rect class="cls-3" x="182.47" y="389.46" width="5.98" height=".6"/><rect class="cls-3" x="188.45" y="389.46" width="5.98" height=".6"/><rect class="cls-3" x="194.44" y="389.46" width="5.98" height=".6"/><rect class="cls-3" x="200.43" y="389.46" width="5.98" height=".6"/><rect class="cls-3" x="206.41" y="389.46" width="5.98" height=".6"/><rect class="cls-3" x="212.4" y="389.46" width="5.98" height=".6"/><rect class="cls-3" x="218.39" y="389.46" width="5.98" height=".6"/><rect class="cls-3" x="224.37" y="389.46" width="5.98" height=".6"/><rect class="cls-3" x="230.36" y="389.46" width="5.98" height=".6"/><rect class="cls-3" x="236.35" y="389.46" width="5.98" height=".6"/><rect class="cls-3" x="242.33" y="389.46" width="5.98" height=".6"/><rect class="cls-3" x="248.32" y="389.46" width="5.98" height=".6"/><rect class="cls-3" x="254.31" y="389.46" width="5.98" height=".6"/><rect class="cls-3" x="260.29" y="389.46" width="5.98" height=".6"/><rect class="cls-3" x="266.28" y="389.46" width="5.98" height=".6"/><rect class="cls-3" x="272.27" y="389.46" width="5.98" height=".6"/><rect class="cls-3" x="278.25" y="389.46" width="5.98" height=".6"/><rect class="cls-3" x="284.24" y="389.46" width="5.98" height=".6"/><rect class="cls-3" x="290.23" y="389.46" width="5.98" height=".6"/><rect class="cls-3" x="296.21" y="389.46" width="5.98" height=".6"/></g><g><path class="cls-2" d="m321.88,83.66H33.6c-10.17,0-18.42,8.25-18.42,18.42v15.78h325.12v-15.78c0-10.17-8.25-18.42-18.42-18.42Z"/><path class="cls-3" d="m321.88,82.91H33.6c-10.57,0-19.17,8.6-19.17,19.17v15.78c0,.41.34.75.75.75h325.12c.41,0,.75-.34.75-.75v-15.78c0-10.57-8.6-19.17-19.17-19.17Zm17.67,34.2H15.93v-15.03c0-9.74,7.93-17.67,17.67-17.67h288.27c9.75,0,17.67,7.93,17.67,17.67v15.03Z"/></g><rect class="cls-1" x="294.99" y="101.62" width="1" height="9.46" transform="translate(11.35 240.09) rotate(-45)"/><rect class="cls-1" x="290.76" y="105.85" width="9.46" height="1" transform="translate(11.35 240.09) rotate(-45)"/><path class="cls-1" d="m308.87,102.07c-2.38,0-4.32,1.94-4.32,4.32s1.94,4.32,4.32,4.32,4.32-1.94,4.32-4.32-1.94-4.32-4.32-4.32Zm0,7.64c-1.83,0-3.32-1.49-3.32-3.32s1.49-3.32,3.32-3.32,3.32,1.49,3.32,3.32-1.49,3.32-3.32,3.32Z"/><rect class="cls-1" x="316.22" y="109.71" width="6.79" height="1"/><g><path class="cls-1" d="m440.53,421.89H128.11v66.69h349.14v-29.97c0-20.28-16.44-36.73-36.73-36.73Z"/><path class="cls-3" d="m440.53,421.14H128.11c-.41,0-.75.34-.75.75v66.69c0,.41.34.75.75.75h349.14c.41,0,.75-.34.75-.75v-29.97c0-20.66-16.81-37.47-37.47-37.47Zm35.98,66.69H128.86v-65.2h311.67c19.84,0,35.98,16.14,35.98,35.98v29.22Z"/></g><g><path class="cls-2" d="m167.83,461.61c0-21.94-17.78-39.72-39.72-39.72h-2.49c-21.94,0-39.72,17.78-39.72,39.72,0,14.82-12.02,27.72-26.84,27.72l136.06-.44c-15.07,0-27.29-12.22-27.29-27.29Z"/><path class="cls-3" d="m195.12,488.15c-14.63,0-26.54-11.91-26.54-26.54,0-22.32-18.16-40.47-40.47-40.47h-2.49c-22.32,0-40.47,18.15-40.47,40.47,0,14.53-11.87,26.88-25.93,26.98h-.16c-.41,0-.75.34-.75.75,0,.41.34.75.75.75h0l136.06-.44c.41,0,.75-.34.75-.75,0-.41-.34-.75-.75-.75Zm-127.34.41c10.82-3.88,18.86-14.68,18.86-26.95,0-21.49,17.48-38.97,38.97-38.97h2.49c21.49,0,38.97,17.48,38.97,38.97,0,12.33,8,22.82,19.08,26.57l-118.38.38Z"/></g><g><path class="cls-2" d="m231.42,448.91c0,22.04-17.83,39.93-39.87,40h319.28c22.09,0,40-17.91,40-40v-2.17H231.42v2.17Z"/><path class="cls-3" d="m550.82,445.99H231.42c-.41,0-.75.34-.75.75v2.17c0,21.58-17.55,39.18-39.13,39.25-.41,0-.75.34-.75.75,0,.41.34.75.75.75h319.28c22.47,0,40.75-18.28,40.75-40.74v-2.17c0-.41-.34-.75-.75-.75Zm-.75,2.92c0,21.64-17.61,39.25-39.25,39.25H202.37c17.16-4.8,29.8-20.59,29.8-39.25v-1.42h317.9v1.42Z"/></g></svg>