<svg xmlns="http://www.w3.org/2000/svg" viewBox="0 0 537.13 407.17"><defs><style>.cls-1{fill:#fff;}.cls-2{fill:#231d24;}.cls-3{fill:#4d5eff;}</style></defs><title>Asset 2mdpi</title><g id="Layer_2" data-name="Layer 2"><g id="Layer_1-2" data-name="Layer 1"><path class="cls-1" d="M307.44.75H19.17A18.42,18.42,0,0,0,.75,19.17V363.7a42.66,42.66,0,0,0,42.67,42.67H325.86V19.17A18.42,18.42,0,0,0,307.44.75Z"/><path class="cls-2" d="M307.44,0H19.17A19.19,19.19,0,0,0,0,19.17V363.7a43.47,43.47,0,0,0,43.42,43.42H325.86a.75.75,0,0,0,.75-.75V19.17A19.19,19.19,0,0,0,307.44,0Zm17.68,405.62H43.42A42,42,0,0,1,1.5,363.7V19.17A17.68,17.68,0,0,1,19.17,1.5H307.44a17.69,17.69,0,0,1,17.68,17.67Z"/><polygon class="cls-2" points="79.77 76.22 81.26 76.22 81.26 71.55 86.1 71.55 86.1 70.05 79.77 70.05 79.77 76.22"/><polygon class="cls-2" points="76.98 67.1 72.14 67.1 72.14 68.59 78.47 68.59 78.47 62.43 76.98 62.43 76.98 67.1"/><polygon class="cls-2" points="72.22 71.47 76.89 71.47 76.89 76.31 78.39 76.31 78.39 69.97 72.22 69.97 72.22 71.47"/><polygon class="cls-2" points="81.35 62.34 79.85 62.34 79.85 68.68 86.02 68.68 86.02 67.18 81.35 67.18 81.35 62.34"/><polygon class="cls-2" points="232.83 76.22 234.33 76.22 234.33 71.55 239.17 71.55 239.17 70.05 232.83 70.05 232.83 76.22"/><polygon class="cls-2" points="230.05 67.1 225.21 67.1 225.21 68.59 231.54 68.59 231.54 62.43 230.05 62.43 230.05 67.1"/><polygon class="cls-2" points="225.29 71.47 229.96 71.47 229.96 76.31 231.46 76.31 231.46 69.97 225.29 69.97 225.29 71.47"/><polygon class="cls-2" points="234.41 62.34 232.92 62.34 232.92 68.68 239.08 68.68 239.08 67.18 234.41 67.18 234.41 62.34"/><polygon class="cls-2" points="79.77 144.99 81.26 144.99 81.26 140.32 86.1 140.32 86.1 138.82 79.77 138.82 79.77 144.99"/><polygon class="cls-2" points="76.98 135.87 72.14 135.87 72.14 137.36 78.47 137.36 78.47 131.2 76.98 131.2 76.98 135.87"/><polygon class="cls-2" points="72.22 140.24 76.89 140.24 76.89 145.07 78.39 145.07 78.39 138.74 72.22 138.74 72.22 140.24"/><polygon class="cls-2" points="81.35 131.11 79.85 131.11 79.85 137.45 86.02 137.45 86.02 135.95 81.35 135.95 81.35 131.11"/><polygon class="cls-2" points="232.83 144.99 234.33 144.99 234.33 140.32 239.17 140.32 239.17 138.82 232.83 138.82 232.83 144.99"/><polygon class="cls-2" points="230.05 135.87 225.21 135.87 225.21 137.36 231.54 137.36 231.54 131.2 230.05 131.2 230.05 135.87"/><polygon class="cls-2" points="225.29 140.24 229.96 140.24 229.96 145.07 231.46 145.07 231.46 138.74 225.29 138.74 225.29 140.24"/><polygon class="cls-2" points="234.41 131.11 232.92 131.11 232.92 137.45 239.08 137.45 239.08 135.95 234.41 135.95 234.41 131.11"/><rect class="cls-2" x="96.24" y="135.85" width="119.71" height="1.5"/><rect class="cls-2" x="76.99" y="79.71" width="1.5" height="50.03"/><rect class="cls-2" x="99.98" y="67.17" width="119.71" height="1.5"/><path class="cls-2" d="M178.66,124.9c-4.83-3.07-2.91-11.91-1.64-17.75.85-3.89,1.27-5.84,0-6.35s-2.85.94-5.66,3.49a21.88,21.88,0,0,1-3.89,3.09,5.56,5.56,0,0,1,.22-1.61,33.65,33.65,0,0,1,1.63-4.69c3.27-3.39,6.4-7.62,7.79-11.74.93-2.78.9-3.47.5-3.91a.9.9,0,0,0-.88-.25c-1.54.4-6,8.59-8.61,14.93-3.42,3.49-6.89,6-8.19,6.37a2.72,2.72,0,0,1,.17-.39l.75-1.52c2.15-4.26,3.31-6.72,2.09-7.67-.88-.68-2.35-.69-10.53,6.49-4,3.54-5.83,4.8-6.63,5.23.31-.86,1.09-2.36,1.64-3.43a25.85,25.85,0,0,0,2.22-5,1.15,1.15,0,0,0-.82-1.41c-1.46-.48-5.88.8-11,3,2.09-6.92,3.17-11.9.83-13.7-1.66-1.28-4.58-.52-9.2,2.37-10.06,6.3-14.07,5-15.06,4.51A2.46,2.46,0,0,1,113,92.73a5.35,5.35,0,0,1,.51-2.22,5.11,5.11,0,0,0,.93.64c2.46,1.39,5.72.89,9.68-1.48s5.4-4.36,4.41-6c-1.38-2.31-7.12-2-10.39,0a16.32,16.32,0,0,0-4.86,4.3c-1.15-1.87-1.79-4.72-1.82-8.25H110c0,2.64.41,6.9,2.44,9.64a7.19,7.19,0,0,0-.89,3.43,3.94,3.94,0,0,0,2.11,3.55c3.21,1.74,9.1.12,16.56-4.56,5.13-3.21,6.9-2.92,7.5-2.45,1.83,1.41-.18,8.31-1.73,13.32-8.23,3.81-17.6,9.69-19.75,14.61-.84,1.92-1,4.64,2.74,6.73a6.93,6.93,0,0,0,6.19.57c4.42-1.79,8.12-8.15,12-20.63l0-.1c5.11-2.32,9.55-3.79,10.92-3.65a31.07,31.07,0,0,1-2,4.35c-1.73,3.35-2.46,4.86-1.52,5.6.77.6,1.85.55,8.83-5.58,6-5.3,8-6.24,8.55-6.36,0,1-1.52,3.93-2.43,5.74-.27.52-.52,1-.77,1.53s-.64,1.49-.17,2.13a1.26,1.26,0,0,0,1.33.44c1.34-.2,4-1.93,6.91-4.52a19.68,19.68,0,0,0-.58,1.94c-.33,1.33-.53,2.77.4,3.32,1.17.7,2.86-.74,5.73-3.34a22.68,22.68,0,0,1,4-3.18,23.75,23.75,0,0,1-.76,4.61c-1.36,6.25-3.42,15.7,2.3,19.33a7.08,7.08,0,0,0,3.85,1c9.6,0,25.51-13.12,26.28-13.76l-1-1.16C201.21,117.07,184.77,128.78,178.66,124.9Zm-2.8-36.62-.19.58a26.18,26.18,0,0,1-4.17,7.36A85.32,85.32,0,0,1,175.86,88.28Zm-57-3.36c3-1.79,7.66-1.65,8.34-.51.27.45-.25,1.8-3.89,4-3.47,2.07-6.22,2.56-8.18,1.46a4.61,4.61,0,0,1-.92-.69A14.09,14.09,0,0,1,118.91,84.92Zm5.67,38.22a5.47,5.47,0,0,1-4.91-.49c-2.39-1.32-3-2.93-2-5.07,2.15-4.39,10.26-9.41,17.63-12.93C133,112,129.45,121.17,124.58,123.14Z"/><polygon class="cls-1" points="90.7 163.49 103.76 150.43 86.15 158.93 90.7 163.49"/><path class="cls-2" d="M90.7,162.43l-4-4-1.06,1.06L90.17,164a.74.74,0,0,0,.53.22.73.73,0,0,0,.53-.22l13.06-13-1.06-1.06Z"/><circle class="cls-1" cx="111.27" cy="160.9" r="3.94"/><path class="cls-2" d="M111.27,156.21A4.69,4.69,0,1,0,116,160.9,4.7,4.7,0,0,0,111.27,156.21Zm0,7.88a3.2,3.2,0,1,1,3.19-3.19A3.19,3.19,0,0,1,111.27,164.09Z"/><circle class="cls-1" cx="125.29" cy="160.9" r="3.94"/><path class="cls-2" d="M125.29,156.21A4.69,4.69,0,1,0,130,160.9,4.7,4.7,0,0,0,125.29,156.21Zm0,7.88a3.2,3.2,0,1,1,3.19-3.19A3.19,3.19,0,0,1,125.29,164.09Z"/><path class="cls-2" d="M253.14,138c-10.9-1.39-11.43-13.83-11.45-14.35l-1.49,0c0,.14.57,14,12.39,15.75l9.16,14.77,1.27-.79-9.34-15.07A.77.77,0,0,0,253.14,138Z"/><path class="cls-2" d="M271,108.56c-2.58-9.22-6.12-21.86-14.09-24.25-2.92-.87-6-2-9-3.19-5.8-2.23-10.81-4.15-13.55-3.39-2.1.58-4.67,3.15-7.65,6.13-2.8,2.81-6,6-9.07,7.74-3.47,2-3.9,4.36-3.15,5.94,1,2.07,4.27,3.39,8.46,1.77l-.54-1.39c-3.22,1.25-5.87.46-6.57-1-.59-1.25.38-2.78,2.53-4,3.28-1.86,6.53-5.11,9.4-8,2.71-2.71,5.27-5.27,7-5.75,2.26-.63,7.28,1.3,12.61,3.35,3,1.15,6.08,2.33,9.05,3.23,7.18,2.15,10.73,14.82,13.07,23.21.3,1.07.59,2.09.86,3a97.06,97.06,0,0,0,7.72,17.78l1.3-.74a94.75,94.75,0,0,1-7.58-17.46C271.54,110.64,271.25,109.62,271,108.56Z"/><path class="cls-2" d="M276.94,64.85a2.08,2.08,0,0,0-2.9-.59L220.7,99.86l-13.94,12a1.18,1.18,0,0,0,1.26,2l16.78-7.64,53.38-35.62a2.08,2.08,0,0,0,.59-2.86Z"/><path class="cls-2" d="M285.92,124.48l-29.75,19.43.82,1.25,29.23-19.08,8.8,9.33,1.09-1-9.23-9.78A.76.76,0,0,0,285.92,124.48Z"/><path class="cls-2" d="M237.4,117.35a4.29,4.29,0,0,1-1.64-3,.75.75,0,0,0-.47-.65.74.74,0,0,0-.79.15,4.31,4.31,0,0,1-3.28,1.38,6,6,0,0,1-3.65-2.12.73.73,0,0,0-.87-.23c-1.75.72-3.13.77-4.09.12-1.86-1.26-1.84-4.7-1.84-4.73l-1.5,0c0,.18,0,4.28,2.5,6,1.3.88,3,1,5,.22a7.11,7.11,0,0,0,4.33,2.27,5.32,5.32,0,0,0,3.43-1,5.24,5.24,0,0,0,2,2.84,5.29,5.29,0,0,0,3,.84,10.69,10.69,0,0,0,3.49-.67l-.49-1.41C240.31,118.12,238.57,118.13,237.4,117.35Z"/><path class="cls-2" d="M227.69,96.89c2.42-1.18,6.64-1.25,9.08.53,1,.71,1.93,1.48,2.86,2.23,4.75,3.8,9.67,7.73,17.46,4.91l-.51-1.41c-7,2.54-11.38-1-16-4.67-.95-.76-1.92-1.54-2.92-2.27-3-2.16-7.82-2-10.61-.67-1.57.77-2.46,1.89-2.5,3.16-.06,1.71,1.38,3.41,4.28,5.07,7.63,4.36,13.5,11.59,18,22.1a16.47,16.47,0,0,0,9.6,8.82l.44-1.43a15.16,15.16,0,0,1-8.66-8c-4.59-10.83-10.67-18.29-18.59-22.82-3.12-1.78-3.55-3.1-3.53-3.73C226.06,97.82,227.09,97.18,227.69,96.89Z"/><path class="cls-1" d="M251.68,88.41a3.54,3.54,0,0,0,1.82,3.45,42.82,42.82,0,0,1,7.1-6.13c4.51-3.17,16.78-11.61,16.78-11.61s1.54-1.15-.19-3.46Z"/><path class="cls-2" d="M276.77,70.05,251.25,87.8a.75.75,0,0,0-.32.61,4.26,4.26,0,0,0,2.28,4.14.72.72,0,0,0,.29.06.75.75,0,0,0,.56-.25,43.16,43.16,0,0,1,7-6c4.45-3.13,16.66-11.52,16.8-11.62.74-.56,1.68-2.21,0-4.5A.73.73,0,0,0,276.77,70.05ZM277,73.5c-.12.09-12.33,8.48-16.79,11.61a46.4,46.4,0,0,0-6.79,5.78,3,3,0,0,1-.94-2.1L277,71.72C277.6,72.88,277.06,73.42,277,73.5Z"/><rect class="cls-3" x="98.29" y="198.55" width="130.04" height="45.2" rx="14.1"/><path class="cls-2" d="M214.22,197.81H112.39a14.86,14.86,0,0,0-14.85,14.84v17a14.86,14.86,0,0,0,14.85,14.84H214.22a14.86,14.86,0,0,0,14.85-14.84v-17A14.86,14.86,0,0,0,214.22,197.81Zm13.36,31.85A13.37,13.37,0,0,1,214.22,243H112.39A13.37,13.37,0,0,1,99,229.66v-17a13.37,13.37,0,0,1,13.35-13.35H214.22a13.37,13.37,0,0,1,13.36,13.35Z"/><path class="cls-1" d="M121.89,222.59l-1.81-4.37h-1.92l2.79,6.49,0,0a1.56,1.56,0,0,1-.43.62,1,1,0,0,1-.62.19,1.59,1.59,0,0,1-.56-.11,1.44,1.44,0,0,1-.49-.3l-.69,1.33a2.26,2.26,0,0,0,.8.43,3.43,3.43,0,0,0,1,.16,2.69,2.69,0,0,0,1.57-.46,3.37,3.37,0,0,0,1.1-1.57l2.91-6.83h-1.8Z"/><path class="cls-1" d="M131,218.55a3.74,3.74,0,0,0-1.82-.43,3.8,3.8,0,0,0-1.83.43,3.16,3.16,0,0,0-1.26,1.17,3.32,3.32,0,0,0-.45,1.72,3.16,3.16,0,0,0,1.71,2.89,3.92,3.92,0,0,0,1.83.42,3.85,3.85,0,0,0,1.82-.42,3.33,3.33,0,0,0,1.26-1.18,3.26,3.26,0,0,0,.45-1.71,3.32,3.32,0,0,0-.45-1.72A3.23,3.23,0,0,0,131,218.55Zm-.64,4.19a1.57,1.57,0,0,1-1.18.48,1.61,1.61,0,0,1-1.19-.48,1.81,1.81,0,0,1-.46-1.3,1.78,1.78,0,0,1,.46-1.3,1.58,1.58,0,0,1,1.19-.49,1.54,1.54,0,0,1,1.18.49,1.78,1.78,0,0,1,.46,1.3A1.81,1.81,0,0,1,130.34,222.74Z"/><path class="cls-1" d="M138.56,221.4a1.86,1.86,0,0,1-.41,1.3,1.41,1.41,0,0,1-1.08.44c-.87,0-1.3-.52-1.3-1.56v-3.36H133.9v3.63a2.92,2.92,0,0,0,.74,2.17,2.75,2.75,0,0,0,2,.73,2.72,2.72,0,0,0,1.11-.22,2.56,2.56,0,0,0,.89-.64v.77h1.77v-6.44h-1.87Z"/><path class="cls-1" d="M144,219.07v-.85h-1.79v6.44H144v-3a1.8,1.8,0,0,1,.46-1.35,1.69,1.69,0,0,1,1.25-.45l.42,0v-1.72a3.36,3.36,0,0,0-1.31.24A2,2,0,0,0,144,219.07Z"/><path class="cls-1" d="M153.64,221.06a11,11,0,0,0-1.29-.28,5.62,5.62,0,0,1-1-.23.42.42,0,0,1-.32-.42.5.5,0,0,1,.3-.43,1.9,1.9,0,0,1,.89-.17,3.71,3.71,0,0,1,1.86.48l.62-1.33a3.93,3.93,0,0,0-1.12-.41,6.23,6.23,0,0,0-1.36-.15,4.49,4.49,0,0,0-1.59.26,2.25,2.25,0,0,0-1,.74,1.76,1.76,0,0,0-.36,1.08,1.57,1.57,0,0,0,.38,1.13,2,2,0,0,0,.89.55,10,10,0,0,0,1.31.28,4.43,4.43,0,0,1,1,.2.4.4,0,0,1,.32.39c0,.4-.39.59-1.18.59a4.63,4.63,0,0,1-1.2-.17,4.17,4.17,0,0,1-1-.45l-.62,1.34a4.27,4.27,0,0,0,1.22.5,6.31,6.31,0,0,0,1.57.19,4.69,4.69,0,0,0,1.63-.25,2.38,2.38,0,0,0,1.05-.73,1.68,1.68,0,0,0,.36-1.06,1.62,1.62,0,0,0-.37-1.11A2,2,0,0,0,153.64,221.06Z"/><rect class="cls-1" x="156.04" y="218.22" width="1.87" height="6.44"/><path class="cls-1" d="M157,215.23a1.2,1.2,0,0,0-.84.3,1,1,0,0,0,0,1.49,1.2,1.2,0,0,0,.84.3,1.15,1.15,0,0,0,.84-.31,1,1,0,0,0,.32-.77.9.9,0,0,0-.32-.72A1.22,1.22,0,0,0,157,215.23Z"/><path class="cls-1" d="M164.51,219a2.55,2.55,0,0,0-2.13-.92,3.4,3.4,0,0,0-1.62.39,3,3,0,0,0-1.17,1.09,3.17,3.17,0,0,0-.43,1.63,3.12,3.12,0,0,0,.43,1.63,3,3,0,0,0,1.17,1.1,3.4,3.4,0,0,0,1.62.39,2.62,2.62,0,0,0,2-.81v.28a1.72,1.72,0,0,1-.46,1.32,2,2,0,0,1-1.43.44,4.18,4.18,0,0,1-1.25-.2,3.12,3.12,0,0,1-1-.53l-.74,1.34a3.82,3.82,0,0,0,1.39.66,6.81,6.81,0,0,0,1.77.23,3.81,3.81,0,0,0,2.7-.87,3.44,3.44,0,0,0,.92-2.63v-5.36h-1.78Zm-.54,3.34a1.95,1.95,0,0,1-2.44,0,1.5,1.5,0,0,1-.48-1.15,1.47,1.47,0,0,1,.48-1.14,1.91,1.91,0,0,1,2.44,0,1.46,1.46,0,0,1,.47,1.14A1.49,1.49,0,0,1,164,222.38Z"/><path class="cls-1" d="M171.94,218.12a3.18,3.18,0,0,0-1.21.22,2.43,2.43,0,0,0-.92.63v-.75H168v6.44h1.87v-3.19a1.81,1.81,0,0,1,.42-1.3,1.48,1.48,0,0,1,1.13-.43,1.24,1.24,0,0,1,1,.37,1.73,1.73,0,0,1,.33,1.15v3.4h1.87V221a2.86,2.86,0,0,0-.74-2.13A2.63,2.63,0,0,0,171.94,218.12Z"/><path class="cls-1" d="M178.89,218.12a5.91,5.91,0,0,0-1.51.2,4.07,4.07,0,0,0-1.26.58l.67,1.3a2.56,2.56,0,0,1,.84-.43,3.2,3.2,0,0,1,1-.17,1.65,1.65,0,0,1,1.12.33,1.23,1.23,0,0,1,.37.94h-1.49a3.47,3.47,0,0,0-2.09.52,1.66,1.66,0,0,0-.67,1.41,1.83,1.83,0,0,0,.28,1,2,2,0,0,0,.84.69,3,3,0,0,0,1.28.25,2.1,2.1,0,0,0,2-.89v.8H182V221a2.72,2.72,0,0,0-.81-2.15A3.37,3.37,0,0,0,178.89,218.12Zm1.24,4.5a1.19,1.19,0,0,1-.53.65,1.61,1.61,0,0,1-.85.23,1.26,1.26,0,0,1-.77-.21.67.67,0,0,1-.28-.57c0-.51.38-.76,1.15-.76h1.28Z"/><path class="cls-1" d="M186.58,223.27a.81.81,0,0,1-.59-.22.89.89,0,0,1-.21-.63V219.8h1.6v-1.44h-1.6v-1.57h-1.87v1.57h-1v1.44h1v2.64a2.25,2.25,0,0,0,.63,1.73,2.51,2.51,0,0,0,1.78.58,3.28,3.28,0,0,0,.84-.1,2.12,2.12,0,0,0,.68-.3l-.5-1.32A1.21,1.21,0,0,1,186.58,223.27Z"/><path class="cls-1" d="M193.51,221.4a1.86,1.86,0,0,1-.4,1.3,1.41,1.41,0,0,1-1.08.44c-.87,0-1.31-.52-1.31-1.56v-3.36h-1.86v3.64a2.87,2.87,0,0,0,.74,2.16,3.05,3.05,0,0,0,3.12.51,2.47,2.47,0,0,0,.89-.64v.77h1.77v-6.44h-1.87Z"/><path class="cls-1" d="M198.9,219.07v-.85h-1.78v6.44H199v-3a1.83,1.83,0,0,1,.45-1.35,1.7,1.7,0,0,1,1.26-.45l.42,0v-1.72a3.33,3.33,0,0,0-1.31.24A2.07,2.07,0,0,0,198.9,219.07Z"/><path class="cls-1" d="M206.84,218.53a3.79,3.79,0,0,0-3.47,0,3.1,3.1,0,0,0-1.23,1.18,3.31,3.31,0,0,0-.45,1.71,3.14,3.14,0,0,0,1.75,2.89,4.25,4.25,0,0,0,1.93.42,3.34,3.34,0,0,0,2.66-1l-1-1.08a2.07,2.07,0,0,1-.72.48,2.48,2.48,0,0,1-.89.15,2.1,2.1,0,0,1-1.23-.35,1.56,1.56,0,0,1-.62-.95h4.87c0-.31,0-.48,0-.5a3.52,3.52,0,0,0-.44-1.77A3,3,0,0,0,206.84,218.53Zm-3.29,2.34a1.55,1.55,0,0,1,.52-1,1.63,1.63,0,0,1,1.07-.36,1.53,1.53,0,0,1,1.05.37,1.51,1.51,0,0,1,.53,1Z"/><path class="cls-2" d="M45.49,270.36c0,1.24,0,2.22.12,3.3h0a21.28,21.28,0,0,0-1.44-2.62L41.56,267H40.41V275h1v-3.45c0-1.34,0-2.31-.07-3.33h0a22.69,22.69,0,0,0,1.49,2.69l2.56,4.1h1.06V267h-1Z"/><path class="cls-2" d="M52.31,271.48c0-1.16-.43-2.37-2.21-2.37a3.77,3.77,0,0,0-1.92.51l.24.7a2.85,2.85,0,0,1,1.52-.43,1.19,1.19,0,0,1,1.32,1.34v.12c-2.24,0-3.48.75-3.48,2.15a1.65,1.65,0,0,0,1.77,1.67,2.16,2.16,0,0,0,1.77-.86h0l.1.73h.95a9.74,9.74,0,0,1-.09-1.39Zm-1,1.61a1,1,0,0,1-.05.33,1.45,1.45,0,0,1-1.42,1,.92.92,0,0,1-1-1c0-1.12,1.3-1.32,2.45-1.3Z"/><path class="cls-2" d="M60.37,269.11a2,2,0,0,0-1.27.41,2.33,2.33,0,0,0-.66.75h0a1.71,1.71,0,0,0-1.63-1.16A2,2,0,0,0,55,270.18h0l-.05-.94H54c0,.48,0,1,0,1.57V275h1v-3.5a1.4,1.4,0,0,1,.08-.51A1.46,1.46,0,0,1,56.42,270c.8,0,1.21.66,1.21,1.6V275h1v-3.59a1.84,1.84,0,0,1,.08-.53A1.39,1.39,0,0,1,60,270c.83,0,1.25.66,1.25,1.79V275h1v-3.41C62.28,269.62,61.15,269.11,60.37,269.11Z"/><path class="cls-2" d="M66.3,269.1c-1.69,0-2.73,1.38-2.73,3.14a2.71,2.71,0,0,0,2.85,2.92,4.8,4.8,0,0,0,1.93-.37l-.19-.75a3.89,3.89,0,0,1-1.6.29,1.84,1.84,0,0,1-2-2h4a2.23,2.23,0,0,0,0-.5A2.44,2.44,0,0,0,66.3,269.1Zm-1.7,2.47a1.74,1.74,0,0,1,1.61-1.72,1.51,1.51,0,0,1,1.45,1.72Z"/><path class="cls-2" d="M70.44,273.67a.75.75,0,0,0,0,1.5h0a.75.75,0,0,0,0-1.5Z"/><path class="cls-2" d="M70.45,269.45a.7.7,0,0,0-.7.75.69.69,0,0,0,.69.74h0a.75.75,0,0,0,0-1.49Z"/><rect class="cls-2" x="71.59" y="275.93" width="5.98" height="0.6"/><rect class="cls-2" x="77.58" y="275.93" width="5.98" height="0.6"/><rect class="cls-2" x="83.56" y="275.93" width="5.98" height="0.6"/><rect class="cls-2" x="89.55" y="275.93" width="5.98" height="0.6"/><rect class="cls-2" x="95.54" y="275.93" width="5.98" height="0.6"/><rect class="cls-2" x="101.52" y="275.93" width="5.98" height="0.6"/><rect class="cls-2" x="107.51" y="275.93" width="5.98" height="0.6"/><rect class="cls-2" x="113.5" y="275.93" width="5.98" height="0.6"/><rect class="cls-2" x="119.48" y="275.93" width="5.98" height="0.6"/><rect class="cls-2" x="125.47" y="275.93" width="5.98" height="0.6"/><rect class="cls-2" x="131.46" y="275.93" width="5.98" height="0.6"/><rect class="cls-2" x="137.44" y="275.93" width="5.98" height="0.6"/><rect class="cls-2" x="143.43" y="275.93" width="5.98" height="0.6"/><rect class="cls-2" x="149.42" y="275.93" width="5.98" height="0.6"/><rect class="cls-2" x="155.4" y="275.93" width="5.98" height="0.6"/><rect class="cls-2" x="161.39" y="275.93" width="5.98" height="0.6"/><rect class="cls-2" x="167.38" y="275.93" width="5.98" height="0.6"/><rect class="cls-2" x="173.36" y="275.93" width="5.98" height="0.6"/><rect class="cls-2" x="179.35" y="275.93" width="5.98" height="0.6"/><rect class="cls-2" x="185.34" y="275.93" width="5.98" height="0.6"/><rect class="cls-2" x="191.32" y="275.93" width="5.98" height="0.6"/><rect class="cls-2" x="197.31" y="275.93" width="5.98" height="0.6"/><rect class="cls-2" x="203.3" y="275.93" width="5.98" height="0.6"/><rect class="cls-2" x="209.28" y="275.93" width="5.98" height="0.6"/><rect class="cls-2" x="215.27" y="275.93" width="5.98" height="0.6"/><rect class="cls-2" x="221.26" y="275.93" width="5.98" height="0.6"/><rect class="cls-2" x="227.24" y="275.93" width="5.98" height="0.6"/><rect class="cls-2" x="233.23" y="275.93" width="5.98" height="0.6"/><rect class="cls-2" x="239.22" y="275.93" width="5.98" height="0.6"/><rect class="cls-2" x="245.2" y="275.93" width="5.98" height="0.6"/><rect class="cls-2" x="251.19" y="275.93" width="5.98" height="0.6"/><rect class="cls-2" x="257.18" y="275.93" width="5.98" height="0.6"/><rect class="cls-2" x="263.16" y="275.93" width="5.98" height="0.6"/><rect class="cls-2" x="269.15" y="275.93" width="5.98" height="0.6"/><rect class="cls-2" x="275.14" y="275.93" width="5.98" height="0.6"/><rect class="cls-2" x="281.12" y="275.93" width="5.98" height="0.6"/><polygon class="cls-2" points="40.79 301.87 43.92 301.87 43.92 301.01 40.79 301.01 40.79 298.46 44.11 298.46 44.11 297.58 39.74 297.58 39.74 305.65 44.29 305.65 44.29 304.78 40.79 304.78 40.79 301.87"/><rect class="cls-2" x="45.09" y="302.03" width="2.96" height="0.77"/><path class="cls-2" d="M55.65,299.73a2,2,0,0,0-1.27.4,2.27,2.27,0,0,0-.66.76h0a1.7,1.7,0,0,0-1.63-1.16,2,2,0,0,0-1.83,1.06h0l-.05-.93h-.92c0,.48,0,.95,0,1.56v4.23h1v-3.5a1.48,1.48,0,0,1,.09-.51,1.43,1.43,0,0,1,1.3-1.05c.8,0,1.21.65,1.21,1.59v3.47h1v-3.59a2.26,2.26,0,0,1,.08-.53,1.39,1.39,0,0,1,1.26-.94c.84,0,1.26.65,1.26,1.78v3.28h1v-3.41C57.56,300.23,56.43,299.73,55.65,299.73Z"/><path class="cls-2" d="M63.35,302.09c0-1.16-.43-2.36-2.21-2.36a3.77,3.77,0,0,0-1.92.5l.24.7A2.85,2.85,0,0,1,61,300.5a1.19,1.19,0,0,1,1.32,1.34V302c-2.24,0-3.49.76-3.49,2.16a1.65,1.65,0,0,0,1.78,1.66,2.16,2.16,0,0,0,1.77-.86h0l.1.73h.94a9.83,9.83,0,0,1-.08-1.39Zm-1,1.61a.91.91,0,0,1,0,.33,1.46,1.46,0,0,1-1.42,1,.92.92,0,0,1-1-1c0-1.13,1.3-1.33,2.45-1.31Z"/><rect class="cls-2" x="65.04" y="299.86" width="1.05" height="5.79"/><path class="cls-2" d="M65.57,297.44a.68.68,0,0,0,0,1.35h0a.66.66,0,0,0,.68-.68A.65.65,0,0,0,65.57,297.44Z"/><rect class="cls-2" x="67.84" y="297.15" width="1.05" height="8.5"/><path class="cls-2" d="M71.1,304.28a.71.71,0,0,0-.71.76.7.7,0,0,0,.7.74h0a.75.75,0,0,0,0-1.5Z"/><path class="cls-2" d="M71.11,300.06a.75.75,0,0,0,0,1.5h0a.7.7,0,0,0,.71-.75A.69.69,0,0,0,71.11,300.06Z"/><rect class="cls-2" x="72.25" y="306.55" width="5.98" height="0.6"/><rect class="cls-2" x="78.24" y="306.55" width="5.98" height="0.6"/><rect class="cls-2" x="84.22" y="306.55" width="5.98" height="0.6"/><rect class="cls-2" x="90.21" y="306.55" width="5.98" height="0.6"/><rect class="cls-2" x="96.2" y="306.55" width="5.98" height="0.6"/><rect class="cls-2" x="102.18" y="306.55" width="5.98" height="0.6"/><rect class="cls-2" x="108.17" y="306.55" width="5.98" height="0.6"/><rect class="cls-2" x="114.16" y="306.55" width="5.98" height="0.6"/><rect class="cls-2" x="120.14" y="306.55" width="5.98" height="0.6"/><rect class="cls-2" x="126.13" y="306.55" width="5.98" height="0.6"/><rect class="cls-2" x="132.12" y="306.55" width="5.98" height="0.6"/><rect class="cls-2" x="138.1" y="306.55" width="5.98" height="0.6"/><rect class="cls-2" x="144.09" y="306.55" width="5.98" height="0.6"/><rect class="cls-2" x="150.08" y="306.55" width="5.98" height="0.6"/><rect class="cls-2" x="156.06" y="306.55" width="5.98" height="0.6"/><rect class="cls-2" x="162.05" y="306.55" width="5.98" height="0.6"/><rect class="cls-2" x="168.04" y="306.55" width="5.98" height="0.6"/><rect class="cls-2" x="174.02" y="306.55" width="5.98" height="0.6"/><rect class="cls-2" x="180.01" y="306.55" width="5.98" height="0.6"/><rect class="cls-2" x="186" y="306.55" width="5.98" height="0.6"/><rect class="cls-2" x="191.98" y="306.55" width="5.98" height="0.6"/><rect class="cls-2" x="197.97" y="306.55" width="5.98" height="0.6"/><rect class="cls-2" x="203.96" y="306.55" width="5.98" height="0.6"/><rect class="cls-2" x="209.94" y="306.55" width="5.98" height="0.6"/><rect class="cls-2" x="215.93" y="306.55" width="5.98" height="0.6"/><rect class="cls-2" x="221.92" y="306.55" width="5.98" height="0.6"/><rect class="cls-2" x="227.9" y="306.55" width="5.98" height="0.6"/><rect class="cls-2" x="233.89" y="306.55" width="5.98" height="0.6"/><rect class="cls-2" x="239.88" y="306.55" width="5.98" height="0.6"/><rect class="cls-2" x="245.86" y="306.55" width="5.98" height="0.6"/><rect class="cls-2" x="251.85" y="306.55" width="5.98" height="0.6"/><rect class="cls-2" x="257.84" y="306.55" width="5.98" height="0.6"/><rect class="cls-2" x="263.82" y="306.55" width="5.98" height="0.6"/><rect class="cls-2" x="269.81" y="306.55" width="5.98" height="0.6"/><rect class="cls-2" x="275.8" y="306.55" width="5.98" height="0.6"/><rect class="cls-2" x="281.78" y="306.55" width="5.98" height="0.6"/><path class="cls-2" d="M307.44.75H19.17A18.42,18.42,0,0,0,.75,19.17V35H325.86V19.17A18.42,18.42,0,0,0,307.44.75Z"/><path class="cls-2" d="M307.44,0H19.17A19.19,19.19,0,0,0,0,19.17V35a.76.76,0,0,0,.75.75H325.86a.75.75,0,0,0,.75-.75V19.17A19.19,19.19,0,0,0,307.44,0Zm17.68,34.2H1.5v-15A17.68,17.68,0,0,1,19.17,1.5H307.44a17.69,17.69,0,0,1,17.68,17.67Z"/><rect class="cls-1" x="280.56" y="18.71" width="1" height="9.46" transform="translate(65.75 205.6) rotate(-45)"/><rect class="cls-1" x="276.33" y="22.94" width="9.46" height="1" transform="translate(65.75 205.6) rotate(-45)"/><path class="cls-1" d="M294.44,19.15a4.32,4.32,0,1,0,4.32,4.32A4.33,4.33,0,0,0,294.44,19.15Zm0,7.65a3.33,3.33,0,1,1,3.32-3.33A3.33,3.33,0,0,1,294.44,26.8Z"/><rect class="cls-1" x="301.79" y="26.8" width="6.79" height="1"/><path class="cls-1" d="M426.09,339H113.68v66.69H462.82v-30A36.72,36.72,0,0,0,426.09,339Z"/><path class="cls-2" d="M426.09,338.23H113.68a.75.75,0,0,0-.75.75v66.69a.74.74,0,0,0,.75.75H462.82a.75.75,0,0,0,.75-.75v-30A37.52,37.52,0,0,0,426.09,338.23Zm36,66.69H114.43V339.73H426.09a36,36,0,0,1,36,36Z"/><path class="cls-2" d="M153.4,378.7A39.72,39.72,0,0,0,113.68,339h-2.5A39.72,39.72,0,0,0,71.46,378.7c0,14.82-12,27.73-26.84,27.73L180.69,406A27.29,27.29,0,0,1,153.4,378.7Z"/><path class="cls-2" d="M180.69,405.24a26.56,26.56,0,0,1-26.54-26.54,40.52,40.52,0,0,0-40.47-40.47h-2.5A40.52,40.52,0,0,0,70.71,378.7c0,14.53-11.87,26.89-25.93,27h-.16a.75.75,0,0,0,0,1.49h0l136.06-.43a.75.75,0,1,0,0-1.5Zm-127.34.41A28.93,28.93,0,0,0,72.21,378.7a39,39,0,0,1,39-39h2.5a39,39,0,0,1,39,39,28.09,28.09,0,0,0,19.08,26.57Z"/><path class="cls-2" d="M217,366a40,40,0,0,1-39.88,40H496.39a40,40,0,0,0,40-40v-2.16H217Z"/><path class="cls-2" d="M536.39,363.08H217a.74.74,0,0,0-.75.75V366a39.31,39.31,0,0,1-39.13,39.25.75.75,0,0,0,0,1.5H496.39A40.79,40.79,0,0,0,537.13,366v-2.16A.74.74,0,0,0,536.39,363.08Zm-.75,2.91a39.29,39.29,0,0,1-39.25,39.25H187.94A40.85,40.85,0,0,0,217.74,366v-1.42h317.9Z"/></g></g></svg>