<?xml version="1.0" encoding="UTF-8"?>
<svg xmlns="http://www.w3.org/2000/svg" xmlns:xlink="http://www.w3.org/1999/xlink" width="150px" height="52px" viewBox="0 0 150 52" version="1.1">
<defs>
<clipPath id="clip1">
  <path d="M 10 7 L 45 7 L 45 43 L 10 43 Z M 10 7 "/>
</clipPath>
<clipPath id="clip2">
  <path d="M 34.4375 7.261719 C 34.417969 7.53125 34.460938 7.796875 34.566406 8.042969 C 33.40625 8.171875 32.375 8.171875 31.210938 8.300781 C 31.234375 8.035156 31.1875 7.769531 31.082031 7.523438 C 30.566406 7.523438 30.050781 7.652344 29.664062 7.652344 C 29.644531 7.917969 29.6875 8.183594 29.792969 8.429688 C 28.632812 8.558594 27.472656 8.558594 26.3125 8.691406 C 26.332031 8.421875 26.289062 8.15625 26.183594 7.910156 C 25.667969 7.910156 25.152344 8.042969 24.632812 8.042969 C 24.613281 8.308594 24.660156 8.574219 24.761719 8.820312 C 23.601562 8.949219 22.3125 8.949219 21.152344 9.078125 C 21.171875 8.8125 21.128906 8.546875 21.023438 8.300781 C 20.507812 8.300781 19.992188 8.429688 19.476562 8.429688 C 19.457031 8.695312 19.5 8.964844 19.605469 9.207031 C 16.636719 9.46875 13.671875 9.597656 10.574219 9.855469 C 10.964844 13.359375 11.222656 16.859375 11.609375 20.359375 C 11.996094 23.859375 12.382812 27.363281 12.640625 30.863281 C 12.898438 34.363281 13.414062 37.863281 13.671875 41.367188 L 13.800781 42.53125 C 15.285156 42.421875 16.753906 42.160156 18.1875 41.753906 L 17.796875 38.125 C 17.539062 35.140625 17.152344 32.160156 16.894531 29.304688 C 16.636719 26.453125 16.25 23.472656 15.992188 20.488281 C 15.734375 17.507812 15.347656 14.65625 15.089844 11.671875 L 19.734375 11.28125 C 19.710938 11.589844 19.757812 11.902344 19.863281 12.191406 C 20.378906 12.191406 20.894531 12.0625 21.410156 12.0625 C 21.410156 11.800781 21.28125 11.414062 21.28125 11.152344 C 22.441406 11.023438 23.730469 11.023438 24.890625 10.894531 C 24.871094 11.203125 24.914062 11.511719 25.023438 11.800781 C 25.539062 11.800781 26.054688 11.671875 26.570312 11.671875 C 26.589844 11.363281 26.546875 11.054688 26.441406 10.765625 C 27.601562 10.632812 28.761719 10.632812 29.921875 10.503906 C 29.902344 10.8125 29.945312 11.121094 30.050781 11.414062 C 30.566406 11.414062 31.082031 11.28125 31.46875 11.28125 C 31.492188 10.976562 31.445312 10.664062 31.339844 10.375 C 32.503906 10.246094 33.664062 10.246094 34.695312 10.117188 C 34.683594 10.425781 34.726562 10.730469 34.824219 11.023438 C 35.339844 11.023438 35.726562 10.894531 36.242188 10.894531 C 36.253906 10.585938 36.210938 10.277344 36.113281 9.988281 C 37.402344 9.855469 38.820312 9.726562 40.113281 9.726562 C 40.371094 12.449219 40.628906 15.171875 41.015625 17.894531 C 41.273438 19.710938 41.402344 21.65625 41.660156 23.472656 C 42.867188 21.625 43.902344 19.671875 44.753906 17.636719 L 44.753906 16.988281 C 44.367188 13.875 44.109375 10.765625 43.722656 7.652344 C 41.273438 7.78125 38.691406 8.042969 36.113281 8.171875 C 36.132812 7.90625 36.089844 7.636719 35.984375 7.394531 C 35.476562 7.285156 34.957031 7.242188 34.4375 7.261719 "/>
</clipPath>
<clipPath id="clip3">
  <path d="M 1 0 L 53 0 L 53 52 L 1 52 Z M 1 0 "/>
</clipPath>
<clipPath id="clip4">
  <path d="M 38.433594 36.179688 C 39.855469 34.753906 41.273438 33.324219 42.5625 31.898438 L 42.691406 33.714844 C 42.949219 36.4375 43.207031 39.160156 43.59375 41.882812 C 41.660156 42.273438 39.726562 42.660156 37.660156 43.050781 C 35.597656 43.441406 33.664062 43.828125 31.597656 44.21875 C 29.535156 44.605469 27.34375 44.996094 25.152344 45.515625 L 25.023438 45.515625 C 29.960938 43.140625 34.488281 39.988281 38.433594 36.179688 M 26.441406 5.058594 C 34.179688 1.039062 41.660156 0.390625 45.269531 4.28125 C 48.496094 7.652344 48.109375 13.746094 44.882812 20.359375 C 44.753906 20.488281 44.753906 20.617188 44.625 20.878906 C 44.496094 21.007812 44.496094 21.136719 44.367188 21.398438 C 44.238281 21.527344 44.238281 21.65625 44.109375 21.914062 C 43.980469 22.046875 43.980469 22.175781 43.851562 22.433594 C 43.722656 22.5625 43.722656 22.695312 43.59375 22.953125 C 43.464844 23.082031 43.464844 23.210938 43.335938 23.472656 L 43.078125 23.472656 L 42.820312 23.859375 L 42.820312 23.988281 C 42.691406 24.121094 42.5625 24.25 42.5625 24.378906 L 42.304688 24.769531 L 42.175781 24.898438 C 42.015625 25.046875 41.886719 25.222656 41.789062 25.417969 C 39.851562 28.136719 37.648438 30.65625 35.210938 32.9375 C 30.335938 37.679688 24.414062 41.1875 17.929688 43.179688 C 17.796875 43.179688 17.667969 43.308594 17.539062 43.308594 C 17.410156 43.308594 17.28125 43.441406 17.023438 43.441406 C 16.882812 43.421875 16.742188 43.46875 16.636719 43.570312 C 16.457031 43.5625 16.277344 43.609375 16.121094 43.699219 C 11.867188 44.476562 8.253906 43.699219 5.933594 41.367188 C 2.191406 37.476562 3.222656 30.214844 7.738281 22.695312 C 1.546875 31.898438 0 41.234375 4.515625 45.902344 C 6.835938 48.238281 10.316406 49.273438 14.445312 48.886719 L 14.703125 51.867188 C 17.667969 51.21875 20.636719 50.699219 23.472656 50.054688 C 26.3125 49.40625 29.277344 48.886719 31.984375 48.238281 C 34.695312 47.589844 37.273438 47.070312 39.855469 46.550781 C 42.433594 46.03125 45.011719 45.515625 47.464844 44.996094 C 47.078125 41.882812 46.820312 38.773438 46.433594 35.660156 L 45.65625 28.140625 C 52.621094 18.414062 54.6875 8.429688 49.914062 3.375 C 47.980469 1.300781 45.140625 0.390625 41.660156 0.390625 C 37.402344 0.132812 31.984375 1.816406 26.441406 5.058594 "/>
</clipPath>
<clipPath id="clip5">
  <path d="M 22 13 L 37 13 L 37 32 L 22 32 Z M 22 13 "/>
</clipPath>
<clipPath id="clip6">
  <path d="M 28.761719 26.972656 L 28.632812 28.011719 C 28.375 28.011719 28.246094 28.269531 28.246094 28.527344 C 28.25 28.730469 28.34375 28.921875 28.503906 29.046875 L 28.375 29.824219 L 27.988281 29.824219 L 27.601562 28.917969 C 27.601562 28.789062 27.472656 28.789062 27.34375 28.789062 C 27.214844 28.789062 27.214844 28.917969 27.214844 29.046875 L 27.601562 29.953125 C 27.359375 30.078125 27.210938 30.332031 27.214844 30.601562 L 25.539062 30.863281 C 25.464844 30.863281 25.410156 30.921875 25.410156 30.992188 C 25.410156 31.0625 25.464844 31.121094 25.539062 31.121094 L 27.214844 30.863281 C 27.378906 31.285156 27.796875 31.546875 28.246094 31.511719 C 28.703125 31.464844 29.042969 31.0625 29.019531 30.601562 L 32.632812 30.085938 C 32.703125 30.085938 32.761719 30.027344 32.761719 29.953125 C 32.761719 29.882812 32.703125 29.824219 32.632812 29.824219 L 29.019531 30.34375 C 28.921875 30.148438 28.792969 29.972656 28.632812 29.824219 L 28.890625 29.046875 L 29.019531 29.046875 C 29.171875 29.148438 29.355469 29.195312 29.535156 29.175781 L 30.695312 29.046875 C 30.769531 29.046875 30.824219 28.988281 30.824219 28.917969 C 30.824219 28.847656 30.769531 28.789062 30.695312 28.789062 L 29.535156 28.917969 L 29.40625 28.917969 C 29.503906 28.8125 29.554688 28.671875 29.535156 28.527344 C 29.546875 28.421875 29.511719 28.316406 29.4375 28.238281 C 29.359375 28.164062 29.253906 28.125 29.148438 28.140625 L 29.277344 27.101562 C 29.277344 26.972656 29.277344 26.972656 29.148438 26.972656 C 28.890625 26.84375 28.890625 26.84375 28.761719 26.972656 M 26.828125 24.898438 L 26.054688 25.675781 C 25.917969 25.566406 25.746094 25.515625 25.574219 25.542969 C 25.402344 25.566406 25.25 25.660156 25.152344 25.804688 C 25.023438 26.046875 25.023438 26.339844 25.152344 26.582031 L 24.761719 26.972656 C 24.632812 26.972656 24.632812 27.101562 24.761719 27.230469 C 24.890625 27.363281 24.890625 27.363281 25.023438 27.230469 L 25.410156 26.84375 C 25.605469 26.972656 25.859375 26.972656 26.054688 26.84375 L 26.570312 27.621094 C 26.441406 27.75 26.441406 27.75 26.441406 27.878906 C 26.441406 28.011719 26.441406 28.140625 26.570312 28.140625 L 24.761719 30.085938 C 24.617188 29.953125 24.394531 29.953125 24.246094 30.085938 C 24.117188 29.953125 24.117188 29.824219 24.117188 29.566406 C 24.117188 29.496094 24.0625 29.4375 23.988281 29.4375 C 23.917969 29.4375 23.859375 29.496094 23.859375 29.566406 C 23.839844 29.789062 23.886719 30.015625 23.988281 30.214844 C 23.859375 30.457031 23.859375 30.75 23.988281 30.992188 C 24.121094 31.160156 24.332031 31.246094 24.542969 31.222656 C 24.753906 31.195312 24.933594 31.058594 25.023438 30.863281 C 25.152344 30.667969 25.152344 30.410156 25.023438 30.214844 L 26.828125 28.269531 C 26.957031 28.398438 27.214844 28.269531 27.34375 28.140625 C 27.460938 28.046875 27.53125 27.902344 27.53125 27.75 C 27.53125 27.597656 27.460938 27.453125 27.34375 27.363281 C 27.191406 27.257812 27.007812 27.210938 26.828125 27.230469 L 26.3125 26.453125 C 26.539062 26.261719 26.59375 25.933594 26.441406 25.675781 L 27.214844 24.898438 C 27.34375 24.898438 27.34375 24.769531 27.214844 24.636719 C 27.085938 24.898438 26.957031 24.898438 26.828125 24.898438 M 22.957031 23.730469 C 22.886719 23.730469 22.828125 23.789062 22.828125 23.859375 L 23.34375 27.230469 C 22.914062 27.382812 22.644531 27.8125 22.699219 28.269531 C 22.738281 28.535156 22.886719 28.769531 23.109375 28.917969 C 23.328125 29.066406 23.601562 29.113281 23.859375 29.046875 C 24.375 29.046875 24.632812 28.65625 24.632812 28.140625 L 25.796875 28.011719 C 25.867188 28.011719 25.925781 27.953125 25.925781 27.878906 C 25.925781 27.808594 25.867188 27.75 25.796875 27.75 L 24.632812 27.878906 C 24.507812 27.46875 24.15625 27.164062 23.730469 27.101562 L 23.214844 23.730469 C 23.085938 23.859375 23.085938 23.730469 22.957031 23.730469 M 35.855469 22.175781 C 35.785156 22.175781 35.726562 22.234375 35.726562 22.304688 L 35.984375 24.25 C 35.742188 24.375 35.59375 24.625 35.597656 24.898438 C 35.636719 25.21875 35.921875 25.445312 36.242188 25.417969 L 36.628906 28.011719 C 36.628906 28.082031 36.6875 28.140625 36.757812 28.140625 C 36.828125 28.140625 36.886719 28.082031 36.886719 28.011719 L 36.5 25.417969 C 36.742188 25.292969 36.890625 25.039062 36.886719 24.769531 C 36.847656 24.449219 36.5625 24.21875 36.242188 24.25 L 35.984375 22.304688 C 36.113281 22.175781 35.984375 22.175781 35.855469 22.175781 M 31.597656 19.839844 C 31.160156 19.921875 30.835938 20.300781 30.824219 20.75 L 27.601562 21.136719 C 27.476562 20.894531 27.226562 20.742188 26.957031 20.75 C 26.679688 20.765625 26.457031 20.988281 26.441406 21.265625 L 23.988281 21.65625 L 23.859375 21.65625 C 23.601562 21.398438 23.34375 21.265625 23.085938 21.398438 C 22.570312 21.527344 22.183594 21.914062 22.3125 22.433594 C 22.347656 22.726562 22.515625 22.988281 22.769531 23.140625 C 23.019531 23.292969 23.328125 23.316406 23.601562 23.210938 L 24.890625 25.285156 C 24.890625 25.417969 25.023438 25.417969 25.152344 25.285156 C 25.28125 25.15625 25.28125 25.15625 25.152344 25.027344 L 23.859375 22.953125 C 24.136719 22.683594 24.238281 22.28125 24.117188 21.914062 L 26.570312 21.527344 C 26.667969 21.734375 26.859375 21.878906 27.085938 21.914062 L 27.34375 22.695312 C 27.34375 22.824219 27.472656 22.824219 27.601562 22.824219 C 27.730469 22.824219 27.730469 22.695312 27.730469 22.5625 L 27.472656 21.785156 C 27.601562 21.65625 27.730469 21.527344 27.730469 21.398438 L 30.953125 20.878906 C 31.101562 21.152344 31.324219 21.378906 31.597656 21.527344 L 31.46875 22.5625 C 31.46875 22.695312 31.46875 22.695312 31.597656 22.695312 C 31.726562 22.695312 31.726562 22.695312 31.726562 22.5625 L 31.855469 21.785156 C 32.121094 21.785156 32.367188 21.667969 32.539062 21.472656 C 32.714844 21.273438 32.792969 21.011719 32.761719 20.75 C 32.679688 20.308594 32.304688 19.980469 31.855469 19.96875 C 31.726562 19.839844 31.726562 19.839844 31.597656 19.839844 M 35.210938 19.582031 C 34.824219 19.582031 34.566406 19.839844 34.308594 20.230469 L 33.148438 20.359375 C 33.074219 20.359375 33.019531 20.417969 33.019531 20.488281 C 33.019531 20.5625 33.074219 20.617188 33.148438 20.617188 L 34.050781 20.488281 C 34.046875 20.964844 34.292969 21.40625 34.695312 21.65625 L 33.664062 25.675781 C 33.3125 25.632812 32.984375 25.851562 32.890625 26.195312 L 30.953125 25.675781 C 30.953125 25.546875 30.953125 25.417969 30.824219 25.417969 C 30.988281 25.238281 31.078125 25.007812 31.082031 24.769531 C 31.355469 24.773438 31.605469 24.621094 31.726562 24.378906 C 31.855469 24.136719 31.855469 23.84375 31.726562 23.601562 L 33.792969 21.914062 C 33.921875 21.914062 33.921875 21.785156 33.792969 21.65625 C 33.664062 21.527344 33.664062 21.527344 33.535156 21.65625 L 31.984375 23.34375 C 31.882812 23.242188 31.742188 23.195312 31.597656 23.210938 L 31.210938 23.210938 L 30.824219 22.824219 L 30.050781 22.433594 L 30.050781 22.304688 L 30.695312 21.785156 C 30.824219 21.785156 30.824219 21.65625 30.695312 21.527344 C 30.566406 21.398438 30.566406 21.398438 30.4375 21.527344 L 29.792969 22.046875 C 29.597656 21.914062 29.34375 21.914062 29.148438 22.046875 C 28.941406 22.144531 28.796875 22.335938 28.761719 22.5625 C 28.632812 22.695312 28.503906 22.695312 28.375 22.824219 L 27.988281 23.210938 L 27.601562 23.210938 C 27.472656 23.210938 27.34375 23.34375 27.214844 23.472656 L 24.632812 22.5625 C 24.503906 22.5625 24.503906 22.5625 24.375 22.695312 C 24.246094 22.824219 24.375 22.824219 24.503906 22.953125 L 27.085938 23.859375 C 27.085938 24.121094 27.085938 24.25 27.214844 24.378906 C 27.339844 24.539062 27.527344 24.632812 27.730469 24.636719 C 27.808594 24.878906 27.941406 25.101562 28.117188 25.285156 L 28.503906 25.675781 L 28.503906 25.933594 L 27.601562 27.101562 C 27.53125 27.171875 27.53125 27.289062 27.601562 27.363281 C 27.671875 27.433594 27.789062 27.433594 27.859375 27.363281 L 28.890625 26.324219 L 29.148438 26.324219 C 29.40625 26.324219 29.664062 26.066406 29.535156 25.804688 C 29.40625 25.546875 29.277344 25.285156 29.019531 25.417969 C 28.761719 25.546875 28.761719 25.417969 28.761719 25.546875 C 28.632812 25.417969 28.503906 25.417969 28.503906 25.285156 C 28.503906 25.15625 28.375 25.027344 28.246094 24.898438 C 28.601562 24.746094 28.808594 24.375 28.761719 23.988281 C 28.761719 23.730469 28.632812 23.601562 28.375 23.472656 L 28.632812 23.210938 L 28.890625 22.953125 C 29.066406 23.117188 29.296875 23.207031 29.535156 23.210938 C 29.792969 23.210938 29.921875 22.953125 30.050781 22.824219 C 30.253906 22.828125 30.441406 22.921875 30.566406 23.082031 C 30.695312 23.210938 30.824219 23.34375 30.824219 23.472656 C 30.664062 23.648438 30.570312 23.878906 30.566406 24.121094 C 30.617188 24.410156 30.8125 24.65625 31.082031 24.769531 C 31.082031 24.898438 30.953125 25.027344 30.824219 25.15625 C 30.628906 25.027344 30.375 25.027344 30.179688 25.15625 C 30.039062 25.257812 29.949219 25.410156 29.921875 25.582031 C 29.898438 25.753906 29.945312 25.929688 30.050781 26.066406 C 30.175781 26.226562 30.367188 26.320312 30.566406 26.324219 L 31.082031 27.878906 C 30.988281 27.960938 30.9375 28.078125 30.9375 28.203125 C 30.9375 28.328125 30.988281 28.445312 31.082031 28.527344 C 31.25 28.707031 31.507812 28.757812 31.726562 28.65625 L 33.277344 29.824219 C 33.175781 30.046875 33.230469 30.308594 33.40625 30.472656 C 33.597656 30.703125 33.925781 30.757812 34.179688 30.601562 C 34.308594 30.472656 34.4375 30.34375 34.4375 30.214844 L 35.597656 30.085938 C 35.855469 30.085938 35.984375 29.953125 36.242188 29.824219 C 36.371094 29.953125 36.628906 29.824219 36.757812 29.695312 C 36.882812 29.605469 36.957031 29.460938 36.957031 29.304688 C 36.957031 29.152344 36.882812 29.007812 36.757812 28.917969 C 36.605469 28.8125 36.425781 28.769531 36.242188 28.789062 L 34.953125 27.492188 L 34.695312 27.492188 L 34.695312 27.75 L 35.984375 28.917969 C 35.855469 29.046875 35.855469 29.175781 35.984375 29.4375 C 35.855469 29.566406 35.726562 29.566406 35.46875 29.566406 L 34.308594 29.695312 L 33.921875 29.304688 C 33.664062 29.304688 33.535156 29.304688 33.40625 29.4375 L 31.855469 28.269531 C 31.878906 28.125 31.832031 27.980469 31.730469 27.878906 C 31.628906 27.773438 31.484375 27.726562 31.339844 27.75 L 30.824219 26.195312 C 30.953125 26.195312 30.953125 26.066406 30.953125 25.933594 L 32.890625 26.453125 C 32.871094 26.597656 32.917969 26.738281 33.019531 26.84375 L 32.113281 27.492188 C 31.984375 27.492188 31.984375 27.621094 32.113281 27.75 C 32.246094 27.878906 32.246094 27.878906 32.375 27.75 L 33.277344 27.101562 C 33.40625 27.230469 33.535156 27.230469 33.664062 27.363281 L 33.664062 28.65625 C 33.664062 28.730469 33.71875 28.789062 33.792969 28.789062 C 33.863281 28.789062 33.921875 28.730469 33.921875 28.65625 L 33.921875 27.363281 C 34.210938 27.3125 34.453125 27.117188 34.566406 26.84375 C 34.695312 26.648438 34.695312 26.390625 34.566406 26.195312 L 35.210938 25.675781 C 35.339844 25.675781 35.339844 25.546875 35.210938 25.417969 C 35.082031 25.285156 35.082031 25.285156 34.953125 25.417969 L 34.4375 25.933594 C 34.367188 25.863281 34.277344 25.820312 34.179688 25.804688 L 35.210938 21.785156 C 35.550781 21.824219 35.890625 21.691406 36.121094 21.4375 C 36.351562 21.179688 36.445312 20.828125 36.371094 20.488281 C 36.28125 19.980469 35.851562 19.605469 35.339844 19.582031 L 35.210938 19.582031 M 28.117188 13.746094 C 25.59375 14.109375 23.785156 16.378906 23.988281 18.933594 L 24.117188 20.230469 C 24.117188 20.488281 24.375 20.617188 24.632812 20.617188 C 24.890625 20.617188 25.023438 20.359375 25.023438 20.101562 L 24.890625 18.804688 C 24.789062 17.804688 25.082031 16.808594 25.710938 16.027344 C 26.339844 15.25 27.253906 14.753906 28.246094 14.65625 C 29.894531 14.335938 31.546875 15.191406 32.246094 16.730469 C 32.246094 16.859375 32.503906 16.988281 32.632812 16.988281 C 32.761719 16.988281 33.019531 16.988281 33.019531 16.730469 C 33.148438 16.582031 33.148438 16.359375 33.019531 16.210938 C 32.25 14.546875 30.585938 13.484375 28.761719 13.488281 C 28.632812 13.746094 28.375 13.746094 28.117188 13.746094 "/>
</clipPath>
</defs>
<g id="surface1">
<path style=" stroke:none;fill-rule:nonzero;fill:rgb(100%,100%,100%);fill-opacity:1;" d="M 59.457031 14.65625 C 62.167969 14.65625 63.585938 16.210938 63.585938 18.15625 C 63.621094 19.679688 62.601562 21.023438 61.136719 21.398438 L 63.585938 25.675781 L 60.230469 25.675781 L 58.039062 21.65625 L 57.652344 21.65625 L 57.652344 25.675781 L 54.558594 25.675781 L 54.558594 14.65625 Z M 59.199219 17.117188 L 57.652344 17.117188 L 57.652344 19.453125 L 59.199219 19.453125 C 59.972656 19.453125 60.488281 19.0625 60.488281 18.285156 C 60.421875 17.621094 59.863281 17.113281 59.199219 17.117188 "/>
<path style=" stroke:none;fill-rule:nonzero;fill:rgb(100%,100%,100%);fill-opacity:1;" d="M 71.839844 17.117188 L 67.972656 17.117188 L 67.972656 18.804688 L 71.453125 18.804688 L 71.453125 21.136719 L 67.972656 21.136719 L 67.972656 23.210938 L 71.839844 23.210938 L 71.839844 25.675781 L 64.875 25.675781 L 64.875 14.65625 L 71.839844 14.65625 Z M 71.839844 17.117188 "/>
<path style=" stroke:none;fill-rule:nonzero;fill:rgb(100%,100%,100%);fill-opacity:1;" d="M 76.484375 14.65625 L 76.484375 23.210938 L 79.835938 23.210938 L 79.835938 25.675781 L 73.386719 25.675781 L 73.386719 14.65625 Z M 76.484375 14.65625 "/>
<path style=" stroke:none;fill-rule:nonzero;fill:rgb(100%,100%,100%);fill-opacity:1;" d="M 80.996094 14.65625 L 84.09375 14.65625 L 84.09375 25.675781 L 80.996094 25.675781 Z M 80.996094 14.65625 "/>
<path style=" stroke:none;fill-rule:nonzero;fill:rgb(100%,100%,100%);fill-opacity:1;" d="M 92.863281 17.117188 L 88.863281 17.117188 L 88.863281 18.804688 L 92.347656 18.804688 L 92.347656 21.136719 L 88.863281 21.136719 L 88.863281 23.210938 L 92.863281 23.210938 L 92.863281 25.675781 L 85.769531 25.675781 L 85.769531 14.65625 L 92.863281 14.65625 Z M 92.863281 17.117188 "/>
<path style=" stroke:none;fill-rule:nonzero;fill:rgb(100%,100%,100%);fill-opacity:1;" d="M 94.28125 14.65625 L 101.761719 14.65625 L 101.761719 16.988281 L 97.378906 16.988281 L 97.378906 18.933594 L 100.601562 18.933594 L 100.601562 21.265625 L 97.378906 21.265625 L 97.378906 25.675781 L 94.28125 25.675781 Z M 94.28125 14.65625 "/>
<path style=" stroke:none;fill-rule:nonzero;fill:rgb(100%,100%,100%);fill-opacity:1;" d="M 62.039062 28.789062 L 65.261719 28.789062 L 61.523438 39.808594 L 57.652344 39.808594 L 53.785156 28.789062 L 57.007812 28.789062 L 59.585938 36.699219 Z M 62.039062 28.789062 "/>
<path style=" stroke:none;fill-rule:nonzero;fill:rgb(100%,100%,100%);fill-opacity:1;" d="M 73.128906 37.992188 L 69.261719 37.992188 L 68.617188 39.808594 L 65.390625 39.808594 L 69.390625 28.789062 L 72.871094 28.789062 L 76.871094 39.808594 L 73.644531 39.808594 Z M 71.195312 32.03125 L 70.035156 35.53125 L 72.355469 35.53125 Z M 71.195312 32.03125 "/>
<path style=" stroke:none;fill-rule:nonzero;fill:rgb(100%,100%,100%);fill-opacity:1;" d="M 80.996094 28.789062 L 80.996094 37.476562 L 84.351562 37.476562 L 84.351562 39.808594 L 77.902344 39.808594 L 77.902344 28.789062 Z M 80.996094 28.789062 "/>
<path style=" stroke:none;fill-rule:nonzero;fill:rgb(100%,100%,100%);fill-opacity:1;" d="M 85.640625 28.789062 L 88.734375 28.789062 L 88.734375 39.808594 L 85.640625 39.808594 Z M 85.640625 28.789062 "/>
<path style=" stroke:none;fill-rule:nonzero;fill:rgb(100%,100%,100%);fill-opacity:1;" d="M 100.472656 34.234375 C 100.542969 35.753906 99.960938 37.234375 98.878906 38.300781 C 97.792969 39.367188 96.308594 39.914062 94.796875 39.808594 L 90.414062 39.808594 L 90.414062 28.789062 L 94.667969 28.789062 C 98.152344 28.789062 100.472656 30.992188 100.472656 34.234375 M 94.410156 37.085938 C 95.1875 37.167969 95.957031 36.894531 96.507812 36.339844 C 97.058594 35.789062 97.332031 35.011719 97.25 34.234375 C 97.332031 33.453125 97.058594 32.679688 96.507812 32.125 C 95.957031 31.570312 95.1875 31.296875 94.410156 31.382812 L 93.378906 31.382812 L 93.378906 37.085938 Z M 94.410156 37.085938 "/>
<path style=" stroke:none;fill-rule:nonzero;fill:rgb(100%,100%,100%);fill-opacity:1;" d="M 108.726562 37.992188 L 104.859375 37.992188 L 104.214844 39.808594 L 100.988281 39.808594 L 104.988281 28.789062 L 108.46875 28.789062 L 112.46875 39.808594 L 109.242188 39.808594 Z M 106.792969 32.03125 L 105.632812 35.53125 L 107.953125 35.53125 Z M 106.792969 32.03125 "/>
<path style=" stroke:none;fill-rule:nonzero;fill:rgb(100%,100%,100%);fill-opacity:1;" d="M 112.855469 28.789062 L 121.753906 28.789062 L 121.753906 31.25 L 118.789062 31.25 L 118.789062 39.808594 L 115.820312 39.808594 L 115.820312 31.25 L 112.855469 31.25 Z M 112.855469 28.789062 "/>
<path style=" stroke:none;fill-rule:nonzero;fill:rgb(100%,100%,100%);fill-opacity:1;" d="M 122.914062 28.789062 L 126.011719 28.789062 L 126.011719 39.808594 L 122.914062 39.808594 Z M 122.914062 28.789062 "/>
<path style=" stroke:none;fill-rule:nonzero;fill:rgb(100%,100%,100%);fill-opacity:1;" d="M 132.976562 39.9375 C 131.460938 39.972656 130 39.378906 128.925781 38.304688 C 127.855469 37.226562 127.269531 35.757812 127.300781 34.234375 C 127.300781 31.117188 129.8125 28.59375 132.910156 28.59375 C 136.007812 28.59375 138.519531 31.117188 138.519531 34.234375 C 138.558594 35.734375 137.992188 37.191406 136.945312 38.265625 C 135.902344 39.339844 134.46875 39.941406 132.976562 39.9375 M 132.976562 37.085938 C 133.707031 37.089844 134.40625 36.78125 134.898438 36.238281 C 135.386719 35.695312 135.628906 34.964844 135.554688 34.234375 C 135.554688 32.800781 134.398438 31.640625 132.976562 31.640625 C 131.550781 31.640625 130.394531 32.800781 130.394531 34.234375 C 130.324219 34.964844 130.5625 35.695312 131.054688 36.238281 C 131.546875 36.78125 132.242188 37.089844 132.976562 37.085938 "/>
<path style=" stroke:none;fill-rule:nonzero;fill:rgb(100%,100%,100%);fill-opacity:1;" d="M 150 28.789062 L 150 39.808594 L 147.035156 39.808594 L 142.90625 33.585938 L 142.90625 39.808594 L 139.941406 39.808594 L 139.941406 28.789062 L 142.90625 28.789062 L 147.035156 35.011719 L 147.035156 28.789062 Z M 150 28.789062 "/>
<path style=" stroke:none;fill-rule:nonzero;fill:rgb(100%,100%,100%);fill-opacity:1;" d="M 34.4375 7.261719 C 34.417969 7.53125 34.460938 7.796875 34.566406 8.042969 C 33.40625 8.171875 32.375 8.171875 31.210938 8.300781 C 31.234375 8.035156 31.1875 7.769531 31.082031 7.523438 C 30.566406 7.523438 30.050781 7.652344 29.664062 7.652344 C 29.644531 7.917969 29.6875 8.183594 29.792969 8.429688 C 28.632812 8.558594 27.472656 8.558594 26.3125 8.691406 C 26.332031 8.421875 26.289062 8.15625 26.183594 7.910156 C 25.667969 7.910156 25.152344 8.042969 24.632812 8.042969 C 24.613281 8.308594 24.660156 8.574219 24.761719 8.820312 C 23.601562 8.949219 22.3125 8.949219 21.152344 9.078125 C 21.171875 8.8125 21.128906 8.546875 21.023438 8.300781 C 20.507812 8.300781 19.992188 8.429688 19.476562 8.429688 C 19.457031 8.695312 19.5 8.964844 19.605469 9.207031 C 16.636719 9.46875 13.671875 9.597656 10.574219 9.855469 C 10.964844 13.359375 11.222656 16.859375 11.609375 20.359375 C 11.996094 23.859375 12.382812 27.363281 12.640625 30.863281 C 12.898438 34.363281 13.414062 37.863281 13.671875 41.367188 L 13.800781 42.53125 C 15.285156 42.421875 16.753906 42.160156 18.1875 41.753906 L 17.796875 38.125 C 17.539062 35.140625 17.152344 32.160156 16.894531 29.304688 C 16.636719 26.453125 16.25 23.472656 15.992188 20.488281 C 15.734375 17.507812 15.347656 14.65625 15.089844 11.671875 L 19.734375 11.28125 C 19.710938 11.589844 19.757812 11.902344 19.863281 12.191406 C 20.378906 12.191406 20.894531 12.0625 21.410156 12.0625 C 21.410156 11.800781 21.28125 11.414062 21.28125 11.152344 C 22.441406 11.023438 23.730469 11.023438 24.890625 10.894531 C 24.871094 11.203125 24.914062 11.511719 25.023438 11.800781 C 25.539062 11.800781 26.054688 11.671875 26.570312 11.671875 C 26.589844 11.363281 26.546875 11.054688 26.441406 10.765625 C 27.601562 10.632812 28.761719 10.632812 29.921875 10.503906 C 29.902344 10.8125 29.945312 11.121094 30.050781 11.414062 C 30.566406 11.414062 31.082031 11.28125 31.46875 11.28125 C 31.492188 10.976562 31.445312 10.664062 31.339844 10.375 C 32.503906 10.246094 33.664062 10.246094 34.695312 10.117188 C 34.683594 10.425781 34.726562 10.730469 34.824219 11.023438 C 35.339844 11.023438 35.726562 10.894531 36.242188 10.894531 C 36.253906 10.585938 36.210938 10.277344 36.113281 9.988281 C 37.402344 9.855469 38.820312 9.726562 40.113281 9.726562 C 40.371094 12.449219 40.628906 15.171875 41.015625 17.894531 C 41.273438 19.710938 41.402344 21.65625 41.660156 23.472656 C 42.867188 21.625 43.902344 19.671875 44.753906 17.636719 L 44.753906 16.988281 C 44.367188 13.875 44.109375 10.765625 43.722656 7.652344 C 41.273438 7.78125 38.691406 8.042969 36.113281 8.171875 C 36.132812 7.90625 36.089844 7.636719 35.984375 7.394531 C 35.476562 7.285156 34.957031 7.242188 34.4375 7.261719 "/>
<g clip-path="url(#clip1)" clip-rule="nonzero">
<g clip-path="url(#clip2)" clip-rule="nonzero">
<path style=" stroke:none;fill-rule:nonzero;fill:rgb(100%,100%,100%);fill-opacity:1;" d="M 10.316406 7.132812 L 44.625 7.132812 L 44.625 42.273438 L 10.316406 42.273438 Z M 10.316406 7.132812 "/>
</g>
</g>
<path style=" stroke:none;fill-rule:nonzero;fill:rgb(100%,100%,100%);fill-opacity:1;" d="M 38.433594 36.179688 C 39.855469 34.753906 41.273438 33.324219 42.5625 31.898438 L 42.691406 33.714844 C 42.949219 36.4375 43.207031 39.160156 43.59375 41.882812 C 41.660156 42.273438 39.726562 42.660156 37.660156 43.050781 C 35.597656 43.441406 33.664062 43.828125 31.597656 44.21875 C 29.535156 44.605469 27.34375 44.996094 25.152344 45.515625 L 25.023438 45.515625 C 29.960938 43.140625 34.488281 39.988281 38.433594 36.179688 M 26.441406 5.058594 C 34.179688 1.039062 41.660156 0.390625 45.269531 4.28125 C 48.496094 7.652344 48.109375 13.746094 44.882812 20.359375 C 44.753906 20.488281 44.753906 20.617188 44.625 20.878906 C 44.496094 21.007812 44.496094 21.136719 44.367188 21.398438 C 44.238281 21.527344 44.238281 21.65625 44.109375 21.914062 C 43.980469 22.046875 43.980469 22.175781 43.851562 22.433594 C 43.722656 22.5625 43.722656 22.695312 43.59375 22.953125 C 43.464844 23.082031 43.464844 23.210938 43.335938 23.472656 L 43.078125 23.472656 L 42.820312 23.859375 L 42.820312 23.988281 C 42.691406 24.121094 42.5625 24.25 42.5625 24.378906 L 42.304688 24.769531 L 42.175781 24.898438 C 42.015625 25.046875 41.886719 25.222656 41.789062 25.417969 C 39.851562 28.136719 37.648438 30.65625 35.210938 32.9375 C 30.335938 37.679688 24.414062 41.1875 17.929688 43.179688 C 17.796875 43.179688 17.667969 43.308594 17.539062 43.308594 C 17.410156 43.308594 17.28125 43.441406 17.023438 43.441406 C 16.882812 43.421875 16.742188 43.46875 16.636719 43.570312 C 16.457031 43.5625 16.277344 43.609375 16.121094 43.699219 C 11.867188 44.476562 8.253906 43.699219 5.933594 41.367188 C 2.191406 37.476562 3.222656 30.214844 7.738281 22.695312 C 1.546875 31.898438 0 41.234375 4.515625 45.902344 C 6.835938 48.238281 10.316406 49.273438 14.445312 48.886719 L 14.703125 51.867188 C 17.667969 51.21875 20.636719 50.699219 23.472656 50.054688 C 26.3125 49.40625 29.277344 48.886719 31.984375 48.238281 C 34.695312 47.589844 37.273438 47.070312 39.855469 46.550781 C 42.433594 46.03125 45.011719 45.515625 47.464844 44.996094 C 47.078125 41.882812 46.820312 38.773438 46.433594 35.660156 L 45.65625 28.140625 C 52.621094 18.414062 54.6875 8.429688 49.914062 3.375 C 47.980469 1.300781 45.140625 0.390625 41.660156 0.390625 C 37.402344 0.132812 31.984375 1.816406 26.441406 5.058594 "/>
<g clip-path="url(#clip3)" clip-rule="nonzero">
<g clip-path="url(#clip4)" clip-rule="nonzero">
<path style=" stroke:none;fill-rule:nonzero;fill:rgb(100%,100%,100%);fill-opacity:1;" d="M 0 0.132812 L 54.816406 0.132812 L 54.816406 51.738281 L 0 51.738281 Z M 0 0.132812 "/>
</g>
</g>
<path style=" stroke:none;fill-rule:nonzero;fill:rgb(100%,100%,100%);fill-opacity:1;" d="M 28.761719 26.972656 L 28.632812 28.011719 C 28.375 28.011719 28.246094 28.269531 28.246094 28.527344 C 28.25 28.730469 28.34375 28.921875 28.503906 29.046875 L 28.375 29.824219 L 27.988281 29.824219 L 27.601562 28.917969 C 27.601562 28.789062 27.472656 28.789062 27.34375 28.789062 C 27.214844 28.789062 27.214844 28.917969 27.214844 29.046875 L 27.601562 29.953125 C 27.359375 30.078125 27.210938 30.332031 27.214844 30.601562 L 25.539062 30.863281 C 25.464844 30.863281 25.410156 30.921875 25.410156 30.992188 C 25.410156 31.0625 25.464844 31.121094 25.539062 31.121094 L 27.214844 30.863281 C 27.378906 31.285156 27.796875 31.546875 28.246094 31.511719 C 28.703125 31.464844 29.042969 31.0625 29.019531 30.601562 L 32.632812 30.085938 C 32.703125 30.085938 32.761719 30.027344 32.761719 29.953125 C 32.761719 29.882812 32.703125 29.824219 32.632812 29.824219 L 29.019531 30.34375 C 28.921875 30.148438 28.792969 29.972656 28.632812 29.824219 L 28.890625 29.046875 L 29.019531 29.046875 C 29.171875 29.148438 29.355469 29.195312 29.535156 29.175781 L 30.695312 29.046875 C 30.769531 29.046875 30.824219 28.988281 30.824219 28.917969 C 30.824219 28.847656 30.769531 28.789062 30.695312 28.789062 L 29.535156 28.917969 L 29.40625 28.917969 C 29.503906 28.8125 29.554688 28.671875 29.535156 28.527344 C 29.546875 28.421875 29.511719 28.316406 29.4375 28.238281 C 29.359375 28.164062 29.253906 28.125 29.148438 28.140625 L 29.277344 27.101562 C 29.277344 26.972656 29.277344 26.972656 29.148438 26.972656 C 28.890625 26.84375 28.890625 26.84375 28.761719 26.972656 M 26.828125 24.898438 L 26.054688 25.675781 C 25.917969 25.566406 25.746094 25.515625 25.574219 25.542969 C 25.402344 25.566406 25.25 25.660156 25.152344 25.804688 C 25.023438 26.046875 25.023438 26.339844 25.152344 26.582031 L 24.761719 26.972656 C 24.632812 26.972656 24.632812 27.101562 24.761719 27.230469 C 24.890625 27.363281 24.890625 27.363281 25.023438 27.230469 L 25.410156 26.84375 C 25.605469 26.972656 25.859375 26.972656 26.054688 26.84375 L 26.570312 27.621094 C 26.441406 27.75 26.441406 27.75 26.441406 27.878906 C 26.441406 28.011719 26.441406 28.140625 26.570312 28.140625 L 24.761719 30.085938 C 24.617188 29.953125 24.394531 29.953125 24.246094 30.085938 C 24.117188 29.953125 24.117188 29.824219 24.117188 29.566406 C 24.117188 29.496094 24.0625 29.4375 23.988281 29.4375 C 23.917969 29.4375 23.859375 29.496094 23.859375 29.566406 C 23.839844 29.789062 23.886719 30.015625 23.988281 30.214844 C 23.859375 30.457031 23.859375 30.75 23.988281 30.992188 C 24.121094 31.160156 24.332031 31.246094 24.542969 31.222656 C 24.753906 31.195312 24.933594 31.058594 25.023438 30.863281 C 25.152344 30.667969 25.152344 30.410156 25.023438 30.214844 L 26.828125 28.269531 C 26.957031 28.398438 27.214844 28.269531 27.34375 28.140625 C 27.460938 28.046875 27.53125 27.902344 27.53125 27.75 C 27.53125 27.597656 27.460938 27.453125 27.34375 27.363281 C 27.191406 27.257812 27.007812 27.210938 26.828125 27.230469 L 26.3125 26.453125 C 26.539062 26.261719 26.59375 25.933594 26.441406 25.675781 L 27.214844 24.898438 C 27.34375 24.898438 27.34375 24.769531 27.214844 24.636719 C 27.085938 24.898438 26.957031 24.898438 26.828125 24.898438 M 22.957031 23.730469 C 22.886719 23.730469 22.828125 23.789062 22.828125 23.859375 L 23.34375 27.230469 C 22.914062 27.382812 22.644531 27.8125 22.699219 28.269531 C 22.738281 28.535156 22.886719 28.769531 23.109375 28.917969 C 23.328125 29.066406 23.601562 29.113281 23.859375 29.046875 C 24.375 29.046875 24.632812 28.65625 24.632812 28.140625 L 25.796875 28.011719 C 25.867188 28.011719 25.925781 27.953125 25.925781 27.878906 C 25.925781 27.808594 25.867188 27.75 25.796875 27.75 L 24.632812 27.878906 C 24.507812 27.46875 24.15625 27.164062 23.730469 27.101562 L 23.214844 23.730469 C 23.085938 23.859375 23.085938 23.730469 22.957031 23.730469 M 35.855469 22.175781 C 35.785156 22.175781 35.726562 22.234375 35.726562 22.304688 L 35.984375 24.25 C 35.742188 24.375 35.59375 24.625 35.597656 24.898438 C 35.636719 25.21875 35.921875 25.445312 36.242188 25.417969 L 36.628906 28.011719 C 36.628906 28.082031 36.6875 28.140625 36.757812 28.140625 C 36.828125 28.140625 36.886719 28.082031 36.886719 28.011719 L 36.5 25.417969 C 36.742188 25.292969 36.890625 25.039062 36.886719 24.769531 C 36.847656 24.449219 36.5625 24.21875 36.242188 24.25 L 35.984375 22.304688 C 36.113281 22.175781 35.984375 22.175781 35.855469 22.175781 M 31.597656 19.839844 C 31.160156 19.921875 30.835938 20.300781 30.824219 20.75 L 27.601562 21.136719 C 27.476562 20.894531 27.226562 20.742188 26.957031 20.75 C 26.679688 20.765625 26.457031 20.988281 26.441406 21.265625 L 23.988281 21.65625 L 23.859375 21.65625 C 23.601562 21.398438 23.34375 21.265625 23.085938 21.398438 C 22.570312 21.527344 22.183594 21.914062 22.3125 22.433594 C 22.347656 22.726562 22.515625 22.988281 22.769531 23.140625 C 23.019531 23.292969 23.328125 23.316406 23.601562 23.210938 L 24.890625 25.285156 C 24.890625 25.417969 25.023438 25.417969 25.152344 25.285156 C 25.28125 25.15625 25.28125 25.15625 25.152344 25.027344 L 23.859375 22.953125 C 24.136719 22.683594 24.238281 22.28125 24.117188 21.914062 L 26.570312 21.527344 C 26.667969 21.734375 26.859375 21.878906 27.085938 21.914062 L 27.34375 22.695312 C 27.34375 22.824219 27.472656 22.824219 27.601562 22.824219 C 27.730469 22.824219 27.730469 22.695312 27.730469 22.5625 L 27.472656 21.785156 C 27.601562 21.65625 27.730469 21.527344 27.730469 21.398438 L 30.953125 20.878906 C 31.101562 21.152344 31.324219 21.378906 31.597656 21.527344 L 31.46875 22.5625 C 31.46875 22.695312 31.46875 22.695312 31.597656 22.695312 C 31.726562 22.695312 31.726562 22.695312 31.726562 22.5625 L 31.855469 21.785156 C 32.121094 21.785156 32.367188 21.667969 32.539062 21.472656 C 32.714844 21.273438 32.792969 21.011719 32.761719 20.75 C 32.679688 20.308594 32.304688 19.980469 31.855469 19.96875 C 31.726562 19.839844 31.726562 19.839844 31.597656 19.839844 M 35.210938 19.582031 C 34.824219 19.582031 34.566406 19.839844 34.308594 20.230469 L 33.148438 20.359375 C 33.074219 20.359375 33.019531 20.417969 33.019531 20.488281 C 33.019531 20.5625 33.074219 20.617188 33.148438 20.617188 L 34.050781 20.488281 C 34.046875 20.964844 34.292969 21.40625 34.695312 21.65625 L 33.664062 25.675781 C 33.3125 25.632812 32.984375 25.851562 32.890625 26.195312 L 30.953125 25.675781 C 30.953125 25.546875 30.953125 25.417969 30.824219 25.417969 C 30.988281 25.238281 31.078125 25.007812 31.082031 24.769531 C 31.355469 24.773438 31.605469 24.621094 31.726562 24.378906 C 31.855469 24.136719 31.855469 23.84375 31.726562 23.601562 L 33.792969 21.914062 C 33.921875 21.914062 33.921875 21.785156 33.792969 21.65625 C 33.664062 21.527344 33.664062 21.527344 33.535156 21.65625 L 31.984375 23.34375 C 31.882812 23.242188 31.742188 23.195312 31.597656 23.210938 L 31.210938 23.210938 L 30.824219 22.824219 L 30.050781 22.433594 L 30.050781 22.304688 L 30.695312 21.785156 C 30.824219 21.785156 30.824219 21.65625 30.695312 21.527344 C 30.566406 21.398438 30.566406 21.398438 30.4375 21.527344 L 29.792969 22.046875 C 29.597656 21.914062 29.34375 21.914062 29.148438 22.046875 C 28.941406 22.144531 28.796875 22.335938 28.761719 22.5625 C 28.632812 22.695312 28.503906 22.695312 28.375 22.824219 L 27.988281 23.210938 L 27.601562 23.210938 C 27.472656 23.210938 27.34375 23.34375 27.214844 23.472656 L 24.632812 22.5625 C 24.503906 22.5625 24.503906 22.5625 24.375 22.695312 C 24.246094 22.824219 24.375 22.824219 24.503906 22.953125 L 27.085938 23.859375 C 27.085938 24.121094 27.085938 24.25 27.214844 24.378906 C 27.339844 24.539062 27.527344 24.632812 27.730469 24.636719 C 27.808594 24.878906 27.941406 25.101562 28.117188 25.285156 L 28.503906 25.675781 L 28.503906 25.933594 L 27.601562 27.101562 C 27.53125 27.171875 27.53125 27.289062 27.601562 27.363281 C 27.671875 27.433594 27.789062 27.433594 27.859375 27.363281 L 28.890625 26.324219 L 29.148438 26.324219 C 29.40625 26.324219 29.664062 26.066406 29.535156 25.804688 C 29.40625 25.546875 29.277344 25.285156 29.019531 25.417969 C 28.761719 25.546875 28.761719 25.417969 28.761719 25.546875 C 28.632812 25.417969 28.503906 25.417969 28.503906 25.285156 C 28.503906 25.15625 28.375 25.027344 28.246094 24.898438 C 28.601562 24.746094 28.808594 24.375 28.761719 23.988281 C 28.761719 23.730469 28.632812 23.601562 28.375 23.472656 L 28.632812 23.210938 L 28.890625 22.953125 C 29.066406 23.117188 29.296875 23.207031 29.535156 23.210938 C 29.792969 23.210938 29.921875 22.953125 30.050781 22.824219 C 30.253906 22.828125 30.441406 22.921875 30.566406 23.082031 C 30.695312 23.210938 30.824219 23.34375 30.824219 23.472656 C 30.664062 23.648438 30.570312 23.878906 30.566406 24.121094 C 30.617188 24.410156 30.8125 24.65625 31.082031 24.769531 C 31.082031 24.898438 30.953125 25.027344 30.824219 25.15625 C 30.628906 25.027344 30.375 25.027344 30.179688 25.15625 C 30.039062 25.257812 29.949219 25.410156 29.921875 25.582031 C 29.898438 25.753906 29.945312 25.929688 30.050781 26.066406 C 30.175781 26.226562 30.367188 26.320312 30.566406 26.324219 L 31.082031 27.878906 C 30.988281 27.960938 30.9375 28.078125 30.9375 28.203125 C 30.9375 28.328125 30.988281 28.445312 31.082031 28.527344 C 31.25 28.707031 31.507812 28.757812 31.726562 28.65625 L 33.277344 29.824219 C 33.175781 30.046875 33.230469 30.308594 33.40625 30.472656 C 33.597656 30.703125 33.925781 30.757812 34.179688 30.601562 C 34.308594 30.472656 34.4375 30.34375 34.4375 30.214844 L 35.597656 30.085938 C 35.855469 30.085938 35.984375 29.953125 36.242188 29.824219 C 36.371094 29.953125 36.628906 29.824219 36.757812 29.695312 C 36.882812 29.605469 36.957031 29.460938 36.957031 29.304688 C 36.957031 29.152344 36.882812 29.007812 36.757812 28.917969 C 36.605469 28.8125 36.425781 28.769531 36.242188 28.789062 L 34.953125 27.492188 L 34.695312 27.492188 L 34.695312 27.75 L 35.984375 28.917969 C 35.855469 29.046875 35.855469 29.175781 35.984375 29.4375 C 35.855469 29.566406 35.726562 29.566406 35.46875 29.566406 L 34.308594 29.695312 L 33.921875 29.304688 C 33.664062 29.304688 33.535156 29.304688 33.40625 29.4375 L 31.855469 28.269531 C 31.878906 28.125 31.832031 27.980469 31.730469 27.878906 C 31.628906 27.773438 31.484375 27.726562 31.339844 27.75 L 30.824219 26.195312 C 30.953125 26.195312 30.953125 26.066406 30.953125 25.933594 L 32.890625 26.453125 C 32.871094 26.597656 32.917969 26.738281 33.019531 26.84375 L 32.113281 27.492188 C 31.984375 27.492188 31.984375 27.621094 32.113281 27.75 C 32.246094 27.878906 32.246094 27.878906 32.375 27.75 L 33.277344 27.101562 C 33.40625 27.230469 33.535156 27.230469 33.664062 27.363281 L 33.664062 28.65625 C 33.664062 28.730469 33.71875 28.789062 33.792969 28.789062 C 33.863281 28.789062 33.921875 28.730469 33.921875 28.65625 L 33.921875 27.363281 C 34.210938 27.3125 34.453125 27.117188 34.566406 26.84375 C 34.695312 26.648438 34.695312 26.390625 34.566406 26.195312 L 35.210938 25.675781 C 35.339844 25.675781 35.339844 25.546875 35.210938 25.417969 C 35.082031 25.285156 35.082031 25.285156 34.953125 25.417969 L 34.4375 25.933594 C 34.367188 25.863281 34.277344 25.820312 34.179688 25.804688 L 35.210938 21.785156 C 35.550781 21.824219 35.890625 21.691406 36.121094 21.4375 C 36.351562 21.179688 36.445312 20.828125 36.371094 20.488281 C 36.28125 19.980469 35.851562 19.605469 35.339844 19.582031 L 35.210938 19.582031 M 28.117188 13.746094 C 25.59375 14.109375 23.785156 16.378906 23.988281 18.933594 L 24.117188 20.230469 C 24.117188 20.488281 24.375 20.617188 24.632812 20.617188 C 24.890625 20.617188 25.023438 20.359375 25.023438 20.101562 L 24.890625 18.804688 C 24.789062 17.804688 25.082031 16.808594 25.710938 16.027344 C 26.339844 15.25 27.253906 14.753906 28.246094 14.65625 C 29.894531 14.335938 31.546875 15.191406 32.246094 16.730469 C 32.246094 16.859375 32.503906 16.988281 32.632812 16.988281 C 32.761719 16.988281 33.019531 16.988281 33.019531 16.730469 C 33.148438 16.582031 33.148438 16.359375 33.019531 16.210938 C 32.25 14.546875 30.585938 13.484375 28.761719 13.488281 C 28.632812 13.746094 28.375 13.746094 28.117188 13.746094 "/>
<g clip-path="url(#clip5)" clip-rule="nonzero">
<g clip-path="url(#clip6)" clip-rule="nonzero">
<path style=" stroke:none;fill-rule:nonzero;fill:rgb(100%,100%,100%);fill-opacity:1;" d="M 36.757812 11.671875 L 39.597656 31.382812 L 22.441406 33.714844 L 19.734375 14.007812 Z M 36.757812 11.671875 "/>
</g>
</g>
</g>
</svg>
