<?xml version="1.0" encoding="UTF-8"?>
<svg xmlns="http://www.w3.org/2000/svg" xmlns:xlink="http://www.w3.org/1999/xlink" width="117px" height="44px" viewBox="0 0 117 44" version="1.1">
<defs>
<clipPath id="clip1">
  <path d="M 7 7 L 35 7 L 35 35 L 7 35 Z M 7 7 "/>
</clipPath>
<clipPath id="clip2">
  <path d="M 26.300781 7.601562 C 26.300781 7.800781 26.300781 8 26.398438 8.199219 C 25.5 8.300781 24.699219 8.300781 23.800781 8.398438 C 23.800781 8.199219 23.800781 8 23.699219 7.800781 C 23.300781 7.800781 22.898438 7.898438 22.601562 7.898438 C 22.601562 8.101562 22.601562 8.300781 22.699219 8.5 C 21.800781 8.601562 20.898438 8.601562 20 8.699219 C 20 8.5 20 8.300781 19.898438 8.101562 C 19.5 8.101562 19.101562 8.199219 18.699219 8.199219 C 18.699219 8.398438 18.699219 8.601562 18.800781 8.800781 C 17.898438 8.898438 16.898438 8.898438 16 9 C 16 8.800781 16 8.601562 15.898438 8.398438 C 15.5 8.398438 15.101562 8.5 14.699219 8.5 C 14.699219 8.699219 14.699219 8.898438 14.800781 9.101562 C 12.5 9.300781 10.199219 9.398438 7.800781 9.601562 C 8.101562 12.300781 8.300781 15 8.601562 17.699219 C 8.898438 20.398438 9.199219 23.101562 9.398438 25.800781 C 9.699219 28.5 10 31.199219 10.199219 33.898438 L 10.300781 34.800781 C 11.5 34.699219 12.699219 34.5 13.699219 34.199219 L 13.398438 31.398438 C 13.199219 29.101562 12.898438 26.800781 12.699219 24.601562 C 12.5 22.300781 12.199219 20.101562 12 17.800781 C 11.800781 15.5 11.5 13.300781 11.300781 11 C 12.5 10.898438 13.699219 10.800781 14.898438 10.699219 C 14.898438 10.898438 14.898438 11.199219 15 11.398438 C 15.398438 11.398438 15.800781 11.300781 16.199219 11.300781 C 16.199219 11.101562 16.101562 10.800781 16.101562 10.601562 C 17 10.5 18 10.5 18.898438 10.398438 C 18.898438 10.601562 18.898438 10.898438 19 11.101562 C 19.398438 11.101562 19.800781 11 20.199219 11 C 20.199219 10.800781 20.199219 10.5 20.101562 10.300781 C 21 10.199219 21.898438 10.199219 22.800781 10.101562 C 22.800781 10.300781 22.800781 10.601562 22.898438 10.800781 C 23.300781 10.800781 23.699219 10.699219 24 10.699219 C 24 10.5 24 10.199219 23.898438 10 C 24.800781 9.898438 25.699219 9.898438 26.5 9.800781 C 26.5 10 26.5 10.199219 26.601562 10.5 C 27 10.5 27.300781 10.398438 27.699219 10.398438 C 27.699219 10.199219 27.699219 10 27.601562 9.699219 C 28.601562 9.601562 29.699219 9.5 30.699219 9.5 C 30.898438 11.601562 31.101562 13.699219 31.398438 15.800781 C 31.601562 17.199219 31.699219 18.699219 31.898438 20.101562 C 32.800781 18.699219 33.699219 17.101562 34.300781 15.601562 L 34.300781 15.101562 C 34 12.699219 33.800781 10.300781 33.5 7.898438 C 31.601562 8 29.601562 8.199219 27.601562 8.300781 C 27.601562 8.101562 27.601562 7.898438 27.5 7.699219 C 27.101562 7.601562 26.699219 7.601562 26.300781 7.601562 "/>
</clipPath>
<linearGradient id="linear0" gradientUnits="userSpaceOnUse" x1="-7983.0537" y1="1074.0323" x2="-7982.6216" y2="1074.0323" gradientTransform="matrix(61.4696,0,0,-61.4696,490722.9375,66041.4609)">
<stop offset="0" style="stop-color:rgb(11.764706%,70.588235%,45.098039%);stop-opacity:1;"/>
<stop offset="1" style="stop-color:rgb(15.294118%,34.509804%,65.490196%);stop-opacity:1;"/>
</linearGradient>
<clipPath id="clip3">
  <path d="M 1 2 L 41 2 L 41 42 L 1 42 Z M 1 2 "/>
</clipPath>
<clipPath id="clip4">
  <path d="M 29.398438 29.898438 C 30.5 28.800781 31.601562 27.699219 32.601562 26.601562 L 32.699219 28 C 32.898438 30.101562 33.101562 32.199219 33.398438 34.300781 C 31.898438 34.601562 30.398438 34.898438 28.800781 35.199219 C 27.300781 35.5 25.699219 35.800781 24.101562 36.101562 C 22.5 36.398438 20.800781 36.699219 19.101562 37.101562 L 19 37.101562 C 22.5 35.5 26.101562 33 29.398438 29.898438 M 20.101562 5.898438 C 26.101562 2.800781 31.898438 2.300781 34.699219 5.300781 C 37.199219 7.898438 36.898438 12.601562 34.398438 17.699219 C 34.300781 17.800781 34.300781 17.898438 34.199219 18.101562 C 34.101562 18.199219 34.101562 18.300781 34 18.5 C 33.898438 18.601562 33.898438 18.699219 33.800781 18.898438 C 33.699219 19 33.699219 19.101562 33.601562 19.300781 C 33.5 19.398438 33.5 19.5 33.398438 19.699219 C 33.300781 19.800781 33.300781 19.898438 33.199219 20.101562 L 33 20.101562 L 32.800781 20.398438 L 32.800781 20.5 C 32.699219 20.601562 32.601562 20.699219 32.601562 20.800781 L 32.398438 21.101562 L 32.300781 21.199219 C 32.199219 21.300781 32.101562 21.398438 32 21.601562 C 30.601562 23.601562 28.898438 25.5 26.898438 27.398438 C 22.601562 31.398438 17.699219 34.199219 13.5 35.300781 C 13.398438 35.300781 13.300781 35.398438 13.199219 35.398438 C 13.101562 35.398438 13 35.5 12.800781 35.5 C 12.699219 35.5 12.601562 35.5 12.5 35.601562 C 12.398438 35.601562 12.300781 35.601562 12.101562 35.699219 C 8.800781 36.300781 6 35.699219 4.199219 33.898438 C 1.300781 30.898438 2.101562 25.300781 5.601562 19.5 C 0.800781 26.601562 -0.398438 33.800781 3.101562 37.398438 C 4.898438 39.199219 7.601562 40 10.800781 39.699219 L 11 42 C 13.300781 41.5 15.601562 41.101562 17.800781 40.601562 C 20 40.101562 22.300781 39.699219 24.398438 39.199219 C 26.5 38.800781 28.5 38.300781 30.5 37.898438 C 32.5 37.5 34.5 37.101562 36.398438 36.699219 C 36.101562 34.300781 35.898438 31.898438 35.601562 29.5 L 35 23.699219 C 40.398438 16.199219 42 8.5 38.300781 4.601562 C 36.800781 3 34.601562 2.300781 31.898438 2.300781 C 28.601562 2.101562 24.398438 3.398438 20.101562 5.898438 "/>
</clipPath>
<linearGradient id="linear1" gradientUnits="userSpaceOnUse" x1="-8025.1567" y1="1070.427" x2="-8024.7246" y2="1070.427" gradientTransform="matrix(91.0305,0,0,-91.0305,730535.0625,97463.5078)">
<stop offset="0" style="stop-color:rgb(11.764706%,70.588235%,45.098039%);stop-opacity:1;"/>
<stop offset="1" style="stop-color:rgb(15.294118%,34.509804%,65.490196%);stop-opacity:1;"/>
</linearGradient>
<clipPath id="clip5">
  <path d="M 16 12 L 29 12 L 29 27 L 16 27 Z M 16 12 "/>
</clipPath>
<clipPath id="clip6">
  <path d="M 21.898438 22.800781 L 21.800781 23.601562 C 21.601562 23.601562 21.5 23.800781 21.5 24 C 21.5 24.199219 21.601562 24.300781 21.699219 24.398438 L 21.601562 25 C 21.5 25 21.398438 25 21.300781 25 L 21 24.300781 C 21 24.199219 20.898438 24.199219 20.800781 24.199219 C 20.699219 24.199219 20.699219 24.300781 20.699219 24.398438 L 21 25.101562 C 20.800781 25.199219 20.699219 25.398438 20.699219 25.601562 L 19.398438 25.800781 C 19.300781 25.800781 19.300781 25.898438 19.300781 25.898438 C 19.300781 26 19.398438 26 19.398438 26 L 20.699219 25.800781 C 20.800781 26.101562 21.101562 26.300781 21.5 26.300781 C 21.800781 26.300781 22.101562 26 22.101562 25.601562 L 24.898438 25.199219 C 25 25.199219 25 25.101562 25 25.101562 C 25 25 24.898438 25 24.898438 25 L 22.101562 25.398438 C 22 25.199219 21.898438 25.101562 21.800781 25 L 22 24.398438 C 22 24.398438 22.101562 24.398438 22.101562 24.398438 C 22.199219 24.5 22.398438 24.5 22.5 24.5 L 23.398438 24.398438 C 23.5 24.398438 23.5 24.300781 23.5 24.300781 C 23.5 24.199219 23.398438 24.199219 23.398438 24.199219 L 22.5 24.300781 C 22.5 24.300781 22.398438 24.300781 22.398438 24.300781 C 22.5 24.199219 22.5 24.101562 22.5 24 C 22.5 23.800781 22.398438 23.699219 22.199219 23.699219 L 22.300781 22.898438 C 22.300781 22.800781 22.300781 22.800781 22.199219 22.800781 C 22 22.699219 22 22.699219 21.898438 22.800781 M 20.398438 21.199219 L 19.800781 21.800781 C 19.601562 21.601562 19.199219 21.699219 19.101562 21.898438 C 19 22.101562 19 22.300781 19.101562 22.5 L 18.800781 22.800781 C 18.699219 22.800781 18.699219 22.898438 18.800781 23 C 18.800781 23.101562 18.898438 23.101562 19 23 L 19.300781 22.699219 C 19.398438 22.800781 19.601562 22.800781 19.800781 22.699219 L 20.199219 23.300781 C 20.101562 23.398438 20.101562 23.398438 20.101562 23.5 C 20.101562 23.601562 20.101562 23.699219 20.199219 23.699219 L 18.800781 25.199219 C 18.699219 25.101562 18.5 25.101562 18.398438 25.199219 C 18.300781 25.101562 18.300781 25 18.300781 24.800781 C 18.300781 24.699219 18.199219 24.699219 18.199219 24.699219 C 18.101562 24.699219 18.101562 24.800781 18.101562 24.800781 C 18.101562 25 18.101562 25.101562 18.199219 25.300781 C 18.101562 25.5 18.101562 25.699219 18.199219 25.898438 C 18.398438 26.199219 18.898438 26.101562 19 25.800781 C 19.101562 25.601562 19.101562 25.398438 19 25.300781 L 20.398438 23.800781 C 20.5 23.898438 20.699219 23.800781 20.800781 23.699219 C 21 23.5 21 23.300781 20.800781 23.101562 C 20.699219 23 20.5 23 20.398438 23 L 20 22.398438 C 20.199219 22.199219 20.199219 22 20.101562 21.800781 L 20.699219 21.199219 C 20.800781 21.199219 20.800781 21.101562 20.699219 21 C 20.601562 21.199219 20.5 21.199219 20.398438 21.199219 C 20.5 21.199219 20.398438 21.199219 20.398438 21.199219 M 17.398438 20.300781 C 17.300781 20.300781 17.300781 20.398438 17.300781 20.398438 L 17.699219 23 C 17.398438 23.101562 17.101562 23.5 17.199219 23.800781 C 17.300781 24.199219 17.601562 24.5 18.101562 24.398438 C 18.5 24.398438 18.699219 24.101562 18.699219 23.699219 L 19.601562 23.601562 C 19.699219 23.601562 19.699219 23.5 19.699219 23.5 C 19.699219 23.398438 19.601562 23.398438 19.601562 23.398438 L 18.699219 23.5 C 18.601562 23.199219 18.300781 22.898438 18 22.898438 L 17.601562 20.300781 C 17.5 20.398438 17.5 20.300781 17.398438 20.300781 M 27.398438 19.101562 C 27.300781 19.101562 27.300781 19.199219 27.300781 19.199219 L 27.5 20.699219 C 27.300781 20.800781 27.199219 21 27.199219 21.199219 C 27.199219 21.398438 27.398438 21.601562 27.699219 21.601562 L 28 23.601562 C 28 23.699219 28.101562 23.699219 28.101562 23.699219 C 28.199219 23.699219 28.199219 23.601562 28.199219 23.601562 L 27.898438 21.601562 C 28.101562 21.5 28.199219 21.300781 28.199219 21.101562 C 28.199219 20.898438 28 20.699219 27.699219 20.699219 L 27.5 19.199219 C 27.601562 19.101562 27.5 19.101562 27.398438 19.101562 C 27.5 19.101562 27.398438 19.101562 27.398438 19.101562 M 24.101562 17.300781 C 23.699219 17.398438 23.5 17.699219 23.5 18 L 21 18.300781 C 20.898438 18.101562 20.699219 18 20.5 18 C 20.300781 18 20.101562 18.199219 20.101562 18.398438 L 18.199219 18.699219 C 18.199219 18.699219 18.101562 18.699219 18.101562 18.699219 C 17.898438 18.5 17.699219 18.398438 17.5 18.5 C 17.101562 18.601562 16.800781 18.898438 16.898438 19.300781 C 17 19.800781 17.5 20.101562 17.898438 19.898438 L 18.898438 21.5 C 18.898438 21.601562 19 21.601562 19.101562 21.5 C 19.199219 21.5 19.199219 21.398438 19.101562 21.300781 L 18.101562 19.699219 C 18.300781 19.5 18.398438 19.199219 18.300781 18.898438 L 20.199219 18.601562 C 20.300781 18.800781 20.5 18.898438 20.601562 18.898438 L 20.800781 19.5 C 20.800781 19.601562 20.898438 19.601562 21 19.601562 C 21.101562 19.601562 21.101562 19.5 21.101562 19.398438 L 20.898438 18.800781 C 21 18.699219 21.101562 18.601562 21.101562 18.5 L 23.601562 18.101562 C 23.699219 18.300781 23.898438 18.5 24.101562 18.601562 L 24 19.398438 C 24 19.5 24 19.5 24.101562 19.5 C 24.199219 19.5 24.199219 19.5 24.199219 19.398438 L 24.300781 18.800781 C 24.699219 18.800781 25.101562 18.398438 25 18 C 24.898438 17.601562 24.601562 17.398438 24.300781 17.398438 C 24.199219 17.300781 24.199219 17.300781 24.101562 17.300781 M 26.898438 17.101562 C 26.601562 17.101562 26.398438 17.300781 26.199219 17.601562 L 25.300781 17.699219 C 25.199219 17.699219 25.199219 17.800781 25.199219 17.800781 C 25.199219 17.898438 25.300781 17.898438 25.300781 17.898438 L 26 17.800781 C 26 18.199219 26.199219 18.5 26.5 18.699219 L 25.699219 21.800781 C 25.398438 21.800781 25.199219 21.898438 25.101562 22.199219 L 23.601562 21.800781 C 23.601562 21.699219 23.601562 21.601562 23.5 21.601562 C 23.601562 21.5 23.699219 21.300781 23.699219 21.101562 C 23.898438 21.101562 24.101562 21 24.199219 20.800781 C 24.300781 20.601562 24.300781 20.398438 24.199219 20.199219 L 25.800781 18.898438 C 25.898438 18.898438 25.898438 18.800781 25.800781 18.699219 C 25.699219 18.601562 25.699219 18.601562 25.601562 18.699219 L 24.398438 20 C 24.300781 19.898438 24.199219 19.898438 24.101562 19.898438 C 24 19.898438 23.898438 19.898438 23.800781 19.898438 C 23.699219 19.800781 23.601562 19.699219 23.5 19.601562 C 23.300781 19.5 23.101562 19.398438 22.898438 19.300781 C 22.898438 19.300781 22.898438 19.300781 22.898438 19.199219 L 23.398438 18.800781 C 23.5 18.800781 23.5 18.699219 23.398438 18.601562 C 23.398438 18.5 23.300781 18.5 23.199219 18.601562 L 22.699219 19 C 22.601562 18.898438 22.300781 18.898438 22.199219 19 C 22 19.101562 21.898438 19.300781 21.898438 19.398438 C 21.800781 19.5 21.699219 19.5 21.601562 19.601562 C 21.5 19.699219 21.398438 19.800781 21.300781 19.898438 C 21.199219 19.898438 21.101562 19.898438 21 19.898438 C 20.898438 19.898438 20.800781 20 20.699219 20.101562 L 18.699219 19.398438 C 18.601562 19.398438 18.601562 19.398438 18.5 19.5 C 18.5 19.601562 18.5 19.601562 18.601562 19.699219 L 20.601562 20.398438 C 20.601562 20.601562 20.601562 20.699219 20.699219 20.800781 C 20.800781 20.898438 20.898438 21 21.101562 21 C 21.199219 21.199219 21.199219 21.300781 21.398438 21.5 C 21.5 21.601562 21.601562 21.699219 21.699219 21.800781 C 21.699219 21.898438 21.699219 22 21.699219 22 L 21 22.898438 C 21 22.898438 20.898438 23 21 23.101562 C 21 23.101562 21.101562 23.199219 21.199219 23.101562 L 22 22.300781 C 22.101562 22.300781 22.101562 22.300781 22.199219 22.300781 C 22.398438 22.300781 22.601562 22.101562 22.5 21.898438 C 22.5 21.699219 22.300781 21.5 22.101562 21.601562 C 22 21.601562 21.898438 21.601562 21.898438 21.699219 C 21.800781 21.601562 21.699219 21.601562 21.699219 21.5 C 21.601562 21.398438 21.601562 21.300781 21.5 21.199219 C 21.800781 21.101562 21.898438 20.800781 21.898438 20.5 C 21.898438 20.300781 21.800781 20.199219 21.601562 20.101562 C 21.699219 20 21.699219 20 21.800781 19.898438 C 21.898438 19.800781 21.898438 19.800781 22 19.699219 C 22.101562 19.800781 22.300781 19.898438 22.5 19.898438 C 22.699219 19.898438 22.800781 19.699219 22.898438 19.601562 C 23.101562 19.601562 23.199219 19.699219 23.300781 19.800781 C 23.398438 19.898438 23.5 20 23.5 20.101562 C 23.398438 20.199219 23.300781 20.398438 23.300781 20.601562 C 23.300781 20.800781 23.5 21 23.699219 21.101562 C 23.699219 21.199219 23.601562 21.300781 23.5 21.398438 C 23.300781 21.300781 23.101562 21.300781 23 21.398438 C 22.800781 21.601562 22.699219 21.898438 22.898438 22.101562 C 23 22.199219 23.101562 22.300781 23.300781 22.300781 L 23.699219 23.5 C 23.601562 23.601562 23.5 23.800781 23.699219 24 C 23.800781 24.101562 24 24.199219 24.199219 24.101562 L 25.398438 25 C 25.300781 25.199219 25.398438 25.398438 25.5 25.5 C 25.699219 25.699219 25.898438 25.699219 26.101562 25.601562 C 26.199219 25.5 26.300781 25.398438 26.300781 25.300781 L 27.199219 25.199219 C 27.398438 25.199219 27.5 25.101562 27.699219 25 C 27.800781 25.101562 28 25 28.101562 24.898438 C 28.300781 24.699219 28.300781 24.5 28.101562 24.300781 C 28 24.199219 27.800781 24.199219 27.699219 24.199219 L 26.699219 23.199219 C 26.601562 23.199219 26.601562 23.199219 26.5 23.199219 C 26.5 23.300781 26.5 23.300781 26.5 23.398438 L 27.5 24.300781 C 27.398438 24.398438 27.398438 24.5 27.5 24.699219 C 27.398438 24.800781 27.300781 24.800781 27.101562 24.800781 L 26.199219 24.898438 C 26.101562 24.800781 26 24.699219 25.898438 24.601562 C 25.699219 24.601562 25.601562 24.601562 25.5 24.699219 L 24.300781 23.800781 C 24.300781 23.699219 24.300781 23.601562 24.199219 23.5 C 24.101562 23.398438 24 23.398438 23.898438 23.398438 L 23.5 22.199219 C 23.601562 22.199219 23.601562 22.101562 23.601562 22 L 25.101562 22.398438 C 25.101562 22.5 25.101562 22.601562 25.199219 22.699219 L 24.5 23.199219 C 24.398438 23.199219 24.398438 23.300781 24.5 23.398438 C 24.5 23.5 24.601562 23.5 24.699219 23.398438 L 25.398438 22.898438 C 25.5 23 25.601562 23 25.699219 23.101562 L 25.699219 24.101562 C 25.699219 24.199219 25.800781 24.199219 25.800781 24.199219 C 25.898438 24.199219 25.898438 24.101562 25.898438 24.101562 L 25.898438 23.101562 C 26.101562 23.101562 26.300781 22.898438 26.398438 22.699219 C 26.5 22.5 26.5 22.300781 26.398438 22.199219 L 26.898438 21.800781 C 27 21.800781 27 21.699219 26.898438 21.601562 C 26.898438 21.5 26.800781 21.5 26.699219 21.601562 L 26.300781 22 C 26.300781 22 26.199219 21.898438 26.101562 21.898438 L 26.898438 18.800781 C 27.398438 18.898438 27.898438 18.398438 27.800781 17.800781 C 27.699219 17.398438 27.398438 17.101562 27 17.101562 C 27 17.101562 27 17.101562 26.898438 17.101562 M 21.398438 12.601562 C 19.5 12.898438 18 14.601562 18.199219 16.601562 L 18.300781 17.601562 C 18.300781 17.800781 18.5 17.898438 18.699219 17.898438 C 18.898438 17.898438 19 17.699219 19 17.5 L 18.898438 16.5 C 18.699219 14.898438 19.898438 13.5 21.5 13.300781 C 22.800781 13.101562 24.101562 13.699219 24.601562 14.898438 C 24.601562 15 24.800781 15.101562 24.898438 15.101562 C 25 15.101562 25.199219 15.101562 25.199219 14.898438 C 25.300781 14.800781 25.300781 14.601562 25.199219 14.5 C 24.601562 13.199219 23.300781 12.398438 21.898438 12.398438 C 21.800781 12.601562 21.601562 12.601562 21.398438 12.601562 "/>
</clipPath>
<linearGradient id="linear2" gradientUnits="userSpaceOnUse" x1="-8098.7427" y1="1325.4601" x2="-8098.3105" y2="1325.4601" gradientTransform="matrix(4.202,30.1255,30.1255,-4.202,-5877.8433,249561.2031)">
<stop offset="0" style="stop-color:rgb(11.764706%,70.588235%,45.098039%);stop-opacity:1;"/>
<stop offset="1" style="stop-color:rgb(15.294118%,34.509804%,65.490196%);stop-opacity:1;"/>
</linearGradient>
</defs>
<g id="surface1">
<path style=" stroke:none;fill-rule:nonzero;fill:rgb(11.764706%,70.588235%,45.098039%);fill-opacity:1;" d="M 45.699219 13.300781 C 47.800781 13.300781 48.898438 14.5 48.898438 16 C 48.898438 17.101562 48.300781 18.101562 47 18.5 L 48.898438 21.800781 L 46.300781 21.800781 L 44.601562 18.699219 L 44.300781 18.699219 L 44.300781 21.800781 L 41.898438 21.800781 L 41.898438 13.300781 Z M 45.5 15.199219 L 44.300781 15.199219 L 44.300781 17 L 45.5 17 C 46.101562 17 46.5 16.699219 46.5 16.101562 C 46.398438 15.601562 46.101562 15.199219 45.5 15.199219 "/>
<path style=" stroke:none;fill-rule:nonzero;fill:rgb(11.764706%,70.588235%,45.098039%);fill-opacity:1;" d="M 55.300781 15.199219 L 52.300781 15.199219 L 52.300781 16.5 L 55 16.5 L 55 18.300781 L 52.300781 18.300781 L 52.300781 19.898438 L 55.300781 19.898438 L 55.300781 21.800781 L 49.898438 21.800781 L 49.898438 13.300781 L 55.300781 13.300781 Z M 55.300781 15.199219 "/>
<path style=" stroke:none;fill-rule:nonzero;fill:rgb(11.764706%,70.588235%,45.098039%);fill-opacity:1;" d="M 58.898438 13.300781 L 58.898438 19.898438 L 61.5 19.898438 L 61.5 21.800781 L 56.5 21.800781 L 56.5 13.300781 Z M 58.898438 13.300781 "/>
<path style=" stroke:none;fill-rule:nonzero;fill:rgb(11.764706%,70.588235%,45.098039%);fill-opacity:1;" d="M 62.398438 13.300781 L 64.800781 13.300781 L 64.800781 21.800781 L 62.398438 21.800781 Z M 62.398438 13.300781 "/>
<path style=" stroke:none;fill-rule:nonzero;fill:rgb(11.764706%,70.588235%,45.098039%);fill-opacity:1;" d="M 71.601562 15.199219 L 68.5 15.199219 L 68.5 16.5 L 71.199219 16.5 L 71.199219 18.300781 L 68.5 18.300781 L 68.5 19.898438 L 71.601562 19.898438 L 71.601562 21.800781 L 66.101562 21.800781 L 66.101562 13.300781 L 71.601562 13.300781 Z M 71.601562 15.199219 "/>
<path style=" stroke:none;fill-rule:nonzero;fill:rgb(11.764706%,70.588235%,45.098039%);fill-opacity:1;" d="M 72.699219 13.300781 L 78.5 13.300781 L 78.5 15.101562 L 75.101562 15.101562 L 75.101562 16.601562 L 77.601562 16.601562 L 77.601562 18.398438 L 75.101562 18.398438 L 75.101562 21.800781 L 72.699219 21.800781 Z M 72.699219 13.300781 "/>
<path style=" stroke:none;fill-rule:nonzero;fill:rgb(15.294118%,34.509804%,65.490196%);fill-opacity:1;" d="M 47.699219 24.199219 L 50.199219 24.199219 L 47.300781 32.699219 L 44.300781 32.699219 L 41.300781 24.199219 L 43.800781 24.199219 L 45.800781 30.300781 Z M 47.699219 24.199219 "/>
<path style=" stroke:none;fill-rule:nonzero;fill:rgb(15.294118%,34.509804%,65.490196%);fill-opacity:1;" d="M 56.300781 31.300781 L 53.300781 31.300781 L 52.800781 32.699219 L 50.300781 32.699219 L 53.398438 24.199219 L 56.101562 24.199219 L 59.199219 32.699219 L 56.699219 32.699219 Z M 54.800781 26.699219 L 53.898438 29.398438 L 55.699219 29.398438 Z M 54.800781 26.699219 "/>
<path style=" stroke:none;fill-rule:nonzero;fill:rgb(15.294118%,34.509804%,65.490196%);fill-opacity:1;" d="M 62.398438 24.199219 L 62.398438 30.898438 L 65 30.898438 L 65 32.699219 L 60 32.699219 L 60 24.199219 Z M 62.398438 24.199219 "/>
<path style=" stroke:none;fill-rule:nonzero;fill:rgb(15.294118%,34.509804%,65.490196%);fill-opacity:1;" d="M 66 24.199219 L 68.398438 24.199219 L 68.398438 32.699219 L 66 32.699219 Z M 66 24.199219 "/>
<path style=" stroke:none;fill-rule:nonzero;fill:rgb(15.294118%,34.509804%,65.490196%);fill-opacity:1;" d="M 77.5 28.398438 C 77.5 30.898438 75.800781 32.699219 73.101562 32.699219 L 69.699219 32.699219 L 69.699219 24.199219 L 73 24.199219 C 75.699219 24.199219 77.5 25.898438 77.5 28.398438 M 72.800781 30.601562 C 74.199219 30.601562 75 29.800781 75 28.398438 C 75 27 74.101562 26.199219 72.800781 26.199219 L 72 26.199219 L 72 30.601562 Z M 72.800781 30.601562 "/>
<path style=" stroke:none;fill-rule:nonzero;fill:rgb(15.294118%,34.509804%,65.490196%);fill-opacity:1;" d="M 83.898438 31.300781 L 80.898438 31.300781 L 80.398438 32.699219 L 77.898438 32.699219 L 81 24.199219 L 83.699219 24.199219 L 86.800781 32.699219 L 84.300781 32.699219 Z M 82.398438 26.699219 L 81.5 29.398438 L 83.300781 29.398438 Z M 82.398438 26.699219 "/>
<path style=" stroke:none;fill-rule:nonzero;fill:rgb(15.294118%,34.509804%,65.490196%);fill-opacity:1;" d="M 87.101562 24.199219 L 94 24.199219 L 94 26.101562 L 91.699219 26.101562 L 91.699219 32.699219 L 89.398438 32.699219 L 89.398438 26.101562 L 87.101562 26.101562 Z M 87.101562 24.199219 "/>
<path style=" stroke:none;fill-rule:nonzero;fill:rgb(15.294118%,34.509804%,65.490196%);fill-opacity:1;" d="M 94.898438 24.199219 L 97.300781 24.199219 L 97.300781 32.699219 L 94.898438 32.699219 Z M 94.898438 24.199219 "/>
<path style=" stroke:none;fill-rule:nonzero;fill:rgb(15.294118%,34.509804%,65.490196%);fill-opacity:1;" d="M 102.699219 32.800781 C 100.300781 32.800781 98.300781 31 98.300781 28.398438 C 98.300781 25.800781 100.300781 24.101562 102.699219 24.101562 C 105.101562 24.101562 107 25.898438 107 28.398438 C 107 30.898438 105.101562 32.800781 102.699219 32.800781 M 102.699219 30.601562 C 103.898438 30.601562 104.699219 29.699219 104.699219 28.398438 C 104.699219 27.101562 104 26.199219 102.699219 26.199219 C 101.5 26.199219 100.699219 27 100.699219 28.398438 C 100.699219 29.699219 101.398438 30.601562 102.699219 30.601562 "/>
<path style=" stroke:none;fill-rule:nonzero;fill:rgb(15.294118%,34.509804%,65.490196%);fill-opacity:1;" d="M 115.898438 24.199219 L 115.898438 32.699219 L 113.601562 32.699219 L 110.398438 27.898438 L 110.398438 32.699219 L 108.101562 32.699219 L 108.101562 24.199219 L 110.398438 24.199219 L 113.601562 29 L 113.601562 24.199219 Z M 115.898438 24.199219 "/>
<g clip-path="url(#clip1)" clip-rule="nonzero">
<g clip-path="url(#clip2)" clip-rule="nonzero">
<path style=" stroke:none;fill-rule:nonzero;fill:url(#linear0);" d="M 7.601562 7.5 L 34.199219 7.5 L 34.199219 34.601562 L 7.601562 34.601562 Z M 7.601562 7.5 "/>
</g>
</g>
<g clip-path="url(#clip3)" clip-rule="nonzero">
<g clip-path="url(#clip4)" clip-rule="nonzero">
<path style=" stroke:none;fill-rule:nonzero;fill:url(#linear1);" d="M -0.398438 2.101562 L 42.101562 2.101562 L 42.101562 41.898438 L -0.398438 41.898438 Z M -0.398438 2.101562 "/>
</g>
</g>
<g clip-path="url(#clip5)" clip-rule="nonzero">
<g clip-path="url(#clip6)" clip-rule="nonzero">
<path style=" stroke:none;fill-rule:nonzero;fill:url(#linear2);" d="M 28.101562 11 L 30.300781 26.199219 L 17 28 L 14.898438 12.800781 Z M 28.101562 11 "/>
</g>
</g>
</g>
</svg>
