<?xml version="1.0" encoding="utf-8"?>
<!-- Generator: Adobe Illustrator 27.0.1, SVG Export Plug-In . SVG Version: 6.00 Build 0)  -->
<svg version="1.1" id="Layer_1" xmlns="http://www.w3.org/2000/svg" xmlns:xlink="http://www.w3.org/1999/xlink" x="0px" y="0px"
	 viewBox="0 0 466.6 127.3" style="enable-background:new 0 0 466.6 127.3;" xml:space="preserve">
<style type="text/css">
	.st0{clip-path:url(#SVGID_00000074408781996018144260000006274841963750816687_);}
	.st1{clip-path:url(#SVGID_00000053546951225008409500000010973351441885773704_);}
	.st2{fill:#FFFFFF;}
	.st3{fill:none;}
	.st4{clip-path:url(#SVGID_00000057121912906831608730000012835640750549839516_);}
	.st5{clip-path:url(#SVGID_00000105407832776731390590000005912969274658455178_);}
</style>
<g>
	<g>
		<g>
			<defs>
				<rect id="SVGID_1_" x="26.2" y="27" width="68.7" height="68.7"/>
			</defs>
			<clipPath id="SVGID_00000026877441583388601020000007307503467475152001_">
				<use xlink:href="#SVGID_1_"  style="overflow:visible;"/>
			</clipPath>
			<g style="clip-path:url(#SVGID_00000026877441583388601020000007307503467475152001_);">
				<g>
					<g>
						<defs>
							<path id="SVGID_00000076589803766431277640000016229901084618038674_" d="M73.5,28.5c0,0.5,0,1,0.2,1.5
								c-2.2,0.2-4.2,0.2-6.4,0.5c0-0.5,0-1-0.2-1.5c-1,0-2,0.2-2.7,0.2c0,0.5,0,1,0.2,1.5c-2.2,0.2-4.4,0.2-6.6,0.5
								c0-0.5,0-1-0.2-1.5c-1,0-2,0.2-2.9,0.2c0,0.5,0,1,0.2,1.5c-2.2,0.2-4.7,0.2-6.9,0.5c0-0.5,0-1-0.2-1.5c-1,0-2,0.2-2.9,0.2
								c0,0.5,0,1,0.2,1.5c-5.6,0.5-11.3,0.7-17.2,1.2c0.7,6.6,1.2,13.2,2,19.9s1.5,13.2,2,19.9c0.7,6.6,1.5,13.2,2,19.9l0.2,2.2
								c2.9-0.2,5.9-0.7,8.3-1.5l-0.7-6.9c-0.5-5.6-1.2-11.3-1.7-16.7c-0.5-5.6-1.2-11-1.7-16.7c-0.5-5.6-1.2-11-1.7-16.7
								c2.9-0.2,5.9-0.5,8.8-0.7c0,0.5,0,1.2,0.2,1.7c1,0,2-0.2,2.9-0.2c0-0.5-0.2-1.2-0.2-1.7c2.2-0.2,4.7-0.2,6.9-0.5
								c0,0.5,0,1.2,0.2,1.7c1,0,2-0.2,2.9-0.2c0-0.5,0-1.2-0.2-1.7c2.2-0.2,4.4-0.2,6.6-0.5c0,0.5,0,1.2,0.2,1.7c1,0,2-0.2,2.7-0.2
								c0-0.5,0-1.2-0.2-1.7c2.2-0.2,4.4-0.2,6.4-0.5c0,0.5,0,1,0.2,1.7c1,0,1.7-0.2,2.7-0.2c0-0.5,0-1-0.2-1.7
								c2.4-0.2,5.1-0.5,7.6-0.5c0.5,5.2,1,10.3,1.7,15.5c0.5,3.4,0.7,7.1,1.2,10.5c2.2-3.4,4.4-7.4,5.9-11v-1.2
								c-0.7-5.9-1.2-11.8-2-17.7c-4.7,0.2-9.6,0.7-14.5,1c0-0.5,0-1-0.2-1.5C75.5,28.5,74.5,28.5,73.5,28.5"/>
						</defs>
						<clipPath id="SVGID_00000152249411734040606840000008971561604363613856_">
							<use xlink:href="#SVGID_00000076589803766431277640000016229901084618038674_"  style="overflow:visible;"/>
						</clipPath>
						<g style="clip-path:url(#SVGID_00000152249411734040606840000008971561604363613856_);">
							<path class="st2" d="M27.7,28.2h65.2v66.5H27.7V28.2z"/>
						</g>
					</g>
				</g>
			</g>
		</g>
	</g>
	<rect x="11.5" y="14.7" class="st3" width="98.1" height="98.1"/>
	<g>
		<g>
			<g>
				<defs>
					<path id="SVGID_00000092433874369663210790000001766731784048612995_" d="M81.1,83.2c2.7-2.7,5.4-5.4,7.8-8.1l0.2,3.4
						c0.5,5.2,1,10.3,1.7,15.4c-3.7,0.7-7.4,1.5-11.3,2.2c-3.7,0.7-7.6,1.5-11.5,2.2c-3.9,0.7-8.1,1.5-12.3,2.4h-0.2
						C64.2,96.9,73.1,90.8,81.1,83.2 M58.3,24.3c14.7-7.6,28.9-8.8,35.8-1.5c6.1,6.4,5.4,17.9-0.7,30.4c-0.2,0.2-0.2,0.5-0.5,1
						c-0.2,0.2-0.2,0.5-0.5,1c-0.2,0.2-0.2,0.5-0.5,1c-0.2,0.2-0.2,0.5-0.5,1c-0.2,0.2-0.2,0.5-0.5,1c-0.2,0.2-0.2,0.5-0.5,1H90
						l-0.5,0.7v0.2c-0.2,0.2-0.5,0.5-0.5,0.7l-0.5,0.7l-0.2,0.2c-0.2,0.2-0.5,0.5-0.7,1C84.1,67.7,79.9,72.4,75,77
						c-10.5,9.8-22.6,16.7-32.9,19.4c-0.2,0-0.5,0.2-0.7,0.2c-0.2,0-0.5,0.2-1,0.2c-0.2,0-0.5,0-0.7,0.2c-0.2,0-0.5,0-1,0.2
						c-8.1,1.5-15,0-19.4-4.4c-7.1-7.4-5.1-21.1,3.4-35.3C11,75.1,8.1,92.7,16.6,101.5c4.4,4.4,11,6.4,18.9,5.6l0.5,5.6
						c5.6-1.2,11.3-2.2,16.7-3.4c5.4-1.2,11-2.2,16.2-3.4c5.2-1,10.1-2.2,15-3.2c4.9-1,9.8-1.9,14.5-2.9c-0.7-5.9-1.2-11.8-1.9-17.7
						l-1.5-14.2c13.2-18.4,17.2-37.3,8.1-46.8c-3.7-3.9-9.1-5.6-15.7-5.6C79.2,15,68.9,18.2,58.3,24.3"/>
				</defs>
				<use xlink:href="#SVGID_00000092433874369663210790000001766731784048612995_"  style="overflow:visible;fill:#FFFFFF;"/>
				<clipPath id="SVGID_00000069367478272103630470000008573448167552879259_">
					<use xlink:href="#SVGID_00000092433874369663210790000001766731784048612995_"  style="overflow:visible;"/>
				</clipPath>
				<g style="clip-path:url(#SVGID_00000069367478272103630470000008573448167552879259_);">
					<path class="st2" d="M8.1,15h104.2v97.6H8.1V15z"/>
				</g>
			</g>
		</g>
	</g>
	<rect x="48.3" y="39.3" class="st3" width="31.9" height="36.8"/>
	<g>
		<g>
			<g>
				<defs>
					<path id="SVGID_00000045582763409950337080000015415271919147667122_" d="M62.8,65.8l-0.2,2c-0.5,0-0.7,0.5-0.7,1
						c0,0.5,0.2,0.7,0.5,1L62,71.2c-0.2,0-0.5,0-0.7,0l-0.7-1.7c0-0.2-0.2-0.2-0.5-0.2c-0.2,0-0.2,0.2-0.2,0.5l0.7,1.7
						c-0.5,0.2-0.7,0.7-0.7,1.2l-3.2,0.5c-0.2,0-0.2,0.2-0.2,0.2c0,0.2,0.2,0.2,0.2,0.2l3.2-0.5c0.2,0.7,1,1.2,2,1.2
						c0.7,0,1.5-0.7,1.5-1.7l6.9-1c0.2,0,0.2-0.2,0.2-0.2c0-0.2-0.2-0.2-0.2-0.2l-6.9,1c-0.2-0.5-0.5-0.7-0.7-1l0.5-1.5h0.2
						c0.2,0.2,0.7,0.2,1,0.2l2.2-0.2c0.2,0,0.2-0.2,0.2-0.2c0-0.2-0.2-0.2-0.2-0.2l-2.2,0.2H64c0.3-0.2,0.3-0.5,0.3-0.7
						c0-0.5-0.3-0.7-0.7-0.7l0.2-2c0-0.2,0-0.2-0.2-0.2C63,65.5,63,65.5,62.8,65.8 M59.1,61.8l-1.5,1.5c-0.5-0.5-1.5-0.2-1.7,0.2
						c-0.2,0.5-0.2,1,0,1.5l-0.7,0.7c-0.2,0-0.2,0.2,0,0.5c0,0.2,0.2,0.2,0.5,0l0.7-0.7c0.2,0.2,0.7,0.2,1.2,0l1,1.5
						c-0.2,0.2-0.2,0.2-0.2,0.5s0,0.5,0.2,0.5l-3.4,3.7c-0.2-0.2-0.7-0.2-1,0c-0.2-0.2-0.2-0.5-0.2-1c0-0.2-0.2-0.2-0.2-0.2
						c-0.2,0-0.2,0.2-0.2,0.2c0,0.5,0,0.7,0.2,1.2c-0.2,0.5-0.2,1,0,1.5c0.5,0.7,1.7,0.5,2-0.2c0.2-0.5,0.2-1,0-1.2l3.4-3.7
						c0.2,0.2,0.7,0,1-0.2c0.5-0.5,0.5-1,0-1.5c-0.2-0.2-0.7-0.2-1-0.2l-1-1.5c0.5-0.5,0.5-1,0.2-1.5l1.5-1.5c0.2,0,0.2-0.2,0-0.5
						C59.6,61.8,59.3,61.8,59.1,61.8C59.3,61.8,59.1,61.8,59.1,61.8 M51.7,59.6c-0.2,0-0.2,0.2-0.2,0.2l1,6.4
						c-0.7,0.2-1.5,1.2-1.2,2c0.2,1,1,1.7,2.2,1.5c1,0,1.5-0.7,1.5-1.7l2.2-0.2c0.2,0,0.2-0.2,0.2-0.2c0-0.2-0.2-0.2-0.2-0.2
						l-2.2,0.2c-0.2-0.7-1-1.5-1.7-1.5l-1-6.4C52,59.9,52,59.6,51.7,59.6 M76.2,56.7c-0.2,0-0.2,0.2-0.2,0.2l0.5,3.7
						c-0.5,0.2-0.7,0.7-0.7,1.2s0.5,1,1.2,1l0.7,4.9C77.7,68,78,68,78,68c0.2,0,0.2-0.2,0.2-0.2l-0.7-4.9c0.5-0.2,0.7-0.7,0.7-1.2
						c0-0.5-0.5-1-1.2-1l-0.5-3.7C76.7,56.7,76.5,56.7,76.2,56.7C76.5,56.7,76.2,56.7,76.2,56.7 M68.2,52.3c-1,0.2-1.5,1-1.5,1.7
						l-6.1,0.7c-0.2-0.5-0.7-0.7-1.2-0.7s-1,0.5-1,1l-4.7,0.7h-0.2c-0.5-0.5-1-0.7-1.5-0.5c-1,0.2-1.7,1-1.5,2
						c0.2,1.2,1.5,2,2.5,1.5l2.5,3.9c0,0.2,0.2,0.2,0.5,0c0.2,0,0.2-0.2,0-0.5l-2.5-3.9c0.5-0.5,0.7-1.2,0.5-2l4.7-0.7
						c0.2,0.5,0.7,0.7,1,0.7l0.5,1.5c0,0.2,0.2,0.2,0.5,0.2s0.2-0.2,0.2-0.5l-0.5-1.5c0.2-0.2,0.5-0.5,0.5-0.7l6.1-1
						c0.2,0.5,0.7,1,1.2,1.2l-0.2,2c0,0.2,0,0.2,0.2,0.2c0.2,0,0.2,0,0.2-0.2l0.2-1.5c1,0,2-1,1.7-2c-0.2-1-1-1.5-1.7-1.5
						C68.4,52.3,68.4,52.3,68.2,52.3 M75,51.8c-0.7,0-1.2,0.5-1.7,1.2l-2.2,0.2c-0.2,0-0.2,0.2-0.2,0.2c0,0.2,0.2,0.2,0.2,0.2
						l1.7-0.2c0,1,0.5,1.7,1.2,2.2l-2,7.6c-0.7,0-1.2,0.2-1.5,1l-3.7-1c0-0.2,0-0.5-0.2-0.5c0.2-0.2,0.5-0.7,0.5-1.2
						c0.5,0,1-0.2,1.2-0.7c0.2-0.5,0.2-1,0-1.5l3.9-3.2c0.2,0,0.2-0.2,0-0.5c-0.2-0.2-0.2-0.2-0.5,0l-2.9,3.2
						c-0.2-0.2-0.5-0.2-0.7-0.2c-0.2,0-0.5,0-0.7,0c-0.2-0.2-0.5-0.5-0.7-0.7c-0.5-0.2-1-0.5-1.5-0.7c0,0,0,0,0-0.2l1.2-1
						c0.2,0,0.2-0.2,0-0.5c0-0.2-0.2-0.2-0.5,0l-1.2,1c-0.2-0.2-1-0.2-1.2,0c-0.5,0.2-0.7,0.7-0.7,1c-0.2,0.2-0.5,0.2-0.7,0.5
						c-0.2,0.2-0.5,0.5-0.7,0.7c-0.2,0-0.5,0-0.7,0s-0.5,0.2-0.7,0.5l-4.9-1.7c-0.2,0-0.2,0-0.5,0.2c0,0.2,0,0.2,0.2,0.5l4.9,1.7
						c0,0.5,0,0.7,0.2,1c0.2,0.2,0.5,0.5,1,0.5c0.2,0.5,0.2,0.7,0.7,1.2c0.2,0.2,0.5,0.5,0.7,0.7c0,0.2,0,0.5,0,0.5L60.5,66
						c0,0-0.2,0.2,0,0.5c0,0,0.2,0.2,0.5,0l2-2c0.2,0,0.2,0,0.5,0c0.5,0,1-0.5,0.7-1c0-0.5-0.5-1-1-0.7c-0.2,0-0.5,0-0.5,0.2
						c-0.2-0.2-0.5-0.2-0.5-0.5c-0.2-0.2-0.2-0.5-0.5-0.7c0.7-0.2,1-1,1-1.7c0-0.5-0.2-0.7-0.7-1c0.2-0.2,0.2-0.2,0.5-0.5
						c0.2-0.2,0.2-0.2,0.5-0.5c0.2,0.2,0.7,0.5,1.2,0.5c0.5,0,0.7-0.5,1-0.7c0.5,0,0.7,0.2,1,0.5c0.2,0.2,0.5,0.5,0.5,0.7
						c-0.2,0.2-0.5,0.7-0.5,1.2c0,0.5,0.5,1,1,1.2c0,0.2-0.2,0.5-0.5,0.7c-0.5-0.2-1-0.2-1.2,0c-0.5,0.5-0.7,1.2-0.2,1.7
						c0.2,0.2,0.5,0.5,1,0.5l1,2.9c-0.2,0.2-0.5,0.7,0,1.2c0.2,0.2,0.7,0.5,1.2,0.2l2.9,2.2c-0.2,0.5,0,1,0.2,1.2
						c0.5,0.5,1,0.5,1.5,0.2c0.2-0.2,0.5-0.5,0.5-0.7l2.2-0.2c0.5,0,0.7-0.2,1.2-0.5c0.2,0.2,0.7,0,1-0.2c0.5-0.5,0.5-1,0-1.5
						c-0.2-0.2-0.7-0.2-1-0.2l-2.4-2.4c-0.2,0-0.2,0-0.5,0c0,0.2,0,0.2,0,0.5l2.4,2.2c-0.2,0.2-0.2,0.5,0,1c-0.2,0.2-0.5,0.2-1,0.2
						l-2.2,0.2c-0.2-0.2-0.5-0.5-0.7-0.7c-0.5,0-0.7,0-1,0.2l-2.9-2.2c0-0.2,0-0.5-0.2-0.7c-0.2-0.2-0.5-0.2-0.7-0.2l-1-2.9
						c0.2,0,0.2-0.2,0.2-0.5l3.7,1c0,0.2,0,0.5,0.2,0.7l-1.7,1.2c-0.2,0-0.2,0.2,0,0.5c0,0.2,0.2,0.2,0.5,0l1.7-1.2
						c0.2,0.2,0.5,0.2,0.7,0.5V69c0,0.2,0.2,0.2,0.2,0.2c0.2,0,0.2-0.2,0.2-0.2v-2.4c0.5,0,1-0.5,1.2-1c0.2-0.5,0.2-1,0-1.2l1.2-1
						c0.2,0,0.2-0.2,0-0.5c0-0.2-0.2-0.2-0.5,0l-1,1c0,0-0.2-0.2-0.5-0.2l1.9-7.6c1.2,0.2,2.4-1,2.2-2.5c-0.2-1-1-1.7-2-1.7
						C75.3,51.8,75.3,51.8,75,51.8 M61.5,40.7c-4.7,0.7-8.3,4.9-7.8,9.8l0.3,2.4c0,0.5,0.5,0.7,1,0.7c0.5,0,0.7-0.5,0.7-1l-0.3-2.5
						c-0.5-3.9,2.5-7.4,6.4-7.8c3.2-0.5,6.4,1,7.6,3.9c0,0.2,0.5,0.5,0.7,0.5c0.2,0,0.7,0,0.7-0.5c0.2-0.2,0.2-0.7,0-1
						c-1.5-3.2-4.7-5.2-8.1-5.2C62.5,40.7,62,40.7,61.5,40.7"/>
				</defs>
				<use xlink:href="#SVGID_00000045582763409950337080000015415271919147667122_"  style="overflow:visible;fill:#FFFFFF;"/>
				<clipPath id="SVGID_00000064349577057052813350000000956333098135826576_">
					<use xlink:href="#SVGID_00000045582763409950337080000015415271919147667122_"  style="overflow:visible;"/>
				</clipPath>
				<g style="clip-path:url(#SVGID_00000064349577057052813350000000956333098135826576_);">
					<path class="st2" d="M78,36.8l5.4,37.3l-32.6,4.4l-5.2-37.3L78,36.8z"/>
				</g>
			</g>
		</g>
	</g>
	<g>
		<g>
			<g>
				<g>
					<path class="st2" d="M372.7,111.9H414c0.3,0,0.6,0.2,0.6,0.6v1.6c0,0.3-0.2,0.6-0.6,0.6h-41.2c-0.3,0-0.6-0.2-0.6-0.6v-1.6
						C372.2,112.2,372.4,111.9,372.7,111.9z"/>
					<path class="st2" d="M372.7,99.4h1.7v7.9c0,2.2,1.8,3.7,4.3,3.7c0.5,0,1.1-0.1,1.5-0.2c0.1,0,0.3-0.1,0.4-0.3s0.1-0.3,0.1-0.4
						l-0.4-1.3c-0.1-0.3-0.3-0.4-0.6-0.4c-0.3,0-0.5,0.1-0.7,0.1c-1.2,0-1.7-0.5-1.7-1.7v-7.3h2.6c0.3,0,0.6-0.3,0.6-0.6v-1.2
						c0-0.3-0.3-0.6-0.6-0.6h-2.6v-2.6c0-0.3-0.3-0.6-0.6-0.6H375c-0.3,0-0.6,0.3-0.6,0.6v2.6h-1.7c-0.3,0-0.6,0.3-0.6,0.6v1.2
						C372.2,99.2,372.4,99.4,372.7,99.4L372.7,99.4z"/>
					<path class="st2" d="M383.4,95.5c1.1,0,1.9-0.7,1.9-1.7s-0.9-1.7-1.9-1.7c-1.1,0-1.9,0.7-1.9,1.7S382.3,95.5,383.4,95.5z"/>
					<path class="st2" d="M382.5,97.1h1.7c0.3,0,0.6,0.2,0.6,0.6v12.5c0,0.3-0.2,0.6-0.6,0.6h-1.7c-0.3,0-0.6-0.2-0.6-0.6V97.7
						C381.9,97.4,382.2,97.1,382.5,97.1z"/>
					<path class="st2" d="M388.9,110.2c1,0.6,2.3,0.9,3.7,0.9c2.2,0,4-0.8,5.1-2.1c0.5-0.6,0.8-1.2,0.9-1.9c0-0.2,0-0.3-0.1-0.5
						c-0.1-0.1-0.3-0.2-0.4-0.2h-1.8c-0.2,0-0.5,0.2-0.5,0.4c-0.4,1.2-1.6,1.9-3.2,1.9s-2.9-0.8-3.6-2.2c-0.3-0.7-0.5-1.6-0.5-2.5
						c0-1.8,0.7-3.3,2-4.1c0.6-0.4,1.3-0.6,2.2-0.6c1.1,0,2.1,0.4,2.7,1.1c0.2,0.3,0.4,0.6,0.5,0.9c0.1,0.2,0.3,0.4,0.5,0.4h1.8
						c0.2,0,0.3-0.1,0.4-0.2c0.1-0.1,0.1-0.3,0.1-0.5c-0.4-1.6-1.5-2.8-3.2-3.5c-0.9-0.3-1.9-0.5-2.9-0.5c-2.7,0-4.9,1.2-6.1,3.4
						c-0.6,1.1-0.9,2.3-0.9,3.7C385.6,106.8,386.8,108.9,388.9,110.2L388.9,110.2z"/>
					<path class="st2" d="M400.1,110.8h1.7c0.3,0,0.6-0.3,0.6-0.6v-4.5l1.3-1.1l5.3,5.9c0.1,0.1,0.3,0.2,0.4,0.2h2.2
						c0.2,0,0.4-0.1,0.5-0.3s0.1-0.4-0.1-0.6l-6.1-6.8l5.5-4.9c0.2-0.2,0.2-0.4,0.1-0.6s-0.3-0.4-0.5-0.4h-2c-0.1,0-0.3,0.1-0.4,0.1
						l-6.2,5.6v-9.5c0-0.3-0.3-0.6-0.6-0.6h-1.7c-0.3,0-0.6,0.3-0.6,0.6v16.9C399.5,110.5,399.8,110.8,400.1,110.8L400.1,110.8z"/>
				</g>
				<path class="st2" d="M454.4,97h-27.6c0-0.1,0-0.3,0-0.4c0-0.2,0-0.3,0.1-0.4c0.2-0.3,0.4-0.6,0.8-0.8c0.4-0.2,0.8-0.4,1.2-0.5
					c0.3-0.1,0.5-0.1,0.6-0.1c0.3-0.1,0.6-0.3,0.6-0.6c0.3,0.1,0.5,0.2,0.8,0.3c0.4,0.2,0.8,0,0.9-0.4l0.7-1.5
					c0.2-0.4,0-0.8-0.4-0.9c-4-1.8-7.3-2.7-9.9-2.7c-1.7,0-3.1,0.4-4.2,1.1c-0.7,0.5-1.3,1.1-1.6,1.8c-0.4,0.6-0.6,1.2-0.7,1.8
					c-0.1,0.5-0.1,0.9-0.1,1.2v2.3c-0.2-0.1-0.4-0.1-0.6-0.1h-0.3c-0.4,0-0.7,0.3-0.7,0.7v1.6c0,0.4,0.3,0.7,0.7,0.7h0.3
					c0.3,0,0.3,0.1,0.4,0.2c0.1,0.2,0.2,0.5,0.2,0.8c0,0.3,0,0.6,0,0.8V114c0,0.4,0.3,0.7,0.7,0.7h1.6c0.4,0,0.7-0.3,0.7-0.7v-14h6
					c0.2,0.8,0.3,1.6,0.3,2.2c0,1.6-0.5,2.7-1.5,3.3c-0.5,0.3-1.1,0.5-1.6,0.6c-0.1,0-0.5,0-1.2,0.1c-0.2,0-0.4,0.1-0.5,0.3
					s-0.2,0.4-0.2,0.6l0.4,2.7c0.3,1.5,1.2,2.7,2.9,3.5c1.5,0.8,3.1,1.3,4.6,1.4h0.4c1.9,0,3.4-0.5,4.4-1.4c0.9-0.9,1.3-2,1.3-3.3
					c0-1.1-0.2-2.2-0.7-3.3c-0.5-1.1-1.1-2.3-1.8-3.3c-0.7-1.1-1.5-2.1-2.3-3l-0.2-0.2h17.4v0.7c-4.4,0.2-7.6,1.6-9.6,4
					c-1.4,1.8-2.1,3.8-2.1,6c0,0.9,0.1,1.3,0.1,1.4l0.1,0.7c0.1,0.4,0.4,0.6,0.8,0.6l0.8-0.1c1.1-0.1,2.1-0.2,3.1-0.2
					c1.5,0,2.8,0.1,4,0.3c1.2,0.2,2.1,0.4,2.8,0.6c0.8,0.2,1,0.3,1,0.3l1.1,0.4c0.2,0.1,0.5,0,0.6-0.1s0.3-0.3,0.3-0.6v-10
					c0.7,0.2,1.2,0.5,1.6,0.9c0.2,0.2,0.3,0.6,0.3,1v0.2c-0.3,0.1-0.4,0.3-0.4,0.6v2.8c0,0.4,0.3,0.7,0.7,0.7h2.1
					c0.4,0,0.7-0.3,0.7-0.7v-3.6c0-2-1-3.5-3-4.4c-0.7-0.3-1.4-0.5-2-0.6V100h5.3c0.4,0,0.7-0.3,0.7-0.7v-1.6
					C455.1,97.3,454.8,97,454.4,97L454.4,97z M446,103.7v7c-2.1-0.5-4.4-0.7-6.8-0.7c-0.6,0-1.2,0-1.8,0.1c0.1-1.3,0.5-2.5,1.4-3.5
					C440.2,104.9,442.7,104,446,103.7L446,103.7z M427.7,103.7c0.8,1.1,1.5,2.1,2,3.1c0.6,1.2,0.9,2.3,0.9,3.1
					c0,0.9-0.3,1.3-1.1,1.6c-0.5,0.1-1.1,0.2-1.6,0.2c-1.1,0-2.3-0.3-3.3-0.9c-1.1-0.6-1.4-1.1-1.5-1.3l-0.1-0.4
					c1.4-0.4,2.5-1.2,3.4-2.4C427.1,105.8,427.5,104.8,427.7,103.7L427.7,103.7z M423.7,97h-5.2v-2.2c0-0.1,0-0.4,0.2-1
					c0.1-0.4,0.4-0.8,1-1.2c0.2-0.2,0.5-0.3,0.9-0.4c0.4-0.1,0.9-0.2,1.6-0.2c0.9,0,2.1,0.2,3.5,0.6c0.2,0.1,0.4,0.1,0.5,0.1
					c-0.1,0.1-0.3,0.2-0.4,0.2c-0.8,0.5-1.4,1.2-1.8,2.1v0c-0.2,0.5-0.3,1.1-0.3,1.7C423.7,96.8,423.7,96.9,423.7,97L423.7,97z"/>
			</g>
			<g>
				<g>
					<path class="st2" d="M440.9,70.2c0-2.2,0-4.4,0-6.6v-6.8c0-9.2,0-18.5,0-27.7c0-0.7-0.2-1.3-0.7-1.8
						c-4.6-4.6-9.2-9.1-13.7-13.7c-0.5-0.5-1.1-0.8-1.9-0.8c-9.9,0-19.8,0-29.7,0c-1.2,0-2.5-0.1-3.7,0.1c-0.5,0.1-1,0.2-1.4,0.4
						c-1.3,0.5-2.3,1.3-3.1,2.5c-0.3,0.4-0.5,0.8-0.7,1.3c-0.4,1.1-0.5,2.2-0.5,3.3c0,4.7,0,9.3,0,14v8.2c0.6-0.1,1.2-0.2,1.9-0.2
						h0.6c0.7,0,1.4,0.1,2,0.2c0-7.4,0-16,0-23.3c0-0.6,0.2-1.1,0.6-1.5c0.5-0.5,1.2-0.8,1.9-0.8h27.8c0,0.1,0,0.2,0,0.2
						c0,1.6,0,3.2,0,4.8c0,1.6-0.1,3.2,0.1,4.8c0.1,0.6,0.2,1.3,0.4,1.9c0.2,0.6,0.4,1.2,0.8,1.6c0.4,0.4,0.6,1,1.2,1.3
						c0.4,0.6,1.1,0.8,1.6,1.1c0.5,0.2,1,0.5,1.5,0.5c1,0,2,0.2,3,0.2c1.8,0,3.6,0,5.4,0h2.2v46.3c0,0.2,0.1,0.4,0,0.6
						c-0.3,1.1-1.3,2-2.5,2c-10,0-20,0-30,0h-1.9c-0.9,2.5-3.4,4.3-6.2,4.3h38.8c0-0.2,0.2-0.1,0.3-0.1c0.3,0,1.6-0.3,1.8-0.5
						c0.5-0.3,1.1-0.6,1.5-1.1c0.6-0.2,0.8-0.9,1.3-1.3c0.2-0.6,0.7-1.1,0.8-1.8c0-0.3,0.2-0.6,0.2-1c0-0.3,0.1-0.7,0.1-1
						C440.9,76.8,440.9,73.5,440.9,70.2L440.9,70.2z M435,29c-2.7,0-5.4,0-8.1,0c-0.6,0-1.1-0.2-1.5-0.6c-0.3-0.3-0.5-0.7-0.7-1.1
						V18c3.7,3.7,7.3,7.3,11,11L435,29L435,29z"/>
					<g>
						<path class="st2" d="M415.5,40.7c-3.8,0-7.6,0-11.5,0c-1.2,0-1.6,0.4-2.1,1.2c-0.4,0.6-0.3,1.7,0.2,2.2c0.5,0.6,1.2,1,2,1
							c7.6,0,15.2,0,22.8,0c0.9,0,1.6-0.4,2-1.2c0.2-0.3,0.2-0.6,0.3-1c0-0.3-0.1-0.6-0.2-0.9c-0.1-0.3-0.3-0.5-0.6-0.8
							c-0.4-0.4-0.9-0.5-1.4-0.5C423.2,40.7,419.4,40.7,415.5,40.7L415.5,40.7z"/>
						<path class="st2" d="M403.5,54.3c4.8,0,9.6,0,14.4,0c0.5,0,0.9-0.2,1.3-0.5c0.4-0.3,0.8-0.6,0.7-1.2c0.4-0.5,0-0.9-0.1-1.3
							c-0.1-0.5-0.5-0.8-0.9-1c-0.3-0.2-0.7-0.3-1.2-0.3c-4.6,0-9.2,0-13.9,0c-1.3,0-2.3,1.2-2.2,2.3c0.1,0.7,0.5,1.3,1.1,1.7
							C403.1,54.1,403.3,54.2,403.5,54.3L403.5,54.3z"/>
						<path class="st2" d="M420,62.1c-0.1,0.3-0.3,0.7-0.6,1c-0.4,0.3-0.9,0.5-1.5,0.5c-4.9,0-9.7,0-14.6,0c-0.1,0-0.1-0.1-0.2-0.1
							c-0.2-0.1-0.4-0.2-0.5-0.3c0-0.9-0.2-1.8-0.6-2.6c0.6-0.9,1.1-1.3,2.2-1.3c4.5,0,9,0,13.6,0c0.4,0,1.1,0.2,1.4,0.4
							c0.4,0.2,0.6,0.6,0.8,1C420.2,61.2,420.2,61.5,420,62.1L420,62.1z"/>
					</g>
				</g>
				<path class="st2" d="M432.9,77.1c-0.7,0-1.5-0.5-2.6-1.6l-0.6-0.6c-1.9-1.8-3.8-3.8-5.7-5.7c-1-1-1.7-2.7-0.4-4
					c0.5-0.5,1.1-0.8,1.7-0.8c0.7,0,1.5,0.4,2.3,1.1c0.6,0.6,1.3,1.3,2,2.1c0.4,0.4,0.8,0.9,1.3,1.4l1.9,2l1.9-2
					c0.9-0.9,1.8-1.9,2.7-2.8c2-2,3.8-4,5.7-5.8c1-1,7.6-7.9,9.2-7.9c0.6,0,1.1,0.2,1.5,0.7c0.5,0.5,0.8,1,0.8,1.6
					c0,0.9-0.5,1.9-1.5,2.9c-4,4-14.1,14.1-17.6,17.6C434.9,76.2,433.8,77,432.9,77.1L432.9,77.1z"/>
				<g>
					<path class="st2" d="M402.6,63.1c0-0.9-0.2-1.8-0.6-2.6c-0.9-1.9-2.7-3.3-4.8-3.7v-4.9c0-4.5-3.1-8.2-7.3-9.1
						c-0.6-0.2-1.3-0.2-2-0.2h-0.6c-0.6,0-1.3,0.1-1.9,0.2c-4.2,0.9-7.5,4.6-7.5,9.1v4.9c-3.1,0.6-5.4,3.3-5.4,6.5v16.8
						c0,3.7,3,6.7,6.6,6.7H396c2.9,0,5.3-1.8,6.2-4.3c0.3-0.7,0.4-1.5,0.4-2.3V63.3C402.6,63.2,402.6,63.2,402.6,63.1L402.6,63.1z
						 M382.6,51.9c0-2.6,2.1-4.7,4.7-4.7h0.6c2.6,0,4.7,2.1,4.7,4.7v4.8h-10L382.6,51.9L382.6,51.9z M398,80.1c0,1.1-0.9,2-2,2
						h-16.8c-1.1,0-2-0.9-2-2V63.3c0-1.1,0.9-2,2-2H396c1.1,0,2,0.9,2,2V80.1z"/>
					<path class="st2" d="M387.6,65.1c-1.3,0-2.3,1-2.3,2.3v7.3c0,1.3,1,2.3,2.3,2.3c1.3,0,2.3-1,2.3-2.3v-7.3
						C389.9,66.1,388.9,65.1,387.6,65.1z"/>
				</g>
			</g>
		</g>
		<path class="st2" d="M121.1,42.5c5.2,0,7.8,2.9,7.8,6.6c0,2.7-1.5,5.2-4.7,6.1l4.7,8.1h-6.4l-4.2-7.6h-0.7v7.6h-5.9V42.5H121.1z
			 M120.6,47.1h-2.9v4.4h2.9c1.5,0,2.4-0.7,2.4-2.2C122.8,48.1,122.1,47.1,120.6,47.1"/>
		<path class="st2" d="M144.7,47.1h-7.4v3.2h6.6v4.4h-6.6v3.9h7.4v4.7h-13.2V42.5h13.2V47.1z"/>
		<path class="st2" d="M153.5,42.5v16.2h6.4v4.7h-12.3V42.5H153.5z"/>
		<path class="st2" d="M162.1,42.5h5.9v20.8h-5.9V42.5z"/>
		<path class="st2" d="M184.6,47.1H177v3.2h6.6v4.4H177v3.9h7.6v4.7h-13.5V42.5h13.5V47.1z"/>
		<path class="st2" d="M187.3,42.5h14.2v4.4h-8.3v3.7h6.1V55h-6.1v8.3h-5.9V42.5z"/>
		<path class="st2" d="M126,69.2h6.1L125,90h-7.4l-7.4-20.8h6.1l4.9,15L126,69.2z"/>
		<path class="st2" d="M147.1,86.6h-7.4l-1.2,3.4h-6.1l7.6-20.8h6.6l7.6,20.8h-6.1L147.1,86.6z M143.4,75.3l-2.2,6.6h4.4L143.4,75.3
			z"/>
		<path class="st2" d="M162.1,69.2v16.4h6.4V90h-12.3V69.2H162.1z"/>
		<path class="st2" d="M170.9,69.2h5.9V90h-5.9V69.2z"/>
		<path class="st2" d="M199.1,79.5c0,6.1-4.2,10.6-10.8,10.6H180V69.2h8.1C194.7,69.2,199.1,73.3,199.1,79.5 M187.6,84.9
			c3.4,0,5.4-2,5.4-5.4c0-3.4-2.2-5.4-5.4-5.4h-2v10.8L187.6,84.9L187.6,84.9z"/>
		<path class="st2" d="M214.8,86.6h-7.4l-1.2,3.4h-6.1l7.6-20.8h6.6l7.6,20.8h-6.1L214.8,86.6z M211.1,75.3l-2.2,6.6h4.4L211.1,75.3
			z"/>
		<path class="st2" d="M222.6,69.2h16.9v4.7h-5.6V90h-5.6V73.8h-5.6L222.6,69.2L222.6,69.2z"/>
		<path class="st2" d="M241.8,69.2h5.9V90h-5.9V69.2z"/>
		<path class="st2" d="M260.9,90.3c-5.9,0-10.8-4.4-10.8-10.8c0-6.4,4.9-10.5,10.8-10.5s10.5,4.4,10.5,10.5S266.8,90.3,260.9,90.3
			 M260.9,84.9c2.9,0,4.9-2.2,4.9-5.4c0-3.2-1.7-5.4-4.9-5.4c-2.9,0-4.9,2-4.9,5.4C256,82.7,257.7,84.9,260.9,84.9"/>
		<path class="st2" d="M293.3,69.2V90h-5.6l-7.9-11.8V90h-5.6V69.2h5.6l7.9,11.8V69.2H293.3z"/>
		<rect x="330.4" y="12.5" class="st2" width="4.6" height="102.2"/>
	</g>
</g>
</svg>
